<svg width="558" height="354" viewBox="0 0 558 354" fill="none" xmlns="http://www.w3.org/2000/svg">
<path d="M394.753 143.468H269.772V151.708H394.753V143.468Z" fill="#626FF0"/>
<path d="M394.753 194.284H269.772V202.525H394.753V194.284Z" fill="#626FF0"/>
<path d="M381.019 169.563H269.772V177.804H381.019V169.563Z" fill="#626FF0"/>
<path d="M381.019 220.379H269.772V228.619H381.019V220.379Z" fill="#626FF0"/>
<path d="M357.671 117.373H269.772V125.614H357.671V117.373Z" fill="#FF8C05"/>
<path d="M78.8541 116.852C76.1371 117.987 73.9647 120.175 72.8399 122.908L74.2271 123.479C73.7591 124.616 73.5 125.865 73.5 127.178V130.291H72V136.519H73.5V142.747H72V148.975H73.5V155.203H72V161.431H73.5V167.659H72V173.887H73.5V180.115H72V186.343H73.5V192.571H72V198.799H73.5V205.026H72V211.254H73.5V217.482H72V223.71H73.5V226.824C73.5 228.137 73.7591 229.385 74.2271 230.522L72.84 231.093C73.9648 233.826 76.1373 236.013 78.8543 237.148L79.4325 235.764C80.5663 236.238 81.8109 236.5 83.1201 236.5H86.0193V238H91.8178V236.5H97.6162V238H103.415V236.5H109.213V238H115.012V236.5H120.81V238H126.609V236.5H132.407V238H138.205V236.5H144.004V238H149.802V236.5H155.601V238H161.399V236.5H167.198V238H172.996V236.5H178.795V238H184.593V236.5H190.392V238H196.19V236.5H201.988V238H207.787V236.5H213.585V238H219.384V236.5H225.182V238H230.981V236.5H233.88C235.189 236.5 236.434 236.238 237.568 235.764L238.146 237.148C240.863 236.013 243.036 233.827 244.16 231.093L242.773 230.522C243.241 229.385 243.5 228.137 243.5 226.824V223.71H245V217.482H243.5V211.254H245V205.026H243.5V198.799H245V192.571H243.5V186.343H245V180.115H243.5V173.887H245V167.659H243.5V161.431H245V155.203H243.5V148.975H245V142.747H243.5V136.519H245V130.291H243.5V127.178C243.5 125.864 243.241 124.616 242.773 123.479L244.16 122.908C243.036 120.175 240.863 117.987 238.146 116.852L237.568 118.236C236.434 117.762 235.189 117.5 233.88 117.5H230.981V116H225.182V117.5H219.384V116H213.585V117.5H207.787V116H201.988V117.5H196.19V116H190.392V117.5H184.593V116H178.795V117.5H172.996V116H167.198V117.5H161.399V116H155.601V117.5H149.802V116H144.004V117.5H138.205V116H132.407V117.5H126.609V116H120.81V117.5H115.012V116H109.213V117.5H103.415V116H97.6162V117.5H91.8178V116H86.0193V117.5H83.1201C81.8109 117.5 80.5663 117.762 79.4325 118.236L78.8541 116.852Z" stroke="#626FF0" stroke-width="3" stroke-dasharray="6 6"/>
<path d="M305.651 275H214.345C209.185 275 205 279.222 205 284.431V323.566C205 328.775 209.185 333 214.345 333H305.651C310.815 333 315 328.775 315 323.566V284.431C315 279.222 310.815 275 305.651 275Z" fill="#626FF0"/>
<path d="M436.655 275H345.349C340.185 275 336 279.222 336 284.431V323.566C336 328.775 340.185 333 345.349 333H436.655C441.815 333 446 328.775 446 323.566V284.431C446 279.222 441.815 275 436.655 275Z" fill="#626FF0"/>
<path d="M514 94H2.5V64.5L5 55.5C10.2697 51.2414 13 50.0114 17.5 49.5H480H502.5L514 58V94Z" fill="#FF8C05"/>
<path d="M466.43 76.4102H394.5C393.12 76.4102 392 75.2902 392 73.9102C392 72.5302 393.12 71.4102 394.5 71.4102H466.43C467.81 71.4102 468.93 72.5302 468.93 73.9102C468.93 75.2902 467.82 76.4102 466.43 76.4102Z" fill="#1C0A4D"/>
<path d="M34.87 77.74C37.0073 77.74 38.74 76.0073 38.74 73.87C38.74 71.7327 37.0073 70 34.87 70C32.7327 70 31 71.7327 31 73.87C31 76.0073 32.7327 77.74 34.87 77.74Z" fill="#1C0A4D"/>
<path d="M47.85 77.74C49.9873 77.74 51.72 76.0073 51.72 73.87C51.72 71.7327 49.9873 70 47.85 70C45.7126 70 43.98 71.7327 43.98 73.87C43.98 76.0073 45.7126 77.74 47.85 77.74Z" fill="#1C0A4D"/>
<path d="M60.83 77.74C62.9673 77.74 64.7 76.0073 64.7 73.87C64.7 71.7327 62.9673 70 60.83 70C58.6926 70 56.96 71.7327 56.96 73.87C56.96 76.0073 58.6926 77.74 60.83 77.74Z" fill="#1C0A4D"/>
<path d="M517 93H0V96H517V93Z" fill="#FF8C05"/>
<rect x="1.5" y="48.5" width="514" height="304" rx="18.5" stroke="#FF8C05" stroke-width="3"/>

<path d="M175.567 275H83.4321C78.2229 275 74 279.222 74 284.431V323.566C74 328.775 78.2229 333 83.4321 333H175.567C180.777 333 185 328.775 185 323.566V284.431C185 279.222 180.777 275 175.567 275Z" fill="#626FF0"/>
<path d="M146.344 153.825H146.369V153.8V152.938C146.369 149.321 147.59 146.266 150.032 143.769C152.474 141.273 155.463 140.025 159 140.025C162.537 140.025 165.526 141.273 167.968 143.769C170.41 146.266 171.631 149.321 171.631 152.938V153.8V153.825H171.656H180.938C182.28 153.825 183.455 154.339 184.463 155.37C185.472 156.401 185.975 157.602 185.975 158.975V203.825C185.975 205.198 185.472 206.399 184.463 207.43C183.455 208.461 182.28 208.975 180.938 208.975H137.062C135.72 208.975 134.545 208.461 133.537 207.43C132.528 206.399 132.025 205.198 132.025 203.825V158.975C132.025 157.602 132.528 156.401 133.537 155.37C134.545 154.339 135.72 153.825 137.062 153.825H146.344ZM137.037 203.825V203.85H137.062H180.938H180.963V203.825V158.975V158.95H180.938H171.656H171.631V158.975V166.737C171.631 167.464 171.39 168.073 170.906 168.564C170.423 169.055 169.825 169.3 169.11 169.3C168.395 169.3 167.802 169.055 167.329 168.564C166.856 168.073 166.619 167.465 166.619 166.737V158.975V158.95H166.594H151.406H151.381V158.975V166.737C151.381 167.464 151.14 168.073 150.656 168.564C150.173 169.055 149.575 169.3 148.86 169.3C148.145 169.3 147.552 169.055 147.079 168.564C146.606 168.073 146.369 167.465 146.369 166.737V158.975V158.95H146.344H137.062H137.037V158.975V203.825ZM151.381 153.8V153.825H151.406H166.594H166.619V153.8V152.938C166.619 150.746 165.885 148.9 164.418 147.4C162.951 145.9 161.144 145.15 159 145.15C156.856 145.15 155.049 145.9 153.582 147.4C152.115 148.9 151.381 150.746 151.381 152.938V153.8Z" fill="#FF8C05" stroke="#1C0A4D" stroke-width="0.05"/>
<defs>
<linearGradient id="paint0_linear_508_536" x1="470.57" y1="22.3657" x2="521.381" y2="73.6223" gradientUnits="userSpaceOnUse">
<stop offset="0.00520833" stop-color="#FF8C05"/>
<stop offset="0.739583" stop-color="#CE2726"/>
</linearGradient>
</defs>
</svg>
