<svg width="517" height="307" viewBox="0 0 517 307" fill="none" xmlns="http://www.w3.org/2000/svg">
<path d="M394.753 96.4683H269.772V104.709H394.753V96.4683Z" fill="#626FF0"/>
<path d="M394.753 147.285H269.772V155.525H394.753V147.285Z" fill="#626FF0"/>
<path d="M381.019 122.564H269.772V130.804H381.019V122.564Z" fill="#626FF0"/>
<path d="M381.019 173.379H269.772V181.62H381.019V173.379Z" fill="#626FF0"/>
<path d="M357.671 70.3735H269.772V78.614H357.671V70.3735Z" fill="#FF8C05"/>
<path d="M78.8541 69.852C76.1371 70.9875 73.9647 73.1748 72.8399 75.9083L74.2271 76.4791C73.7591 77.6164 73.5 78.8646 73.5 80.1775V83.2915H72V89.5194H73.5V95.7473H72V101.975H73.5V108.203H72V114.431H73.5V120.659H72V126.887H73.5V133.115H72V139.343H73.5V145.571H72V151.799H73.5V158.026H72V164.254H73.5V170.482H72V176.71H73.5V179.824C73.5 181.137 73.7591 182.385 74.2271 183.522L72.84 184.093C73.9648 186.826 76.1373 189.013 78.8543 190.148L79.4325 188.764C80.5663 189.238 81.8109 189.5 83.1201 189.5H86.0193V191H91.8178V189.5H97.6162V191H103.415V189.5H109.213V191H115.012V189.5H120.81V191H126.609V189.5H132.407V191H138.205V189.5H144.004V191H149.802V189.5H155.601V191H161.399V189.5H167.198V191H172.996V189.5H178.795V191H184.593V189.5H190.392V191H196.19V189.5H201.988V191H207.787V189.5H213.585V191H219.384V189.5H225.182V191H230.981V189.5H233.88C235.189 189.5 236.434 189.238 237.568 188.764L238.146 190.148C240.863 189.013 243.036 186.827 244.16 184.093L242.773 183.522C243.241 182.385 243.5 181.137 243.5 179.824V176.71H245V170.482H243.5V164.254H245V158.026H243.5V151.799H245V145.571H243.5V139.343H245V133.115H243.5V126.887H245V120.659H243.5V114.431H245V108.203H243.5V101.975H245V95.7473H243.5V89.5194H245V83.2915H243.5V80.1775C243.5 78.8645 243.241 77.6162 242.773 76.4788L244.16 75.9081C243.036 73.1745 240.863 70.9872 238.146 69.8518L237.568 71.2359C236.434 70.7622 235.189 70.5 233.88 70.5H230.981V69H225.182V70.5H219.384V69H213.585V70.5H207.787V69H201.988V70.5H196.19V69H190.392V70.5H184.593V69H178.795V70.5H172.996V69H167.198V70.5H161.399V69H155.601V70.5H149.802V69H144.004V70.5H138.205V69H132.407V70.5H126.609V69H120.81V70.5H115.012V69H109.213V70.5H103.415V69H97.6162V70.5H91.8178V69H86.0193V70.5H83.1201C81.8109 70.5 80.5663 70.7622 79.4325 71.2361L78.8541 69.852Z" stroke="#626FF0" stroke-width="3" stroke-dasharray="6 6"/>
<path d="M305.651 228H214.345C209.185 228 205 232.222 205 237.431V276.566C205 281.775 209.185 286 214.345 286H305.651C310.815 286 315 281.775 315 276.566V237.431C315 232.222 310.815 228 305.651 228Z" fill="#626FF0"/>
<path d="M436.655 228H345.349C340.185 228 336 232.222 336 237.431V276.566C336 281.775 340.185 286 345.349 286H436.655C441.815 286 446 281.775 446 276.566V237.431C446 232.222 441.815 228 436.655 228Z" fill="#626FF0"/>
<path d="M514 47H2.5V17.5L5 8.5C10.2697 4.24141 13 3.01143 17.5 2.5H480H502.5L514 11V47Z" fill="#FF8C05"/>
<path d="M466.43 29.4102H394.5C393.12 29.4102 392 28.2902 392 26.9102C392 25.5302 393.12 24.4102 394.5 24.4102H466.43C467.81 24.4102 468.93 25.5302 468.93 26.9102C468.93 28.2902 467.82 29.4102 466.43 29.4102Z" fill="#1C0A4D"/>
<path d="M34.87 30.74C37.0073 30.74 38.74 29.0073 38.74 26.87C38.74 24.7327 37.0073 23 34.87 23C32.7327 23 31 24.7327 31 26.87C31 29.0073 32.7327 30.74 34.87 30.74Z" fill="#1C0A4D"/>
<path d="M47.85 30.74C49.9873 30.74 51.72 29.0073 51.72 26.87C51.72 24.7327 49.9873 23 47.85 23C45.7126 23 43.98 24.7327 43.98 26.87C43.98 29.0073 45.7126 30.74 47.85 30.74Z" fill="#1C0A4D"/>
<path d="M60.83 30.74C62.9673 30.74 64.7 29.0073 64.7 26.87C64.7 24.7327 62.9673 23 60.83 23C58.6926 23 56.96 24.7327 56.96 26.87C56.96 29.0073 58.6926 30.74 60.83 30.74Z" fill="#1C0A4D"/>
<path d="M517 46H0V49H517V46Z" fill="#FF8C05"/>
<rect x="1.5" y="1.5" width="514" height="304" rx="18.5" stroke="#FF8C05" stroke-width="3"/>
<path d="M175.567 228H83.4321C78.2229 228 74 232.222 74 237.431V276.566C74 281.775 78.2229 286 83.4321 286H175.567C180.777 286 185 281.775 185 276.566V237.431C185 232.222 180.777 228 175.567 228Z" fill="#626FF0"/>
<path d="M146.344 106.825H146.369V106.8V105.938C146.369 102.321 147.59 99.2658 150.032 96.7694C152.474 94.273 155.463 93.025 159 93.025C162.537 93.025 165.526 94.273 167.968 96.7694C170.41 99.2658 171.631 102.321 171.631 105.938V106.8V106.825H171.656H180.938C182.28 106.825 183.455 107.339 184.463 108.37C185.472 109.401 185.975 110.602 185.975 111.975V156.825C185.975 158.198 185.472 159.399 184.463 160.43C183.455 161.461 182.28 161.975 180.938 161.975H137.062C135.72 161.975 134.545 161.461 133.537 160.43C132.528 159.399 132.025 158.198 132.025 156.825V111.975C132.025 110.602 132.528 109.401 133.537 108.37C134.545 107.339 135.72 106.825 137.062 106.825H146.344ZM137.037 156.825V156.85H137.062H180.938H180.963V156.825V111.975V111.95H180.938H171.656H171.631V111.975V119.737C171.631 120.464 171.39 121.073 170.906 121.564C170.423 122.055 169.825 122.3 169.11 122.3C168.395 122.3 167.802 122.055 167.329 121.564C166.856 121.073 166.619 120.465 166.619 119.737V111.975V111.95H166.594H151.406H151.381V111.975V119.737C151.381 120.464 151.14 121.073 150.656 121.564C150.173 122.055 149.575 122.3 148.86 122.3C148.145 122.3 147.552 122.055 147.079 121.564C146.606 121.073 146.369 120.465 146.369 119.737V111.975V111.95H146.344H137.062H137.037V111.975V156.825ZM151.381 106.8V106.825H151.406H166.594H166.619V106.8V105.938C166.619 103.746 165.885 101.9 164.418 100.4C162.951 98.9001 161.144 98.15 159 98.15C156.856 98.15 155.049 98.9001 153.582 100.4C152.115 101.9 151.381 103.746 151.381 105.938V106.8Z" fill="#FF8C05" stroke="#1C0A4D" stroke-width="0.05"/>
</svg>
