<svg viewBox="0 0 500 500" xmlns="http://www.w3.org/2000/svg"><circle cx="142" fill="white" cy="410" opacity="77%" r="0.75px" /><circle cx="393" fill="white" cy="497" opacity="46%" r="0.75px" /><circle cx="319" fill="white" cy="417" opacity="69%" r="0.75px" /><circle cx="409" fill="white" cy="265" opacity="60%" r="0.75px" /><circle cx="470" fill="white" cy="269" opacity="75%" r="0.75px" /><circle cx="353" fill="white" cy="218" opacity="96%" r="0.75px" /><circle cx="189" fill="white" cy="420" opacity="19%" r="0.75px" /><circle cx="150" fill="white" cy="36" opacity="75%" r="0.75px" /><circle cx="457" fill="white" cy="125" opacity="55%" r="0.75px" /><circle cx="364" fill="white" cy="375" opacity="67%" r="0.75px" /><circle cx="499" fill="white" cy="368" opacity="64%" r="0.75px" /><circle cx="201" fill="white" cy="40" opacity="0%" r="0.75px" /><circle cx="112" fill="white" cy="305" opacity="31%" r="0.75px" /><circle cx="479" fill="white" cy="439" opacity="71%" r="0.75px" /><circle cx="202" fill="white" cy="371" opacity="75%" r="0.75px" /><circle cx="64" fill="white" cy="294" opacity="68%" r="0.75px" /><circle cx="470" fill="white" cy="450" opacity="52%" r="0.75px" /><circle cx="282" fill="white" cy="58" opacity="79%" r="0.75px" /><circle cx="87" fill="white" cy="2" opacity="71%" r="0.75px" /><circle cx="94" fill="white" cy="110" opacity="82%" r="0.75px" /><circle cx="292" fill="white" cy="389" opacity="34%" r="0.75px" /><circle cx="481" fill="white" cy="73" opacity="55%" r="0.75px" /><circle cx="267" fill="white" cy="6" opacity="39%" r="0.75px" /><circle cx="424" fill="white" cy="93" opacity="8%" r="0.75px" /><circle cx="375" fill="white" cy="381" opacity="28%" r="0.75px" /><circle cx="383" fill="white" cy="72" opacity="87%" r="0.75px" /><circle cx="247" fill="white" cy="149" opacity="88%" r="0.75px" /><circle cx="216" fill="white" cy="6" opacity="95%" r="0.75px" /><circle cx="4" fill="white" cy="487" opacity="16%" r="0.75px" /><circle cx="196" fill="white" cy="126" opacity="3%" r="0.75px" /><circle cx="87" fill="white" cy="420" opacity="8%" r="0.75px" /><circle cx="149" fill="white" cy="94" opacity="95%" r="0.75px" /><circle cx="463" fill="white" cy="80" opacity="21%" r="0.75px" /><circle cx="229" fill="white" cy="30" opacity="97%" r="0.75px" /><circle cx="404" fill="white" cy="68" opacity="76%" r="0.75px" /><circle cx="395" fill="white" cy="76" opacity="5%" r="0.75px" /><circle cx="489" fill="white" cy="278" opacity="84%" r="0.75px" /><circle cx="9" fill="white" cy="395" opacity="77%" r="0.75px" /><circle cx="193" fill="white" cy="21" opacity="24%" r="0.75px" /><circle cx="104" fill="white" cy="223" opacity="65%" r="0.75px" /><circle cx="369" fill="white" cy="457" opacity="34%" r="0.75px" /><circle cx="18" fill="white" cy="366" opacity="51%" r="0.75px" /><circle cx="95" fill="white" cy="335" opacity="60%" r="0.75px" /><circle cx="117" fill="white" cy="221" opacity="94%" r="0.75px" /><circle cx="157" fill="white" cy="289" opacity="80%" r="0.75px" /><circle cx="205" fill="white" cy="385" opacity="52%" r="0.75px" /><circle cx="479" fill="white" cy="324" opacity="71%" r="0.75px" /><circle cx="27" fill="white" cy="375" opacity="62%" r="0.75px" /><circle cx="82" fill="white" cy="206" opacity="40%" r="0.75px" /><circle cx="266" fill="white" cy="265" opacity="9%" r="0.75px" /><circle cx="230" fill="white" cy="124" opacity="3%" r="0.75px" /><circle cx="348" fill="white" cy="417" opacity="1%" r="0.75px" /><circle cx="117" fill="white" cy="51" opacity="36%" r="0.75px" /><circle cx="486" fill="white" cy="343" opacity="66%" r="0.75px" /><circle cx="428" fill="white" cy="420" opacity="10%" r="0.75px" /><circle cx="146" fill="white" cy="96" opacity="63%" r="0.75px" /><circle cx="110" fill="white" cy="145" opacity="64%" r="0.75px" /><circle cx="195" fill="white" cy="284" opacity="57%" r="0.75px" /><circle cx="198" fill="white" cy="159" opacity="19%" r="0.75px" /><circle cx="341" fill="white" cy="425" opacity="65%" r="0.75px" /><circle cx="368" fill="white" cy="19" opacity="14%" r="0.75px" /><circle cx="413" fill="white" cy="367" opacity="19%" r="0.75px" /><circle cx="238" fill="white" cy="160" opacity="21%" r="0.75px" /><circle cx="345" fill="white" cy="373" opacity="45%" r="0.75px" /><circle cx="301" fill="white" cy="328" opacity="4%" r="0.75px" /><circle cx="389" fill="white" cy="432" opacity="36%" r="0.75px" /><circle cx="285" fill="white" cy="460" opacity="85%" r="0.75px" /><circle cx="23" fill="white" cy="319" opacity="56%" r="0.75px" /><circle cx="89" fill="white" cy="417" opacity="41%" r="0.75px" /><circle cx="122" fill="white" cy="417" opacity="84%" r="0.75px" /><circle cx="347" fill="white" cy="365" opacity="63%" r="0.75px" /><circle cx="313" fill="white" cy="30" opacity="98%" r="0.75px" /><circle cx="447" fill="white" cy="260" opacity="27%" r="0.75px" /><circle cx="254" fill="white" cy="458" opacity="4%" r="0.75px" /><circle cx="50" fill="white" cy="160" opacity="44%" r="0.75px" /><circle cx="417" fill="white" cy="496" opacity="77%" r="0.75px" /><circle cx="223" fill="white" cy="335" opacity="35%" r="0.75px" /><circle cx="44" fill="white" cy="472" opacity="95%" r="0.75px" /><circle cx="447" fill="white" cy="3" opacity="41%" r="0.75px" /><circle cx="308" fill="white" cy="168" opacity="32%" r="0.75px" /><circle cx="94" fill="white" cy="420" opacity="3%" r="0.75px" /><circle cx="125" fill="white" cy="63" opacity="36%" r="0.75px" /><circle cx="391" fill="white" cy="331" opacity="63%" r="0.75px" /><circle cx="33" fill="white" cy="210" opacity="79%" r="0.75px" /><circle cx="364" fill="white" cy="218" opacity="74%" r="0.75px" /><circle cx="152" fill="white" cy="9" opacity="13%" r="0.75px" /><circle cx="388" fill="white" cy="306" opacity="27%" r="0.75px" /><circle cx="172" fill="white" cy="333" opacity="68%" r="0.75px" /><circle cx="60" fill="white" cy="236" opacity="74%" r="0.75px" /><circle cx="118" fill="white" cy="374" opacity="28%" r="0.75px" /><circle cx="443" fill="white" cy="151" opacity="17%" r="0.75px" /><circle cx="470" fill="white" cy="480" opacity="43%" r="0.75px" /><circle cx="3" fill="white" cy="319" opacity="26%" r="0.75px" /><circle cx="253" fill="white" cy="298" opacity="8%" r="0.75px" /><circle cx="150" fill="white" cy="391" opacity="32%" r="0.75px" /><circle cx="248" fill="white" cy="71" opacity="52%" r="0.75px" /><circle cx="297" fill="white" cy="294" opacity="10%" r="0.75px" /><circle cx="491" fill="white" cy="210" opacity="9%" r="0.75px" /><circle cx="203" fill="white" cy="489" opacity="29%" r="0.75px" /><circle cx="318" fill="white" cy="380" opacity="72%" r="0.75px" /></svg>