<svg viewBox="0 0 500 500" xmlns="http://www.w3.org/2000/svg"><circle cx="199" fill="white" cy="264" fill-opacity="71%" r="0.5px" /><circle cx="283" fill="white" cy="121" fill-opacity="70%" r="0.5px" /><circle cx="46" fill="white" cy="362" fill-opacity="65%" r="0.5px" /><circle cx="239" fill="white" cy="285" fill-opacity="64%" r="0.5px" /><circle cx="490" fill="white" cy="15" fill-opacity="80%" r="0.5px" /><circle cx="217" fill="white" cy="396" fill-opacity="50%" r="0.5px" /><circle cx="82" fill="white" cy="311" fill-opacity="68%" r="0.5px" /><circle cx="173" fill="white" cy="218" fill-opacity="91%" r="0.5px" /><circle cx="347" fill="white" cy="309" fill-opacity="53%" r="0.5px" /><circle cx="212" fill="white" cy="349" fill-opacity="88%" r="0.5px" /><circle cx="418" fill="white" cy="50" fill-opacity="94%" r="0.5px" /><circle cx="92" fill="white" cy="491" fill-opacity="92%" r="0.5px" /><circle cx="68" fill="white" cy="464" fill-opacity="97%" r="0.5px" /><circle cx="459" fill="white" cy="457" fill-opacity="77%" r="0.5px" /><circle cx="28" fill="white" cy="50" fill-opacity="90%" r="0.5px" /><circle cx="239" fill="white" cy="240" fill-opacity="56%" r="0.5px" /><circle cx="299" fill="white" cy="53" fill-opacity="57%" r="0.5px" /><circle cx="232" fill="white" cy="93" fill-opacity="50%" r="0.5px" /><circle cx="285" fill="white" cy="152" fill-opacity="72%" r="0.5px" /><circle cx="199" fill="white" cy="25" fill-opacity="75%" r="0.5px" /><circle cx="349" fill="white" cy="179" fill-opacity="77%" r="0.5px" /><circle cx="383" fill="white" cy="162" fill-opacity="66%" r="0.5px" /><circle cx="254" fill="white" cy="268" fill-opacity="73%" r="0.5px" /><circle cx="333" fill="white" cy="10" fill-opacity="96%" r="0.5px" /><circle cx="37" fill="white" cy="421" fill-opacity="57%" r="0.5px" /><circle cx="476" fill="white" cy="36" fill-opacity="63%" r="0.5px" /><circle cx="254" fill="white" cy="24" fill-opacity="89%" r="0.5px" /><circle cx="472" fill="white" cy="341" fill-opacity="51%" r="0.5px" /><circle cx="46" fill="white" cy="110" fill-opacity="60%" r="0.5px" /><circle cx="115" fill="white" cy="492" fill-opacity="98%" r="0.5px" /><circle cx="97" fill="white" cy="7" fill-opacity="72%" r="0.5px" /><circle cx="81" fill="white" cy="282" fill-opacity="68%" r="0.5px" /><circle cx="46" fill="white" cy="6" fill-opacity="85%" r="0.5px" /><circle cx="6" fill="white" cy="397" fill-opacity="50%" r="0.5px" /><circle cx="192" fill="white" cy="227" fill-opacity="54%" r="0.5px" /><circle cx="421" fill="white" cy="59" fill-opacity="90%" r="0.5px" /><circle cx="18" fill="white" cy="111" fill-opacity="57%" r="0.5px" /><circle cx="202" fill="white" cy="119" fill-opacity="96%" r="0.5px" /><circle cx="324" fill="white" cy="299" fill-opacity="92%" r="0.5px" /><circle cx="40" fill="white" cy="440" fill-opacity="55%" r="0.5px" /><circle cx="214" fill="white" cy="206" fill-opacity="95%" r="0.5px" /><circle cx="218" fill="white" cy="423" fill-opacity="54%" r="0.5px" /><circle cx="296" fill="white" cy="375" fill-opacity="90%" r="0.5px" /><circle cx="380" fill="white" cy="95" fill-opacity="86%" r="0.5px" /><circle cx="138" fill="white" cy="263" fill-opacity="68%" r="0.5px" /><circle cx="9" fill="white" cy="42" fill-opacity="85%" r="0.5px" /><circle cx="1" fill="white" cy="1" fill-opacity="74%" r="0.5px" /><circle cx="25" fill="white" cy="17" fill-opacity="95%" r="0.5px" /><circle cx="230" fill="white" cy="419" fill-opacity="93%" r="0.5px" /><circle cx="199" fill="white" cy="264" fill-opacity="61%" r="0.5px" /><circle cx="280" fill="white" cy="191" fill-opacity="62%" r="0.5px" /><circle cx="39" fill="white" cy="75" fill-opacity="96%" r="0.5px" /><circle cx="3" fill="white" cy="314" fill-opacity="76%" r="0.5px" /><circle cx="104" fill="white" cy="149" fill-opacity="69%" r="0.5px" /><circle cx="250" fill="white" cy="308" fill-opacity="78%" r="0.5px" /><circle cx="280" fill="white" cy="4" fill-opacity="83%" r="0.5px" /><circle cx="124" fill="white" cy="488" fill-opacity="98%" r="0.5px" /><circle cx="125" fill="white" cy="490" fill-opacity="97%" r="0.5px" /><circle cx="364" fill="white" cy="416" fill-opacity="71%" r="0.5px" /><circle cx="195" fill="white" cy="337" fill-opacity="94%" r="0.5px" /><circle cx="276" fill="white" cy="369" fill-opacity="79%" r="0.5px" /><circle cx="208" fill="white" cy="429" fill-opacity="63%" r="0.5px" /><circle cx="161" fill="white" cy="448" fill-opacity="65%" r="0.5px" /><circle cx="348" fill="white" cy="213" fill-opacity="73%" r="0.5px" /><circle cx="309" fill="white" cy="248" fill-opacity="74%" r="0.5px" /><circle cx="232" fill="white" cy="253" fill-opacity="67%" r="0.5px" /><circle cx="195" fill="white" cy="74" fill-opacity="65%" r="0.5px" /><circle cx="198" fill="white" cy="3" fill-opacity="67%" r="0.5px" /><circle cx="49" fill="white" cy="357" fill-opacity="67%" r="0.5px" /><circle cx="159" fill="white" cy="476" fill-opacity="59%" r="0.5px" /><circle cx="82" fill="white" cy="174" fill-opacity="67%" r="0.5px" /><circle cx="176" fill="white" cy="33" fill-opacity="52%" r="0.5px" /><circle cx="68" fill="white" cy="208" fill-opacity="96%" r="0.5px" /><circle cx="160" fill="white" cy="49" fill-opacity="93%" r="0.5px" /><circle cx="141" fill="white" cy="259" fill-opacity="70%" r="0.5px" /><circle cx="411" fill="white" cy="130" fill-opacity="90%" r="0.5px" /><circle cx="456" fill="white" cy="472" fill-opacity="74%" r="0.5px" /><circle cx="484" fill="white" cy="456" fill-opacity="88%" r="0.5px" /><circle cx="478" fill="white" cy="158" fill-opacity="51%" r="0.5px" /><circle cx="306" fill="white" cy="380" fill-opacity="97%" r="0.5px" /><circle cx="228" fill="white" cy="409" fill-opacity="68%" r="0.5px" /><circle cx="281" fill="white" cy="60" fill-opacity="96%" r="0.5px" /><circle cx="222" fill="white" cy="110" fill-opacity="53%" r="0.5px" /><circle cx="475" fill="white" cy="292" fill-opacity="63%" r="0.5px" /><circle cx="490" fill="white" cy="366" fill-opacity="89%" r="0.5px" /><circle cx="435" fill="white" cy="335" fill-opacity="51%" r="0.5px" /><circle cx="354" fill="white" cy="115" fill-opacity="78%" r="0.5px" /><circle cx="169" fill="white" cy="217" fill-opacity="80%" r="0.5px" /><circle cx="322" fill="white" cy="398" fill-opacity="59%" r="0.5px" /><circle cx="51" fill="white" cy="482" fill-opacity="64%" r="0.5px" /><circle cx="370" fill="white" cy="235" fill-opacity="76%" r="0.5px" /><circle cx="42" fill="white" cy="134" fill-opacity="74%" r="0.5px" /><circle cx="186" fill="white" cy="444" fill-opacity="73%" r="0.5px" /><circle cx="160" fill="white" cy="19" fill-opacity="81%" r="0.5px" /><circle cx="82" fill="white" cy="432" fill-opacity="85%" r="0.5px" /><circle cx="476" fill="white" cy="149" fill-opacity="94%" r="0.5px" /><circle cx="192" fill="white" cy="323" fill-opacity="90%" r="0.5px" /><circle cx="175" fill="white" cy="304" fill-opacity="51%" r="0.5px" /><circle cx="486" fill="white" cy="265" fill-opacity="82%" r="0.5px" /><circle cx="285" fill="white" cy="26" fill-opacity="90%" r="0.5px" /><circle cx="351" fill="white" cy="493" fill-opacity="70%" r="0.5px" /><circle cx="416" fill="white" cy="350" fill-opacity="61%" r="0.5px" /><circle cx="468" fill="white" cy="242" fill-opacity="96%" r="0.5px" /><circle cx="180" fill="white" cy="164" fill-opacity="52%" r="0.5px" /><circle cx="413" fill="white" cy="219" fill-opacity="79%" r="0.5px" /><circle cx="300" fill="white" cy="395" fill-opacity="97%" r="0.5px" /><circle cx="56" fill="white" cy="472" fill-opacity="59%" r="0.5px" /><circle cx="126" fill="white" cy="444" fill-opacity="72%" r="0.5px" /><circle cx="72" fill="white" cy="466" fill-opacity="80%" r="0.5px" /><circle cx="268" fill="white" cy="94" fill-opacity="58%" r="0.5px" /><circle cx="222" fill="white" cy="422" fill-opacity="96%" r="0.5px" /><circle cx="251" fill="white" cy="134" fill-opacity="71%" r="0.5px" /><circle cx="194" fill="white" cy="250" fill-opacity="64%" r="0.5px" /><circle cx="280" fill="white" cy="361" fill-opacity="67%" r="0.5px" /><circle cx="156" fill="white" cy="12" fill-opacity="94%" r="0.5px" /><circle cx="438" fill="white" cy="282" fill-opacity="93%" r="0.5px" /><circle cx="205" fill="white" cy="308" fill-opacity="77%" r="0.5px" /><circle cx="173" fill="white" cy="327" fill-opacity="67%" r="0.5px" /><circle cx="404" fill="white" cy="436" fill-opacity="88%" r="0.5px" /><circle cx="274" fill="white" cy="406" fill-opacity="66%" r="0.5px" /><circle cx="26" fill="white" cy="411" fill-opacity="58%" r="0.5px" /><circle cx="249" fill="white" cy="411" fill-opacity="77%" r="0.5px" /><circle cx="190" fill="white" cy="345" fill-opacity="78%" r="0.5px" /><circle cx="342" fill="white" cy="460" fill-opacity="87%" r="0.5px" /><circle cx="496" fill="white" cy="396" fill-opacity="62%" r="0.5px" /><circle cx="255" fill="white" cy="404" fill-opacity="69%" r="0.5px" /><circle cx="103" fill="white" cy="322" fill-opacity="89%" r="0.5px" /><circle cx="267" fill="white" cy="467" fill-opacity="71%" r="0.5px" /><circle cx="348" fill="white" cy="451" fill-opacity="95%" r="0.5px" /><circle cx="142" fill="white" cy="365" fill-opacity="86%" r="0.5px" /><circle cx="40" fill="white" cy="295" fill-opacity="85%" r="0.5px" /><circle cx="478" fill="white" cy="356" fill-opacity="66%" r="0.5px" /><circle cx="386" fill="white" cy="412" fill-opacity="76%" r="0.5px" /><circle cx="92" fill="white" cy="449" fill-opacity="66%" r="0.5px" /><circle cx="214" fill="white" cy="108" fill-opacity="65%" r="0.5px" /><circle cx="171" fill="white" cy="185" fill-opacity="69%" r="0.5px" /><circle cx="88" fill="white" cy="43" fill-opacity="58%" r="0.5px" /><circle cx="283" fill="white" cy="366" fill-opacity="52%" r="0.5px" /><circle cx="65" fill="white" cy="222" fill-opacity="82%" r="0.5px" /><circle cx="337" fill="white" cy="438" fill-opacity="79%" r="0.5px" /><circle cx="288" fill="white" cy="358" fill-opacity="70%" r="0.5px" /><circle cx="409" fill="white" cy="68" fill-opacity="87%" r="0.5px" /><circle cx="494" fill="white" cy="196" fill-opacity="93%" r="0.5px" /><circle cx="9" fill="white" cy="306" fill-opacity="96%" r="0.5px" /><circle cx="257" fill="white" cy="8" fill-opacity="89%" r="0.5px" /><circle cx="421" fill="white" cy="328" fill-opacity="73%" r="0.5px" /><circle cx="155" fill="white" cy="304" fill-opacity="83%" r="0.5px" /><circle cx="416" fill="white" cy="187" fill-opacity="58%" r="0.5px" /><circle cx="205" fill="white" cy="401" fill-opacity="60%" r="0.5px" /><circle cx="48" fill="white" cy="150" fill-opacity="67%" r="0.5px" /></svg>