<svg viewBox="0 0 500 500" xmlns="http://www.w3.org/2000/svg"><circle cx="372" fill="white" cy="160" opacity="5%" r="1.5px" /><circle cx="445" fill="white" cy="66" opacity="70%" r="1.5px" /><circle cx="10" fill="white" cy="362" opacity="24%" r="1.5px" /><circle cx="338" fill="white" cy="288" opacity="91%" r="1.5px" /><circle cx="360" fill="white" cy="310" opacity="40%" r="1.5px" /><circle cx="143" fill="white" cy="154" opacity="29%" r="1.5px" /><circle cx="105" fill="white" cy="363" opacity="60%" r="1.5px" /><circle cx="67" fill="white" cy="243" opacity="51%" r="1.5px" /><circle cx="195" fill="white" cy="122" opacity="27%" r="1.5px" /><circle cx="406" fill="white" cy="103" opacity="9%" r="1.5px" /><circle cx="174" fill="white" cy="304" opacity="70%" r="1.5px" /><circle cx="147" fill="white" cy="233" opacity="17%" r="1.5px" /><circle cx="188" fill="white" cy="225" opacity="56%" r="1.5px" /><circle cx="187" fill="white" cy="436" opacity="0%" r="1.5px" /><circle cx="400" fill="white" cy="126" opacity="64%" r="1.5px" /><circle cx="378" fill="white" cy="118" opacity="23%" r="1.5px" /><circle cx="370" fill="white" cy="403" opacity="34%" r="1.5px" /><circle cx="410" fill="white" cy="397" opacity="63%" r="1.5px" /><circle cx="116" fill="white" cy="358" opacity="88%" r="1.5px" /><circle cx="201" fill="white" cy="233" opacity="13%" r="1.5px" /><circle cx="292" fill="white" cy="392" opacity="56%" r="1.5px" /><circle cx="104" fill="white" cy="329" opacity="45%" r="1.5px" /><circle cx="489" fill="white" cy="463" opacity="26%" r="1.5px" /><circle cx="174" fill="white" cy="365" opacity="68%" r="1.5px" /><circle cx="237" fill="white" cy="145" opacity="26%" r="1.5px" /></svg>