<svg viewBox="0 0 500 500" xmlns="http://www.w3.org/2000/svg"><circle cx="302" fill="white" cy="233" fill-opacity="85%" r="1px" /><circle cx="126" fill="white" cy="268" fill-opacity="91%" r="1px" /><circle cx="156" fill="white" cy="189" fill-opacity="78%" r="1px" /><circle cx="232" fill="white" cy="25" fill-opacity="85%" r="1px" /><circle cx="44" fill="white" cy="98" fill-opacity="51%" r="1px" /><circle cx="40" fill="white" cy="428" fill-opacity="69%" r="1px" /><circle cx="378" fill="white" cy="387" fill-opacity="56%" r="1px" /><circle cx="96" fill="white" cy="391" fill-opacity="82%" r="1px" /><circle cx="486" fill="white" cy="329" fill-opacity="77%" r="1px" /><circle cx="196" fill="white" cy="395" fill-opacity="99%" r="1px" /><circle cx="446" fill="white" cy="200" fill-opacity="57%" r="1px" /><circle cx="71" fill="white" cy="27" fill-opacity="60%" r="1px" /><circle cx="6" fill="white" cy="390" fill-opacity="81%" r="1px" /><circle cx="489" fill="white" cy="213" fill-opacity="84%" r="1px" /><circle cx="466" fill="white" cy="405" fill-opacity="95%" r="1px" /><circle cx="417" fill="white" cy="191" fill-opacity="93%" r="1px" /><circle cx="63" fill="white" cy="352" fill-opacity="86%" r="1px" /><circle cx="340" fill="white" cy="85" fill-opacity="86%" r="1px" /><circle cx="283" fill="white" cy="434" fill-opacity="70%" r="1px" /><circle cx="480" fill="white" cy="294" fill-opacity="55%" r="1px" /><circle cx="258" fill="white" cy="396" fill-opacity="72%" r="1px" /><circle cx="341" fill="white" cy="78" fill-opacity="63%" r="1px" /><circle cx="444" fill="white" cy="314" fill-opacity="54%" r="1px" /><circle cx="484" fill="white" cy="350" fill-opacity="52%" r="1px" /><circle cx="370" fill="white" cy="14" fill-opacity="50%" r="1px" /><circle cx="169" fill="white" cy="208" fill-opacity="88%" r="1px" /><circle cx="435" fill="white" cy="132" fill-opacity="63%" r="1px" /><circle cx="482" fill="white" cy="281" fill-opacity="77%" r="1px" /><circle cx="413" fill="white" cy="450" fill-opacity="77%" r="1px" /><circle cx="384" fill="white" cy="172" fill-opacity="87%" r="1px" /><circle cx="470" fill="white" cy="234" fill-opacity="54%" r="1px" /><circle cx="95" fill="white" cy="444" fill-opacity="52%" r="1px" /><circle cx="118" fill="white" cy="488" fill-opacity="55%" r="1px" /><circle cx="72" fill="white" cy="462" fill-opacity="81%" r="1px" /><circle cx="55" fill="white" cy="173" fill-opacity="99%" r="1px" /><circle cx="20" fill="white" cy="209" fill-opacity="75%" r="1px" /><circle cx="497" fill="white" cy="2" fill-opacity="94%" r="1px" /><circle cx="492" fill="white" cy="292" fill-opacity="88%" r="1px" /><circle cx="90" fill="white" cy="205" fill-opacity="61%" r="1px" /><circle cx="312" fill="white" cy="50" fill-opacity="75%" r="1px" /><circle cx="125" fill="white" cy="353" fill-opacity="70%" r="1px" /><circle cx="88" fill="white" cy="5" fill-opacity="95%" r="1px" /><circle cx="128" fill="white" cy="208" fill-opacity="74%" r="1px" /><circle cx="441" fill="white" cy="315" fill-opacity="59%" r="1px" /><circle cx="55" fill="white" cy="329" fill-opacity="82%" r="1px" /><circle cx="76" fill="white" cy="67" fill-opacity="69%" r="1px" /><circle cx="1" fill="white" cy="411" fill-opacity="73%" r="1px" /><circle cx="407" fill="white" cy="393" fill-opacity="90%" r="1px" /><circle cx="342" fill="white" cy="419" fill-opacity="64%" r="1px" /><circle cx="0" fill="white" cy="458" fill-opacity="59%" r="1px" /><circle cx="296" fill="white" cy="44" fill-opacity="56%" r="1px" /><circle cx="455" fill="white" cy="69" fill-opacity="74%" r="1px" /><circle cx="472" fill="white" cy="227" fill-opacity="66%" r="1px" /><circle cx="272" fill="white" cy="174" fill-opacity="84%" r="1px" /><circle cx="499" fill="white" cy="392" fill-opacity="92%" r="1px" /><circle cx="29" fill="white" cy="402" fill-opacity="88%" r="1px" /><circle cx="359" fill="white" cy="190" fill-opacity="66%" r="1px" /><circle cx="64" fill="white" cy="362" fill-opacity="55%" r="1px" /><circle cx="79" fill="white" cy="55" fill-opacity="62%" r="1px" /><circle cx="115" fill="white" cy="84" fill-opacity="91%" r="1px" /><circle cx="0" fill="white" cy="33" fill-opacity="76%" r="1px" /><circle cx="206" fill="white" cy="226" fill-opacity="98%" r="1px" /><circle cx="432" fill="white" cy="304" fill-opacity="92%" r="1px" /><circle cx="210" fill="white" cy="33" fill-opacity="59%" r="1px" /><circle cx="330" fill="white" cy="232" fill-opacity="75%" r="1px" /><circle cx="321" fill="white" cy="190" fill-opacity="65%" r="1px" /><circle cx="63" fill="white" cy="313" fill-opacity="90%" r="1px" /><circle cx="350" fill="white" cy="330" fill-opacity="57%" r="1px" /><circle cx="453" fill="white" cy="201" fill-opacity="70%" r="1px" /><circle cx="385" fill="white" cy="267" fill-opacity="74%" r="1px" /><circle cx="112" fill="white" cy="346" fill-opacity="54%" r="1px" /><circle cx="316" fill="white" cy="19" fill-opacity="85%" r="1px" /><circle cx="263" fill="white" cy="12" fill-opacity="57%" r="1px" /><circle cx="14" fill="white" cy="456" fill-opacity="53%" r="1px" /><circle cx="436" fill="white" cy="310" fill-opacity="74%" r="1px" /><circle cx="400" fill="white" cy="123" fill-opacity="86%" r="1px" /><circle cx="488" fill="white" cy="467" fill-opacity="59%" r="1px" /><circle cx="416" fill="white" cy="466" fill-opacity="76%" r="1px" /><circle cx="19" fill="white" cy="246" fill-opacity="71%" r="1px" /><circle cx="123" fill="white" cy="238" fill-opacity="72%" r="1px" /><circle cx="341" fill="white" cy="341" fill-opacity="50%" r="1px" /><circle cx="441" fill="white" cy="38" fill-opacity="65%" r="1px" /><circle cx="82" fill="white" cy="275" fill-opacity="52%" r="1px" /><circle cx="110" fill="white" cy="160" fill-opacity="52%" r="1px" /><circle cx="61" fill="white" cy="190" fill-opacity="67%" r="1px" /><circle cx="445" fill="white" cy="201" fill-opacity="82%" r="1px" /><circle cx="105" fill="white" cy="228" fill-opacity="86%" r="1px" /><circle cx="218" fill="white" cy="78" fill-opacity="60%" r="1px" /><circle cx="439" fill="white" cy="392" fill-opacity="73%" r="1px" /><circle cx="212" fill="white" cy="216" fill-opacity="50%" r="1px" /><circle cx="321" fill="white" cy="303" fill-opacity="81%" r="1px" /><circle cx="394" fill="white" cy="35" fill-opacity="62%" r="1px" /><circle cx="34" fill="white" cy="361" fill-opacity="96%" r="1px" /><circle cx="196" fill="white" cy="457" fill-opacity="96%" r="1px" /><circle cx="299" fill="white" cy="490" fill-opacity="87%" r="1px" /><circle cx="411" fill="white" cy="27" fill-opacity="60%" r="1px" /><circle cx="419" fill="white" cy="97" fill-opacity="76%" r="1px" /><circle cx="445" fill="white" cy="198" fill-opacity="69%" r="1px" /><circle cx="396" fill="white" cy="489" fill-opacity="93%" r="1px" /><circle cx="46" fill="white" cy="82" fill-opacity="95%" r="1px" /></svg>