<svg viewBox="0 0 500 500" xmlns="http://www.w3.org/2000/svg"><circle cx="333" fill="white" cy="315" opacity="33%" r="1px" /><circle cx="87" fill="white" cy="498" opacity="56%" r="1px" /><circle cx="250" fill="white" cy="131" opacity="92%" r="1px" /><circle cx="244" fill="white" cy="266" opacity="76%" r="1px" /><circle cx="198" fill="white" cy="61" opacity="15%" r="1px" /><circle cx="488" fill="white" cy="322" opacity="97%" r="1px" /><circle cx="9" fill="white" cy="499" opacity="60%" r="1px" /><circle cx="284" fill="white" cy="443" opacity="46%" r="1px" /><circle cx="271" fill="white" cy="350" opacity="73%" r="1px" /><circle cx="385" fill="white" cy="46" opacity="68%" r="1px" /><circle cx="103" fill="white" cy="150" opacity="43%" r="1px" /><circle cx="247" fill="white" cy="495" opacity="37%" r="1px" /><circle cx="105" fill="white" cy="235" opacity="57%" r="1px" /><circle cx="111" fill="white" cy="69" opacity="90%" r="1px" /><circle cx="329" fill="white" cy="477" opacity="67%" r="1px" /><circle cx="423" fill="white" cy="443" opacity="25%" r="1px" /><circle cx="165" fill="white" cy="187" opacity="99%" r="1px" /><circle cx="347" fill="white" cy="64" opacity="65%" r="1px" /><circle cx="163" fill="white" cy="252" opacity="81%" r="1px" /><circle cx="405" fill="white" cy="160" opacity="25%" r="1px" /><circle cx="282" fill="white" cy="422" opacity="38%" r="1px" /><circle cx="486" fill="white" cy="180" opacity="69%" r="1px" /><circle cx="13" fill="white" cy="384" opacity="37%" r="1px" /><circle cx="302" fill="white" cy="409" opacity="60%" r="1px" /><circle cx="341" fill="white" cy="180" opacity="84%" r="1px" /><circle cx="139" fill="white" cy="234" opacity="31%" r="1px" /><circle cx="219" fill="white" cy="103" opacity="62%" r="1px" /><circle cx="52" fill="white" cy="270" opacity="96%" r="1px" /><circle cx="249" fill="white" cy="144" opacity="81%" r="1px" /><circle cx="161" fill="white" cy="416" opacity="91%" r="1px" /><circle cx="338" fill="white" cy="261" opacity="22%" r="1px" /><circle cx="456" fill="white" cy="361" opacity="71%" r="1px" /><circle cx="347" fill="white" cy="370" opacity="57%" r="1px" /><circle cx="385" fill="white" cy="194" opacity="13%" r="1px" /><circle cx="190" fill="white" cy="473" opacity="4%" r="1px" /><circle cx="495" fill="white" cy="191" opacity="34%" r="1px" /><circle cx="334" fill="white" cy="320" opacity="91%" r="1px" /><circle cx="56" fill="white" cy="242" opacity="65%" r="1px" /><circle cx="206" fill="white" cy="341" opacity="91%" r="1px" /><circle cx="170" fill="white" cy="467" opacity="50%" r="1px" /><circle cx="223" fill="white" cy="90" opacity="52%" r="1px" /><circle cx="135" fill="white" cy="290" opacity="68%" r="1px" /><circle cx="494" fill="white" cy="59" opacity="33%" r="1px" /><circle cx="195" fill="white" cy="328" opacity="8%" r="1px" /><circle cx="128" fill="white" cy="169" opacity="47%" r="1px" /><circle cx="304" fill="white" cy="193" opacity="23%" r="1px" /><circle cx="442" fill="white" cy="321" opacity="37%" r="1px" /><circle cx="429" fill="white" cy="381" opacity="50%" r="1px" /><circle cx="371" fill="white" cy="195" opacity="39%" r="1px" /><circle cx="446" fill="white" cy="156" opacity="1%" r="1px" /><circle cx="117" fill="white" cy="144" opacity="48%" r="1px" /><circle cx="309" fill="white" cy="341" opacity="19%" r="1px" /><circle cx="114" fill="white" cy="192" opacity="41%" r="1px" /><circle cx="123" fill="white" cy="388" opacity="56%" r="1px" /><circle cx="317" fill="white" cy="32" opacity="2%" r="1px" /><circle cx="124" fill="white" cy="498" opacity="70%" r="1px" /><circle cx="113" fill="white" cy="411" opacity="37%" r="1px" /><circle cx="433" fill="white" cy="35" opacity="92%" r="1px" /><circle cx="242" fill="white" cy="169" opacity="38%" r="1px" /><circle cx="390" fill="white" cy="452" opacity="73%" r="1px" /><circle cx="10" fill="white" cy="420" opacity="5%" r="1px" /><circle cx="111" fill="white" cy="355" opacity="59%" r="1px" /><circle cx="416" fill="white" cy="226" opacity="7%" r="1px" /><circle cx="182" fill="white" cy="85" opacity="66%" r="1px" /><circle cx="51" fill="white" cy="284" opacity="80%" r="1px" /><circle cx="181" fill="white" cy="69" opacity="62%" r="1px" /><circle cx="36" fill="white" cy="148" opacity="39%" r="1px" /><circle cx="306" fill="white" cy="364" opacity="72%" r="1px" /><circle cx="267" fill="white" cy="355" opacity="83%" r="1px" /><circle cx="146" fill="white" cy="339" opacity="2%" r="1px" /><circle cx="424" fill="white" cy="387" opacity="99%" r="1px" /><circle cx="12" fill="white" cy="440" opacity="41%" r="1px" /><circle cx="338" fill="white" cy="498" opacity="91%" r="1px" /><circle cx="133" fill="white" cy="342" opacity="42%" r="1px" /><circle cx="77" fill="white" cy="50" opacity="64%" r="1px" /></svg>