<svg viewBox="0 0 500 500" xmlns="http://www.w3.org/2000/svg"><circle cx="183" fill="white" cy="356" fill-opacity="95%" r="0.75px" /><circle cx="443" fill="white" cy="418" fill-opacity="81%" r="0.75px" /><circle cx="179" fill="white" cy="352" fill-opacity="83%" r="0.75px" /><circle cx="375" fill="white" cy="85" fill-opacity="71%" r="0.75px" /><circle cx="80" fill="white" cy="489" fill-opacity="73%" r="0.75px" /><circle cx="279" fill="white" cy="482" fill-opacity="94%" r="0.75px" /><circle cx="367" fill="white" cy="95" fill-opacity="65%" r="0.75px" /><circle cx="34" fill="white" cy="433" fill-opacity="62%" r="0.75px" /><circle cx="342" fill="white" cy="230" fill-opacity="96%" r="0.75px" /><circle cx="357" fill="white" cy="44" fill-opacity="82%" r="0.75px" /><circle cx="336" fill="white" cy="148" fill-opacity="63%" r="0.75px" /><circle cx="3" fill="white" cy="11" fill-opacity="80%" r="0.75px" /><circle cx="240" fill="white" cy="117" fill-opacity="68%" r="0.75px" /><circle cx="476" fill="white" cy="453" fill-opacity="71%" r="0.75px" /><circle cx="72" fill="white" cy="190" fill-opacity="61%" r="0.75px" /><circle cx="488" fill="white" cy="92" fill-opacity="80%" r="0.75px" /><circle cx="84" fill="white" cy="483" fill-opacity="57%" r="0.75px" /><circle cx="30" fill="white" cy="210" fill-opacity="76%" r="0.75px" /><circle cx="143" fill="white" cy="164" fill-opacity="72%" r="0.75px" /><circle cx="92" fill="white" cy="133" fill-opacity="51%" r="0.75px" /><circle cx="195" fill="white" cy="118" fill-opacity="88%" r="0.75px" /><circle cx="412" fill="white" cy="162" fill-opacity="87%" r="0.75px" /><circle cx="314" fill="white" cy="399" fill-opacity="98%" r="0.75px" /><circle cx="75" fill="white" cy="334" fill-opacity="54%" r="0.75px" /><circle cx="223" fill="white" cy="412" fill-opacity="52%" r="0.75px" /><circle cx="220" fill="white" cy="32" fill-opacity="87%" r="0.75px" /><circle cx="161" fill="white" cy="4" fill-opacity="94%" r="0.75px" /><circle cx="328" fill="white" cy="233" fill-opacity="50%" r="0.75px" /><circle cx="428" fill="white" cy="366" fill-opacity="85%" r="0.75px" /><circle cx="105" fill="white" cy="272" fill-opacity="55%" r="0.75px" /><circle cx="372" fill="white" cy="287" fill-opacity="93%" r="0.75px" /><circle cx="390" fill="white" cy="318" fill-opacity="67%" r="0.75px" /><circle cx="104" fill="white" cy="429" fill-opacity="66%" r="0.75px" /><circle cx="204" fill="white" cy="232" fill-opacity="94%" r="0.75px" /><circle cx="259" fill="white" cy="244" fill-opacity="63%" r="0.75px" /><circle cx="317" fill="white" cy="303" fill-opacity="80%" r="0.75px" /><circle cx="146" fill="white" cy="369" fill-opacity="65%" r="0.75px" /><circle cx="402" fill="white" cy="358" fill-opacity="87%" r="0.75px" /><circle cx="199" fill="white" cy="26" fill-opacity="55%" r="0.75px" /><circle cx="486" fill="white" cy="381" fill-opacity="96%" r="0.75px" /><circle cx="286" fill="white" cy="195" fill-opacity="91%" r="0.75px" /><circle cx="135" fill="white" cy="188" fill-opacity="67%" r="0.75px" /><circle cx="142" fill="white" cy="365" fill-opacity="69%" r="0.75px" /><circle cx="351" fill="white" cy="390" fill-opacity="59%" r="0.75px" /><circle cx="76" fill="white" cy="498" fill-opacity="84%" r="0.75px" /><circle cx="473" fill="white" cy="44" fill-opacity="99%" r="0.75px" /><circle cx="353" fill="white" cy="458" fill-opacity="62%" r="0.75px" /><circle cx="65" fill="white" cy="371" fill-opacity="78%" r="0.75px" /><circle cx="441" fill="white" cy="395" fill-opacity="96%" r="0.75px" /><circle cx="285" fill="white" cy="400" fill-opacity="77%" r="0.75px" /><circle cx="85" fill="white" cy="118" fill-opacity="96%" r="0.75px" /><circle cx="251" fill="white" cy="157" fill-opacity="91%" r="0.75px" /><circle cx="444" fill="white" cy="14" fill-opacity="59%" r="0.75px" /><circle cx="487" fill="white" cy="329" fill-opacity="52%" r="0.75px" /><circle cx="26" fill="white" cy="436" fill-opacity="81%" r="0.75px" /><circle cx="165" fill="white" cy="296" fill-opacity="92%" r="0.75px" /><circle cx="113" fill="white" cy="153" fill-opacity="78%" r="0.75px" /><circle cx="150" fill="white" cy="210" fill-opacity="92%" r="0.75px" /><circle cx="412" fill="white" cy="25" fill-opacity="97%" r="0.75px" /><circle cx="490" fill="white" cy="93" fill-opacity="59%" r="0.75px" /><circle cx="176" fill="white" cy="263" fill-opacity="90%" r="0.75px" /><circle cx="27" fill="white" cy="9" fill-opacity="87%" r="0.75px" /><circle cx="8" fill="white" cy="68" fill-opacity="56%" r="0.75px" /><circle cx="139" fill="white" cy="363" fill-opacity="55%" r="0.75px" /><circle cx="394" fill="white" cy="459" fill-opacity="57%" r="0.75px" /><circle cx="327" fill="white" cy="25" fill-opacity="71%" r="0.75px" /><circle cx="173" fill="white" cy="102" fill-opacity="61%" r="0.75px" /><circle cx="384" fill="white" cy="370" fill-opacity="73%" r="0.75px" /><circle cx="241" fill="white" cy="267" fill-opacity="57%" r="0.75px" /><circle cx="436" fill="white" cy="73" fill-opacity="94%" r="0.75px" /><circle cx="173" fill="white" cy="326" fill-opacity="76%" r="0.75px" /><circle cx="499" fill="white" cy="274" fill-opacity="89%" r="0.75px" /><circle cx="321" fill="white" cy="456" fill-opacity="64%" r="0.75px" /><circle cx="308" fill="white" cy="378" fill-opacity="59%" r="0.75px" /><circle cx="229" fill="white" cy="213" fill-opacity="89%" r="0.75px" /><circle cx="190" fill="white" cy="328" fill-opacity="72%" r="0.75px" /><circle cx="236" fill="white" cy="353" fill-opacity="86%" r="0.75px" /><circle cx="88" fill="white" cy="148" fill-opacity="55%" r="0.75px" /><circle cx="225" fill="white" cy="85" fill-opacity="84%" r="0.75px" /><circle cx="85" fill="white" cy="213" fill-opacity="78%" r="0.75px" /><circle cx="109" fill="white" cy="245" fill-opacity="50%" r="0.75px" /><circle cx="322" fill="white" cy="293" fill-opacity="52%" r="0.75px" /><circle cx="243" fill="white" cy="480" fill-opacity="93%" r="0.75px" /><circle cx="331" fill="white" cy="207" fill-opacity="83%" r="0.75px" /><circle cx="64" fill="white" cy="60" fill-opacity="93%" r="0.75px" /><circle cx="394" fill="white" cy="342" fill-opacity="60%" r="0.75px" /><circle cx="393" fill="white" cy="245" fill-opacity="85%" r="0.75px" /><circle cx="274" fill="white" cy="42" fill-opacity="97%" r="0.75px" /><circle cx="472" fill="white" cy="96" fill-opacity="99%" r="0.75px" /><circle cx="246" fill="white" cy="133" fill-opacity="65%" r="0.75px" /><circle cx="304" fill="white" cy="219" fill-opacity="58%" r="0.75px" /><circle cx="303" fill="white" cy="215" fill-opacity="83%" r="0.75px" /><circle cx="494" fill="white" cy="142" fill-opacity="50%" r="0.75px" /><circle cx="255" fill="white" cy="467" fill-opacity="60%" r="0.75px" /><circle cx="50" fill="white" cy="369" fill-opacity="80%" r="0.75px" /><circle cx="259" fill="white" cy="18" fill-opacity="81%" r="0.75px" /><circle cx="127" fill="white" cy="197" fill-opacity="77%" r="0.75px" /><circle cx="11" fill="white" cy="404" fill-opacity="76%" r="0.75px" /><circle cx="63" fill="white" cy="483" fill-opacity="92%" r="0.75px" /><circle cx="481" fill="white" cy="60" fill-opacity="71%" r="0.75px" /><circle cx="299" fill="white" cy="171" fill-opacity="61%" r="0.75px" /><circle cx="401" fill="white" cy="346" fill-opacity="56%" r="0.75px" /><circle cx="367" fill="white" cy="116" fill-opacity="82%" r="0.75px" /><circle cx="428" fill="white" cy="354" fill-opacity="77%" r="0.75px" /><circle cx="362" fill="white" cy="51" fill-opacity="93%" r="0.75px" /><circle cx="65" fill="white" cy="341" fill-opacity="70%" r="0.75px" /><circle cx="20" fill="white" cy="140" fill-opacity="82%" r="0.75px" /><circle cx="41" fill="white" cy="188" fill-opacity="86%" r="0.75px" /><circle cx="41" fill="white" cy="247" fill-opacity="62%" r="0.75px" /><circle cx="318" fill="white" cy="223" fill-opacity="64%" r="0.75px" /><circle cx="53" fill="white" cy="49" fill-opacity="98%" r="0.75px" /><circle cx="317" fill="white" cy="142" fill-opacity="53%" r="0.75px" /><circle cx="175" fill="white" cy="408" fill-opacity="89%" r="0.75px" /><circle cx="470" fill="white" cy="67" fill-opacity="55%" r="0.75px" /><circle cx="50" fill="white" cy="281" fill-opacity="67%" r="0.75px" /><circle cx="380" fill="white" cy="113" fill-opacity="96%" r="0.75px" /><circle cx="375" fill="white" cy="455" fill-opacity="57%" r="0.75px" /><circle cx="364" fill="white" cy="409" fill-opacity="61%" r="0.75px" /><circle cx="107" fill="white" cy="179" fill-opacity="53%" r="0.75px" /><circle cx="302" fill="white" cy="495" fill-opacity="77%" r="0.75px" /><circle cx="164" fill="white" cy="218" fill-opacity="99%" r="0.75px" /><circle cx="453" fill="white" cy="116" fill-opacity="76%" r="0.75px" /><circle cx="443" fill="white" cy="261" fill-opacity="59%" r="0.75px" /><circle cx="206" fill="white" cy="89" fill-opacity="91%" r="0.75px" /><circle cx="83" fill="white" cy="300" fill-opacity="52%" r="0.75px" /></svg>