<svg viewBox="0 0 500 500" xmlns="http://www.w3.org/2000/svg"><circle cx="209" fill="white" cy="194" fill-opacity="71%" r="1.5px" /><circle cx="496" fill="white" cy="364" fill-opacity="59%" r="1.5px" /><circle cx="243" fill="white" cy="449" fill-opacity="64%" r="1.5px" /><circle cx="300" fill="white" cy="62" fill-opacity="80%" r="1.5px" /><circle cx="117" fill="white" cy="342" fill-opacity="80%" r="1.5px" /><circle cx="17" fill="white" cy="499" fill-opacity="62%" r="1.5px" /><circle cx="40" fill="white" cy="346" fill-opacity="81%" r="1.5px" /><circle cx="187" fill="white" cy="37" fill-opacity="89%" r="1.5px" /><circle cx="77" fill="white" cy="23" fill-opacity="52%" r="1.5px" /><circle cx="494" fill="white" cy="128" fill-opacity="62%" r="1.5px" /><circle cx="225" fill="white" cy="377" fill-opacity="66%" r="1.5px" /><circle cx="242" fill="white" cy="177" fill-opacity="69%" r="1.5px" /><circle cx="359" fill="white" cy="106" fill-opacity="63%" r="1.5px" /><circle cx="421" fill="white" cy="143" fill-opacity="80%" r="1.5px" /><circle cx="120" fill="white" cy="136" fill-opacity="85%" r="1.5px" /><circle cx="269" fill="white" cy="388" fill-opacity="69%" r="1.5px" /><circle cx="457" fill="white" cy="404" fill-opacity="92%" r="1.5px" /><circle cx="33" fill="white" cy="336" fill-opacity="86%" r="1.5px" /><circle cx="336" fill="white" cy="332" fill-opacity="60%" r="1.5px" /><circle cx="101" fill="white" cy="413" fill-opacity="72%" r="1.5px" /><circle cx="412" fill="white" cy="57" fill-opacity="97%" r="1.5px" /><circle cx="72" fill="white" cy="350" fill-opacity="96%" r="1.5px" /><circle cx="261" fill="white" cy="360" fill-opacity="87%" r="1.5px" /><circle cx="158" fill="white" cy="140" fill-opacity="78%" r="1.5px" /><circle cx="431" fill="white" cy="495" fill-opacity="91%" r="1.5px" /><circle cx="326" fill="white" cy="396" fill-opacity="63%" r="1.5px" /><circle cx="349" fill="white" cy="336" fill-opacity="69%" r="1.5px" /><circle cx="105" fill="white" cy="312" fill-opacity="78%" r="1.5px" /><circle cx="255" fill="white" cy="9" fill-opacity="92%" r="1.5px" /><circle cx="431" fill="white" cy="254" fill-opacity="85%" r="1.5px" /><circle cx="51" fill="white" cy="410" fill-opacity="68%" r="1.5px" /><circle cx="110" fill="white" cy="98" fill-opacity="70%" r="1.5px" /><circle cx="137" fill="white" cy="162" fill-opacity="79%" r="1.5px" /><circle cx="368" fill="white" cy="122" fill-opacity="84%" r="1.5px" /><circle cx="133" fill="white" cy="138" fill-opacity="95%" r="1.5px" /><circle cx="254" fill="white" cy="410" fill-opacity="97%" r="1.5px" /><circle cx="234" fill="white" cy="324" fill-opacity="50%" r="1.5px" /><circle cx="14" fill="white" cy="310" fill-opacity="50%" r="1.5px" /><circle cx="149" fill="white" cy="476" fill-opacity="60%" r="1.5px" /><circle cx="412" fill="white" cy="181" fill-opacity="95%" r="1.5px" /><circle cx="267" fill="white" cy="321" fill-opacity="91%" r="1.5px" /><circle cx="454" fill="white" cy="224" fill-opacity="76%" r="1.5px" /><circle cx="377" fill="white" cy="342" fill-opacity="67%" r="1.5px" /><circle cx="222" fill="white" cy="193" fill-opacity="87%" r="1.5px" /><circle cx="315" fill="white" cy="231" fill-opacity="60%" r="1.5px" /><circle cx="284" fill="white" cy="371" fill-opacity="50%" r="1.5px" /><circle cx="374" fill="white" cy="487" fill-opacity="93%" r="1.5px" /><circle cx="490" fill="white" cy="254" fill-opacity="52%" r="1.5px" /><circle cx="60" fill="white" cy="56" fill-opacity="89%" r="1.5px" /><circle cx="316" fill="white" cy="333" fill-opacity="73%" r="1.5px" /></svg>