<svg viewBox="0 0 500 500" xmlns="http://www.w3.org/2000/svg"><circle cx="314" fill="white" cy="215" opacity="89%" r="0.5px" /><circle cx="299" fill="white" cy="289" opacity="26%" r="0.5px" /><circle cx="244" fill="white" cy="268" opacity="78%" r="0.5px" /><circle cx="398" fill="white" cy="76" opacity="28%" r="0.5px" /><circle cx="123" fill="white" cy="416" opacity="43%" r="0.5px" /><circle cx="135" fill="white" cy="300" opacity="77%" r="0.5px" /><circle cx="395" fill="white" cy="58" opacity="77%" r="0.5px" /><circle cx="348" fill="white" cy="100" opacity="61%" r="0.5px" /><circle cx="405" fill="white" cy="279" opacity="26%" r="0.5px" /><circle cx="66" fill="white" cy="498" opacity="0%" r="0.5px" /><circle cx="223" fill="white" cy="397" opacity="39%" r="0.5px" /><circle cx="280" fill="white" cy="151" opacity="73%" r="0.5px" /><circle cx="182" fill="white" cy="427" opacity="23%" r="0.5px" /><circle cx="144" fill="white" cy="56" opacity="28%" r="0.5px" /><circle cx="219" fill="white" cy="45" opacity="51%" r="0.5px" /><circle cx="161" fill="white" cy="254" opacity="16%" r="0.5px" /><circle cx="436" fill="white" cy="496" opacity="1%" r="0.5px" /><circle cx="464" fill="white" cy="494" opacity="36%" r="0.5px" /><circle cx="69" fill="white" cy="165" opacity="66%" r="0.5px" /><circle cx="405" fill="white" cy="172" opacity="22%" r="0.5px" /><circle cx="84" fill="white" cy="279" opacity="5%" r="0.5px" /><circle cx="293" fill="white" cy="114" opacity="61%" r="0.5px" /><circle cx="89" fill="white" cy="123" opacity="37%" r="0.5px" /><circle cx="458" fill="white" cy="120" opacity="49%" r="0.5px" /><circle cx="494" fill="white" cy="183" opacity="36%" r="0.5px" /><circle cx="258" fill="white" cy="247" opacity="3%" r="0.5px" /><circle cx="350" fill="white" cy="362" opacity="89%" r="0.5px" /><circle cx="70" fill="white" cy="77" opacity="44%" r="0.5px" /><circle cx="275" fill="white" cy="197" opacity="3%" r="0.5px" /><circle cx="230" fill="white" cy="368" opacity="49%" r="0.5px" /><circle cx="140" fill="white" cy="117" opacity="99%" r="0.5px" /><circle cx="323" fill="white" cy="96" opacity="88%" r="0.5px" /><circle cx="105" fill="white" cy="260" opacity="3%" r="0.5px" /><circle cx="239" fill="white" cy="210" opacity="13%" r="0.5px" /><circle cx="412" fill="white" cy="308" opacity="80%" r="0.5px" /><circle cx="279" fill="white" cy="392" opacity="11%" r="0.5px" /><circle cx="229" fill="white" cy="386" opacity="87%" r="0.5px" /><circle cx="224" fill="white" cy="175" opacity="63%" r="0.5px" /><circle cx="386" fill="white" cy="235" opacity="56%" r="0.5px" /><circle cx="220" fill="white" cy="203" opacity="46%" r="0.5px" /><circle cx="483" fill="white" cy="487" opacity="71%" r="0.5px" /><circle cx="110" fill="white" cy="44" opacity="77%" r="0.5px" /><circle cx="87" fill="white" cy="303" opacity="64%" r="0.5px" /><circle cx="228" fill="white" cy="455" opacity="44%" r="0.5px" /><circle cx="36" fill="white" cy="407" opacity="31%" r="0.5px" /><circle cx="107" fill="white" cy="285" opacity="93%" r="0.5px" /><circle cx="425" fill="white" cy="430" opacity="40%" r="0.5px" /><circle cx="264" fill="white" cy="450" opacity="5%" r="0.5px" /><circle cx="264" fill="white" cy="446" opacity="34%" r="0.5px" /><circle cx="472" fill="white" cy="259" opacity="37%" r="0.5px" /><circle cx="323" fill="white" cy="439" opacity="16%" r="0.5px" /><circle cx="151" fill="white" cy="335" opacity="85%" r="0.5px" /><circle cx="367" fill="white" cy="473" opacity="59%" r="0.5px" /><circle cx="76" fill="white" cy="267" opacity="31%" r="0.5px" /><circle cx="21" fill="white" cy="183" opacity="71%" r="0.5px" /><circle cx="28" fill="white" cy="228" opacity="27%" r="0.5px" /><circle cx="424" fill="white" cy="385" opacity="66%" r="0.5px" /><circle cx="376" fill="white" cy="374" opacity="14%" r="0.5px" /><circle cx="247" fill="white" cy="492" opacity="9%" r="0.5px" /><circle cx="195" fill="white" cy="196" opacity="59%" r="0.5px" /><circle cx="445" fill="white" cy="310" opacity="74%" r="0.5px" /><circle cx="379" fill="white" cy="67" opacity="14%" r="0.5px" /><circle cx="403" fill="white" cy="82" opacity="42%" r="0.5px" /><circle cx="489" fill="white" cy="274" opacity="32%" r="0.5px" /><circle cx="95" fill="white" cy="420" opacity="38%" r="0.5px" /><circle cx="96" fill="white" cy="127" opacity="39%" r="0.5px" /><circle cx="463" fill="white" cy="399" opacity="87%" r="0.5px" /><circle cx="157" fill="white" cy="44" opacity="33%" r="0.5px" /><circle cx="289" fill="white" cy="242" opacity="90%" r="0.5px" /><circle cx="204" fill="white" cy="306" opacity="93%" r="0.5px" /><circle cx="353" fill="white" cy="265" opacity="69%" r="0.5px" /><circle cx="97" fill="white" cy="206" opacity="32%" r="0.5px" /><circle cx="266" fill="white" cy="179" opacity="4%" r="0.5px" /><circle cx="472" fill="white" cy="104" opacity="6%" r="0.5px" /><circle cx="68" fill="white" cy="368" opacity="38%" r="0.5px" /><circle cx="255" fill="white" cy="391" opacity="69%" r="0.5px" /><circle cx="489" fill="white" cy="16" opacity="59%" r="0.5px" /><circle cx="154" fill="white" cy="202" opacity="71%" r="0.5px" /><circle cx="68" fill="white" cy="75" opacity="74%" r="0.5px" /><circle cx="4" fill="white" cy="52" opacity="14%" r="0.5px" /><circle cx="136" fill="white" cy="171" opacity="66%" r="0.5px" /><circle cx="421" fill="white" cy="478" opacity="86%" r="0.5px" /><circle cx="242" fill="white" cy="419" opacity="80%" r="0.5px" /><circle cx="78" fill="white" cy="447" opacity="73%" r="0.5px" /><circle cx="6" fill="white" cy="138" opacity="61%" r="0.5px" /><circle cx="177" fill="white" cy="281" opacity="21%" r="0.5px" /><circle cx="448" fill="white" cy="473" opacity="97%" r="0.5px" /><circle cx="38" fill="white" cy="453" opacity="26%" r="0.5px" /><circle cx="27" fill="white" cy="357" opacity="60%" r="0.5px" /><circle cx="127" fill="white" cy="478" opacity="44%" r="0.5px" /><circle cx="207" fill="white" cy="350" opacity="42%" r="0.5px" /><circle cx="414" fill="white" cy="246" opacity="26%" r="0.5px" /><circle cx="64" fill="white" cy="323" opacity="83%" r="0.5px" /><circle cx="343" fill="white" cy="20" opacity="13%" r="0.5px" /><circle cx="19" fill="white" cy="282" opacity="83%" r="0.5px" /><circle cx="99" fill="white" cy="402" opacity="12%" r="0.5px" /><circle cx="314" fill="white" cy="454" opacity="23%" r="0.5px" /><circle cx="416" fill="white" cy="14" opacity="11%" r="0.5px" /><circle cx="49" fill="white" cy="395" opacity="7%" r="0.5px" /><circle cx="167" fill="white" cy="196" opacity="89%" r="0.5px" /><circle cx="369" fill="white" cy="456" opacity="14%" r="0.5px" /><circle cx="84" fill="white" cy="159" opacity="15%" r="0.5px" /><circle cx="15" fill="white" cy="184" opacity="27%" r="0.5px" /><circle cx="464" fill="white" cy="469" opacity="17%" r="0.5px" /><circle cx="471" fill="white" cy="270" opacity="94%" r="0.5px" /><circle cx="311" fill="white" cy="479" opacity="46%" r="0.5px" /><circle cx="134" fill="white" cy="70" opacity="71%" r="0.5px" /><circle cx="332" fill="white" cy="155" opacity="58%" r="0.5px" /><circle cx="156" fill="white" cy="200" opacity="4%" r="0.5px" /><circle cx="102" fill="white" cy="391" opacity="34%" r="0.5px" /><circle cx="38" fill="white" cy="163" opacity="51%" r="0.5px" /><circle cx="15" fill="white" cy="238" opacity="34%" r="0.5px" /><circle cx="195" fill="white" cy="243" opacity="33%" r="0.5px" /><circle cx="450" fill="white" cy="21" opacity="61%" r="0.5px" /><circle cx="163" fill="white" cy="443" opacity="64%" r="0.5px" /><circle cx="480" fill="white" cy="434" opacity="0%" r="0.5px" /><circle cx="137" fill="white" cy="32" opacity="85%" r="0.5px" /><circle cx="180" fill="white" cy="265" opacity="45%" r="0.5px" /><circle cx="281" fill="white" cy="153" opacity="35%" r="0.5px" /><circle cx="358" fill="white" cy="130" opacity="15%" r="0.5px" /><circle cx="427" fill="white" cy="359" opacity="19%" r="0.5px" /><circle cx="39" fill="white" cy="424" opacity="4%" r="0.5px" /><circle cx="491" fill="white" cy="87" opacity="64%" r="0.5px" /><circle cx="190" fill="white" cy="318" opacity="54%" r="0.5px" /><circle cx="486" fill="white" cy="212" opacity="7%" r="0.5px" /></svg>