<svg viewBox="0 0 500 500" xmlns="http://www.w3.org/2000/svg"><circle cx="352" fill="white" cy="69" opacity="29%" r="1.25px" /><circle cx="284" fill="white" cy="492" opacity="78%" r="1.25px" /><circle cx="93" fill="white" cy="19" opacity="58%" r="1.25px" /><circle cx="27" fill="white" cy="188" opacity="9%" r="1.25px" /><circle cx="363" fill="white" cy="446" opacity="11%" r="1.25px" /><circle cx="19" fill="white" cy="345" opacity="20%" r="1.25px" /><circle cx="60" fill="white" cy="407" opacity="41%" r="1.25px" /><circle cx="476" fill="white" cy="240" opacity="66%" r="1.25px" /><circle cx="267" fill="white" cy="144" opacity="22%" r="1.25px" /><circle cx="404" fill="white" cy="232" opacity="2%" r="1.25px" /><circle cx="227" fill="white" cy="106" opacity="86%" r="1.25px" /><circle cx="334" fill="white" cy="332" opacity="38%" r="1.25px" /><circle cx="393" fill="white" cy="290" opacity="75%" r="1.25px" /><circle cx="279" fill="white" cy="126" opacity="69%" r="1.25px" /><circle cx="136" fill="white" cy="113" opacity="12%" r="1.25px" /><circle cx="250" fill="white" cy="51" opacity="50%" r="1.25px" /><circle cx="460" fill="white" cy="61" opacity="21%" r="1.25px" /><circle cx="251" fill="white" cy="278" opacity="39%" r="1.25px" /><circle cx="349" fill="white" cy="390" opacity="40%" r="1.25px" /><circle cx="454" fill="white" cy="472" opacity="37%" r="1.25px" /><circle cx="153" fill="white" cy="124" opacity="74%" r="1.25px" /><circle cx="478" fill="white" cy="465" opacity="95%" r="1.25px" /><circle cx="362" fill="white" cy="189" opacity="14%" r="1.25px" /><circle cx="401" fill="white" cy="18" opacity="95%" r="1.25px" /><circle cx="457" fill="white" cy="225" opacity="17%" r="1.25px" /><circle cx="43" fill="white" cy="219" opacity="37%" r="1.25px" /><circle cx="168" fill="white" cy="414" opacity="7%" r="1.25px" /><circle cx="213" fill="white" cy="56" opacity="36%" r="1.25px" /><circle cx="165" fill="white" cy="154" opacity="87%" r="1.25px" /><circle cx="441" fill="white" cy="89" opacity="83%" r="1.25px" /><circle cx="145" fill="white" cy="207" opacity="37%" r="1.25px" /><circle cx="12" fill="white" cy="187" opacity="77%" r="1.25px" /><circle cx="123" fill="white" cy="226" opacity="62%" r="1.25px" /><circle cx="421" fill="white" cy="376" opacity="27%" r="1.25px" /><circle cx="287" fill="white" cy="449" opacity="82%" r="1.25px" /><circle cx="271" fill="white" cy="4" opacity="33%" r="1.25px" /><circle cx="361" fill="white" cy="195" opacity="81%" r="1.25px" /><circle cx="115" fill="white" cy="415" opacity="11%" r="1.25px" /><circle cx="322" fill="white" cy="285" opacity="37%" r="1.25px" /><circle cx="114" fill="white" cy="222" opacity="3%" r="1.25px" /><circle cx="249" fill="white" cy="405" opacity="26%" r="1.25px" /><circle cx="307" fill="white" cy="160" opacity="83%" r="1.25px" /><circle cx="402" fill="white" cy="258" opacity="87%" r="1.25px" /><circle cx="242" fill="white" cy="444" opacity="23%" r="1.25px" /><circle cx="207" fill="white" cy="3" opacity="3%" r="1.25px" /><circle cx="49" fill="white" cy="144" opacity="10%" r="1.25px" /><circle cx="449" fill="white" cy="4" opacity="48%" r="1.25px" /><circle cx="97" fill="white" cy="376" opacity="74%" r="1.25px" /><circle cx="179" fill="white" cy="61" opacity="74%" r="1.25px" /><circle cx="390" fill="white" cy="262" opacity="5%" r="1.25px" /></svg>