<svg viewBox="0 0 500 500" xmlns="http://www.w3.org/2000/svg"><circle cx="75" fill="white" cy="421" fill-opacity="91%" r="1.25px" /><circle cx="402" fill="white" cy="469" fill-opacity="65%" r="1.25px" /><circle cx="18" fill="white" cy="196" fill-opacity="50%" r="1.25px" /><circle cx="81" fill="white" cy="494" fill-opacity="83%" r="1.25px" /><circle cx="192" fill="white" cy="239" fill-opacity="53%" r="1.25px" /><circle cx="109" fill="white" cy="194" fill-opacity="59%" r="1.25px" /><circle cx="163" fill="white" cy="316" fill-opacity="75%" r="1.25px" /><circle cx="418" fill="white" cy="151" fill-opacity="70%" r="1.25px" /><circle cx="376" fill="white" cy="487" fill-opacity="91%" r="1.25px" /><circle cx="426" fill="white" cy="252" fill-opacity="60%" r="1.25px" /><circle cx="467" fill="white" cy="217" fill-opacity="92%" r="1.25px" /><circle cx="190" fill="white" cy="339" fill-opacity="65%" r="1.25px" /><circle cx="189" fill="white" cy="19" fill-opacity="62%" r="1.25px" /><circle cx="243" fill="white" cy="374" fill-opacity="70%" r="1.25px" /><circle cx="226" fill="white" cy="85" fill-opacity="85%" r="1.25px" /><circle cx="28" fill="white" cy="121" fill-opacity="62%" r="1.25px" /><circle cx="230" fill="white" cy="383" fill-opacity="71%" r="1.25px" /><circle cx="209" fill="white" cy="252" fill-opacity="70%" r="1.25px" /><circle cx="120" fill="white" cy="254" fill-opacity="99%" r="1.25px" /><circle cx="130" fill="white" cy="89" fill-opacity="86%" r="1.25px" /><circle cx="437" fill="white" cy="50" fill-opacity="50%" r="1.25px" /><circle cx="214" fill="white" cy="299" fill-opacity="95%" r="1.25px" /><circle cx="456" fill="white" cy="195" fill-opacity="73%" r="1.25px" /><circle cx="184" fill="white" cy="332" fill-opacity="58%" r="1.25px" /><circle cx="158" fill="white" cy="126" fill-opacity="99%" r="1.25px" /><circle cx="259" fill="white" cy="440" fill-opacity="68%" r="1.25px" /><circle cx="75" fill="white" cy="152" fill-opacity="70%" r="1.25px" /><circle cx="459" fill="white" cy="9" fill-opacity="97%" r="1.25px" /><circle cx="214" fill="white" cy="152" fill-opacity="65%" r="1.25px" /><circle cx="2" fill="white" cy="201" fill-opacity="60%" r="1.25px" /><circle cx="33" fill="white" cy="159" fill-opacity="91%" r="1.25px" /><circle cx="278" fill="white" cy="311" fill-opacity="68%" r="1.25px" /><circle cx="492" fill="white" cy="290" fill-opacity="83%" r="1.25px" /><circle cx="409" fill="white" cy="239" fill-opacity="99%" r="1.25px" /><circle cx="13" fill="white" cy="332" fill-opacity="72%" r="1.25px" /><circle cx="250" fill="white" cy="329" fill-opacity="52%" r="1.25px" /><circle cx="430" fill="white" cy="359" fill-opacity="65%" r="1.25px" /><circle cx="221" fill="white" cy="114" fill-opacity="99%" r="1.25px" /><circle cx="84" fill="white" cy="70" fill-opacity="50%" r="1.25px" /><circle cx="238" fill="white" cy="143" fill-opacity="86%" r="1.25px" /><circle cx="213" fill="white" cy="30" fill-opacity="60%" r="1.25px" /><circle cx="384" fill="white" cy="397" fill-opacity="93%" r="1.25px" /><circle cx="482" fill="white" cy="333" fill-opacity="95%" r="1.25px" /><circle cx="288" fill="white" cy="345" fill-opacity="57%" r="1.25px" /><circle cx="107" fill="white" cy="87" fill-opacity="71%" r="1.25px" /><circle cx="173" fill="white" cy="416" fill-opacity="81%" r="1.25px" /><circle cx="236" fill="white" cy="57" fill-opacity="78%" r="1.25px" /><circle cx="227" fill="white" cy="108" fill-opacity="81%" r="1.25px" /><circle cx="321" fill="white" cy="91" fill-opacity="82%" r="1.25px" /><circle cx="215" fill="white" cy="57" fill-opacity="54%" r="1.25px" /><circle cx="110" fill="white" cy="463" fill-opacity="95%" r="1.25px" /><circle cx="263" fill="white" cy="156" fill-opacity="95%" r="1.25px" /><circle cx="113" fill="white" cy="103" fill-opacity="99%" r="1.25px" /><circle cx="466" fill="white" cy="10" fill-opacity="92%" r="1.25px" /><circle cx="54" fill="white" cy="198" fill-opacity="61%" r="1.25px" /><circle cx="440" fill="white" cy="378" fill-opacity="64%" r="1.25px" /><circle cx="117" fill="white" cy="190" fill-opacity="71%" r="1.25px" /><circle cx="320" fill="white" cy="371" fill-opacity="94%" r="1.25px" /><circle cx="162" fill="white" cy="436" fill-opacity="66%" r="1.25px" /><circle cx="459" fill="white" cy="367" fill-opacity="57%" r="1.25px" /><circle cx="16" fill="white" cy="69" fill-opacity="75%" r="1.25px" /><circle cx="62" fill="white" cy="289" fill-opacity="53%" r="1.25px" /><circle cx="73" fill="white" cy="111" fill-opacity="99%" r="1.25px" /><circle cx="284" fill="white" cy="226" fill-opacity="67%" r="1.25px" /><circle cx="275" fill="white" cy="318" fill-opacity="80%" r="1.25px" /><circle cx="12" fill="white" cy="202" fill-opacity="55%" r="1.25px" /><circle cx="49" fill="white" cy="99" fill-opacity="72%" r="1.25px" /><circle cx="304" fill="white" cy="137" fill-opacity="96%" r="1.25px" /><circle cx="112" fill="white" cy="2" fill-opacity="65%" r="1.25px" /><circle cx="50" fill="white" cy="137" fill-opacity="97%" r="1.25px" /><circle cx="323" fill="white" cy="29" fill-opacity="88%" r="1.25px" /><circle cx="357" fill="white" cy="353" fill-opacity="76%" r="1.25px" /><circle cx="26" fill="white" cy="42" fill-opacity="51%" r="1.25px" /><circle cx="160" fill="white" cy="388" fill-opacity="56%" r="1.25px" /><circle cx="478" fill="white" cy="479" fill-opacity="67%" r="1.25px" /></svg>