<svg width="1145" height="454" viewBox="0 0 1145 454" fill="none" xmlns="http://www.w3.org/2000/svg">
<circle cx="438.18" cy="184.179" r="79.0192" transform="rotate(-30.4777 438.18 184.179)" fill="#626FF0"/>
<circle cx="352.344" cy="315.083" r="46.9994" transform="rotate(-30.4777 352.344 315.083)" fill="#FF8C05"/>
<circle cx="576.194" cy="114.194" r="15.481" transform="rotate(-30.4777 576.194 114.194)" fill="white"/>
<circle cx="206.939" cy="203.94" r="105.87" transform="rotate(-30.4777 206.939 203.94)" fill="#CE2726"/>
<path d="M663.5 60.4471L1.5 61.5L0.5 23L4.5 8.5C11.2775 3.02294 14.2125 2.15776 20 1.5H647.5L656 5L663.5 14.5V60.4471Z" fill="#FF8C05"/>
<path d="M599.885 37.8251H507.374C505.599 37.8251 504.159 36.3847 504.159 34.6098C504.159 32.835 505.599 31.3945 507.374 31.3945H599.885C601.659 31.3945 603.1 32.835 603.1 34.6098C603.1 36.3847 601.672 37.8251 599.885 37.8251Z" fill="#1C0A4D"/>
<path d="M44.8469 39.5346C47.5958 39.5346 49.8242 37.3062 49.8242 34.5574C49.8242 31.8085 47.5958 29.5801 44.8469 29.5801C42.098 29.5801 39.8696 31.8085 39.8696 34.5574C39.8696 37.3062 42.098 39.5346 44.8469 39.5346Z" fill="#1C0A4D"/>
<path d="M61.5408 39.5346C64.2896 39.5346 66.518 37.3062 66.518 34.5574C66.518 31.8085 64.2896 29.5801 61.5408 29.5801C58.7919 29.5801 56.5635 31.8085 56.5635 34.5574C56.5635 37.3062 58.7919 39.5346 61.5408 39.5346Z" fill="#1C0A4D"/>
<path d="M78.2346 39.5346C80.9835 39.5346 83.2119 37.3062 83.2119 34.5574C83.2119 31.8085 80.9835 29.5801 78.2346 29.5801C75.4857 29.5801 73.2573 31.8085 73.2573 34.5574C73.2573 37.3062 75.4857 39.5346 78.2346 39.5346Z" fill="#1C0A4D"/>
<path d="M664.924 59.1621H0V63.0205H664.924V59.1621Z" fill="#FF8C05"/>
<rect x="1.5" y="1.5" width="661.924" height="391.839" rx="18.5" stroke="#FF8C05" stroke-width="3"/>
<circle cx="999.567" cy="222.38" r="52.6333" transform="rotate(-30.4777 999.567 222.38)" fill="#626FF0"/>
<circle cx="942.393" cy="342.858" r="31.3055" transform="rotate(-30.4777 942.393 342.858)" fill="#FF8C05"/>
<circle cx="813.117" cy="379.117" r="10.3116" transform="rotate(-30.4777 813.117 379.117)" fill="white"/>
<circle cx="845.541" cy="235.542" r="70.5181" transform="rotate(-30.4777 845.541 235.542)" fill="#CE2726"/>
<path d="M1054.5 111.892H755.595V79.739L758 68C761.087 63.1999 775.465 59.7376 778.102 59.1611L1037 60.5L1047.5 64L1054.5 74.5V111.892Z" fill="#FF8C05"/>
<rect x="755.166" y="60.6611" width="299.238" height="391.839" rx="18.5" stroke="#FF8C05" stroke-width="3"/>
<path d="M1023.02 90.5556H930.507C928.732 90.5556 927.291 89.1151 927.291 87.3403C927.291 85.5655 928.732 84.125 930.507 84.125H1023.02C1024.79 84.125 1026.23 85.5655 1026.23 87.3403C1026.23 89.1151 1024.8 90.5556 1023.02 90.5556Z" fill="#1C0A4D"/>
<path d="M798.512 92.2661C801.261 92.2661 803.49 90.0377 803.49 87.2888C803.49 84.5399 801.261 82.3115 798.512 82.3115C795.764 82.3115 793.535 84.5399 793.535 87.2888C793.535 90.0377 795.764 92.2661 798.512 92.2661Z" fill="#1C0A4D"/>
<path d="M815.206 92.2661C817.955 92.2661 820.183 90.0377 820.183 87.2888C820.183 84.5399 817.955 82.3115 815.206 82.3115C812.457 82.3115 810.229 84.5399 810.229 87.2888C810.229 90.0377 812.457 92.2661 815.206 92.2661Z" fill="#1C0A4D"/>
<path d="M831.9 92.2661C834.649 92.2661 836.877 90.0377 836.877 87.2888C836.877 84.5399 834.649 82.3115 831.9 82.3115C829.151 82.3115 826.923 84.5399 826.923 87.2888C826.923 90.0377 829.151 92.2661 831.9 92.2661Z" fill="#1C0A4D"/>
<rect x="1013.68" y="160.979" width="129.47" height="232.36" rx="18.5" fill="#1C0A4D" stroke="#FF8C05" stroke-width="3"/>
<rect x="1050.76" y="159.479" width="57.8754" height="11.5751" rx="3" fill="#FF8C05"/>
<circle cx="1077.94" cy="227.935" r="46.7014" transform="rotate(-30.4777 1077.94 227.935)" fill="#CE2726"/>
<circle cx="1078.09" cy="309.092" r="25.6327" transform="rotate(-30.4777 1078.09 309.092)" fill="#626FF0"/>
<circle cx="1103.69" cy="362.059" r="17.5735" transform="rotate(-30.4777 1103.69 362.059)" fill="#FF8C05"/>
<circle cx="1065.92" cy="361.809" r="5.78849" transform="rotate(-30.4777 1065.92 361.809)" fill="white"/>
</svg>
