<svg id="emYz0IWcrAu1" xmlns="http://www.w3.org/2000/svg" xmlns:xlink="http://www.w3.org/1999/xlink" viewBox="0 0 664 386" shape-rendering="geometricPrecision" text-rendering="geometricPrecision"><defs><linearGradient id="emYz0IWcrAu25-fill" x1="-50.43" y1="-14.6343" x2="0.381" y2="36.6223" spreadMethod="pad" gradientUnits="userSpaceOnUse" gradientTransform="translate(0 0)"><stop id="emYz0IWcrAu25-fill-0" offset="0.520833%" stop-color="#ff8c05"/><stop id="emYz0IWcrAu25-fill-1" offset="73.9583%" stop-color="#ce2726"/></linearGradient></defs><g id="emYz0IWcrAu2" transform="translate(-143 0)" opacity="0"><path d="M497.699,221h-28.88c-1.267-.021-2.491-.452-3.485-1.227-.994-.774-1.702-1.849-2.015-3.059l-8.514-33.18c-.085-.277-.246-.525-.465-.718-.22-.192-.489-.32-.778-.371h-7.616c-.343.099-.705.117-1.056.054-.352-.063-.684-.206-.97-.417-.285-.211-.517-.485-.677-.8s-.243-.662-.243-1.014.083-.7.243-1.014c.16-.315.392-.589.677-.8.286-.212.618-.354.97-.417.351-.063.713-.045,1.056.054h7.616c1.277.025,2.508.465,3.503,1.253s1.697,1.878,1.997,3.101l8.515,33.18c.105.251.275.472.492.639.219.167.477.275.75.314h28.88c.61,0,1.195.239,1.627.664.431.425.674,1.002.674,1.603-.03.582-.285,1.13-.713,1.531-.429.402-.997.625-1.588.624Z" fill="#ff8c05"/><path d="M497.513,208.858h-34.138c-.339.101-.697.12-1.044.056-.348-.065-.676-.209-.959-.424-.282-.214-.512-.492-.67-.812s-.24-.672-.24-1.03c0-.357.082-.71.24-1.03.158-.319.388-.598.67-.812.283-.215.611-.359.959-.424.347-.063.705-.045,1.044.056h32.386l4.21-16.925h-42.058c-.339.1-.697.119-1.044.055-.348-.064-.676-.209-.959-.423-.282-.215-.512-.493-.67-.813-.158-.319-.24-.672-.24-1.029c0-.358.082-.71.24-1.03s.388-.598.67-.812c.283-.215.611-.36.959-.424.347-.064.705-.045,1.044.055h44.857c.34.008.674.093.977.248.304.156.569.377.776.65.2.261.342.563.417.885.074.322.08.656.015.98l-5.257,21.323c-.152.471-.443.885-.833,1.185-.391.3-.862.473-1.352.495Zm-30.496,22.866c-1.117,0-2.188-.449-2.978-1.248-.789-.799-1.233-1.882-1.233-3.012c0-.56.109-1.113.321-1.63.211-.517.521-.987.912-1.382.391-.396.855-.71,1.366-.924s1.059-.324,1.612-.324c.552,0,1.1.11,1.611.324s.975.528,1.366.924c.391.395.701.865.913,1.382.211.517.32,1.07.32,1.63c0,1.13-.444,2.213-1.233,3.012-.79.799-1.861,1.248-2.977,1.248Zm0-4.422c-.047.006-.09.027-.124.06-.033.034-.054.078-.059.125c0,.184.342.184.342,0c.003-.023.002-.047-.005-.069s-.018-.043-.033-.06c-.015-.018-.034-.032-.055-.041-.021-.01-.043-.015-.066-.015Zm26.286,4.606c-1.117,0-2.188-.449-2.977-1.248-.79-.799-1.234-1.882-1.234-3.012s.444-2.213,1.234-3.012c.789-.799,1.86-1.248,2.977-1.248c1.116,0,2.187.449,2.977,1.248s1.233,1.882,1.233,3.012c.012.567-.088,1.131-.294,1.659-.206.527-.514,1.008-.906,1.413-.393.405-.861.727-1.378.947-.516.22-1.072.333-1.632.333v-.092Zm0-4.444c-.047.005-.09.026-.123.059-.033.034-.054.078-.059.125c0,.184.341.184.341,0-.014-.03-.037-.055-.065-.072-.029-.016-.061-.023-.094-.02v-.092Z" fill="#ff8c05"/></g><path id="emYz0IWcrAu5" d="M208.709,263.064h-117.1927c-4.3729,0-8.0461-3.673-8.0461-8.046v-108.972c0-4.373,3.6732-8.046,8.0461-8.046h117.1927c4.373,0,8.046,3.673,8.046,8.046v108.972c0,4.548-3.673,8.046-8.046,8.046Z" transform="matrix(0 0 0 0 150.112602 200.531998)" fill="#626ff0"/><path id="emYz0IWcrAu6" d="M212,313h-126v9h126v-9Z" transform="matrix(0 0 0 1 84 0)" fill="#626ff0"/><path id="emYz0IWcrAu7" d="M198,340h-112v9h112v-9Z" transform="matrix(0 0 0 1 86 0)" fill="#626ff0"/><path id="emYz0IWcrAu8" d="M175,287h-89v9h89v-9Z" transform="matrix(0 0 0 1 84 0)" fill="#ff8c05"/><path id="emYz0IWcrAu9" d="M370.853,262.57h-116.832c-4.359,0-8.021-3.659-8.021-8.015v-108.541c0-4.355,3.662-8.014,8.021-8.014h116.832c4.359,0,8.021,3.659,8.021,8.014v108.541c0,4.53-3.662,8.015-8.021,8.015Z" transform="matrix(0 0 0 0 312.436996 200.285004)" fill="#626ff0"/><path id="emYz0IWcrAu10" d="M337.351,286.1h-87.199v9h87.199v-9Z" transform="matrix(0 0 0 1 250.152 0)" fill="#ff8c05"/><path id="emYz0IWcrAu11" d="M376.106,312h-125.954v9h125.954v-9Z" transform="matrix(0 0 0 1 250.152 0)" fill="#626ff0"/><path id="emYz0IWcrAu12" d="M362.265,338h-112.113v9h112.113v-9Z" transform="matrix(0 0 0 1 250.152 0)" fill="#626ff0"/><path id="emYz0IWcrAu13" d="M535.924,261.963c-.95.392-1.989.607-3.071.607h-2.921v-3h2.921c.683,0,1.334-.136,1.928-.381l1.143,2.774Zm-11.833.607v-3h-5.842v3h5.842Zm-11.684,0v-3h-5.841v3h5.841Zm-11.683,0v-3h-5.841v3h5.841Zm-11.683,0v-3h-5.842v3h5.842Zm-11.683,0v-3h-5.842v3h5.842Zm-11.683,0v-3h-5.842v3h5.842Zm-11.683,0v-3h-5.842v3h5.842Zm-11.684,0v-3h-5.841v3h5.841Zm-11.683,0v-3h-5.841v3h5.841Zm-11.683,0v-3h-2.921c-.659,0-1.295-.137-1.885-.387l-1.172,2.762c.947.401,1.981.625,3.057.625h2.921Zm-10.316-4.958l2.761-1.174c-.251-.59-.387-1.225-.387-1.883v-3.015h-3v3.015c0,1.077.224,2.11.626,3.057ZM408,245.51h3v-6.03h-3v6.03Zm0-12.06h3v-6.03h-3v6.03Zm0-12.06h3v-6.03h-3v6.03Zm0-12.06h3v-6.03h-3v6.03Zm0-12.06h3v-6.03h-3v6.03Zm0-12.06h3v-6.03h-3v6.03Zm0-12.06h3v-6.031h-3v6.031Zm0-12.061h3v-6.03h-3v6.03Zm0-12.06h3v-3.015c0-.657.136-1.293.387-1.882l-2.761-1.175c-.402.947-.626,1.981-.626,3.057v3.015Zm4.964-10.404l1.172,2.762c.59-.251,1.226-.387,1.885-.387h2.921v-3h-2.921c-1.076,0-2.11.223-3.057.625Zm11.82-.625v3h5.841v-3h-5.841Zm11.683,0v3h5.841v-3h-5.841Zm11.683,0v3h5.842v-3h-5.842Zm11.683,0v3h5.842v-3h-5.842Zm11.683,0v3h5.842v-3h-5.842Zm11.683,0v3h5.842v-3h-5.842Zm11.684,0v3h5.841v-3h-5.841Zm11.683,0v3h5.841v-3h-5.841Zm11.683,0v3h5.842v-3h-5.842Zm11.683,0h2.921c1.076,0,2.11.223,3.057.625l-1.171,2.762c-.591-.251-1.227-.387-1.886-.387h-2.921v-3Zm10.316,4.957l-2.761,1.175c.251.589.387,1.225.387,1.882v3.015h3v-3.015c0-1.076-.223-2.11-.626-3.057Zm.626,12.102h-3v6.03h3v-6.03Zm0,12.06h-3v6.031h3v-6.031Zm0,12.061h-3v6.03h3v-6.03Zm0,12.06h-3v6.03h3v-6.03Zm0,12.06h-3v6.03h3v-6.03Zm0,12.06h-3v6.03h3v-6.03Zm0,12.06h-3v6.03h3v-6.03Zm0,12.06h-3v6.03h3v-6.03Zm0,12.06h-3v3.015c0,.702-.136,1.349-.376,1.929l2.774,1.144c.387-.94.602-1.976.602-3.073v-3.015Z" transform="matrix(0 0 0 0 474.437012 200.285004)" clip-rule="evenodd" fill="#626ff0" fill-rule="evenodd"/><path id="emYz0IWcrAu14" d="M495.199,286.1h-87.199v9h87.199v-9Z" transform="matrix(0 0 0 1 408 0)" fill="#ff8c05"/><path id="emYz0IWcrAu15" d="M533.954,312L408,312v9h125.954v-9Z" transform="matrix(0 0 0 1 408.003787 0)" fill="#626ff0"/><path id="emYz0IWcrAu16" d="M520.113,338L408,338v9h112.113v-9Z" transform="matrix(0 0 0 1 408.003787 0)" fill="#626ff0"/><path d="M567,110h-511.5v-29.5l2.5-9c5.2697-4.2586,8-5.4886,12.5-6h462.5h22.5L567,74v36Z" fill="#ff8c05"/><path d="M519.43,92.4102h-71.93c-1.38,0-2.5-1.12-2.5-2.5s1.12-2.5,2.5-2.5h71.93c1.38,0,2.5,1.12,2.5,2.5s-1.11,2.5-2.5,2.5Z" fill="#1c0a4d"/><path d="M87.87,93.74c2.1373,0,3.87-1.7327,3.87-3.87s-1.7327-3.87-3.87-3.87-3.87,1.7327-3.87,3.87s1.7327,3.87,3.87,3.87Z" fill="#1c0a4d"/><path d="M100.85,93.74c2.137,0,3.87-1.7327,3.87-3.87s-1.733-3.87-3.87-3.87c-2.1374,0-3.87,1.7327-3.87,3.87s1.7326,3.87,3.87,3.87Z" fill="#1c0a4d"/><path d="M113.83,93.74c2.137,0,3.87-1.7327,3.87-3.87s-1.733-3.87-3.87-3.87-3.87,1.7327-3.87,3.87s1.733,3.87,3.87,3.87Z" fill="#1c0a4d"/><path d="M570,109h-517v3h517v-3Z" fill="#ff8c05"/><rect width="514" height="304" rx="18.5" ry="18.5" transform="translate(54.5 64.5)" fill="none" stroke="#ff8c05" stroke-width="3"/><g id="emYz0IWcrAu24" transform="matrix(0 0 0 0 574 53)"><circle r="37" transform="translate(574 53)" fill="url(#emYz0IWcrAu25-fill)"/><path d="M573.975,66.385c-1.727,0-3.395-.245-5.005-.735-1.587-.49-2.87-1.1667-3.85-2.03l1.715-4.06c1.05.77,2.158,1.3533,3.325,1.75c1.167.3733,2.368.56,3.605.56c1.447,0,2.532-.2683,3.255-.805s1.085-1.33,1.085-2.38c0-.98-.35-1.715-1.05-2.205-.677-.5133-1.692-.77-3.045-.77h-4.13v-4.305h3.64c1.167,0,2.1-.2683,2.8-.805.7-.56,1.05-1.3183,1.05-2.275c0-.9333-.327-1.645-.98-2.135s-1.598-.735-2.835-.735c-2.357,0-4.457.7817-6.3,2.345l-1.75-3.99c1.05-.91,2.322-1.61,3.815-2.1c1.517-.5133,3.103-.77,4.76-.77c2.66,0,4.737.595,6.23,1.785c1.517,1.1667,2.275,2.8,2.275,4.9c0,1.4467-.408,2.695-1.225,3.745-.817,1.0267-1.937,1.715-3.36,2.065v-.455c1.68.28,2.987.9683,3.92,2.065s1.4,2.4733,1.4,4.13c0,2.24-.84,4.0017-2.52,5.285-1.657,1.2833-3.932,1.925-6.825,1.925Z" fill="#fff"/></g>

</svg>
