<svg xmlns="http://www.w3.org/2000/svg" fill="none" viewBox="239.83 8.31 98.9 144.36">
    <path fill="url(#a)" fill-rule="evenodd"
          d="M266.88 151.287c-4.787-1.637-8.898-4.623-12.279-8.684 10.015.922 20.905-4.122 30.775-13.483.848.041 1.702.061 2.562.061 6.724 0 13.006-1.249 18.845-3.747 6.016-2.676 11.236-6.155 15.66-10.436.482-.487.953-.981 1.412-1.484-15.036 27.92-38.245 44.18-56.975 37.773Zm69.8-73.862c6.263-32.521-2.054-61.111-21.375-67.72-5.03-1.72-10.382-1.806-15.813-.47 9.245 5.532 15.096 17.173 16.95 31.882a46.389 46.389 0 0 1 6.001 5.104c4.424 4.282 7.874 9.456 10.352 15.522a44.741 44.741 0 0 1 3.885 15.682Z"
          clip-rule="evenodd"/>
    <path fill="url(#b)" fill-opacity=".9"
          d="M332.869 99.396c2.643-5.863 3.964-12.17 3.964-18.92 0-6.574-1.321-12.792-3.964-18.654-2.467-6.04-5.903-11.193-10.308-15.456-4.405-4.442-9.603-7.906-15.594-10.393-5.815-2.665-12.07-3.997-18.766-3.997-6.695 0-13.039 1.332-19.03 3.997-5.814 2.487-10.924 5.951-15.329 10.393-4.229 4.263-7.665 9.415-10.308 15.456-2.467 5.862-3.701 12.08-3.701 18.654 0 6.75 1.234 13.057 3.701 18.92 2.643 5.863 6.079 11.015 10.308 15.456 4.405 4.264 9.515 7.728 15.329 10.393 5.991 2.487 12.335 3.731 19.03 3.731 6.696 0 12.951-1.244 18.766-3.731 5.991-2.665 11.189-6.129 15.594-10.393 4.405-4.441 7.841-9.593 10.308-15.456Z"/>
    <path fill="url(#c)" fill-opacity=".9"
          d="M332.869 99.396c2.643-5.863 3.964-12.17 3.964-18.92 0-6.574-1.321-12.792-3.964-18.654-2.467-6.04-5.903-11.193-10.308-15.456-4.405-4.442-9.603-7.906-15.594-10.393-5.815-2.665-12.07-3.997-18.766-3.997-6.695 0-13.039 1.332-19.03 3.997-5.814 2.487-10.924 5.951-15.329 10.393-4.229 4.263-7.665 9.415-10.308 15.456-2.467 5.862-3.701 12.08-3.701 18.654 0 6.75 1.234 13.057 3.701 18.92 2.643 5.863 6.079 11.015 10.308 15.456 4.405 4.264 9.515 7.728 15.329 10.393 5.991 2.487 12.335 3.731 19.03 3.731 6.696 0 12.951-1.244 18.766-3.731 5.991-2.665 11.189-6.129 15.594-10.393 4.405-4.441 7.841-9.593 10.308-15.456Z"/>
    <path fill="url(#d)" fill-rule="evenodd"
          d="M334.136 29.717c-3.934-9.912-10.313-17.098-18.831-20.011-22.656-7.75-51.862 17.663-65.235 56.76-13.372 39.096-5.846 77.072 16.81 84.821 6.295 2.154 13.097 1.746 19.923-.804-14.988-10.894-19.063-40.516-8.666-70.914 11.488-33.588 36.362-55.606 55.999-49.852Z"
          clip-rule="evenodd"/>
    <path fill="url(#e)" fill-opacity=".15" fill-rule="evenodd"
          d="M318.662 42.855c-10.676 9.299-20.302 23.889-26.35 41.57-5.416 15.835-7.045 31.467-5.354 44.536-6.239-.145-12.168-1.384-17.787-3.716-4.135-1.895-7.914-4.195-11.337-6.899-2.329-13.607-.877-30.36 4.934-47.348 5.514-16.121 14.002-29.673 23.549-38.987a49.716 49.716 0 0 1 1.884-.035c6.696 0 12.951 1.332 18.766 3.997 4.308 1.788 8.207 4.082 11.695 6.882Z"
          clip-rule="evenodd"/>
    <defs>
        <linearGradient id="a" x1="296.668" x2="296.668" y1="8.314" y2="152.678" gradientUnits="userSpaceOnUse">
            <stop offset=".172" stop-color="#3828BF"/>
            <stop offset=".542" stop-color="#3828BF" stop-opacity="0"/>
            <stop offset=".922" stop-color="#3828BF"/>
        </linearGradient>
        <linearGradient id="c" x1="222.23" x2="288.833" y1="61.293" y2="128.48" gradientUnits="userSpaceOnUse">
            <stop offset=".418" stop-color="#EC0E00"/>
            <stop offset="1" stop-color="#3828BF"/>
        </linearGradient>
        <linearGradient id="d" x1="298.363" x2="269.658" y1="7.908" y2="129.307" gradientUnits="userSpaceOnUse">
            <stop stop-color="#EE6B1B"/>
            <stop offset=".333" stop-color="#FE8A05"/>
            <stop offset=".651" stop-color="#FF8C04"/>
            <stop offset="1" stop-color="#ED6A1C"/>
        </linearGradient>
        <linearGradient id="e" x1="306.484" x2="280.499" y1="17.989" y2="127.885" gradientUnits="userSpaceOnUse">
            <stop stop-color="#EE6B1B"/>
            <stop offset=".333" stop-color="#FE8A05"/>
            <stop offset=".651" stop-color="#FF8C04"/>
            <stop offset="1" stop-color="#ED6A1C"/>
        </linearGradient>
        <radialGradient id="b" cx="0" cy="0" r="1"
                        gradientTransform="rotate(93.078 106.336 179.046) scale(46.5672 46.9077)"
                        gradientUnits="userSpaceOnUse">
            <stop offset=".589" stop-color="#EC0E00"/>
            <stop offset="1" stop-color="#B60000"/>
        </radialGradient>
    </defs>
</svg>
