<svg width="397" height="313" viewBox="0 0 397 313" fill="none" xmlns="http://www.w3.org/2000/svg">
<path d="M30 127.723C30 121.929 31.1068 116.493 33.3203 111.415C35.5339 106.336 38.5286 101.909 42.3047 98.1333C46.1458 94.2922 50.6055 91.2648 55.6836 89.0513C60.7617 86.8377 66.1979 85.731 71.9922 85.731H136.25V113.758H71.9922C70.0391 113.758 68.2161 114.116 66.5234 114.833C64.8307 115.549 63.3333 116.558 62.0312 117.86C60.7943 119.097 59.8177 120.562 59.1016 122.254C58.3854 123.947 58.0273 125.77 58.0273 127.723C58.0273 129.676 58.3854 131.532 59.1016 133.29C59.8177 134.982 60.7943 136.48 62.0312 137.782C63.3333 139.019 64.8307 139.995 66.5234 140.711C68.2161 141.428 70.0391 141.786 71.9922 141.786H100.02C105.814 141.786 111.25 142.892 116.328 145.106C121.471 147.254 125.931 150.249 129.707 154.09C133.548 157.866 136.543 162.326 138.691 167.469C140.905 172.547 142.012 177.984 142.012 183.778C142.012 189.572 140.905 195.008 138.691 200.086C136.543 205.165 133.548 209.624 129.707 213.465C125.931 217.241 121.471 220.236 116.328 222.45C111.25 224.663 105.814 225.77 100.02 225.77H3V197.743H100.02C101.973 197.743 103.796 197.385 105.488 196.668C107.181 195.952 108.646 194.976 109.883 193.739C111.185 192.437 112.194 190.939 112.91 189.247C113.626 187.554 113.984 185.731 113.984 183.778C113.984 181.825 113.626 180.002 112.91 178.309C112.194 176.616 111.185 175.152 109.883 173.915C108.646 172.612 107.181 171.603 105.488 170.887C103.796 170.171 101.973 169.813 100.02 169.813H71.9922C66.1979 169.813 60.7617 168.706 55.6836 166.493C50.6055 164.279 46.1458 161.284 42.3047 157.508C38.5286 153.667 35.5339 149.208 33.3203 144.129C31.1068 138.986 30 133.517 30 127.723Z" fill="black"/>
<path d="M327.794 225.411H301.133V176.911C301.133 176.911 299.964 162.911 304.548 150.411C309.131 137.911 316.368 130.977 316.368 130.977C320.665 127.071 325.515 124.076 330.919 121.993C336.387 119.844 342.084 118.77 348.008 118.77C354.389 118.77 360.411 120.007 366.075 122.481C371.739 124.89 376.687 128.243 380.919 132.54C385.15 136.771 388.471 141.752 390.88 147.481C393.354 153.145 394.59 159.2 394.59 165.645V225.411H367.93V165.645C367.93 162.911 367.41 160.339 366.368 157.93C365.326 155.456 363.894 153.308 362.071 151.485C360.248 149.662 358.132 148.23 355.723 147.188C353.314 146.146 350.743 145.625 348.008 145.625C345.209 145.625 342.572 146.146 340.098 147.188C337.624 148.23 335.476 149.662 333.653 151.485C331.83 153.308 330.398 155.456 329.356 157.93C328.314 160.339 327.794 162.911 327.794 165.645V225.411Z" fill="black"/>
<path d="M175.516 266.012H148.66C148.66 266.012 148.66 185.125 148.66 177.668C148.66 170.211 150.215 158.668 155.715 148.168C161.215 137.668 165.75 134.176 165.75 134.176C168.159 131.898 170.796 129.749 173.66 127.731C176.525 125.713 179.487 123.987 182.547 122.555C185.672 121.058 188.895 119.886 192.215 119.04C195.535 118.193 198.888 117.77 202.273 117.77C209.63 117.77 216.531 119.105 222.977 121.774C229.487 124.378 235.151 128.089 239.969 132.907C244.852 137.724 248.693 143.551 251.492 150.387C254.292 157.158 255.691 164.678 255.691 172.946C255.691 181.54 254.292 189.287 251.492 196.188C248.693 203.024 244.852 208.851 239.969 213.668C235.151 218.421 229.487 222.067 222.977 224.606C216.531 227.145 209.63 228.415 202.273 228.415C199.93 228.415 197.586 228.154 195.242 227.633C192.964 227.112 190.685 226.429 188.406 225.583C186.193 224.671 183.979 223.662 181.766 222.555C179.617 221.448 177.534 220.309 175.516 219.137V266.012ZM228.934 172.946C228.934 168.519 228.217 164.547 226.785 161.032C225.418 157.516 223.53 154.554 221.121 152.145C218.712 149.671 215.88 147.783 212.625 146.481C209.37 145.179 205.919 144.528 202.273 144.528C198.628 144.528 195.177 145.179 191.922 146.481C188.732 147.783 185.932 149.671 183.523 152.145C181.115 154.554 179.194 157.516 177.762 161.032C176.395 164.547 175.711 168.519 175.711 172.946C175.711 177.178 176.395 181.051 177.762 184.567C179.194 188.083 181.115 191.077 183.523 193.551C185.932 196.025 188.732 197.946 191.922 199.313C195.177 200.68 198.628 201.364 202.273 201.364C205.919 201.364 209.37 200.68 212.625 199.313C215.88 197.946 218.712 196.025 221.121 193.551C223.53 191.077 225.418 188.083 226.785 184.567C228.217 181.051 228.934 177.178 228.934 172.946Z" fill="black"/>
<path d="M289 225.77H262V162.77H289V225.77Z" fill="black"/>
<path fill-rule="evenodd" clip-rule="evenodd" d="M266.88 151.287C262.093 149.65 257.982 146.664 254.601 142.603C264.616 143.525 275.506 138.481 285.376 129.12C286.224 129.161 287.078 129.181 287.938 129.181C294.662 129.181 300.944 127.932 306.783 125.434C312.799 122.758 318.019 119.279 322.443 114.998C322.925 114.511 323.396 114.017 323.855 113.514C308.819 141.434 285.61 157.694 266.88 151.287ZM336.68 77.4251C342.943 44.9037 334.626 16.3135 315.305 9.7053C310.275 7.98496 304.923 7.89906 299.492 9.2345C308.737 14.7668 314.588 26.4083 316.442 41.1167C318.583 42.6448 320.584 44.3463 322.443 46.2211C326.867 50.5029 330.317 55.6768 332.795 61.7427C335.037 66.7156 336.332 71.9431 336.68 77.4251Z" fill="url(#paint0_linear_111_56)"/>
<path d="M332.869 99.3959C335.512 93.5333 336.833 87.2265 336.833 80.4756C336.833 73.9023 335.512 67.6844 332.869 61.8217C330.402 55.7814 326.966 50.6294 322.561 46.3657C318.156 41.9243 312.958 38.46 306.967 35.9728C301.152 33.308 294.897 31.9756 288.201 31.9756C281.506 31.9756 275.162 33.308 269.171 35.9728C263.357 38.46 258.247 41.9243 253.842 46.3657C249.613 50.6294 246.177 55.7814 243.534 61.8217C241.067 67.6844 239.833 73.9023 239.833 80.4756C239.833 87.2265 241.067 93.5333 243.534 99.3959C246.177 105.259 249.613 110.411 253.842 114.852C258.247 119.116 263.357 122.58 269.171 125.245C275.162 127.732 281.506 128.976 288.201 128.976C294.897 128.976 301.152 127.732 306.967 125.245C312.958 122.58 318.156 119.116 322.561 114.852C326.966 110.411 330.402 105.259 332.869 99.3959Z" fill="url(#paint1_radial_111_56)" fill-opacity="0.9"/>
<path d="M332.869 99.3959C335.512 93.5333 336.833 87.2265 336.833 80.4756C336.833 73.9023 335.512 67.6844 332.869 61.8217C330.402 55.7814 326.966 50.6294 322.561 46.3657C318.156 41.9243 312.958 38.46 306.967 35.9728C301.152 33.308 294.897 31.9756 288.201 31.9756C281.506 31.9756 275.162 33.308 269.171 35.9728C263.357 38.46 258.247 41.9243 253.842 46.3657C249.613 50.6294 246.177 55.7814 243.534 61.8217C241.067 67.6844 239.833 73.9023 239.833 80.4756C239.833 87.2265 241.067 93.5333 243.534 99.3959C246.177 105.259 249.613 110.411 253.842 114.852C258.247 119.116 263.357 122.58 269.171 125.245C275.162 127.732 281.506 128.976 288.201 128.976C294.897 128.976 301.152 127.732 306.967 125.245C312.958 122.58 318.156 119.116 322.561 114.852C326.966 110.411 330.402 105.259 332.869 99.3959Z" fill="url(#paint2_linear_111_56)" fill-opacity="0.9"/>
<path fill-rule="evenodd" clip-rule="evenodd" d="M334.136 29.7174C330.202 19.8052 323.823 12.6189 315.305 9.70551C292.649 1.95651 263.443 27.3689 250.07 66.4656C236.698 105.562 244.224 143.538 266.88 151.287C273.175 153.441 279.977 153.033 286.803 150.483C271.815 139.589 267.74 109.967 278.137 79.5686C289.625 45.9815 314.499 23.9631 334.136 29.7174Z" fill="url(#paint3_linear_111_56)"/>
<path fill-rule="evenodd" clip-rule="evenodd" d="M318.662 42.8547C307.986 52.154 298.36 66.7438 292.312 84.4255C286.896 100.26 285.267 115.892 286.958 128.961C280.719 128.816 274.79 127.577 269.171 125.245C265.036 123.35 261.257 121.05 257.834 118.346C255.505 104.739 256.957 87.9858 262.768 70.9984C268.282 54.8768 276.77 41.3255 286.317 32.0111C286.942 31.9874 287.57 31.9756 288.201 31.9756C294.897 31.9756 301.152 33.308 306.967 35.9728C311.275 37.7615 315.174 40.0554 318.662 42.8547Z" fill="url(#paint4_linear_111_56)" fill-opacity="0.15"/>
<path d="M24.3322 290.123C24.3322 292.725 23.8093 294.999 22.7635 296.944C21.7178 298.866 20.1734 300.361 18.1306 301.431C16.112 302.477 13.68 303 10.8346 303H2.66304V277.282H10.8346C13.68 277.282 16.112 277.804 18.1306 278.85C20.1734 279.872 21.7178 281.355 22.7635 283.301C23.8093 285.222 24.3322 287.496 24.3322 290.123ZM10.5792 300.009C13.9354 300.009 16.5011 299.145 18.2765 297.419C20.0518 295.692 20.9395 293.26 20.9395 290.123C20.9395 286.985 20.0518 284.553 18.2765 282.827C16.5254 281.076 13.9597 280.2 10.5792 280.2H5.98272V300.009H10.5792ZM28.2281 277.099C28.2281 276.491 28.4348 276.005 28.8483 275.64C29.2617 275.251 29.8089 275.056 30.4899 275.056C31.1708 275.056 31.718 275.251 32.1315 275.64C32.5449 276.005 32.7516 276.491 32.7516 277.099C32.7516 277.707 32.5449 278.206 32.1315 278.595C31.718 278.96 31.1708 279.142 30.4899 279.142C29.8089 279.142 29.2617 278.96 28.8483 278.595C28.4348 278.206 28.2281 277.707 28.2281 277.099ZM32.1315 282.972V303H28.8118V282.972H32.1315ZM45.6767 282.717C47.6223 282.717 49.2639 283.204 50.6015 284.176C51.9634 285.149 52.9119 286.45 53.4469 288.08V282.972H56.7666V303.328C56.7666 305.177 56.3775 306.818 55.5992 308.253C54.821 309.688 53.7266 310.807 52.316 311.609C50.9055 312.412 49.2639 312.813 47.3912 312.813C44.6917 312.813 42.4907 312.156 40.7883 310.843C39.0859 309.554 38.0037 307.803 37.5416 305.59H40.8248C41.2139 306.928 41.9435 307.973 43.0136 308.727C44.108 309.506 45.5064 309.895 47.2088 309.895C49.0085 309.895 50.492 309.311 51.6594 308.144C52.8511 307.001 53.4469 305.396 53.4469 303.328V297.893C52.9119 299.522 51.9634 300.823 50.6015 301.796C49.2639 302.769 47.6223 303.255 45.6767 303.255C43.9013 303.255 42.3205 302.842 40.9343 302.015C39.548 301.188 38.4536 300.009 37.6511 298.476C36.8728 296.92 36.4837 295.096 36.4837 293.004C36.4837 290.913 36.8728 289.089 37.6511 287.532C38.4536 285.976 39.548 284.784 40.9343 283.957C42.3205 283.131 43.9013 282.717 45.6767 282.717ZM46.6251 285.672C44.5823 285.672 42.9407 286.329 41.7003 287.642C40.4843 288.931 39.8763 290.718 39.8763 293.004C39.8763 295.291 40.4843 297.09 41.7003 298.404C42.9407 299.692 44.5823 300.337 46.6251 300.337C47.9384 300.337 49.1058 300.033 50.1272 299.425C51.173 298.817 51.9877 297.966 52.5714 296.871C53.1551 295.753 53.4469 294.464 53.4469 293.004C53.4469 291.545 53.1551 290.256 52.5714 289.138C51.9877 288.019 51.173 287.168 50.1272 286.584C49.1058 285.976 47.9384 285.672 46.6251 285.672ZM61.4662 277.099C61.4662 276.491 61.673 276.005 62.0864 275.64C62.4998 275.251 63.047 275.056 63.728 275.056C64.409 275.056 64.9562 275.251 65.3696 275.64C65.783 276.005 65.9898 276.491 65.9898 277.099C65.9898 277.707 65.783 278.206 65.3696 278.595C64.9562 278.96 64.409 279.142 63.728 279.142C63.047 279.142 62.4998 278.96 62.0864 278.595C61.673 278.206 61.4662 277.707 61.4662 277.099ZM65.3696 282.972V303H62.0499V282.972H65.3696ZM80.2645 300.082V303H77.7839C75.741 303 74.2089 302.514 73.1874 301.541C72.1903 300.568 71.6917 298.939 71.6917 296.652V285.854H68.7004V282.972H71.6917V277.975H75.0479V282.972H80.2281V285.854H75.0479V296.725C75.0479 298.014 75.2789 298.902 75.741 299.388C76.2274 299.851 77.0543 300.082 78.2217 300.082H80.2645ZM92.5235 282.717C94.4691 282.717 96.1107 283.204 97.4483 284.176C98.8103 285.149 99.7587 286.45 100.294 288.08V282.972H103.613V303H100.294V297.893C99.7587 299.522 98.8103 300.823 97.4483 301.796C96.1107 302.769 94.4691 303.255 92.5235 303.255C90.7482 303.255 89.1674 302.842 87.7811 302.015C86.3949 301.188 85.3005 300.009 84.4979 298.476C83.7197 296.92 83.3306 295.096 83.3306 293.004C83.3306 290.913 83.7197 289.089 84.4979 287.532C85.3005 285.976 86.3949 284.784 87.7811 283.957C89.1674 283.131 90.7482 282.717 92.5235 282.717ZM93.472 285.672C91.4291 285.672 89.7875 286.329 88.5472 287.642C87.3312 288.931 86.7232 290.718 86.7232 293.004C86.7232 295.291 87.3312 297.09 88.5472 298.404C89.7875 299.692 91.4291 300.337 93.472 300.337C94.7853 300.337 95.9527 300.033 96.9741 299.425C98.0199 298.817 98.8346 297.966 99.4183 296.871C100.002 295.753 100.294 294.464 100.294 293.004C100.294 291.545 100.002 290.256 99.4183 289.138C98.8346 288.019 98.0199 287.168 96.9741 286.584C95.9527 285.976 94.7853 285.672 93.472 285.672ZM112.216 276.005V303H108.897V276.005H112.216ZM129.886 279.981V288.773H139.663V291.326H129.886V300.3H140.758V303H126.567V277.282H140.758V279.981H129.886ZM156.548 303L151.332 295.339L146.626 303H142.941L149.508 292.676L142.905 282.972H146.699L151.769 290.414L156.402 282.972H160.087L153.557 293.041L160.342 303H156.548ZM174.492 282.717C176.267 282.717 177.848 283.131 179.235 283.957C180.621 284.784 181.703 285.976 182.481 287.532C183.284 289.089 183.685 290.913 183.685 293.004C183.685 295.096 183.284 296.92 182.481 298.476C181.703 300.009 180.621 301.188 179.235 302.015C177.848 302.842 176.267 303.255 174.492 303.255C172.546 303.255 170.893 302.769 169.531 301.796C168.193 300.799 167.269 299.498 166.758 297.893V312.485H163.439V282.972H166.758V288.08C167.269 286.475 168.193 285.186 169.531 284.213C170.893 283.216 172.546 282.717 174.492 282.717ZM173.544 285.672C172.255 285.672 171.087 285.976 170.042 286.584C168.996 287.168 168.181 288.019 167.597 289.138C167.014 290.256 166.722 291.545 166.722 293.004C166.722 294.464 167.014 295.753 167.597 296.871C168.181 297.966 168.996 298.817 170.042 299.425C171.087 300.033 172.255 300.337 173.544 300.337C175.611 300.337 177.252 299.692 178.468 298.404C179.709 297.09 180.329 295.291 180.329 293.004C180.329 290.718 179.709 288.931 178.468 287.642C177.252 286.329 175.611 285.672 173.544 285.672ZM206.442 291.874C206.442 292.579 206.394 293.187 206.296 293.698H190.282C190.355 295.984 190.999 297.698 192.215 298.841C193.455 299.984 194.963 300.556 196.739 300.556C198.344 300.556 199.681 300.155 200.751 299.352C201.846 298.525 202.515 297.431 202.758 296.069H206.296C206.053 297.455 205.506 298.695 204.655 299.79C203.828 300.884 202.746 301.735 201.408 302.343C200.07 302.951 198.563 303.255 196.885 303.255C194.963 303.255 193.261 302.842 191.777 302.015C190.294 301.188 189.126 300.009 188.275 298.476C187.448 296.92 187.035 295.096 187.035 293.004C187.035 290.913 187.448 289.089 188.275 287.532C189.126 285.976 190.294 284.784 191.777 283.957C193.261 283.131 194.963 282.717 196.885 282.717C198.83 282.717 200.52 283.131 201.955 283.957C203.414 284.784 204.521 285.891 205.275 287.277C206.053 288.663 206.442 290.196 206.442 291.874ZM203.086 292.092C203.159 290.609 202.916 289.369 202.357 288.372C201.797 287.374 201.031 286.633 200.058 286.146C199.086 285.66 198.028 285.417 196.885 285.417C195.061 285.417 193.528 285.988 192.288 287.131C191.048 288.25 190.379 289.904 190.282 292.092H203.086ZM214.104 287.022C214.761 285.636 215.721 284.565 216.986 283.812C218.251 283.033 219.758 282.644 221.509 282.644V286.256H220.488C218.615 286.256 217.083 286.742 215.891 287.715C214.7 288.663 214.104 290.244 214.104 292.457V303H210.784V282.972H214.104V287.022ZM224.201 277.099C224.201 276.491 224.408 276.005 224.821 275.64C225.235 275.251 225.782 275.056 226.463 275.056C227.144 275.056 227.691 275.251 228.105 275.64C228.518 276.005 228.725 276.491 228.725 277.099C228.725 277.707 228.518 278.206 228.105 278.595C227.691 278.96 227.144 279.142 226.463 279.142C225.782 279.142 225.235 278.96 224.821 278.595C224.408 278.206 224.201 277.707 224.201 277.099ZM228.105 282.972V303H224.785V282.972H228.105ZM251.864 291.874C251.864 292.579 251.816 293.187 251.718 293.698H235.704C235.777 295.984 236.421 297.698 237.637 298.841C238.877 299.984 240.385 300.556 242.161 300.556C243.766 300.556 245.103 300.155 246.173 299.352C247.268 298.525 247.937 297.431 248.18 296.069H251.718C251.475 297.455 250.928 298.695 250.077 299.79C249.25 300.884 248.168 301.735 246.83 302.343C245.492 302.951 243.985 303.255 242.306 303.255C240.385 303.255 238.683 302.842 237.199 302.015C235.716 301.188 234.548 300.009 233.697 298.476C232.87 296.92 232.457 295.096 232.457 293.004C232.457 290.913 232.87 289.089 233.697 287.532C234.548 285.976 235.716 284.784 237.199 283.957C238.683 283.131 240.385 282.717 242.306 282.717C244.252 282.717 245.942 283.131 247.377 283.957C248.836 284.784 249.943 285.891 250.697 287.277C251.475 288.663 251.864 290.196 251.864 291.874ZM248.508 292.092C248.581 290.609 248.338 289.369 247.778 288.372C247.219 287.374 246.453 286.633 245.48 286.146C244.507 285.66 243.449 285.417 242.306 285.417C240.482 285.417 238.95 285.988 237.71 287.131C236.47 288.25 235.801 289.904 235.704 292.092H248.508ZM266.749 282.644C269.084 282.644 270.968 283.398 272.403 284.906C273.838 286.389 274.556 288.542 274.556 291.363V303H271.236V291.655C271.236 289.66 270.725 288.128 269.704 287.058C268.682 285.988 267.296 285.453 265.545 285.453C263.721 285.453 262.262 286.049 261.167 287.241C260.073 288.408 259.526 290.123 259.526 292.384V303H256.206V282.972H259.526V287.715C260.037 286.085 260.936 284.833 262.225 283.957C263.539 283.082 265.046 282.644 266.749 282.644ZM288.512 282.717C291.066 282.717 293.181 283.398 294.86 284.76C296.538 286.122 297.571 287.946 297.96 290.232H294.458C294.215 288.797 293.546 287.678 292.452 286.876C291.382 286.049 290.044 285.636 288.439 285.636C287.272 285.636 286.202 285.903 285.229 286.438C284.28 286.973 283.514 287.8 282.931 288.919C282.347 290.013 282.055 291.375 282.055 293.004C282.055 294.634 282.347 296.008 282.931 297.127C283.514 298.221 284.28 299.036 285.229 299.571C286.202 300.106 287.272 300.373 288.439 300.373C290.044 300.373 291.382 299.96 292.452 299.133C293.546 298.306 294.215 297.175 294.458 295.74H297.96C297.571 298.051 296.538 299.887 294.86 301.249C293.181 302.587 291.066 303.255 288.512 303.255C286.591 303.255 284.888 302.842 283.405 302.015C281.921 301.188 280.754 300.009 279.903 298.476C279.076 296.92 278.662 295.096 278.662 293.004C278.662 290.913 279.076 289.089 279.903 287.532C280.754 285.976 281.921 284.784 283.405 283.957C284.888 283.131 286.591 282.717 288.512 282.717ZM320.727 291.874C320.727 292.579 320.679 293.187 320.581 293.698H304.567C304.64 295.984 305.284 297.698 306.5 298.841C307.74 299.984 309.248 300.556 311.024 300.556C312.629 300.556 313.966 300.155 315.036 299.352C316.131 298.525 316.8 297.431 317.043 296.069H320.581C320.338 297.455 319.791 298.695 318.94 299.79C318.113 300.884 317.031 301.735 315.693 302.343C314.355 302.951 312.848 303.255 311.17 303.255C309.248 303.255 307.546 302.842 306.062 302.015C304.579 301.188 303.411 300.009 302.56 298.476C301.733 296.92 301.32 295.096 301.32 293.004C301.32 290.913 301.733 289.089 302.56 287.532C303.411 285.976 304.579 284.784 306.062 283.957C307.546 283.131 309.248 282.717 311.17 282.717C313.115 282.717 314.805 283.131 316.24 283.957C317.699 284.784 318.806 285.891 319.56 287.277C320.338 288.663 320.727 290.196 320.727 291.874ZM317.371 292.092C317.444 290.609 317.201 289.369 316.642 288.372C316.082 287.374 315.316 286.633 314.343 286.146C313.371 285.66 312.313 285.417 311.17 285.417C309.346 285.417 307.813 285.988 306.573 287.131C305.333 288.25 304.664 289.904 304.567 292.092H317.371ZM337.402 300.41H346.522V303H334.082V277.282H337.402V300.41ZM358.108 282.717C360.054 282.717 361.695 283.204 363.033 284.176C364.395 285.149 365.343 286.45 365.878 288.08V282.972H369.198V303H365.878V297.893C365.343 299.522 364.395 300.823 363.033 301.796C361.695 302.769 360.054 303.255 358.108 303.255C356.333 303.255 354.752 302.842 353.366 302.015C351.979 301.188 350.885 300.009 350.082 298.476C349.304 296.92 348.915 295.096 348.915 293.004C348.915 290.913 349.304 289.089 350.082 287.532C350.885 285.976 351.979 284.784 353.366 283.957C354.752 283.131 356.333 282.717 358.108 282.717ZM359.056 285.672C357.014 285.672 355.372 286.329 354.132 287.642C352.916 288.931 352.308 290.718 352.308 293.004C352.308 295.291 352.916 297.09 354.132 298.404C355.372 299.692 357.014 300.337 359.056 300.337C360.37 300.337 361.537 300.033 362.558 299.425C363.604 298.817 364.419 297.966 365.003 296.871C365.586 295.753 365.878 294.464 365.878 293.004C365.878 291.545 365.586 290.256 365.003 289.138C364.419 288.019 363.604 287.168 362.558 286.584C361.537 285.976 360.37 285.672 359.056 285.672ZM385.535 282.717C387.31 282.717 388.891 283.131 390.277 283.957C391.663 284.784 392.745 285.976 393.524 287.532C394.326 289.089 394.728 290.913 394.728 293.004C394.728 295.096 394.326 296.92 393.524 298.476C392.745 300.009 391.663 301.188 390.277 302.015C388.891 302.842 387.31 303.255 385.535 303.255C383.589 303.255 381.935 302.769 380.573 301.796C379.236 300.799 378.312 299.498 377.801 297.893V303H374.481V276.005H377.801V288.08C378.312 286.475 379.236 285.186 380.573 284.213C381.935 283.216 383.589 282.717 385.535 282.717ZM384.586 285.672C383.297 285.672 382.13 285.976 381.084 286.584C380.038 287.168 379.224 288.019 378.64 289.138C378.056 290.256 377.764 291.545 377.764 293.004C377.764 294.464 378.056 295.753 378.64 296.871C379.224 297.966 380.038 298.817 381.084 299.425C382.13 300.033 383.297 300.337 384.586 300.337C386.653 300.337 388.295 299.692 389.511 298.404C390.751 297.09 391.371 295.291 391.371 293.004C391.371 290.718 390.751 288.931 389.511 287.642C388.295 286.329 386.653 285.672 384.586 285.672Z" fill="#010101"/>
<defs>
<linearGradient id="paint0_linear_111_56" x1="296.668" y1="8.31445" x2="296.668" y2="152.678" gradientUnits="userSpaceOnUse">
<stop offset="0.171875" stop-color="#3828BF"/>
<stop offset="0.541667" stop-color="#3828BF" stop-opacity="0"/>
<stop offset="0.921875" stop-color="#3828BF"/>
</linearGradient>
<radialGradient id="paint1_radial_111_56" cx="0" cy="0" r="1" gradientUnits="userSpaceOnUse" gradientTransform="translate(290.833 82.4756) rotate(93.0775) scale(46.5672 46.9077)">
<stop offset="0.588542" stop-color="#EC0E00"/>
<stop offset="1" stop-color="#B60000"/>
</radialGradient>
<linearGradient id="paint2_linear_111_56" x1="222.23" y1="61.2928" x2="288.833" y2="128.48" gradientUnits="userSpaceOnUse">
<stop offset="0.417799" stop-color="#EC0E00"/>
<stop offset="1" stop-color="#3828BF"/>
</linearGradient>
<linearGradient id="paint3_linear_111_56" x1="298.363" y1="7.90772" x2="269.658" y2="129.307" gradientUnits="userSpaceOnUse">
<stop stop-color="#EE6B1B"/>
<stop offset="0.333333" stop-color="#FE8A05"/>
<stop offset="0.651042" stop-color="#FF8C04"/>
<stop offset="1" stop-color="#ED6A1C"/>
</linearGradient>
<linearGradient id="paint4_linear_111_56" x1="306.484" y1="17.9894" x2="280.499" y2="127.885" gradientUnits="userSpaceOnUse">
<stop stop-color="#EE6B1B"/>
<stop offset="0.333333" stop-color="#FE8A05"/>
<stop offset="0.651042" stop-color="#FF8C04"/>
<stop offset="1" stop-color="#ED6A1C"/>
</linearGradient>
</defs>
</svg>
