<svg width="119" height="96" viewBox="0 0 119 96" fill="none" xmlns="http://www.w3.org/2000/svg">
<path d="M8.58469 38.5954C8.58469 36.8445 8.91914 35.2018 9.58802 33.6673C10.2569 32.1328 11.1619 30.795 12.3029 29.654C13.4636 28.4933 14.8112 27.5785 16.3457 26.9096C17.8803 26.2407 19.523 25.9062 21.2739 25.9062H40.6913V34.3755H21.2739C20.6837 34.3755 20.1328 34.4837 19.6213 34.7001C19.1098 34.9166 18.6573 35.2215 18.2639 35.615C17.8901 35.9887 17.595 36.4314 17.3786 36.9429C17.1622 37.4544 17.054 38.0052 17.054 38.5954C17.054 39.1856 17.1622 39.7463 17.3786 40.2775C17.595 40.789 17.8901 41.2415 18.2639 41.6349C18.6573 42.0087 19.1098 42.3038 19.6213 42.5202C20.1328 42.7366 20.6837 42.8448 21.2739 42.8448H29.7432C31.4941 42.8448 33.1368 43.1793 34.6713 43.8482C36.2255 44.4974 37.5731 45.4023 38.7141 46.5631C39.8748 47.7041 40.7798 49.0517 41.429 50.6059C42.0979 52.1404 42.4324 53.7831 42.4324 55.534C42.4324 57.2849 42.0979 58.9276 41.429 60.4621C40.7798 61.9967 39.8748 63.3443 38.7141 64.505C37.5731 65.646 36.2255 66.551 34.6713 67.2199C33.1368 67.8888 31.4941 68.2232 29.7432 68.2232H0.425842V59.7539H29.7432C30.3334 59.7539 30.8842 59.6457 31.3957 59.4293C31.9072 59.2129 32.3499 58.9178 32.7236 58.544C33.1171 58.1505 33.422 57.6981 33.6385 57.1866C33.8549 56.6751 33.9631 56.1242 33.9631 55.534C33.9631 54.9438 33.8549 54.393 33.6385 53.8815C33.422 53.37 33.1171 52.9273 32.7236 52.5535C32.3499 52.1601 31.9072 51.8551 31.3957 51.6387C30.8842 51.4223 30.3334 51.3141 29.7432 51.3141H21.2739C19.523 51.3141 17.8803 50.9797 16.3457 50.3108C14.8112 49.6419 13.4636 48.7369 12.3029 47.5959C11.1619 46.4352 10.2569 45.0876 9.58802 43.5531C8.91914 41.9989 8.58469 40.3463 8.58469 38.5954Z" fill="white"/>
<path d="M98.5718 68.1145H90.5157V53.4588C90.5157 53.4588 90.1623 49.2283 91.5473 45.451C92.9323 41.6738 95.1192 39.5786 95.1192 39.5786C96.4176 38.3982 97.8833 37.4933 99.5161 36.8637C101.169 36.2145 102.89 35.8899 104.68 35.8899C106.608 35.8899 108.428 36.2637 110.14 37.0113C111.851 37.7392 113.346 38.7523 114.625 40.0508C115.904 41.3295 116.907 42.8345 117.635 44.5658C118.383 46.2773 118.756 48.1069 118.756 50.0546V68.1145H110.7V50.0546C110.7 49.2283 110.543 48.4512 110.228 47.7233C109.913 46.9757 109.481 46.3265 108.93 45.7757C108.379 45.2248 107.74 44.792 107.012 44.4772C106.284 44.1625 105.507 44.0051 104.68 44.0051C103.834 44.0051 103.038 44.1625 102.29 44.4772C101.542 44.792 100.893 45.2248 100.342 45.7757C99.7916 46.3265 99.3588 46.9757 99.044 47.7233C98.7292 48.4512 98.5718 49.2283 98.5718 50.0546V68.1145Z" fill="white"/>
<path d="M52.5565 80.3834H44.4413C44.4413 80.3834 44.4413 55.9411 44.4413 53.6877C44.4413 51.4344 44.9111 47.9463 46.5731 44.7734C48.2351 41.6005 49.6055 40.5453 49.6055 40.5453C50.3335 39.8567 51.1302 39.2075 51.9958 38.5976C52.8615 37.9878 53.7566 37.4664 54.6812 37.0336C55.6255 36.5811 56.5994 36.227 57.6027 35.9713C58.606 35.7155 59.6192 35.5876 60.6422 35.5876C62.8652 35.5876 64.9506 35.9909 66.8982 36.7975C68.8656 37.5845 70.5771 38.7058 72.0329 40.1617C73.5084 41.6175 74.6691 43.3782 75.5151 45.4439C76.361 47.4899 76.784 49.7622 76.784 52.2606C76.784 54.8575 76.361 57.1986 75.5151 59.284C74.6691 61.3496 73.5084 63.1104 72.0329 64.5662C70.5771 66.0023 68.8656 67.104 66.8982 67.8713C64.9506 68.6385 62.8652 69.0222 60.6422 69.0222C59.934 69.0222 59.2257 68.9435 58.5175 68.7861C57.8289 68.6287 57.1404 68.4221 56.4518 68.1664C55.7829 67.891 55.114 67.586 54.4451 67.2516C53.7959 66.9171 53.1664 66.5729 52.5565 66.2187V80.3834ZM68.6983 52.2606C68.6983 50.9229 68.4819 49.7228 68.0491 48.6605C67.636 47.5981 67.0655 46.703 66.3376 45.9751C65.6097 45.2275 64.7539 44.657 63.7702 44.2635C62.7866 43.87 61.7439 43.6733 60.6422 43.6733C59.5405 43.6733 58.4978 43.87 57.5142 44.2635C56.5502 44.657 55.7042 45.2275 54.9763 45.9751C54.2484 46.703 53.6681 47.5981 53.2352 48.6605C52.8221 49.7228 52.6155 50.9229 52.6155 52.2606C52.6155 53.5394 52.8221 54.71 53.2352 55.7723C53.6681 56.8347 54.2484 57.7396 54.9763 58.4872C55.7042 59.2348 56.5502 59.8151 57.5142 60.2283C58.4978 60.6414 59.5405 60.848 60.6422 60.848C61.7439 60.848 62.7866 60.6414 63.7702 60.2283C64.7539 59.8151 65.6097 59.2348 66.3376 58.4872C67.0655 57.7396 67.636 56.8347 68.0491 55.7723C68.4819 54.71 68.6983 53.5394 68.6983 52.2606Z" fill="white"/>
<path d="M86.8492 68.2231H78.6903V49.1858H86.8492V68.2231Z" fill="white"/>
<path fill-rule="evenodd" clip-rule="evenodd" d="M80.165 45.7159C78.7186 45.2212 77.4763 44.3188 76.4545 43.0917C79.4808 43.3703 82.7717 41.8459 85.7542 39.0171C86.0105 39.0295 86.2686 39.0357 86.5283 39.0357C88.5602 39.0357 90.4584 38.6583 92.223 37.9035C94.041 37.0948 95.6183 36.0436 96.9551 34.7497C97.1009 34.6027 97.2432 34.4532 97.382 34.301C92.8384 42.7382 85.8251 47.6518 80.165 45.7159ZM101.257 23.3963C103.15 13.569 100.636 4.9296 94.7981 2.93274C93.2783 2.41289 91.6608 2.38693 90.0199 2.79045C92.8135 4.46221 94.5815 7.97995 95.1418 12.4244C95.7888 12.8862 96.3932 13.4003 96.9551 13.9669C98.2919 15.2608 99.3346 16.8242 100.083 18.6572C100.761 20.1599 101.152 21.7397 101.257 23.3963Z" fill="url(#paint0_linear_550_565)"/>
<path d="M100.105 30.0357C100.904 28.2641 101.303 26.3583 101.303 24.3183C101.303 22.332 100.904 20.4531 100.105 18.6815C99.36 16.8562 98.3218 15.2994 96.9906 14.011C95.6595 12.6689 94.0888 11.6221 92.2784 10.8705C90.5214 10.0652 88.6312 9.6626 86.6078 9.6626C84.5845 9.6626 82.6677 10.0652 80.8574 10.8705C79.1003 11.6221 77.5562 12.6689 76.2251 14.011C74.9472 15.2994 73.9089 16.8562 73.1102 18.6815C72.3648 20.4531 71.9921 22.332 71.9921 24.3183C71.9921 26.3583 72.3648 28.2641 73.1102 30.0357C73.9089 31.8072 74.9472 33.3641 76.2251 34.7062C77.5562 35.9946 79.1003 37.0414 80.8574 37.8467C82.6677 38.5982 84.5845 38.974 86.6078 38.974C88.6312 38.974 90.5214 38.5982 92.2784 37.8467C94.0888 37.0414 95.6595 35.9946 96.9906 34.7062C98.3218 33.3641 99.36 31.8072 100.105 30.0357Z" fill="url(#paint1_radial_550_565)" fill-opacity="0.9"/>
<path d="M100.105 30.0357C100.904 28.2641 101.303 26.3583 101.303 24.3183C101.303 22.332 100.904 20.4531 100.105 18.6815C99.36 16.8562 98.3218 15.2994 96.9906 14.011C95.6595 12.6689 94.0888 11.6221 92.2784 10.8705C90.5214 10.0652 88.6312 9.6626 86.6078 9.6626C84.5845 9.6626 82.6677 10.0652 80.8574 10.8705C79.1003 11.6221 77.5562 12.6689 76.2251 14.011C74.9472 15.2994 73.9089 16.8562 73.1102 18.6815C72.3648 20.4531 71.9921 22.332 71.9921 24.3183C71.9921 26.3583 72.3648 28.2641 73.1102 30.0357C73.9089 31.8072 74.9472 33.3641 76.2251 34.7062C77.5562 35.9946 79.1003 37.0414 80.8574 37.8467C82.6677 38.5982 84.5845 38.974 86.6078 38.974C88.6312 38.974 90.5214 38.5982 92.2784 37.8467C94.0888 37.0414 95.6595 35.9946 96.9906 34.7062C98.3218 33.3641 99.36 31.8072 100.105 30.0357Z" fill="url(#paint2_linear_550_565)" fill-opacity="0.9"/>
<path fill-rule="evenodd" clip-rule="evenodd" d="M100.489 8.9801C99.2998 5.98483 97.3721 3.81329 94.7981 2.9329C87.9519 0.591311 79.1263 8.27041 75.0855 20.0846C71.0446 31.8989 73.3188 43.3744 80.1649 45.716C82.0673 46.3667 84.1225 46.2436 86.1854 45.4731C81.6561 42.1811 80.4248 33.2299 83.5666 24.0441C87.038 13.8948 94.5545 7.24127 100.489 8.9801Z" fill="url(#paint3_linear_550_565)"/>
<path fill-rule="evenodd" clip-rule="evenodd" d="M95.8124 12.9498C92.5863 15.7598 89.6777 20.1685 87.8502 25.5116C86.2136 30.2966 85.7213 35.0203 86.2321 38.9694C84.3469 38.9256 82.5553 38.5513 80.8574 37.8464C79.6078 37.2737 78.4659 36.5788 77.4317 35.7617C76.7279 31.6501 77.1666 26.5874 78.9224 21.4541C80.5886 16.5826 83.1535 12.4877 86.0385 9.67309C86.2273 9.66593 86.4171 9.66235 86.6079 9.66235C88.6312 9.66235 90.5214 10.065 92.2785 10.8702C93.5804 11.4107 94.7583 12.1039 95.8124 12.9498Z" fill="url(#paint4_linear_550_565)" fill-opacity="0.15"/>
<path d="M2.38974 86.2457C3.22669 86.2457 3.94986 86.3903 4.55922 86.6794C5.17593 86.9619 5.6458 87.3687 5.96883 87.9C6.29921 88.4313 6.4644 89.0567 6.4644 89.7762C6.4644 90.4958 6.29921 91.1212 5.96883 91.6525C5.6458 92.177 5.17593 92.5805 4.55922 92.8629C3.94986 93.1387 3.22669 93.2765 2.38974 93.2765H0V86.2457H2.38974ZM2.38974 92.52C3.38087 92.52 4.13707 92.2812 4.65833 91.8038C5.1796 91.3196 5.44023 90.6437 5.44023 89.7762C5.44023 88.902 5.17593 88.2194 4.64732 87.7285C4.12606 87.2376 3.37353 86.9921 2.38974 86.9921H1.00215V92.52H2.38974Z" fill="white"/>
<path d="M8.30385 86.8509C8.11297 86.8509 7.95145 86.7904 7.8193 86.6694C7.68715 86.5483 7.62107 86.4004 7.62107 86.2255C7.62107 86.0507 7.68715 85.9027 7.8193 85.7817C7.95145 85.6606 8.11297 85.6001 8.30385 85.6001C8.4874 85.6001 8.64157 85.6606 8.76638 85.7817C8.89853 85.9027 8.96461 86.0507 8.96461 86.2255C8.96461 86.4004 8.89853 86.5483 8.76638 86.6694C8.64157 86.7904 8.4874 86.8509 8.30385 86.8509ZM8.78841 87.7487V93.2765H7.78626V87.7487H8.78841Z" fill="white"/>
<path d="M12.9852 87.6579C13.5065 87.6579 13.9617 87.7621 14.3508 87.9706C14.7473 88.1791 15.0409 88.4414 15.2318 88.7574V87.7487H16.245V93.3976C16.245 93.9019 16.1275 94.3491 15.8926 94.7392C15.6576 95.136 15.3199 95.4453 14.8794 95.6672C14.4462 95.8891 13.9397 96.0001 13.3597 96.0001C12.5668 96.0001 11.906 95.8286 11.3774 95.4856C10.8488 95.1427 10.5368 94.6753 10.4413 94.0835H11.4325C11.5426 94.4198 11.7702 94.6887 12.1152 94.8905C12.4603 95.099 12.8751 95.2032 13.3597 95.2032C13.9103 95.2032 14.3581 95.0452 14.7032 94.7291C15.0556 94.413 15.2318 93.9692 15.2318 93.3976V92.2375C15.0336 92.5603 14.7399 92.8293 14.3508 93.0445C13.9617 93.2597 13.5065 93.3673 12.9852 93.3673C12.4493 93.3673 11.9611 93.2463 11.5206 93.0042C11.0874 92.7621 10.746 92.4225 10.4964 91.9854C10.2468 91.5482 10.122 91.0506 10.122 90.4924C10.122 89.9275 10.2468 89.4333 10.4964 89.0096C10.746 88.5792 11.0874 88.2463 11.5206 88.011C11.9611 87.7756 12.4493 87.6579 12.9852 87.6579ZM15.2318 90.5025C15.2318 90.0856 15.14 89.7224 14.9565 89.4131C14.773 89.1038 14.5233 88.8684 14.2076 88.707C13.8993 88.5389 13.5579 88.4548 13.1835 88.4548C12.809 88.4548 12.4677 88.5355 12.1593 88.6969C11.8509 88.8583 11.605 89.0937 11.4215 89.403C11.2379 89.7124 11.1461 90.0755 11.1461 90.4924C11.1461 90.9161 11.2379 91.286 11.4215 91.602C11.605 91.9114 11.8509 92.1501 12.1593 92.3182C12.4677 92.4796 12.809 92.5603 13.1835 92.5603C13.5579 92.5603 13.8993 92.4796 14.2076 92.3182C14.5233 92.1501 14.773 91.9114 14.9565 91.602C15.14 91.286 15.2318 90.9195 15.2318 90.5025Z" fill="white"/>
<path d="M18.4561 86.8509C18.2652 86.8509 18.1037 86.7904 17.9715 86.6694C17.8394 86.5483 17.7733 86.4004 17.7733 86.2255C17.7733 86.0507 17.8394 85.9027 17.9715 85.7817C18.1037 85.6606 18.2652 85.6001 18.4561 85.6001C18.6396 85.6001 18.7938 85.6606 18.9186 85.7817C19.0508 85.9027 19.1169 86.0507 19.1169 86.2255C19.1169 86.4004 19.0508 86.5483 18.9186 86.6694C18.7938 86.7904 18.6396 86.8509 18.4561 86.8509ZM18.9407 87.7487V93.2765H17.9385V87.7487H18.9407Z" fill="white"/>
<path d="M21.871 88.5052V91.7634C21.871 92.0324 21.9334 92.2241 22.0583 92.3384C22.1831 92.446 22.3996 92.4998 22.708 92.4998H23.4458V93.2765H22.5428C21.9848 93.2765 21.5664 93.1588 21.2874 92.9235C21.0084 92.6881 20.8689 92.3014 20.8689 91.7634V88.5052H20.087V87.7487H20.8689V86.3566H21.871V87.7487H23.4458V88.5052H21.871Z" fill="white"/>
<path d="M24.2856 90.4924C24.2856 89.9275 24.4105 89.4333 24.6601 89.0096C24.9097 88.5792 25.2511 88.2463 25.6842 88.011C26.1248 87.7756 26.613 87.6579 27.1489 87.6579C27.6775 87.6579 28.1364 87.7621 28.5255 87.9706C28.9146 88.1791 29.2046 88.4414 29.3955 88.7574V87.7487H30.4087V93.2765H29.3955V92.2476C29.1973 92.5704 28.8999 92.8394 28.5035 93.0546C28.1144 93.2631 27.6592 93.3673 27.1379 93.3673C26.602 93.3673 26.1174 93.2463 25.6842 93.0042C25.2511 92.7621 24.9097 92.4225 24.6601 91.9854C24.4105 91.5482 24.2856 91.0506 24.2856 90.4924ZM29.3955 90.5025C29.3955 90.0856 29.3037 89.7224 29.1202 89.4131C28.9366 89.1038 28.687 88.8684 28.3713 88.707C28.063 88.5389 27.7216 88.4548 27.3472 88.4548C26.9727 88.4548 26.6313 88.5355 26.323 88.6969C26.0146 88.8583 25.7687 89.0937 25.5851 89.403C25.4016 89.7124 25.3098 90.0755 25.3098 90.4924C25.3098 90.9161 25.4016 91.286 25.5851 91.602C25.7687 91.9114 26.0146 92.1501 26.323 92.3182C26.6313 92.4796 26.9727 92.5603 27.3472 92.5603C27.7216 92.5603 28.063 92.4796 28.3713 92.3182C28.687 92.1501 28.9366 91.9114 29.1202 91.602C29.3037 91.286 29.3955 90.9195 29.3955 90.5025Z" fill="white"/>
<path d="M33.1043 85.8119V93.2765H32.1022V85.8119H33.1043Z" fill="white"/>
<path d="M38.7505 86.9921V89.3425H41.5476V90.099H38.7505V92.52H41.878V93.2765H37.7483V86.2356H41.878V86.9921H38.7505Z" fill="white"/>
<path d="M46.544 93.2765L45.1124 91.2187L43.7358 93.2765H42.6896L44.6388 90.5328L42.6896 87.7487H43.8239L45.2555 89.7964L46.6211 87.7487H47.6673L45.7291 90.4823L47.6783 93.2765H46.544Z" fill="white"/>
<path d="M49.6663 88.7675C49.8645 88.4514 50.1582 88.1892 50.5473 87.9807C50.9437 87.7655 51.4026 87.6579 51.9239 87.6579C52.4598 87.6579 52.9444 87.7756 53.3775 88.011C53.818 88.2463 54.1631 88.5792 54.4127 89.0096C54.6623 89.4333 54.7871 89.9275 54.7871 90.4924C54.7871 91.0506 54.6623 91.5482 54.4127 91.9854C54.1631 92.4225 53.818 92.7621 53.3775 93.0042C52.9444 93.2463 52.4598 93.3673 51.9239 93.3673C51.4099 93.3673 50.9547 93.2631 50.5583 93.0546C50.1692 92.8394 49.8718 92.5738 49.6663 92.2577V95.8992H48.6641V87.7487H49.6663V88.7675ZM53.763 90.4924C53.763 90.0755 53.6712 89.7124 53.4876 89.403C53.3041 89.0937 53.0545 88.8583 52.7388 88.6969C52.4304 88.5355 52.089 88.4548 51.7146 88.4548C51.3475 88.4548 51.0061 88.5389 50.6904 88.707C50.3821 88.8684 50.1325 89.1071 49.9416 89.4232C49.758 89.7325 49.6663 90.0923 49.6663 90.5025C49.6663 90.9195 49.758 91.286 49.9416 91.602C50.1325 91.9114 50.3821 92.1501 50.6904 92.3182C51.0061 92.4796 51.3475 92.5603 51.7146 92.5603C52.089 92.5603 52.4304 92.4796 52.7388 92.3182C53.0545 92.1501 53.3041 91.9114 53.4876 91.602C53.6712 91.286 53.763 90.9161 53.763 90.4924Z" fill="white"/>
<path d="M61.6125 90.3008C61.6125 90.4756 61.6015 90.6606 61.5795 90.8556H56.756C56.7927 91.4003 56.9946 91.8273 57.3617 92.1367C57.7361 92.4393 58.1876 92.5906 58.7162 92.5906C59.1494 92.5906 59.5091 92.4998 59.7955 92.3182C60.0891 92.1299 60.2947 91.8811 60.4122 91.5718H61.4914C61.3299 92.103 61.0068 92.5368 60.5223 92.873C60.0377 93.2026 59.4357 93.3673 58.7162 93.3673C58.1436 93.3673 57.6296 93.2496 57.1745 93.0143C56.7266 92.7789 56.3742 92.446 56.1172 92.0156C55.8603 91.5785 55.7318 91.0741 55.7318 90.5025C55.7318 89.9309 55.8566 89.4299 56.1062 88.9995C56.3559 88.5691 56.7046 88.2396 57.1524 88.011C57.6076 87.7756 58.1289 87.6579 58.7162 87.6579C59.2889 87.6579 59.7955 87.7722 60.236 88.0009C60.6765 88.2295 61.0142 88.5456 61.2491 88.9491C61.4914 89.3458 61.6125 89.7964 61.6125 90.3008ZM60.5774 90.1091C60.5774 89.7594 60.4929 89.4602 60.3241 89.2113C60.1552 88.9558 59.9239 88.7641 59.6303 88.6364C59.3439 88.5019 59.0246 88.4346 58.6722 88.4346C58.1656 88.4346 57.7324 88.5826 57.3727 88.8785C57.0203 89.1744 56.8184 89.5846 56.767 90.1091H60.5774Z" fill="white"/>
<path d="M63.9375 88.6465C64.1137 88.3304 64.3633 88.0849 64.6863 87.9101C65.0167 87.7352 65.4168 87.6478 65.8867 87.6478V88.596H65.6224C64.4991 88.596 63.9375 89.1542 63.9375 90.2705V93.2765H62.9353V87.7487H63.9375V88.6465Z" fill="white"/>
<path d="M67.5611 86.8509C67.3703 86.8509 67.2087 86.7904 67.0766 86.6694C66.9444 86.5483 66.8784 86.4004 66.8784 86.2255C66.8784 86.0507 66.9444 85.9027 67.0766 85.7817C67.2087 85.6606 67.3703 85.6001 67.5611 85.6001C67.7447 85.6001 67.8989 85.6606 68.0237 85.7817C68.1558 85.9027 68.2219 86.0507 68.2219 86.2255C68.2219 86.4004 68.1558 86.5483 68.0237 86.6694C67.8989 86.7904 67.7447 86.8509 67.5611 86.8509ZM68.0457 87.7487V93.2765H67.0436V87.7487H68.0457Z" fill="white"/>
<path d="M75.26 90.3008C75.26 90.4756 75.249 90.6606 75.227 90.8556H70.4034C70.4401 91.4003 70.6421 91.8273 71.0091 92.1367C71.3836 92.4393 71.8351 92.5906 72.3637 92.5906C72.7969 92.5906 73.1566 92.4998 73.4429 92.3182C73.7366 92.1299 73.9422 91.8811 74.0596 91.5718H75.1389C74.9773 92.103 74.6543 92.5368 74.1698 92.873C73.6852 93.2026 73.0832 93.3673 72.3637 93.3673C71.791 93.3673 71.2771 93.2496 70.8219 93.0143C70.3741 92.7789 70.0217 92.446 69.7647 92.0156C69.5078 91.5785 69.3793 91.0741 69.3793 90.5025C69.3793 89.9309 69.5041 89.4299 69.7537 88.9995C70.0033 88.5691 70.3521 88.2396 70.7999 88.011C71.2551 87.7756 71.7764 87.6579 72.3637 87.6579C72.9363 87.6579 73.4429 87.7722 73.8834 88.0009C74.3239 88.2295 74.6617 88.5456 74.8966 88.9491C75.1389 89.3458 75.26 89.7964 75.26 90.3008ZM74.2248 90.1091C74.2248 89.7594 74.1404 89.4602 73.9715 89.2113C73.8027 88.9558 73.5714 88.7641 73.2777 88.6364C72.9914 88.5019 72.672 88.4346 72.3196 88.4346C71.8131 88.4346 71.3799 88.5826 71.0201 88.8785C70.6677 89.1744 70.4658 89.5846 70.4145 90.1091H74.2248Z" fill="white"/>
<path d="M79.5232 87.6478C80.2573 87.6478 80.852 87.8529 81.3072 88.2631C81.7624 88.6666 81.99 89.2517 81.99 90.0183V93.2765H80.9989V90.1495C80.9989 89.598 80.8484 89.1777 80.5473 88.8886C80.2463 88.5927 79.8352 88.4447 79.3139 88.4447C78.7853 88.4447 78.3632 88.596 78.0475 88.8986C77.7391 89.2013 77.585 89.6417 77.585 90.2201V93.2765H76.5828V87.7487H77.585V88.5355C77.7832 88.2531 78.0511 88.0345 78.3889 87.8798C78.7339 87.7252 79.112 87.6478 79.5232 87.6478Z" fill="white"/>
<path d="M83.2526 90.5025C83.2526 89.9309 83.3774 89.4333 83.627 89.0096C83.8766 88.5792 84.2217 88.2463 84.6622 88.011C85.11 87.7756 85.6203 87.6579 86.1929 87.6579C86.9345 87.6579 87.5438 87.8227 88.021 88.1522C88.5056 88.4817 88.825 88.939 88.9791 89.5241H87.8999C87.7971 89.1878 87.5952 88.9222 87.2942 88.7272C87.0005 88.5321 86.6334 88.4346 86.1929 88.4346C85.6203 88.4346 85.1578 88.6162 84.8054 88.9793C84.4529 89.3358 84.2767 89.8435 84.2767 90.5025C84.2767 91.1683 84.4529 91.6827 84.8054 92.0459C85.1578 92.409 85.6203 92.5906 86.1929 92.5906C86.6334 92.5906 87.0005 92.4964 87.2942 92.3081C87.5879 92.1199 87.7898 91.8509 87.8999 91.5012H88.9791C88.8176 92.0661 88.4946 92.52 88.01 92.8629C87.5255 93.1992 86.9198 93.3673 86.1929 93.3673C85.6203 93.3673 85.11 93.2496 84.6622 93.0143C84.2217 92.7789 83.8766 92.446 83.627 92.0156C83.3774 91.5852 83.2526 91.0809 83.2526 90.5025Z" fill="white"/>
<path d="M95.8226 90.3008C95.8226 90.4756 95.8116 90.6606 95.7896 90.8556H90.966C91.0028 91.4003 91.2047 91.8273 91.5717 92.1367C91.9462 92.4393 92.3977 92.5906 92.9263 92.5906C93.3595 92.5906 93.7192 92.4998 94.0055 92.3182C94.2992 92.1299 94.5048 91.8811 94.6222 91.5718H95.7015C95.5399 92.103 95.2169 92.5368 94.7324 92.873C94.2478 93.2026 93.6458 93.3673 92.9263 93.3673C92.3536 93.3673 91.8397 93.2496 91.3845 93.0143C90.9367 92.7789 90.5843 92.446 90.3273 92.0156C90.0704 91.5785 89.9419 91.0741 89.9419 90.5025C89.9419 89.9309 90.0667 89.4299 90.3163 88.9995C90.5659 88.5691 90.9147 88.2396 91.3625 88.011C91.8177 87.7756 92.339 87.6579 92.9263 87.6579C93.4989 87.6579 94.0055 87.7722 94.446 88.0009C94.8865 88.2295 95.2243 88.5456 95.4592 88.9491C95.7015 89.3458 95.8226 89.7964 95.8226 90.3008ZM94.7874 90.1091C94.7874 89.7594 94.703 89.4602 94.5341 89.2113C94.3653 88.9558 94.134 88.7641 93.8403 88.6364C93.554 88.5019 93.2346 88.4346 92.8822 88.4346C92.3757 88.4346 91.9425 88.5826 91.5827 88.8785C91.2303 89.1744 91.0285 89.5846 90.9771 90.1091H94.7874Z" fill="white"/>
<path d="M101.084 92.5301H103.771V93.2765H100.081V86.2457H101.084V92.5301Z" fill="white"/>
<path d="M104.46 90.4924C104.46 89.9275 104.585 89.4333 104.835 89.0096C105.084 88.5792 105.426 88.2463 105.859 88.011C106.3 87.7756 106.788 87.6579 107.324 87.6579C107.852 87.6579 108.311 87.7621 108.7 87.9706C109.089 88.1791 109.379 88.4414 109.57 88.7574V87.7487H110.583V93.2765H109.57V92.2476C109.372 92.5704 109.075 92.8394 108.678 93.0546C108.289 93.2631 107.834 93.3673 107.313 93.3673C106.777 93.3673 106.292 93.2463 105.859 93.0042C105.426 92.7621 105.084 92.4225 104.835 91.9854C104.585 91.5482 104.46 91.0506 104.46 90.4924ZM109.57 90.5025C109.57 90.0856 109.479 89.7224 109.295 89.4131C109.111 89.1038 108.862 88.8684 108.546 88.707C108.238 88.5389 107.896 88.4548 107.522 88.4548C107.148 88.4548 106.806 88.5355 106.498 88.6969C106.189 88.8583 105.943 89.0937 105.76 89.403C105.576 89.7124 105.485 90.0755 105.485 90.4924C105.485 90.9161 105.576 91.286 105.76 91.602C105.943 91.9114 106.189 92.1501 106.498 92.3182C106.806 92.4796 107.148 92.5603 107.522 92.5603C107.896 92.5603 108.238 92.4796 108.546 92.3182C108.862 92.1501 109.111 91.9114 109.295 91.602C109.479 91.286 109.57 90.9195 109.57 90.5025Z" fill="white"/>
<path d="M113.279 88.7776C113.485 88.4481 113.786 88.1791 114.182 87.9706C114.579 87.7621 115.03 87.6579 115.537 87.6579C116.08 87.6579 116.568 87.7756 117.001 88.011C117.435 88.2463 117.776 88.5792 118.026 89.0096C118.275 89.4333 118.4 89.9275 118.4 90.4924C118.4 91.0506 118.275 91.5482 118.026 91.9854C117.776 92.4225 117.431 92.7621 116.99 93.0042C116.557 93.2463 116.073 93.3673 115.537 93.3673C115.015 93.3673 114.557 93.2631 114.16 93.0546C113.771 92.8461 113.477 92.5805 113.279 92.2577V93.2765H112.277V85.8119H113.279V88.7776ZM117.376 90.4924C117.376 90.0755 117.284 89.7124 117.101 89.403C116.917 89.0937 116.667 88.8583 116.352 88.6969C116.043 88.5355 115.702 88.4548 115.327 88.4548C114.96 88.4548 114.619 88.5389 114.303 88.707C113.995 88.8684 113.745 89.1071 113.554 89.4232C113.371 89.7325 113.279 90.0923 113.279 90.5025C113.279 90.9195 113.371 91.286 113.554 91.602C113.745 91.9114 113.995 92.1501 114.303 92.3182C114.619 92.4796 114.96 92.5603 115.327 92.5603C115.702 92.5603 116.043 92.4796 116.352 92.3182C116.667 92.1501 116.917 91.9114 117.101 91.602C117.284 91.286 117.376 90.9161 117.376 90.4924Z" fill="white"/>
<defs>
<linearGradient id="paint0_linear_550_565" x1="89.1662" y1="2.51245" x2="89.1662" y2="46.1362" gradientUnits="userSpaceOnUse">
<stop offset="0.171875" stop-color="#3828BF"/>
<stop offset="0.541667" stop-color="#3828BF" stop-opacity="0"/>
<stop offset="0.921875" stop-color="#3828BF"/>
</linearGradient>
<radialGradient id="paint1_radial_550_565" cx="0" cy="0" r="1" gradientUnits="userSpaceOnUse" gradientTransform="translate(87.4032 24.9227) rotate(93.0775) scale(14.0716 14.1746)">
<stop offset="0.588542" stop-color="#EC0E00"/>
<stop offset="1" stop-color="#B60000"/>
</radialGradient>
<linearGradient id="paint2_linear_550_565" x1="66.6726" y1="18.5216" x2="86.7987" y2="38.8244" gradientUnits="userSpaceOnUse">
<stop offset="0.417799" stop-color="#EC0E00"/>
<stop offset="1" stop-color="#3828BF"/>
</linearGradient>
<linearGradient id="paint3_linear_550_565" x1="89.6786" y1="2.38965" x2="81.0045" y2="39.074" gradientUnits="userSpaceOnUse">
<stop stop-color="#EE6B1B"/>
<stop offset="0.333333" stop-color="#FE8A05"/>
<stop offset="0.651042" stop-color="#FF8C04"/>
<stop offset="1" stop-color="#ED6A1C"/>
</linearGradient>
<linearGradient id="paint4_linear_550_565" x1="92.1327" y1="5.43601" x2="84.2805" y2="38.6443" gradientUnits="userSpaceOnUse">
<stop stop-color="#EE6B1B"/>
<stop offset="0.333333" stop-color="#FE8A05"/>
<stop offset="0.651042" stop-color="#FF8C04"/>
<stop offset="1" stop-color="#ED6A1C"/>
</linearGradient>
</defs>
</svg>
