<svg id="eBPTcAQX6Dy1" xmlns="http://www.w3.org/2000/svg" xmlns:xlink="http://www.w3.org/1999/xlink" viewBox="0 0 664 386" shape-rendering="geometricPrecision" text-rendering="geometricPrecision"><defs><linearGradient id="eBPTcAQX6Dy18-fill" x1="-50.43" y1="-14.6343" x2="0.381" y2="36.6223" spreadMethod="pad" gradientUnits="userSpaceOnUse" gradientTransform="translate(0 0)"><stop id="eBPTcAQX6Dy18-fill-0" offset="0.520833%" stop-color="#ff8c05"/><stop id="eBPTcAQX6Dy18-fill-1" offset="73.9583%" stop-color="#ce2726"/></linearGradient></defs><path id="eBPTcAQX6Dy2" d="M447.753,150.468h-124.981v8.24h124.981v-8.24Z" transform="matrix(0 0 0 1 322.772 0)" fill="#626ff0"/><path id="eBPTcAQX6Dy3" d="M447.753,201.284h-124.981v8.241h124.981v-8.241Z" transform="matrix(0 0 0 1 322.772 0)" fill="#626ff0"/><path id="eBPTcAQX6Dy4" d="M434.019,176.563h-111.247v8.241h111.247v-8.241Z" transform="matrix(0 0 0 1 322.772 0)" fill="#626ff0"/><path id="eBPTcAQX6Dy5" d="M434.019,227.379h-111.247v8.24h111.247v-8.24Z" transform="matrix(0 0 0 1 322.772 0)" fill="#626ff0"/><path id="eBPTcAQX6Dy6" d="M410.671,124.373h-87.899v8.241h87.899v-8.241Z" transform="matrix(0 0 0 1 322.772 0)" fill="#ff8c05"/><path id="eBPTcAQX6Dy7" d="M291.146,123.852c-1.313-.549-2.754-.852-4.266-.852h-2.899v3h2.899c1.107,0,2.156.221,3.11.62l1.156-2.768ZM139.019,123v3h-2.899c-1.107,0-2.155.221-3.109.62l-1.157-2.768c1.314-.549,2.755-.852,4.266-.852h2.899ZM125,230.71h3v3.114c0,1.114.219,2.168.614,3.127l-2.774,1.142c-.541-1.315-.84-2.757-.84-4.269v-3.114ZM283.981,245v-3h2.899c1.107,0,2.156-.221,3.11-.62l1.156,2.768c-1.314.549-2.755.852-4.266.852h-2.899ZM298,137.291h-3v-3.113c0-1.115-.219-2.169-.614-3.128l2.774-1.142c.541,1.316.84,2.757.84,4.27v3.113Zm0,6.228h-3v6.228h3v-6.228Zm0,12.456h-3v6.228h3v-6.228Zm0,12.456h-3v6.228h3v-6.228Zm0,12.456h-3v6.228h3v-6.228Zm0,12.456h-3v6.228h3v-6.228Zm0,12.456h-3v6.227h3v-6.227Zm0,12.455h-3v6.228h3v-6.228Zm0,12.456h-3v3.114c0,1.114-.219,2.169-.614,3.128l2.774,1.141c.541-1.315.84-2.757.84-4.269v-3.114ZM278.182,245v-3h-5.798v3h5.798Zm-11.597,0v-3h-5.798v3h5.798Zm-11.597,0v-3h-5.798v3h5.798Zm-11.596,0v-3h-5.799v3h5.799Zm-11.597,0v-3h-5.799v3h5.799Zm-11.597,0v-3h-5.799v3h5.799Zm-11.597,0v-3h-5.799v3h5.799Zm-11.597,0v-3h-5.799v3h5.799Zm-11.597,0v-3h-5.798v3h5.798Zm-11.597,0v-3h-5.798v3h5.798Zm-11.597,0v-3h-5.798v3h5.798Zm-11.597,0v-3h-5.798v3h5.798Zm-11.597,0v-3h-2.899c-1.107,0-2.155-.221-3.109-.62l-1.157,2.768c1.314.549,2.755.852,4.266.852h2.899ZM125,224.482h3v-6.228h-3v6.228Zm0-12.456h3v-6.227h-3v6.227Zm0-12.455h3v-6.228h-3v6.228Zm0-12.456h3v-6.228h-3v6.228Zm0-12.456h3v-6.228h-3v6.228Zm0-12.456h3v-6.228h-3v6.228Zm0-12.456h3v-6.228h-3v6.228Zm0-12.456h3v-3.113c0-1.114.219-2.169.614-3.128l-2.774-1.142c-.541,1.316-.84,2.758-.84,4.27v3.113ZM144.818,123v3h5.798v-3h-5.798Zm11.597,0v3h5.798v-3h-5.798Zm11.597,0v3h5.798v-3h-5.798Zm11.597,0v3h5.798v-3h-5.798Zm11.596,0v3h5.799v-3h-5.799Zm11.597,0v3h5.799v-3h-5.799Zm11.597,0v3h5.799v-3h-5.799Zm11.597,0v3h5.799v-3h-5.799Zm11.597,0v3h5.799v-3h-5.799Zm11.597,0v3h5.798v-3h-5.798Zm11.597,0v3h5.798v-3h-5.798Zm11.597,0v3h5.798v-3h-5.798Z" transform="matrix(0 0 0 0 211.5 184)" clip-rule="evenodd" fill="#626ff0" fill-rule="evenodd"/><path id="eBPTcAQX6Dy8" d="M358.651,282h-91.306c-5.16,0-9.345,4.222-9.345,9.431v39.135c0,5.209,4.185,9.434,9.345,9.434h91.306c5.164,0,9.349-4.225,9.349-9.434v-39.135c0-5.209-4.185-9.431-9.349-9.431Z" transform="matrix(0 0 0 0 313 311)" fill="#626ff0"/><path id="eBPTcAQX6Dy9" d="M489.655,282h-91.306c-5.164,0-9.349,4.222-9.349,9.431v39.135c0,5.209,4.185,9.434,9.349,9.434h91.306c5.16,0,9.345-4.225,9.345-9.434v-39.135c0-5.209-4.185-9.431-9.345-9.431Z" transform="matrix(0 0 0 0 444 311)" fill="#626ff0"/><path d="M567,101h-511.5v-29.5l2.5-9c5.2697-4.2586,8-5.4886,12.5-6h462.5h22.5L567,65v36Z" fill="#ff8c05"/><path d="M519.43,83.4102h-71.93c-1.38,0-2.5-1.12-2.5-2.5s1.12-2.5,2.5-2.5h71.93c1.38,0,2.5,1.12,2.5,2.5s-1.11,2.5-2.5,2.5Z" fill="#1c0a4d"/><path d="M87.87,84.74c2.1373,0,3.87-1.7327,3.87-3.87s-1.7327-3.87-3.87-3.87-3.87,1.7327-3.87,3.87s1.7327,3.87,3.87,3.87Z" fill="#1c0a4d"/><path d="M100.85,84.74c2.137,0,3.87-1.7327,3.87-3.87s-1.733-3.87-3.87-3.87c-2.1374,0-3.87,1.7327-3.87,3.87s1.7326,3.87,3.87,3.87Z" fill="#1c0a4d"/><path d="M113.83,84.74c2.137,0,3.87-1.7327,3.87-3.87s-1.733-3.87-3.87-3.87-3.87,1.7327-3.87,3.87s1.733,3.87,3.87,3.87Z" fill="#1c0a4d"/><path d="M570,100h-517v3h517v-3Z" fill="#ff8c05"/><rect width="514" height="304" rx="18.5" ry="18.5" transform="translate(54.5 55.5)" fill="none" stroke="#ff8c05" stroke-width="3"/><g id="eBPTcAQX6Dy17" transform="matrix(0 0 0 0 574 44)"><circle r="37" transform="translate(574 44)" fill="url(#eBPTcAQX6Dy18-fill)"/><path d="M575.83,57v-4.515h-10.57v-3.78l11.41-16.38h4.41v16.065h3.36v4.095h-3.36v4.515h-5.25Zm0-8.61v-9.625h.875L569.18,49.65v-1.26h6.65Z" fill="#fff"/></g><path id="eBPTcAQX6Dy20" d="M228.567,282h-92.135c-5.209,0-9.432,4.222-9.432,9.431v39.135c0,5.209,4.223,9.434,9.432,9.434h92.135c5.21,0,9.433-4.225,9.433-9.434v-39.135c0-5.209-4.223-9.431-9.433-9.431Z" transform="matrix(0 0 0 0 182.5 311)" fill="#626ff0"/><g id="eBPTcAQX6Dy21" transform="translate(-110.15 0.000006)" opacity="0"><rect id="eBPTcAQX6Dy22" width="49" height="51" rx="3.5" ry="3.5" transform="matrix(.994027 0.109137-.109137 0.994027 186.646348 161.826145)" fill="none" stroke="#ff8c05" stroke-width="5"/><path d="M200,175v-13c0-3.667,2.2-11,11-11s11,7.333,11,11v13" fill="none" stroke="#ff8c05" stroke-width="5" stroke-linecap="round"/></g>

</svg>
