<?xml version="1.0" standalone="no"?>
<!DOCTYPE svg PUBLIC "-//W3C//DTD SVG 20010904//EN"
 "http://www.w3.org/TR/2001/REC-SVG-20010904/DTD/svg10.dtd">
<svg version="1.0" xmlns="http://www.w3.org/2000/svg"
 width="1152.000000pt" height="1152.000000pt" viewBox="0 0 1152.000000 1152.000000"
 preserveAspectRatio="xMidYMid meet">
<metadata>
Created by potrace 1.14, written by Peter Selinger 2001-2017
</metadata>
<g transform="translate(0.000000,1152.000000) scale(0.100000,-0.100000)"
fill="#000000" stroke="none">
<path d="M6978 11515 c-2 -2 -32 -6 -68 -9 -36 -3 -76 -8 -90 -10 -14 -3 -41
-8 -60 -10 -19 -3 -66 -12 -105 -21 -78 -18 -79 -18 -155 -40 -30 -9 -64 -18
-75 -20 -18 -4 -32 -9 -90 -31 -11 -4 -24 -8 -30 -9 -34 -8 -289 -118 -390
-168 -201 -101 -488 -280 -666 -417 -60 -47 -184 -145 -189 -150 -3 -3 -34
-30 -70 -60 -117 -99 -143 -123 -320 -300 -162 -162 -266 -273 -370 -394 -23
-27 -47 -55 -53 -62 -7 -7 -17 -19 -22 -26 -35 -44 -140 -176 -153 -193 -51
-62 -235 -316 -312 -432 -36 -53 -69 -90 -94 -105 -298 -176 -673 -490 -878
-733 -18 -22 -42 -51 -53 -63 -62 -73 -69 -82 -140 -177 -24 -33 -51 -68 -59
-77 -9 -10 -16 -21 -16 -25 0 -3 -11 -21 -25 -39 -14 -18 -25 -37 -25 -43 0
-6 -4 -11 -9 -11 -5 0 -16 -12 -23 -27 -21 -41 -42 -77 -49 -83 -3 -3 -16 -25
-30 -50 -13 -25 -26 -47 -29 -50 -10 -10 -150 -284 -194 -380 -83 -181 -214
-591 -233 -725 -1 -11 -9 -51 -17 -90 -14 -69 -18 -94 -31 -185 -3 -25 -8 -61
-11 -80 -25 -186 -26 -778 0 -920 2 -14 7 -52 11 -85 4 -32 9 -68 11 -80 2
-11 6 -33 8 -50 30 -206 130 -567 218 -781 22 -52 25 -74 22 -140 -5 -116 -5
-494 0 -604 10 -204 34 -518 42 -531 2 -3 6 -35 9 -70 3 -35 10 -86 15 -114 5
-27 12 -70 15 -95 9 -62 42 -242 49 -260 3 -8 7 -28 10 -45 23 -161 154 -577
259 -824 242 -574 572 -996 1009 -1290 83 -55 258 -146 348 -181 30 -11 64
-25 75 -30 25 -11 181 -58 215 -64 14 -2 25 -5 25 -6 0 -2 34 -9 75 -15 19 -2
46 -7 60 -10 14 -3 43 -8 65 -12 53 -9 466 -9 530 0 103 14 131 18 155 23 14
3 36 7 50 9 14 2 36 7 50 10 14 3 36 8 50 11 14 3 34 8 45 11 11 4 25 8 30 9
61 11 269 84 405 141 352 150 804 434 1076 678 6 6 28 23 49 39 20 17 64 56
97 88 33 32 61 58 63 58 9 0 90 86 87 93 -1 5 1 6 6 3 11 -7 278 271 274 285
-1 6 1 8 6 5 4 -2 30 21 57 51 28 31 60 67 73 80 13 13 19 23 15 23 -4 0 -1 6
7 13 37 29 131 151 126 163 -3 8 0 11 9 8 7 -3 18 3 24 14 6 11 17 27 23 34
66 72 63 66 42 90 -19 23 -19 23 2 6 19 -17 21 -17 37 2 9 11 15 20 12 20 -2
0 9 14 25 32 21 22 26 35 19 44 -7 8 -5 11 7 10 9 0 21 8 28 19 6 11 15 23 21
27 6 4 2 14 -10 23 -20 16 -20 16 1 6 17 -8 25 -6 40 11 13 15 14 19 4 14 -8
-4 -4 2 10 14 14 12 19 19 13 15 -7 -3 -13 -1 -13 4 0 6 5 11 11 11 16 0 50
41 43 51 -3 5 -1 9 4 9 5 0 17 12 27 26 13 20 14 28 4 40 -6 8 -8 14 -3 15 5
1 -2 5 -16 10 l-25 8 25 -2 c14 -1 25 -7 25 -14 0 -27 14 -21 41 19 16 24 32
45 37 46 14 7 -4 21 -20 15 -13 -5 -13 -3 2 15 10 11 24 18 33 14 10 -3 13 -1
8 6 -4 7 4 23 17 36 14 14 22 27 19 30 -3 3 -1 6 5 6 6 0 20 15 31 32 19 30
19 34 6 50 -9 9 -21 14 -28 12 -20 -8 -39 22 -28 43 5 10 6 27 1 38 -8 22 -9
22 -15 -15 -8 -43 -5 -63 8 -71 7 -5 9 -9 3 -9 -23 0 -37 23 -39 63 0 21 -10
22 -25 3 -9 -10 -8 -15 4 -20 16 -6 21 -36 5 -36 -5 0 -6 8 -3 17 6 16 5 16
-10 4 -9 -7 -14 -17 -11 -22 5 -8 -2 -10 -23 -8 -4 0 -10 -7 -13 -17 -6 -16
-7 -16 -13 -1 -3 9 -2 17 3 17 20 0 25 3 38 21 13 19 9 39 -8 39 -5 0 -7 -6
-4 -14 3 -8 1 -17 -4 -20 -5 -3 -9 6 -9 20 0 20 4 24 21 22 14 -2 24 5 31 20
5 12 13 22 18 22 4 0 6 -4 3 -9 -3 -5 2 -15 11 -22 14 -12 15 -11 9 9 -5 15
-3 22 6 23 7 1 18 2 23 4 6 1 15 3 20 3 6 1 11 11 11 22 0 13 -5 19 -14 15 -7
-3 -17 -5 -20 -5 -4 0 0 -5 8 -11 13 -9 13 -10 0 -6 -8 2 -24 0 -35 -5 l-20
-9 20 16 c11 8 28 22 37 30 10 8 20 10 23 5 4 -6 11 -10 17 -10 7 0 7 4 -1 13
-15 18 -2 30 16 15 12 -9 14 -9 13 3 -4 27 0 40 11 33 8 -4 7 -9 -2 -16 -11
-8 -11 -9 1 -5 8 2 14 11 14 20 -1 9 2 14 7 11 5 -3 9 3 9 12 0 14 3 15 12 6
20 -20 32 -13 13 8 -17 19 -16 19 9 14 14 -2 26 0 26 6 0 5 -5 10 -11 10 -7 0
1 10 17 22 16 13 33 22 38 20 4 -2 6 4 2 13 -3 9 -2 14 2 11 4 -2 19 9 32 26
14 17 38 39 55 50 16 10 25 18 19 18 -7 0 5 17 25 38 159 166 362 438 489 655
29 49 52 93 52 97 0 5 6 15 13 22 17 19 138 265 187 383 23 55 47 114 55 130
12 27 82 227 105 300 32 103 88 355 106 480 3 22 7 52 10 66 2 14 6 52 9 85 3
32 8 75 11 94 3 19 7 100 9 179 3 79 6 146 9 148 2 3 0 18 -4 34 -5 17 -5 31
1 35 5 3 7 10 4 15 -3 5 -8 59 -11 121 -2 62 -6 119 -9 126 -2 6 1 12 7 12 9
0 9 3 0 12 -17 17 -16 62 1 52 9 -6 9 -5 0 8 -7 8 -10 18 -6 21 3 4 2 7 -3 7
-6 0 -10 10 -10 23 -1 41 -26 201 -44 281 -5 22 -7 44 -4 48 3 4 0 8 -5 8 -6
0 -11 5 -11 11 0 5 5 7 11 3 6 -3 4 4 -5 18 -9 13 -14 34 -11 46 2 12 0 22 -4
22 -8 0 -10 9 -13 55 -1 14 -6 25 -10 25 -4 0 -8 11 -8 24 0 14 -4 28 -10 31
-5 3 -10 12 -10 18 1 7 9 2 20 -11 18 -22 19 -22 25 -2 3 11 14 27 23 37 13
13 13 15 2 11 -8 -2 -20 -15 -27 -28 -10 -21 -13 -22 -19 -7 -3 9 -14 17 -23
17 -13 0 -14 2 -1 9 8 6 18 7 22 5 5 -3 16 3 26 12 16 17 16 18 -2 11 -13 -5
-17 -3 -13 7 3 7 0 19 -6 25 -6 6 -7 14 -3 18 4 4 11 1 15 -6 6 -9 8 -1 7 20
-2 20 -7 33 -14 32 -14 -3 -16 13 -3 21 23 15 46 -52 29 -86 -5 -10 -5 -18 0
-18 5 0 14 12 21 26 9 22 9 31 -4 50 -19 29 -19 29 5 31 11 1 18 -2 15 -7 -11
-18 7 -41 27 -34 14 4 18 2 14 -5 -4 -6 0 -23 9 -38 15 -26 16 -26 11 -4 -3
16 3 31 20 48 20 20 21 23 6 19 -15 -5 -19 -1 -19 16 -1 45 -3 50 -19 44 -9
-3 -14 -1 -12 5 2 6 8 11 13 11 6 0 16 5 23 11 11 8 13 7 12 -4 -5 -30 0 -41
16 -35 10 4 14 2 11 -6 -2 -7 -10 -12 -16 -11 -19 5 -12 -14 7 -19 11 -3 18
-13 17 -24 -2 -29 -14 -44 -30 -37 -8 3 -15 0 -15 -7 0 -6 4 -9 8 -6 5 3 16
-4 25 -15 9 -10 22 -19 28 -19 6 0 1 9 -12 21 -17 14 -19 19 -7 15 12 -4 15
-1 11 11 -5 12 -3 14 8 8 11 -6 12 -5 2 6 -18 18 -16 34 2 19 15 -12 20 -4 16
23 0 4 4 7 11 7 6 0 3 10 -8 21 -19 22 -19 22 6 15 14 -4 20 -4 15 1 -6 4 -11
17 -11 28 0 11 5 23 11 27 6 5 5 8 -4 8 -11 0 -11 3 -1 15 10 12 10 15 -1 15
-9 0 -10 3 -4 8 13 9 17 102 4 102 -6 0 -7 5 -4 10 4 6 10 8 13 6 4 -2 7 19 6
47 0 29 3 62 7 75 5 12 5 22 0 22 -11 0 -9 19 3 39 7 10 6 12 -4 6 -10 -6 -11
-4 -5 11 10 25 14 164 4 164 -4 0 -6 -9 -4 -20 2 -11 -1 -19 -7 -17 -6 1 -13
-4 -15 -11 -3 -7 1 -11 7 -10 7 2 15 -4 17 -12 4 -13 3 -13 -6 0 -8 12 -10 11
-8 -7 0 -12 5 -19 11 -16 5 4 6 1 2 -6 -6 -9 -13 -8 -27 5 -10 9 -19 12 -19 7
0 -17 28 -35 42 -28 7 4 0 -4 -16 -17 l-29 -25 24 -16 c13 -9 19 -17 13 -17
-5 0 -16 6 -24 13 -11 9 -11 8 0 -7 13 -18 13 -19 0 -11 -13 7 -13 6 -2 -7 10
-13 10 -18 1 -24 -8 -5 -9 -3 -4 7 7 11 6 12 -6 3 -8 -6 -23 -10 -34 -8 -11 1
-28 -4 -38 -13 -21 -20 -47 -3 -31 20 5 7 1 4 -8 -6 -10 -11 -18 -16 -18 -11
0 4 10 19 23 32 12 14 15 21 7 17 -13 -8 -13 -7 0 11 14 18 13 18 -10 -1 l-25
-20 19 22 c10 13 22 20 26 18 4 -3 10 1 13 9 4 9 -2 12 -19 10 -13 -1 -24 2
-24 8 0 5 10 7 23 3 20 -5 20 -5 4 6 -25 15 -46 -3 -28 -25 9 -11 9 -16 0 -22
-7 -4 -9 -3 -6 2 3 6 -5 10 -18 10 -20 0 -22 -2 -12 -15 11 -14 10 -14 -8 -1
l-20 15 20 -25 c19 -23 19 -24 1 -10 -16 12 -18 12 -11 1 6 -10 4 -12 -6 -6
-11 7 -11 5 1 -11 14 -18 14 -18 -5 -4 -16 11 -17 11 -7 0 19 -22 14 -35 -5
-13 -10 10 -15 14 -10 9 10 -14 9 -26 -4 -26 -5 0 -8 4 -5 9 3 5 -2 15 -12 22
-16 13 -16 13 -2 -6 11 -14 4 -12 -23 9 -41 30 -62 29 -34 -2 10 -10 17 -22
17 -27 0 -4 -10 4 -21 19 -16 20 -19 30 -11 38 9 9 17 7 30 -5 21 -20 32 -22
32 -6 0 5 -4 8 -9 4 -5 -3 -12 -1 -16 5 -3 5 -15 15 -27 21 -16 9 -19 8 -13
-3 3 -7 -1 -4 -11 7 l-17 20 7 -20 c6 -16 5 -17 -5 -8 -10 10 -9 15 1 28 7 9
8 15 2 15 -6 0 -12 -5 -14 -12 -3 -9 -6 -9 -12 0 -4 7 -2 12 4 12 6 0 8 5 4
11 -4 8 -9 7 -15 -2 -4 -7 -11 -10 -16 -6 -4 5 -1 13 7 18 13 9 13 10 0 6 -8
-2 -15 -13 -16 -24 -1 -13 4 -19 11 -16 21 7 29 -18 11 -35 -13 -14 -16 -14
-16 -2 0 13 -2 13 -10 0 -5 -8 -10 -10 -10 -4 0 6 -7 11 -16 11 -15 0 -15 -2
0 -13 11 -8 13 -14 7 -19 -6 -3 -11 -1 -11 6 0 7 -3 9 -6 6 -4 -4 -2 -13 4
-20 7 -8 8 -18 4 -22 -4 -5 -2 -5 5 -2 13 8 12 -10 -2 -33 -7 -13 -6 -13 7 -2
14 11 16 10 13 -5 -2 -10 -4 -18 -5 -18 -1 0 -3 -8 -5 -18 -3 -15 -1 -16 11
-6 17 14 19 23 2 13 -7 -4 -8 -3 -4 5 4 6 12 8 18 5 6 -4 17 1 25 11 7 11 13
14 13 8 0 -7 -4 -14 -10 -18 -5 -3 -8 -11 -6 -18 1 -7 1 -9 -1 -4 -8 12 -20 8
-20 -8 0 -8 5 -11 10 -8 6 4 7 1 1 -8 -12 -20 -14 -40 -3 -33 5 3 6 11 3 17
-4 7 -3 9 1 4 13 -11 13 -47 1 -41 -6 3 -4 0 5 -8 8 -7 15 -26 14 -41 -1 -15
3 -30 8 -34 6 -3 7 -1 3 5 -3 6 -2 13 3 16 5 3 11 -1 15 -9 3 -8 1 -17 -4 -20
-10 -6 -3 -32 15 -55 14 -18 18 -63 4 -54 -5 3 -7 15 -3 26 5 17 3 20 -10 15
-10 -4 -15 -3 -12 2 3 5 -2 26 -11 47 -9 22 -18 48 -20 59 -2 10 -7 22 -11 25
-4 3 -8 12 -10 20 -2 8 -8 17 -13 18 -5 2 -6 8 -3 13 3 6 -2 19 -11 29 -9 10
-15 25 -13 32 3 7 -3 21 -13 31 -10 11 -16 27 -14 37 2 10 -3 21 -11 24 -9 3
-12 10 -9 16 3 5 1 10 -5 10 -7 0 -9 8 -5 21 6 16 4 20 -6 14 -8 -5 -11 -5 -7
0 4 4 0 14 -8 22 -8 8 -12 18 -9 23 3 4 -2 13 -10 20 -7 6 -11 19 -8 27 4 11
2 14 -5 9 -7 -4 -12 -3 -12 2 0 6 7 12 15 16 8 3 15 9 15 14 0 5 -7 9 -15 9
-8 0 -15 -4 -15 -9 0 -4 -4 -8 -10 -8 -5 0 -9 3 -8 8 1 4 -4 18 -11 31 -9 17
-10 26 -2 34 8 8 11 7 11 -3 0 -17 13 -4 16 16 2 10 -3 13 -12 10 -19 -8 -41
-14 -31 -9 4 3 4 10 1 15 -4 6 1 17 11 25 11 7 13 13 6 13 -7 0 -9 5 -5 11 9
15 24 -9 17 -28 -7 -17 5 -17 23 2 9 8 11 15 6 15 -14 0 -24 31 -14 44 5 6 7
23 6 37 -3 31 68 112 93 107 9 -2 15 -7 14 -12 -2 -5 3 -13 11 -18 10 -8 10
-9 -2 -5 -8 2 -14 10 -13 16 4 16 -22 14 -36 -3 -13 -15 -11 -37 4 -49 6 -4 2
-7 -9 -5 -10 2 -21 -2 -23 -9 -2 -7 3 -10 14 -8 10 2 23 4 30 4 13 1 14 41 1
41 -4 0 -8 5 -8 10 0 6 10 4 23 -5 13 -8 27 -12 31 -8 4 5 14 -1 22 -12 9 -12
26 -20 47 -20 22 0 31 -4 29 -14 -2 -8 3 -11 13 -8 8 4 15 2 15 -2 0 -5 -7
-11 -15 -15 -8 -3 -15 -11 -15 -18 0 -9 3 -9 11 -1 6 6 17 9 24 7 9 -4 12 5
11 28 -1 22 3 32 12 31 18 -4 15 14 -4 21 -20 8 -24 8 -23 -1 5 -28 -1 -33
-23 -20 -13 8 -33 13 -45 12 -14 -2 -20 2 -16 11 3 8 9 14 15 14 5 0 6 -4 3
-10 -3 -5 -1 -10 4 -10 6 0 11 5 11 11 0 6 7 3 16 -5 21 -21 29 -20 31 4 1 11
-2 20 -8 20 -5 0 -9 -5 -9 -12 0 -6 -2 -9 -5 -6 -3 3 -3 12 1 21 5 14 12 11
45 -15 27 -22 35 -34 27 -39 -7 -4 -16 -5 -20 -3 -11 7 -10 -7 1 -25 7 -11 11
-10 19 5 9 15 12 16 26 5 9 -8 17 -12 19 -10 23 40 26 49 17 49 -6 0 -13 -7
-16 -15 -4 -8 -10 -12 -16 -9 -5 3 -2 11 7 18 15 11 12 16 -24 48 -27 23 -37
38 -29 41 8 4 7 6 -4 6 -32 2 -28 -17 13 -53 23 -20 37 -36 32 -36 -5 0 -25
15 -45 34 -20 19 -39 32 -42 29 -3 -4 -6 -2 -6 4 0 5 11 15 24 22 19 10 28 11
47 1 42 -22 60 -42 53 -62 -8 -27 2 -22 54 26 26 25 58 54 72 65 20 17 22 20
8 21 -10 0 -18 5 -18 10 0 13 35 -4 46 -22 4 -6 3 -9 -2 -6 -5 3 -14 0 -20 -7
-9 -9 -3 -21 27 -50 40 -39 47 -39 28 -3 -9 17 -8 24 8 37 23 19 37 51 22 51
-6 0 -7 9 -3 22 6 20 5 21 -10 9 -18 -15 -28 -10 -33 19 -3 22 12 35 23 19 4
-7 3 -9 -4 -5 -7 4 -10 -1 -9 -14 1 -11 4 -20 8 -20 13 0 25 26 23 50 -1 14
-3 55 -4 93 -2 37 -7 67 -11 67 -5 0 -9 5 -9 11 0 5 4 8 8 5 5 -3 8 9 7 27 -2
25 -6 32 -21 30 -18 -1 -18 -1 -1 11 18 14 24 32 6 20 -8 -5 -8 -1 0 13 6 11
8 23 5 26 -3 3 -6 22 -6 41 0 20 -5 36 -11 36 -7 0 -5 5 3 10 13 9 13 10 0 10
-13 0 -13 1 0 10 8 5 10 10 5 10 -6 0 -11 23 -12 52 -2 77 -12 120 -25 112 -7
-5 -8 -2 -2 7 10 16 12 69 3 69 -4 0 -6 6 -5 13 3 33 -16 117 -27 117 -8 0 -8
3 2 9 8 6 10 14 5 22 -5 8 -9 21 -11 29 -7 48 -12 75 -13 75 -1 0 -3 14 -6 30
-5 37 -12 70 -14 70 -1 0 -4 14 -6 30 -3 17 -7 37 -11 45 -3 8 -6 18 -5 21 1
4 -3 22 -9 40 -6 19 -12 41 -14 49 -2 8 -11 42 -20 75 -9 33 -20 74 -24 90
-40 157 -163 469 -260 665 -282 565 -670 977 -1131 1200 -114 56 -249 110
-273 110 -7 0 -17 3 -21 7 -3 4 -13 8 -20 9 -7 1 -40 10 -72 19 -33 9 -70 18
-84 20 -14 2 -36 6 -50 9 -25 6 -51 10 -160 25 -62 8 -414 13 -422 6z m845
-2010 c15 -61 30 -121 32 -135 2 -14 6 -34 8 -45 3 -11 6 -30 6 -43 1 -13 4
-21 9 -19 4 3 8 -9 9 -26 1 -28 6 -67 17 -132 2 -11 4 -33 5 -49 1 -26 3 -27
19 -15 16 13 16 13 -1 -7 -9 -11 -14 -24 -10 -28 4 -3 8 -29 10 -56 l2 -51
-33 26 c-18 14 -38 25 -44 25 -6 0 -12 4 -14 9 -1 5 -17 17 -34 27 -17 11 -76
46 -130 79 -54 32 -174 97 -267 143 -92 46 -165 87 -162 92 8 12 219 151 310
203 157 90 210 117 225 114 10 -1 24 -38 43 -112z m338 -378 c-10 -9 -11 -8
-5 6 3 10 9 15 12 12 3 -3 0 -11 -7 -18z m490 -24 c13 -16 12 -17 -3 -4 -10 7
-18 15 -18 17 0 8 8 3 21 -13z m759 -63 c0 -5 -2 -10 -4 -10 -3 0 -8 5 -11 10
-3 6 -1 10 4 10 6 0 11 -4 11 -10z m-1425 -168 c-3 -3 -11 0 -18 7 -9 10 -8
11 6 5 10 -3 15 -9 12 -12z m549 10 c3 -5 -1 -9 -9 -9 -8 0 -12 4 -9 9 3 4 7
8 9 8 2 0 6 -4 9 -8z m330 0 c3 -5 -1 -9 -9 -9 -8 0 -12 4 -9 9 3 4 7 8 9 8 2
0 6 -4 9 -8z m-814 -26 c0 -2 -8 -10 -17 -17 -16 -13 -17 -12 -4 4 13 16 21
21 21 13z m197 -21 c0 -8 -4 -12 -9 -9 -5 3 -6 10 -3 15 9 13 12 11 12 -6z
m158 6 c3 -5 2 -12 -3 -15 -5 -3 -9 1 -9 9 0 17 3 19 12 6z m700 -9 c-3 -3
-11 0 -18 7 -9 10 -8 11 6 5 10 -3 15 -9 12 -12z m-817 -17 c-3 -3 -9 2 -12
12 -6 14 -5 15 5 6 7 -7 10 -15 7 -18z m75 10 c-3 -9 -8 -14 -10 -11 -3 3 -2
9 2 15 9 16 15 13 8 -4z m687 -9 c0 -2 -8 -10 -17 -17 -16 -13 -17 -12 -4 4
13 16 21 21 21 13z m-325 -15 c3 -5 2 -12 -3 -15 -5 -3 -9 1 -9 9 0 17 3 19
12 6z m58 -6 c4 -8 3 -16 -1 -19 -4 -3 -9 4 -9 15 -2 23 3 25 10 4z m87 11 c0
-2 -7 -7 -16 -10 -8 -3 -12 -2 -9 4 6 10 25 14 25 6z m73 -11 c4 -8 3 -16 -1
-19 -4 -3 -9 4 -9 15 -2 23 3 25 10 4z m141 7 c3 -5 -1 -9 -9 -9 -8 0 -12 4
-9 9 3 4 7 8 9 8 2 0 6 -4 9 -8z m-819 -11 c3 -5 2 -12 -3 -15 -5 -3 -9 1 -9
9 0 17 3 19 12 6z m120 0 c3 -5 2 -12 -3 -15 -5 -3 -9 1 -9 9 0 17 3 19 12 6z
m121 -16 c-1 -8 -5 -17 -8 -21 -5 -4 -4 16 1 34 3 9 9 -1 7 -13z m120 -11 c1
-9 0 -13 -4 -10 -3 4 -7 14 -8 22 -1 9 0 13 4 10 3 -4 7 -14 8 -22z m360 0 c1
-9 0 -13 -4 -10 -3 4 -7 14 -8 22 -1 9 0 13 4 10 3 -4 7 -14 8 -22z m159 17
c-9 -8 -36 -10 -30 -2 2 4 11 8 20 8 8 0 13 -3 10 -6z m-919 -37 c1 -9 0 -13
-4 -10 -3 4 -7 14 -8 22 -1 9 0 13 4 10 3 -4 7 -14 8 -22z m1364 22 c0 -3 -4
-8 -10 -11 -5 -3 -10 -1 -10 4 0 6 5 11 10 11 6 0 10 -2 10 -4z m-1324 -45 c0
-17 -3 -28 -6 -26 -5 3 -6 38 -1 53 4 10 7 -3 7 -27z m121 14 c0 -8 -4 -12 -9
-9 -5 3 -6 10 -3 15 9 13 12 11 12 -6z m83 11 c0 -3 -4 -8 -10 -11 -5 -3 -10
-1 -10 4 0 6 5 11 10 11 6 0 10 -2 10 -4z m115 -5 c-8 -7 -45 -9 -50 -1 -2 3
9 6 25 6 17 0 27 -2 25 -5z m121 -3 c3 -4 -1 -5 -10 -4 -8 1 -18 5 -22 8 -3 4
1 5 10 4 8 -1 18 -5 22 -8z m54 6 c0 -8 -19 -13 -24 -6 -3 5 1 9 9 9 8 0 15
-2 15 -3z m26 -9 c-1 -8 -5 -17 -8 -21 -5 -4 -4 16 1 34 3 9 9 -1 7 -13z m80
3 c3 -4 -1 -5 -10 -4 -8 1 -18 5 -22 8 -3 4 1 5 10 4 8 -1 18 -5 22 -8z m54 6
c0 -8 -19 -13 -24 -6 -3 5 1 9 9 9 8 0 15 -2 15 -3z m26 -9 c-1 -8 -5 -17 -8
-21 -5 -4 -4 16 1 34 3 9 9 -1 7 -13z m118 7 c3 -5 -1 -9 -9 -9 -8 0 -12 4 -9
9 3 4 7 8 9 8 2 0 6 -4 9 -8z m61 -1 c-9 -8 -36 -10 -30 -2 2 4 11 8 20 8 8 0
13 -3 10 -6z m139 1 c2 -4 -5 -9 -17 -9 -17 -2 -19 0 -7 7 18 12 18 12 24 2z
m62 -4 c3 -4 -1 -5 -10 -4 -8 1 -18 5 -22 8 -3 4 1 5 10 4 8 -1 18 -5 22 -8z
m140 0 c3 -4 -1 -5 -10 -4 -8 1 -18 5 -22 8 -3 4 1 5 10 4 8 -1 18 -5 22 -8z
m44 2 c0 -5 -5 -10 -11 -10 -5 0 -7 5 -4 10 3 6 8 10 11 10 2 0 4 -4 4 -10z
m-300 -14 c0 -3 -4 -8 -10 -11 -5 -3 -10 -1 -10 4 0 6 5 11 10 11 6 0 10 -2
10 -4z m160 -6 c0 -5 -2 -10 -4 -10 -3 0 -8 5 -11 10 -3 6 -1 10 4 10 6 0 11
-4 11 -10z m-1165 -28 c-3 -3 -11 0 -18 7 -9 10 -8 11 6 5 10 -3 15 -9 12 -12z
m123 -17 c-3 -3 -9 2 -12 12 -6 14 -5 15 5 6 7 -7 10 -15 7 -18z m117 6 c3 -5
2 -12 -3 -15 -5 -3 -9 1 -9 9 0 17 3 19 12 6z m80 -1 c3 -5 1 -10 -4 -10 -6 0
-11 5 -11 10 0 6 2 10 4 10 3 0 8 -4 11 -10z m45 -4 c-7 -7 -13 -7 -20 0 -6 6
-3 10 10 10 13 0 16 -4 10 -10z m40 4 c0 -5 -5 -10 -11 -10 -5 0 -7 5 -4 10 3
6 8 10 11 10 2 0 4 -4 4 -10z m80 0 c0 -5 -2 -10 -4 -10 -3 0 -8 5 -11 10 -3
6 -1 10 4 10 6 0 11 -4 11 -10z m160 0 c0 -5 -2 -10 -4 -10 -3 0 -8 5 -11 10
-3 6 -1 10 4 10 6 0 11 -4 11 -10z m315 1 c3 -5 2 -12 -3 -15 -5 -3 -9 1 -9 9
0 17 3 19 12 6z m42 -6 c0 -8 -4 -12 -9 -9 -5 3 -6 10 -3 15 9 13 12 11 12 -6z
m38 5 c3 -5 1 -10 -4 -10 -6 0 -11 5 -11 10 0 6 2 10 4 10 3 0 8 -4 11 -10z
m36 -13 c-10 -9 -11 -8 -5 6 3 10 9 15 12 12 3 -3 0 -11 -7 -18z m49 13 c0 -5
-5 -10 -11 -10 -5 0 -7 5 -4 10 3 6 8 10 11 10 2 0 4 -4 4 -10z m77 -5 c0 -8
-4 -12 -9 -9 -5 3 -6 10 -3 15 9 13 12 11 12 -6z m117 -1 c3 -8 2 -12 -4 -9
-6 3 -10 10 -10 16 0 14 7 11 14 -7z m-1193 -31 c13 -16 12 -17 -3 -4 -10 7
-18 15 -18 17 0 8 8 3 21 -13z m480 0 c13 -16 12 -17 -3 -4 -10 7 -18 15 -18
17 0 8 8 3 21 -13z m-161 -3 c0 -5 -5 -10 -11 -10 -5 0 -7 5 -4 10 3 6 8 10
11 10 2 0 4 -4 4 -10z m37 -5 c0 -8 -4 -12 -9 -9 -4 3 -8 9 -8 15 0 5 4 9 8 9
5 0 9 -7 9 -15z m163 6 c0 -6 -4 -12 -8 -15 -5 -3 -9 1 -9 9 0 8 4 15 9 15 4
0 8 -4 8 -9z m44 -3 c-3 -4 -9 -8 -15 -8 -5 0 -9 4 -9 8 0 5 7 9 15 9 8 0 12
-4 9 -9z m436 2 c0 -5 -5 -10 -11 -10 -5 0 -7 5 -4 10 3 6 8 10 11 10 2 0 4
-4 4 -10z m-785 -19 c3 -5 2 -12 -3 -15 -5 -3 -9 1 -9 9 0 17 3 19 12 6z m66
-18 c13 -16 12 -17 -3 -4 -10 7 -18 15 -18 17 0 8 8 3 21 -13z m159 13 c0 -2
-8 -10 -17 -17 -16 -13 -17 -12 -4 4 13 16 21 21 21 13z m320 0 c0 -2 -8 -10
-17 -17 -16 -13 -17 -12 -4 4 13 16 21 21 21 13z m115 -5 c3 -5 2 -12 -3 -15
-5 -3 -9 1 -9 9 0 17 3 19 12 6z m162 -6 c0 -8 -4 -12 -9 -9 -5 3 -6 10 -3 15
9 13 12 11 12 -6z m124 -2 c13 -16 12 -17 -3 -4 -10 7 -18 15 -18 17 0 8 8 3
21 -13z m80 0 c13 -16 12 -17 -3 -4 -10 7 -18 15 -18 17 0 8 8 3 21 -13z
m-676 -3 c3 -6 -1 -7 -9 -4 -18 7 -21 14 -7 14 6 0 13 -4 16 -10z m75 6 c0 -2
-7 -7 -16 -10 -8 -3 -12 -2 -9 4 6 10 25 14 25 6z m-556 -24 c3 -5 -1 -9 -9
-9 -8 0 -12 4 -9 9 3 4 7 8 9 8 2 0 6 -4 9 -8z m294 -27 c-3 -3 -9 2 -12 12
-6 14 -5 15 5 6 7 -7 10 -15 7 -18z m-204 -1 c3 -8 2 -12 -4 -9 -6 3 -10 10
-10 16 0 14 7 11 14 -7z m286 6 c0 -5 -5 -10 -11 -10 -5 0 -7 5 -4 10 3 6 8
10 11 10 2 0 4 -4 4 -10z m256 -24 c0 -14 -3 -23 -7 -20 -6 3 -6 22 0 42 3 10
7 -2 7 -22z m480 -1 c1 -8 -1 -17 -5 -19 -4 -3 -7 6 -7 19 0 25 8 25 12 0z
m-920 -10 c1 -8 -5 -20 -14 -27 -15 -11 -15 -11 -6 2 6 8 10 23 8 33 -1 11 0
16 4 13 3 -4 7 -13 8 -21z m569 15 c3 -6 -1 -7 -9 -4 -18 7 -21 14 -7 14 6 0
13 -4 16 -10z m235 6 c0 -2 -7 -7 -16 -10 -8 -3 -12 -2 -9 4 6 10 25 14 25 6z
m240 0 c0 -2 -7 -7 -16 -10 -8 -3 -12 -2 -9 4 6 10 25 14 25 6z m-1150 -22 c0
-8 -19 -13 -24 -6 -3 5 1 9 9 9 8 0 15 -2 15 -3z m67 -11 c0 -9 -4 -10 -14 -2
-7 6 -13 12 -13 14 0 1 6 2 13 2 8 0 14 -6 14 -14z m523 11 c0 -8 -19 -13 -24
-6 -3 5 1 9 9 9 8 0 15 -2 15 -3z m74 -2 c3 -5 -1 -9 -9 -9 -8 0 -12 4 -9 9 3
4 7 8 9 8 2 0 6 -4 9 -8z m141 -1 c-8 -7 -45 -9 -50 -1 -2 3 9 6 25 6 17 0 27
-2 25 -5z m116 -8 c12 -16 12 -17 -2 -6 -9 7 -20 9 -24 5 -5 -4 -5 -1 -1 6 9
16 11 15 27 -5z m79 11 c0 -8 -19 -13 -24 -6 -3 5 1 9 9 9 8 0 15 -2 15 -3z
m-773 -19 c0 -8 -4 -12 -9 -9 -5 3 -6 10 -3 15 9 13 12 11 12 -6z m213 0 c0
-2 -6 -8 -13 -14 -10 -8 -14 -7 -14 2 0 8 6 14 14 14 7 0 13 -1 13 -2z m-250
-26 c0 -5 -4 -9 -8 -9 -5 0 -9 7 -9 15 0 8 4 12 9 9 4 -3 8 -9 8 -15z m454 -9
c-6 -6 -10 -3 -10 10 0 13 4 16 10 10 7 -7 7 -13 0 -20z m154 21 c16 12 16 12
0 -6 -18 -19 -18 -19 -35 0 -17 18 -17 18 0 6 14 -11 20 -11 35 0z m-817 -24
c-10 -9 -11 -8 -5 6 3 10 9 15 12 12 3 -3 0 -11 -7 -18z m700 6 c13 -16 12
-17 -3 -4 -10 7 -18 15 -18 17 0 8 8 3 21 -13z m233 5 c-4 -5 -9 -7 -12 -4 -3
3 -12 0 -21 -7 -14 -10 -14 -10 -4 4 13 16 46 23 37 7z m-806 -27 c-7 -9 -13
-18 -15 -20 -1 -2 -1 5 0 16 0 11 7 20 14 20 10 0 10 -4 1 -16z m316 10 c3 -4
-4 -17 -17 -27 -22 -19 -22 -19 -4 2 9 11 14 24 10 27 -3 4 -4 7 0 7 3 0 8 -4
11 -9z m-229 -21 c10 -11 16 -20 13 -20 -3 0 -13 9 -23 20 -10 11 -16 20 -13
20 3 0 13 -9 23 -20z m592 5 c0 -8 -4 -15 -9 -15 -10 0 -11 14 -1 23 9 10 10
9 10 -8z m330 -3 c-10 -10 -15 -21 -12 -24 3 -3 -5 -13 -17 -24 -23 -19 -23
-19 -7 1 9 11 15 28 14 38 -2 9 1 15 5 12 5 -3 11 -1 15 5 3 5 9 10 12 10 3 0
-1 -8 -10 -18z m-833 -4 c-3 -4 -11 -5 -19 -1 -21 7 -19 12 4 10 11 0 18 -5
15 -9z m65 9 c-2 -2 -11 -8 -20 -15 -12 -9 -16 -9 -16 1 0 7 9 14 20 14 11 1
18 1 16 0z m240 0 c-2 -2 -11 -8 -20 -15 -12 -9 -16 -9 -16 1 0 7 9 14 20 14
11 1 18 1 16 0z m98 -14 c0 -10 -4 -10 -16 -1 -9 7 -18 13 -20 15 -2 1 5 1 16
0 11 0 20 -7 20 -14z m223 12 c0 -7 -30 -13 -34 -7 -3 4 4 9 15 9 10 1 19 0
19 -2z m237 -18 c0 -8 -6 -14 -14 -14 -9 0 -10 4 -2 14 6 7 12 13 14 13 1 0 2
-6 2 -13z m-1071 -9 c3 -4 -1 -5 -10 -4 -8 1 -18 5 -22 8 -3 4 1 5 10 4 8 -1
18 -5 22 -8z m275 -1 c-6 -8 -9 -17 -6 -20 3 -4 2 -5 -2 -2 -3 3 -11 0 -18 -5
-8 -7 -12 -5 -12 5 0 8 4 12 8 10 3 -3 12 2 19 10 7 8 15 15 17 15 3 0 0 -6
-6 -13z m249 9 c0 -2 -8 -10 -17 -17 -16 -13 -17 -12 -4 4 13 16 21 21 21 13z
m61 -13 c13 -16 12 -17 -3 -4 -10 7 -18 15 -18 17 0 8 8 3 21 -13z m284 9 c-3
-3 3 -15 12 -26 14 -15 14 -18 2 -8 -9 6 -20 8 -25 4 -5 -4 -6 -3 -2 2 4 5 3
14 -2 21 -7 8 -5 12 5 12 8 0 13 -3 10 -5z m36 -9 c13 -16 12 -17 -3 -4 -10 7
-18 15 -18 17 0 8 8 3 21 -13z m99 13 c0 -2 -8 -10 -17 -17 -16 -13 -17 -12
-4 4 13 16 21 21 21 13z m-937 -20 c3 3 4 -2 3 -12 -2 -10 -8 -19 -15 -20 -7
-2 -7 -1 -1 3 7 3 5 13 -7 26 -12 15 -13 18 -2 9 9 -6 18 -9 22 -6z m143 -6
c0 -12 -4 -16 -9 -11 -5 5 -6 14 -3 20 10 15 12 14 12 -9z m-243 -10 c10 -12
9 -12 -4 -2 -9 6 -18 9 -21 6 -3 -3 -9 -1 -12 4 -9 15 22 8 37 -8z m521 4 c3
-8 2 -12 -4 -9 -6 3 -10 10 -10 16 0 14 7 11 14 -7z m77 -1 c13 -16 12 -17 -3
-4 -15 11 -21 11 -35 0 -16 -13 -17 -12 -4 4 7 9 17 17 21 17 4 0 14 -8 21
-17z m40 -6 c-10 -9 -11 -8 -5 6 3 10 9 15 12 12 3 -3 0 -11 -7 -18z m333 14
c3 -5 -1 -11 -9 -14 -9 -4 -12 -1 -8 9 6 16 10 17 17 5z m30 -7 c3 -8 2 -12
-4 -9 -6 3 -10 10 -10 16 0 14 7 11 14 -7z m-651 -7 c7 3 8 2 4 -2 -14 -16
-36 -14 -29 3 4 10 7 12 10 4 2 -7 9 -9 15 -5z m-208 -5 c-3 -3 0 -11 7 -19 6
-7 9 -15 7 -17 -2 -2 -12 6 -21 18 -13 18 -14 23 -2 23 8 0 12 -3 9 -5z m46
-10 c-7 -2 -18 1 -23 6 -8 8 -4 9 13 5 13 -4 18 -8 10 -11z m191 -8 c-9 -12
-19 -20 -21 -18 -2 2 1 10 7 17 7 8 10 16 7 19 -3 2 1 5 9 5 12 0 11 -5 -2
-23z m-312 12 c0 -2 -6 -9 -14 -15 -11 -9 -16 -9 -22 0 -4 7 -3 9 4 5 6 -3 13
-2 17 4 6 10 15 14 15 6z m155 -5 c3 -5 2 -12 -3 -15 -5 -3 -9 1 -9 9 0 17 3
19 12 6z m82 -6 c0 -8 -4 -12 -9 -9 -5 3 -6 10 -3 15 9 13 12 11 12 -6z m170
-7 c-3 -8 -6 -5 -6 6 -1 11 2 17 5 13 3 -3 4 -12 1 -19z m203 7 c-6 -8 -8 -20
-4 -27 5 -10 4 -10 -6 -1 -11 10 -11 15 0 28 7 8 15 15 17 15 3 0 0 -7 -7 -15z
m131 -2 c13 -16 12 -17 -3 -4 -10 7 -18 15 -18 17 0 8 8 3 21 -13z m66 -5 c-3
-8 -6 -5 -6 6 -1 11 2 17 5 13 3 -3 4 -12 1 -19z m-856 -5 c13 -16 12 -17 -3
-4 -10 7 -18 15 -18 17 0 8 8 3 21 -13z m765 -9 c1 -9 0 -13 -4 -10 -3 4 -7
14 -8 22 -1 9 0 13 4 10 3 -4 7 -14 8 -22z m329 16 c-3 -5 -12 -10 -18 -10 -7
0 -6 4 3 10 19 12 23 12 15 0z m-1047 -30 c-7 -10 -14 -17 -17 -15 -4 4 18 35
25 35 2 0 -1 -9 -8 -20z m442 16 c0 -2 -7 -7 -16 -10 -8 -3 -12 -2 -9 4 6 10
25 14 25 6z m480 0 c0 -2 -7 -7 -16 -10 -8 -3 -12 -2 -9 4 6 10 25 14 25 6z
m-782 -37 c-3 -8 -7 -3 -11 10 -4 17 -3 21 5 13 5 -5 8 -16 6 -23z m-23 12 c3
-5 2 -12 -3 -15 -5 -3 -9 1 -9 9 0 17 3 19 12 6z m85 1 c0 -5 -7 -9 -15 -9 -8
0 -12 4 -9 9 3 4 9 8 15 8 5 0 9 -4 9 -8z m91 -15 c-10 -9 -11 -8 -5 6 3 10 9
15 12 12 3 -3 0 -11 -7 -18z m31 5 c3 -11 0 -19 -7 -19 -7 0 -10 8 -7 19 2 10
6 18 7 18 1 0 5 -8 7 -18z m178 6 c0 -11 -12 -10 -30 2 -12 7 -10 9 8 7 12 0
22 -5 22 -9z m57 6 c-8 -8 -48 -13 -43 -6 2 4 14 8 26 9 12 1 20 0 17 -3z
m123 -3 c0 -6 -4 -12 -8 -15 -5 -3 -9 1 -9 9 0 8 4 15 9 15 4 0 8 -4 8 -9z
m100 -3 c0 -6 -3 -8 -7 -5 -3 4 -13 1 -22 -6 -14 -11 -14 -10 -2 6 15 20 31
22 31 5z m100 0 c0 -11 -12 -10 -30 2 -12 7 -10 9 8 7 12 0 22 -5 22 -9z m80
2 c0 -5 -4 -10 -10 -10 -5 0 -10 5 -10 10 0 6 5 10 10 10 6 0 10 -4 10 -10z
m59 -13 c0 -9 -2 -8 -6 1 -2 6 -10 9 -15 6 -7 -4 -8 -2 -4 5 9 13 26 5 25 -12z
m-739 -32 c0 -5 -5 -3 -10 5 -5 8 -10 20 -10 25 0 6 5 3 10 -5 5 -8 10 -19 10
-25z m163 18 c-5 -12 -3 -14 7 -8 9 6 11 4 5 -4 -5 -9 -11 -9 -17 -3 -6 6 -7
15 -4 21 11 17 16 13 9 -6z m200 11 c-6 -3 -10 -17 -7 -32 3 -19 2 -23 -5 -13
-7 11 -8 29 -2 49 1 1 7 2 14 1 9 0 9 -2 0 -5z m80 0 c-6 -3 -10 -17 -7 -32 3
-19 2 -23 -5 -13 -7 11 -8 29 -2 49 1 1 7 2 14 1 9 0 9 -2 0 -5z m80 0 c-7 -3
-9 -12 -6 -20 3 -8 1 -14 -5 -14 -8 0 -9 16 -3 38 1 1 7 2 14 1 9 0 9 -2 0 -5z
m39 -12 c-3 -10 -1 -13 6 -8 7 4 12 5 12 2 0 -15 -20 -14 -29 2 -7 14 -6 19 4
19 7 0 11 -7 7 -15z m-769 -5 c4 3 7 2 7 -4 0 -6 -8 -13 -18 -15 -12 -4 -18 1
-18 13 0 12 4 15 12 9 6 -6 14 -7 17 -3z m134 7 c-3 -3 -12 -4 -19 -1 -8 3 -5
6 6 6 11 1 17 -2 13 -5z m-44 -23 c3 -13 1 -18 -9 -14 -7 2 -10 11 -7 19 7 19
10 18 16 -5z m211 10 c-9 -9 -34 -9 -34 -1 0 5 9 8 20 7 10 -1 17 -3 14 -6z
m562 -6 c-1 -8 -6 -18 -11 -22 -4 -4 -5 -2 -1 5 5 7 1 12 -11 13 -16 0 -16 1
2 9 11 5 21 9 22 9 1 1 0 -6 -1 -14z m107 -4 c3 -13 1 -18 -9 -14 -7 2 -10 11
-7 19 7 19 10 18 16 -5z m-527 -17 c1 -9 0 -13 -4 -10 -3 4 -7 14 -8 22 -1 9
0 13 4 10 3 -4 7 -14 8 -22z m-383 -7 c4 3 7 1 7 -5 0 -17 -16 -15 -34 4 -22
22 -20 31 2 11 10 -10 22 -14 25 -10z m64 6 c-4 -3 1 -11 10 -18 13 -9 13 -14
3 -20 -9 -5 -11 -4 -6 3 4 7 1 12 -8 12 -9 0 -16 4 -16 8 0 10 11 22 18 22 3
0 2 -3 -1 -7z m66 -7 c3 -8 0 -17 -7 -19 -10 -4 -12 1 -9 14 6 23 9 24 16 5z
m61 -2 c3 -8 2 -12 -4 -9 -6 3 -10 10 -10 16 0 14 7 11 14 -7z m157 -11 c-6
-11 -11 -13 -11 -5 0 7 -5 10 -12 6 -7 -4 -8 -3 -4 5 4 6 12 9 17 6 5 -4 9 -1
9 6 0 7 3 10 6 6 3 -3 1 -14 -5 -24z m132 6 c-8 -8 -13 -7 -18 2 -5 8 -4 10 3
5 7 -4 12 -2 12 5 0 7 3 9 7 6 4 -4 2 -12 -4 -18z m161 6 c-4 -8 -11 -12 -16
-9 -6 4 -5 10 3 15 19 12 19 11 13 -6z m239 2 c4 3 7 1 7 -5 0 -17 -16 -15
-31 6 -12 15 -12 16 2 5 9 -7 19 -10 22 -6z m-579 -13 c3 -8 2 -12 -4 -9 -6 3
-10 10 -10 16 0 14 7 11 14 -7z m236 -4 c-12 -23 -16 -24 -26 -8 -4 6 -3 8 3
5 6 -4 13 0 17 8 3 8 8 15 11 15 3 0 1 -9 -5 -20z m160 1 c7 -15 7 -19 -5 -17
-8 1 -18 6 -22 11 -5 4 -2 5 6 0 11 -6 13 -4 8 8 -9 23 0 21 13 -2z m35 9 c-3
-5 -12 -10 -18 -10 -7 0 -6 4 3 10 19 12 23 12 15 0z m112 -5 c5 -4 2 -5 -6 0
-11 6 -13 4 -8 -8 9 -23 0 -21 -13 2 -7 15 -7 19 5 17 8 -1 18 -6 22 -11z
m-621 -4 c-4 -5 0 -12 6 -14 8 -3 6 -6 -4 -6 -18 -1 -24 10 -11 22 9 10 15 8
9 -2z m214 5 c0 -2 -7 -7 -16 -10 -8 -3 -12 -2 -9 4 6 10 25 14 25 6z m165 -5
c3 -5 0 -13 -6 -17 -8 -5 -9 -3 -4 6 6 10 4 12 -9 7 -10 -4 -15 -3 -11 3 8 13
22 13 30 1z m183 -16 c-3 -3 -9 2 -12 12 -6 14 -5 15 5 6 7 -7 10 -15 7 -18z
m-278 -20 c0 -5 -5 -3 -10 5 -5 8 -10 20 -10 25 0 6 5 3 10 -5 5 -8 10 -19 10
-25z m160 0 c0 -5 -5 -3 -10 5 -5 8 -10 20 -10 25 0 6 5 3 10 -5 5 -8 10 -19
10 -25z m92 13 c-7 -7 -16 -6 -29 1 -16 11 -15 11 6 5 17 -4 21 -3 16 6 -6 9
-4 11 4 5 9 -5 9 -11 3 -17z m151 5 c-5 -12 -3 -14 7 -8 9 6 11 4 5 -4 -5 -9
-11 -9 -17 -3 -6 6 -7 15 -4 21 11 17 16 13 9 -6z m-879 -9 c9 -24 2 -26 -12
-4 -7 11 -8 20 -3 20 5 0 12 -7 15 -16z m161 -5 c-5 -16 -4 -19 5 -14 9 6 11
4 5 -4 -10 -18 -27 2 -19 22 9 25 17 21 9 -4z m105 6 c5 3 14 -5 20 -17 9 -20
9 -21 -2 -7 -7 9 -17 16 -23 17 -5 0 -10 5 -11 12 -2 6 -1 7 3 0 2 -5 9 -8 13
-5z m178 4 c-2 -6 -7 -10 -12 -9 -5 1 -13 -4 -18 -12 -8 -10 -9 -10 -5 2 2 8
10 14 16 13 6 -2 11 2 11 7 0 6 3 10 6 10 3 0 4 -5 2 -11z m160 0 c-2 -6 -7
-10 -12 -9 -5 1 -13 -4 -18 -12 -8 -10 -9 -10 -5 2 2 8 10 14 16 13 6 -2 11 2
11 7 0 6 3 10 6 10 3 0 4 -5 2 -11z m228 2 c-4 -5 0 -12 6 -14 8 -3 6 -6 -4
-6 -18 -1 -24 10 -11 22 9 10 15 8 9 -2z m-863 -21 c5 -4 3 -11 -4 -15 -8 -5
-10 -4 -5 3 6 11 -12 17 -36 13 -5 0 -8 4 -8 10 0 11 38 3 53 -11z m115 12 c8
-6 2 -9 -18 -9 -20 0 -26 3 -18 9 7 4 15 8 18 8 3 0 11 -4 18 -8z m32 -12 c-6
-11 -15 -20 -20 -20 -6 0 -2 9 7 20 10 11 19 20 21 20 1 0 -2 -9 -8 -20z m110
10 c-8 -5 -19 -10 -25 -10 -5 0 -3 5 5 10 8 5 20 10 25 10 6 0 3 -5 -5 -10z
m124 -6 c3 -8 2 -12 -4 -9 -6 3 -10 10 -10 16 0 14 7 11 14 -7z m431 6 c3 -5
1 -10 -4 -10 -6 0 -11 5 -11 10 0 6 2 10 4 10 3 0 8 -4 11 -10z m-460 -18 c-3
-3 -11 0 -18 7 -9 10 -8 11 6 5 10 -3 15 -9 12 -12z m-275 -8 c0 -2 -7 -4 -15
-4 -8 0 -15 4 -15 10 0 5 7 7 15 4 8 -4 15 -8 15 -10z m350 6 c0 -5 -7 -7 -15
-4 -8 4 -15 8 -15 10 0 2 7 4 15 4 8 0 15 -4 15 -10z m55 0 c-3 -5 -1 -10 5
-10 6 0 8 -5 4 -11 -4 -8 -9 -7 -15 2 -7 12 -3 29 7 29 3 0 2 -4 -1 -10z m63
-4 c-7 -8 -15 -12 -17 -11 -5 6 10 25 20 25 5 0 4 -6 -3 -14z m42 4 c0 -5 -2
-10 -4 -10 -3 0 -8 5 -11 10 -3 6 -1 10 4 10 6 0 11 -4 11 -10z m55 1 c-3 -5
4 -13 16 -16 11 -4 18 -9 16 -12 -9 -8 -48 18 -42 28 4 5 8 9 11 9 3 0 3 -4
-1 -9z m142 2 c-4 -3 -2 -12 4 -20 9 -9 8 -13 0 -13 -6 0 -11 2 -11 4 0 2 -3
11 -6 20 -4 10 -1 16 7 16 7 0 9 -3 6 -7z m59 -5 c4 -7 3 -8 -4 -4 -14 8 -15
4 -6 -18 5 -13 9 -14 20 -5 11 9 14 9 14 0 0 -7 5 -9 13 -5 6 4 9 3 4 -1 -14
-16 -48 -12 -58 7 -14 26 2 51 17 26z m-743 -13 c-3 -9 -8 -14 -10 -11 -3 3
-2 9 2 15 9 16 15 13 8 -4z m130 1 c4 -10 1 -13 -8 -9 -8 3 -12 9 -9 14 7 12
11 11 17 -5z m91 -15 c-2 -3 -12 3 -22 13 -16 17 -16 18 5 5 12 -7 20 -15 17
-18z m429 3 c-7 -19 -10 -18 -16 5 -3 13 -1 18 9 14 7 -2 10 -11 7 -19z m163
-1 c-4 -4 -12 -1 -19 7 -9 10 -9 11 1 6 7 -4 12 -2 13 6 0 11 2 11 6 0 3 -7 2
-16 -1 -19z m-880 -1 c1 -7 0 -8 -3 -2 -2 5 -9 8 -14 4 -5 -3 -9 0 -9 6 0 15
23 7 26 -8z m119 8 c-3 -5 -12 -10 -18 -10 -7 0 -6 4 3 10 19 12 23 12 15 0z
m125 -5 c0 -8 -2 -15 -4 -15 -2 0 -6 7 -10 15 -3 8 -1 15 4 15 6 0 10 -7 10
-15z m90 5 c0 -5 -2 -10 -4 -10 -3 0 -8 5 -11 10 -3 6 -1 10 4 10 6 0 11 -4
11 -10z m34 -5 c-4 -8 -8 -15 -10 -15 -2 0 -4 7 -4 15 0 8 4 15 10 15 5 0 7
-7 4 -15z m51 5 c-3 -5 -12 -10 -18 -10 -7 0 -6 4 3 10 19 12 23 12 15 0z
m125 0 c8 -5 11 -10 5 -10 -5 0 -17 5 -25 10 -8 5 -10 10 -5 10 6 0 17 -5 25
-10z m48 -15 c-3 -3 -9 2 -12 12 -6 14 -5 15 5 6 7 -7 10 -15 7 -18z m-623 -5
c3 -5 1 -10 -4 -10 -6 0 -11 5 -11 10 0 6 2 10 4 10 3 0 8 -4 11 -10z m82 -5
c4 -4 2 -5 -4 -1 -7 4 -13 2 -13 -4 0 -6 -4 -8 -10 -5 -5 3 -10 10 -10 15 0
10 27 7 37 -5z m39 3 c4 -7 3 -8 -4 -4 -12 7 -16 -4 -13 -34 2 -13 0 -13 -8
-1 -6 10 -6 21 0 33 11 21 15 22 25 6z m53 -6 c6 -12 6 -23 0 -33 -8 -12 -10
-12 -8 1 3 30 -1 41 -13 34 -7 -4 -8 -3 -4 4 10 16 14 15 25 -6z m49 -11 c-7
-2 -14 1 -16 8 -2 6 -9 8 -14 5 -7 -4 -8 -2 -4 4 5 9 12 8 27 -1 12 -7 15 -13
7 -16z m35 16 c3 -8 2 -20 -3 -26 -5 -9 -7 -4 -7 13 0 29 2 32 10 13z m42 3
c3 -5 1 -10 -4 -10 -6 0 -11 5 -11 10 0 6 2 10 4 10 3 0 8 -4 11 -10z m45 0
c0 -5 -8 -10 -17 -10 -15 0 -16 2 -3 10 19 12 20 12 20 0z m75 0 c3 -5 1 -10
-4 -10 -6 0 -11 5 -11 10 0 6 2 10 4 10 3 0 8 -4 11 -10z m45 0 c0 -5 -8 -10
-17 -10 -15 0 -16 2 -3 10 19 12 20 12 20 0z m75 -9 c-3 -6 -11 -11 -16 -11
-5 0 -4 6 3 14 14 16 24 13 13 -3z m165 9 c0 -5 -4 -10 -10 -10 -5 0 -10 5
-10 10 0 6 5 10 10 10 6 0 10 -4 10 -10z m113 -3 c3 -8 2 -20 -3 -26 -5 -9 -7
-4 -7 13 0 29 2 32 10 13z m-457 -33 c-3 -8 -10 -12 -16 -9 -5 3 -10 -3 -10
-14 0 -12 5 -20 12 -18 6 1 14 -9 18 -23 l7 -25 12 28 c6 16 15 25 21 22 5 -3
10 3 10 14 0 12 -5 20 -12 19 -6 -2 -13 6 -15 17 -3 18 -2 18 5 2 4 -10 12
-18 17 -18 6 1 10 -9 10 -21 0 -13 -5 -22 -11 -21 -7 1 -15 -9 -18 -23 -8 -30
-28 -27 -36 5 -3 12 -9 22 -15 21 -5 0 -11 8 -13 20 -2 11 -8 17 -14 14 -6 -4
-8 -2 -4 4 3 6 15 9 26 7 15 -3 20 2 21 18 0 12 3 16 6 9 3 -7 2 -20 -1 -28z
m121 14 c-2 -12 -10 -24 -18 -26 -11 -3 -12 -2 -1 6 8 5 13 12 13 16 -2 15 -1
26 4 26 3 0 3 -10 2 -22z m80 3 c-3 -20 -37 -59 -37 -42 0 5 6 14 14 18 14 8
16 12 16 33 0 6 2 10 5 10 3 0 4 -8 2 -19z m-540 -13 c-3 -8 -6 -5 -6 6 -1 11
2 17 5 13 3 -3 4 -12 1 -19z m585 15 c-6 -2 -10 -9 -6 -14 3 -5 -2 -12 -10
-15 -9 -3 -14 -9 -12 -13 3 -4 -5 -8 -17 -8 -18 -2 -17 1 8 17 17 11 26 20 22
20 -5 0 -5 5 -2 10 3 6 12 10 18 9 9 0 8 -2 -1 -6z m53 -3 c13 -6 15 -9 5 -9
-8 0 -22 4 -30 9 -18 12 -2 12 25 0z m94 0 c-6 -5 -18 -6 -26 -3 -19 8 -16 11
13 11 17 0 22 -3 13 -8z m161 -6 c0 -2 -7 -4 -15 -4 -8 0 -15 4 -15 10 0 5 7
7 15 4 8 -4 15 -8 15 -10z m-767 -1 c-7 -2 -19 -2 -25 0 -7 3 -2 5 12 5 14 0
19 -2 13 -5z m132 -3 c-3 -5 -1 -10 6 -10 7 0 10 -3 6 -6 -9 -9 -28 6 -22 17
4 5 8 9 11 9 3 0 2 -4 -1 -10z m237 -4 c7 4 8 2 4 -5 -9 -13 -26 -5 -25 12 0
9 2 8 6 -1 2 -6 10 -9 15 -6z m181 -1 c-3 -9 -8 -14 -10 -11 -3 3 -2 9 2 15 9
16 15 13 8 -4z m87 5 c0 -5 -6 -10 -13 -10 -7 0 -13 -9 -13 -20 0 -11 6 -20
13 -20 7 0 13 -5 13 -10 0 -7 -6 -7 -18 -1 -22 12 -22 48 -1 62 18 11 19 11
19 -1z m55 0 c-3 -5 1 -10 9 -10 9 0 16 -5 16 -10 0 -7 -7 -7 -20 0 -17 9 -20
30 -4 30 3 0 2 -4 -1 -10z m-759 -32 c-1 -12 -9 -24 -17 -26 -8 -2 -10 0 -4 5
6 4 11 15 13 25 2 12 -3 15 -20 12 -21 -4 -21 -4 -3 5 26 11 35 5 31 -21z
m130 20 c5 -7 3 -8 -5 -4 -15 10 -11 -25 4 -37 6 -5 4 -7 -4 -5 -15 4 -24 35
-15 50 7 11 12 10 20 -4z m429 2 c3 -6 -1 -7 -9 -4 -18 7 -21 14 -7 14 6 0 13
-4 16 -10z m78 -7 c-4 -11 -3 -14 5 -9 7 4 12 2 12 -3 0 -6 -4 -11 -9 -11 -14
0 -23 18 -16 30 10 16 15 12 8 -7z m-598 -13 c-3 -5 -12 -10 -18 -10 -7 0 -6
4 3 10 19 12 23 12 15 0z m45 0 c8 -5 11 -10 5 -10 -5 0 -17 5 -25 10 -8 5
-10 10 -5 10 6 0 17 -5 25 -10z m80 6 c0 -2 -7 -7 -16 -10 -8 -3 -12 -2 -9 4
6 10 25 14 25 6z m140 -6 c0 -5 -4 -10 -10 -10 -5 0 -10 5 -10 10 0 6 5 10 10
10 6 0 10 -4 10 -10z m296 -5 c4 -8 10 -12 15 -9 5 3 9 0 9 -5 0 -16 -20 -13
-26 4 -4 8 -10 12 -15 9 -5 -3 -9 0 -9 5 0 16 20 13 26 -4z m124 5 c0 -5 -4
-10 -10 -10 -5 0 -10 5 -10 10 0 6 5 10 10 10 6 0 10 -4 10 -10z m105 0 c-3
-5 -11 -10 -16 -10 -6 0 -7 5 -4 10 3 6 11 10 16 10 6 0 7 -4 4 -10z m-605
-10 c0 -5 -2 -10 -4 -10 -3 0 -8 5 -11 10 -3 6 -1 10 4 10 6 0 11 -4 11 -10z
m160 6 c0 -3 -4 -8 -10 -11 -5 -3 -10 -1 -10 4 0 6 5 11 10 11 6 0 10 -2 10
-4z m-320 -16 c0 -5 -4 -10 -10 -10 -5 0 -10 5 -10 10 0 6 5 10 10 10 6 0 10
-4 10 -10z m130 -3 c-3 -5 8 -15 23 -24 23 -12 26 -17 16 -29 -8 -10 -8 -14 0
-14 6 0 11 -5 11 -10 0 -6 -8 -5 -19 2 -18 11 -18 13 -3 26 16 13 16 13 -1 8
-10 -3 -16 -2 -13 3 3 5 -1 12 -10 15 -8 3 -12 10 -9 16 3 5 -3 10 -14 10 -12
0 -20 -5 -18 -11 1 -6 -5 -14 -13 -16 -13 -4 -13 -3 0 6 8 6 11 11 7 11 -5 0
-5 5 -2 11 4 5 17 9 28 7 12 -2 20 -7 17 -11z m243 -5 c-4 -15 13 -16 20 -2 3
6 4 5 3 -2 -2 -7 -9 -13 -17 -13 -8 0 -13 6 -11 13 1 6 -7 12 -19 12 -11 0
-17 -5 -14 -10 3 -6 -1 -13 -9 -16 -9 -3 -13 -10 -10 -15 3 -5 -3 -6 -13 -2
-16 6 -16 5 -4 -10 7 -9 9 -17 3 -17 -24 0 -20 30 6 44 15 9 23 15 19 16 -5 0
-5 5 -2 11 9 14 51 7 48 -9z m92 10 c-5 -4 -11 -16 -13 -27 -3 -20 -2 -20 13
-1 8 11 15 15 15 9 0 -15 -27 -36 -34 -25 -4 6 -2 31 3 50 1 1 7 2 14 2 7 0 8
-3 2 -8z m35 -1 c0 -5 8 -12 18 -14 14 -4 14 -5 1 -6 -9 0 -22 6 -29 14 -9 10
-9 15 -1 15 6 0 11 -4 11 -9z m242 -14 c5 -10 7 -21 4 -25 -3 -3 -6 0 -6 7 0
7 -4 9 -10 6 -5 -3 -7 0 -5 7 3 8 -2 14 -13 15 -11 1 -18 -6 -19 -18 -1 -10 1
-18 5 -17 4 1 17 -3 28 -10 12 -6 24 -8 28 -5 3 3 6 1 6 -5 0 -17 -11 -15 -40
5 -14 10 -27 18 -30 18 -6 0 -8 27 -3 37 7 14 45 3 55 -15z m-315 -9 c-3 -8
-6 -5 -6 6 -1 11 2 17 5 13 3 -3 4 -12 1 -19z m233 -7 c-6 -12 -15 -19 -20
-16 -4 3 -11 0 -13 -5 -3 -6 -4 -5 -2 2 1 7 7 12 13 11 6 -2 14 7 17 18 4 11
9 18 12 16 2 -3 0 -15 -7 -26z m-690 15 c0 -2 -7 -6 -15 -10 -8 -3 -15 -1 -15
4 0 6 7 10 15 10 8 0 15 -2 15 -4z m78 -5 c11 -6 10 -10 -5 -16 -10 -5 -22 -7
-26 -6 -5 1 -6 -7 -2 -18 3 -11 1 -22 -4 -25 -6 -4 -9 5 -8 21 1 16 8 29 15
29 25 3 26 6 7 14 -13 6 -15 9 -5 9 8 0 21 -3 28 -8z m143 -8 c13 -17 13 -17
-6 -3 -11 8 -22 16 -24 17 -2 2 0 3 6 3 6 0 17 -8 24 -17z m108 14 c-2 -1 -13
-9 -24 -17 -19 -14 -19 -14 -6 3 7 9 18 17 24 17 6 0 8 -1 6 -3z m311 -7 c18
-12 2 -12 -25 0 -13 6 -15 9 -5 9 8 0 22 -4 30 -9z m-620 -54 c-1 -6 -6 -2
-13 10 -7 12 -19 19 -27 17 -13 -4 -13 -3 0 6 11 8 18 6 28 -6 6 -9 12 -22 12
-27z m134 28 c8 -21 8 -24 -5 -24 -5 0 -7 5 -4 10 3 6 1 10 -4 10 -6 0 -11 5
-11 10 0 16 17 12 24 -6z m236 7 c0 -5 -7 -12 -16 -15 -8 -3 -13 -10 -10 -15
3 -5 -5 -16 -19 -25 -14 -9 -25 -12 -25 -7 0 5 9 12 20 16 11 3 19 9 18 13 -1
4 2 15 6 25 8 18 26 24 26 8z m48 -30 c-14 -19 -14 -19 -26 0 -7 11 -8 19 -2
19 5 0 10 -5 10 -11 0 -5 4 -8 10 -4 5 3 6 13 3 23 -5 13 -3 14 7 5 10 -9 10
-15 -2 -32z m130 18 c2 -8 0 -10 -5 -4 -4 6 -17 11 -28 13 -20 3 -20 2 -1 -13
11 -8 15 -15 9 -15 -7 0 -15 5 -19 12 -5 7 -11 5 -21 -7 -7 -11 -13 -15 -13
-10 0 35 69 56 78 24z m66 -4 c3 -8 1 -17 -5 -21 -6 -3 -3 -11 8 -19 10 -7 15
-17 10 -21 -4 -4 -7 -2 -7 4 0 7 -5 12 -11 12 -5 0 -7 -5 -3 -12 4 -7 3 -8 -4
-4 -7 4 -12 2 -12 -3 0 -6 -5 -11 -12 -11 -7 0 -5 7 5 18 15 16 15 19 -4 30
-15 10 -17 16 -9 32 11 21 35 18 44 -5z m-514 -1 c0 -2 -7 -4 -15 -4 -8 0 -15
4 -15 10 0 5 7 7 15 4 8 -4 15 -8 15 -10z m126 -6 c4 -6 3 -8 -4 -4 -5 3 -13
0 -15 -6 -3 -8 -6 -6 -6 5 -1 19 14 23 25 5z m48 -3 c-4 -8 -8 -15 -10 -15 -2
0 -4 7 -4 15 0 8 4 15 10 15 5 0 7 -7 4 -15z m421 5 c3 -6 -1 -7 -9 -4 -18 7
-21 14 -7 14 6 0 13 -4 16 -10z m-317 -44 c-10 -7 -14 -17 -10 -21 4 -4 -3 -2
-15 4 -27 14 -31 23 -6 14 10 -4 14 -2 9 5 -3 6 -2 13 4 17 6 4 7 12 4 18 -4
7 2 4 12 -6 18 -17 18 -19 2 -31z m277 25 c-8 -14 -25 -14 -25 0 0 5 5 7 10 4
6 -3 10 -1 10 6 0 7 3 10 6 6 3 -3 3 -10 -1 -16z m-594 -18 c-8 -15 -10 -15
-11 -2 0 17 10 32 18 25 2 -3 -1 -13 -7 -23z m44 17 c-3 -5 -11 -10 -16 -10
-6 0 -7 5 -4 10 3 6 11 10 16 10 6 0 7 -4 4 -10z m141 1 c-4 -5 -3 -11 1 -14
5 -2 2 -2 -6 0 -8 2 -11 -2 -8 -11 4 -10 1 -13 -9 -9 -18 7 -18 13 4 29 20 16
25 17 18 5z m42 -17 c0 -17 -3 -22 -8 -13 -5 6 -6 18 -3 26 8 19 11 16 11 -13z
m164 8 c-7 -2 -10 -8 -7 -13 4 -5 -1 -6 -11 -2 -14 5 -15 3 -5 -15 14 -26 14
-32 -1 -32 -6 0 -8 3 -5 7 4 3 1 13 -5 21 -10 11 -9 17 5 27 9 6 14 15 10 19
-4 4 1 4 12 0 11 -5 14 -9 7 -12z m58 -10 c0 -15 -2 -15 -10 -2 -13 20 -13 33
0 25 6 -3 10 -14 10 -23z m51 -14 c-11 -11 -13 -10 -8 4 3 10 2 20 -3 23 -6 4
-10 -2 -10 -11 0 -10 -3 -15 -6 -11 -4 3 -3 14 0 23 6 16 8 16 23 1 14 -14 15
-19 4 -29z m149 17 c0 -2 -7 -1 -17 2 -11 4 -14 3 -9 -5 5 -8 1 -10 -10 -5
-11 4 -13 8 -6 11 7 2 9 8 6 14 -4 6 2 5 15 -1 11 -7 21 -14 21 -16z m96 14
c3 -6 1 -16 -5 -22 -9 -9 -14 -8 -21 3 -9 15 -4 30 10 30 5 0 12 -5 16 -11z
m-667 -25 c-12 -14 -10 -19 10 -35 13 -11 20 -19 16 -19 -3 0 8 -12 25 -26 29
-25 33 -26 48 -11 9 9 12 20 8 24 -5 5 -11 2 -13 -4 -3 -7 -9 -13 -14 -13 -5
0 -4 9 3 19 9 15 15 17 26 9 10 -9 17 -7 30 6 16 17 16 18 -5 12 -12 -4 -24
-2 -28 3 -4 7 1 8 12 4 16 -6 16 -5 4 10 -9 11 -10 17 -2 17 6 0 11 -4 11 -9
0 -5 8 -12 18 -15 16 -6 13 -12 -25 -51 -23 -25 -43 -50 -43 -56 0 -9 -3 -9
-14 0 -11 9 -13 6 -13 -14 0 -19 3 -23 12 -15 9 8 12 4 9 -16 -1 -14 -10 -31
-20 -38 -9 -7 -14 -18 -11 -23 4 -6 0 -14 -9 -17 -9 -4 -17 -5 -18 -4 -1 2 -8
12 -16 23 -15 20 -14 20 8 1 22 -19 22 -19 22 2 0 12 -3 21 -7 21 -21 -3 -32
4 -56 41 -27 42 -28 50 -3 24 15 -14 16 -14 16 1 0 8 -7 18 -15 21 -8 4 -12
10 -9 15 5 8 -19 14 -41 9 -5 -1 -1 8 9 19 11 12 24 21 29 21 6 0 2 -7 -9 -16
-15 -13 -16 -15 -2 -10 11 3 19 -2 23 -15 4 -10 10 -17 14 -15 4 3 8 -5 8 -16
3 -33 12 -34 41 -5 14 15 21 27 15 27 -6 0 -19 -7 -28 -16 -15 -15 -16 -15
-13 -1 2 9 -5 22 -16 30 -12 9 -16 20 -12 34 6 18 9 17 47 -19 22 -21 45 -38
51 -38 7 0 -18 29 -55 64 -37 36 -58 62 -47 59 13 -3 22 1 26 11 4 9 9 15 12
12 3 -3 -1 -13 -9 -22z m-99 12 c0 -2 -6 -9 -14 -15 -11 -9 -16 -9 -22 0 -4 7
-3 9 4 5 6 -3 13 -2 17 4 6 10 15 14 15 6z m121 -23 c-12 -20 -14 -14 -5 12 4
9 9 14 11 11 3 -2 0 -13 -6 -23z m319 -3 c-23 -15 -37 -11 -18 4 10 7 16 15
14 18 -1 3 2 1 8 -4 8 -6 6 -12 -4 -18z m-390 -15 c0 -5 -5 -3 -10 5 -5 8 -10
20 -10 25 0 6 5 3 10 -5 5 -8 10 -19 10 -25z m580 13 c0 -6 -6 -5 -15 2 -8 7
-15 14 -15 16 0 2 7 1 15 -2 8 -4 15 -11 15 -16z m-266 -4 c3 -8 2 -12 -4 -9
-6 3 -10 -1 -10 -9 0 -9 -4 -16 -10 -16 -6 0 -5 10 2 25 13 29 14 30 22 9z
m366 6 c0 -5 -4 -10 -10 -10 -5 0 -10 5 -10 10 0 6 5 10 10 10 6 0 10 -4 10
-10z m-716 -6 c15 -6 15 -8 -1 -19 -13 -10 -22 -10 -31 -3 -11 9 -11 13 0 19
16 10 13 10 32 3z m149 -28 c4 4 2 13 -4 21 -9 9 -8 13 0 13 6 0 11 -5 11 -11
0 -5 5 -7 11 -4 6 4 5 -2 -3 -14 -7 -12 -16 -21 -20 -21 -8 0 -28 34 -28 47 1
4 6 -2 13 -15 7 -12 16 -20 20 -16z m127 24 c0 -5 5 -9 11 -7 6 1 14 -5 16
-13 4 -12 3 -12 -5 -2 -5 8 -11 12 -13 11 -2 -2 -13 2 -24 9 -17 10 -18 11 -2
12 9 0 17 -4 17 -10z m-220 -15 c0 -8 -4 -15 -10 -15 -5 0 -7 7 -4 15 4 8 8
15 10 15 2 0 4 -7 4 -15z m505 5 c-3 -5 -11 -10 -16 -10 -6 0 -7 5 -4 10 3 6
11 10 16 10 6 0 7 -4 4 -10z m19 -15 c-9 -14 -19 -24 -21 -21 -6 6 20 46 30
46 4 0 0 -11 -9 -25z m-570 -14 c-10 -10 -21 -17 -23 -15 -6 6 20 34 32 34 6
0 2 -8 -9 -19z m376 -14 c8 -4 0 -5 -18 -2 -25 3 -32 0 -28 -10 3 -9 0 -12 -9
-8 -8 3 -13 9 -10 13 3 5 -1 11 -7 14 -7 3 0 3 15 1 24 -3 28 -1 23 13 -5 15
-5 15 6 1 7 -9 20 -19 28 -22z m20 23 c0 -5 -8 -10 -17 -10 -15 0 -16 2 -3 10
19 12 20 12 20 0z m350 -460 c-6 -11 -16 -17 -22 -14 -7 5 -5 12 7 21 25 18
28 17 15 -7z m-355 -22 c5 4 5 1 1 -5 -10 -17 35 -76 48 -63 6 6 3 17 -10 32
-12 14 -3 10 23 -11 24 -18 48 -29 54 -25 8 4 9 3 5 -4 -4 -7 -3 -12 3 -12 10
0 27 38 23 53 -1 4 4 6 11 5 7 -2 11 6 11 20 -1 12 1 20 5 17 3 -4 6 -12 6
-18 1 -7 7 -11 15 -9 10 3 9 -3 -5 -17 -14 -17 -16 -24 -7 -33 7 -7 12 -8 12
-4 0 5 7 3 15 -4 13 -10 19 -10 33 3 10 9 31 14 50 12 18 -1 35 1 38 6 12 21
21 6 20 -35 -1 -24 -4 -42 -8 -40 -4 3 -6 -5 -5 -16 1 -11 5 -20 11 -20 5 0 1
-9 -8 -19 -10 -10 -13 -21 -9 -24 5 -3 8 -25 6 -49 -2 -24 -4 -55 -5 -70 -1
-16 -4 -29 -7 -29 -38 -8 -71 -7 -71 2 0 5 4 8 9 4 17 -10 25 18 8 30 -14 10
-14 12 2 22 16 10 19 8 19 -13 0 -31 9 -41 24 -26 9 9 7 13 -5 18 -15 5 -15 7
1 23 10 9 13 13 7 9 -12 -8 -25 -1 -25 14 0 4 6 7 13 6 6 -2 11 3 9 10 -1 8 2
11 9 6 8 -4 9 -3 5 5 -6 9 -11 9 -22 0 -8 -7 -14 -7 -14 -1 0 5 7 15 15 22 10
9 12 17 5 30 -5 9 -6 20 -3 24 3 3 1 6 -6 6 -8 0 -11 -7 -6 -17 5 -15 4 -16
-6 -5 -11 10 -11 14 0 25 10 10 15 8 27 -7 8 -11 14 -15 14 -9 0 7 -5 15 -10
18 -6 4 -8 10 -5 15 3 5 1 19 -6 31 -9 17 -8 20 3 14 7 -5 9 -4 5 0 -12 14
-38 15 -30 2 3 -7 3 -9 -2 -5 -4 4 -17 3 -28 -3 -13 -8 -17 -8 -13 -1 4 7 -1
9 -14 7 -11 -2 -20 1 -20 8 0 8 -3 8 -12 -1 -18 -18 -31 -15 -24 6 5 14 3 13
-10 -3 -8 -11 -20 -19 -26 -17 -7 2 -6 -3 2 -13 7 -8 10 -18 6 -22 -3 -3 -6 0
-6 7 0 9 -7 7 -22 -6 -12 -10 -18 -13 -13 -5 5 10 4 12 -3 7 -7 -4 -12 -1 -12
6 0 10 -3 9 -11 -2 -8 -12 -9 -9 -4 10 4 17 3 21 -3 12 -7 -11 -14 -7 -31 15
-11 15 -19 21 -16 12 6 -15 -21 -47 -34 -41 -3 1 -6 -2 -6 -7 0 -5 -3 -13 -7
-16 -4 -4 -3 -16 3 -26 7 -14 6 -19 -3 -19 -9 0 -9 -3 2 -10 8 -5 11 -12 7
-17 -12 -11 -25 16 -20 38 3 11 0 19 -7 19 -10 0 -10 3 0 15 7 9 10 18 7 22
-4 3 -2 12 4 19 15 18 3 33 -22 27 -16 -5 -18 -8 -7 -15 10 -8 10 -9 -2 -5 -8
2 -16 9 -16 15 -1 7 -3 14 -4 17 -1 3 -3 9 -4 14 0 5 -4 13 -8 17 -9 9 11 36
22 29 4 -3 13 2 20 10 9 11 16 12 25 5 6 -5 16 -6 20 -2z m75 -160 c0 -5 -8
-8 -17 -6 -12 2 -18 -3 -17 -14 1 -10 -4 -14 -12 -11 -10 4 -11 10 -4 23 7 13
6 21 -2 26 -7 5 -8 3 -3 -6 5 -8 4 -11 -2 -7 -11 7 -10 -34 1 -52 4 -5 2 -13
-4 -16 -17 -10 8 -35 28 -28 9 3 14 3 10 -2 -4 -4 -3 -14 3 -22 8 -9 8 -13 1
-13 -6 0 -14 5 -17 10 -12 19 -26 0 -15 -20 7 -13 7 -21 0 -25 -13 -8 26 -66
42 -62 6 1 13 -4 15 -11 3 -8 -1 -10 -11 -6 -17 7 -17 6 -20 -45 -1 -26 4 -36
21 -42 17 -6 21 -5 17 6 -3 8 -11 12 -18 9 -7 -3 -13 2 -13 10 0 9 8 18 18 21
11 4 16 12 12 22 -5 13 -3 14 17 3 14 -8 20 -8 16 -1 -14 21 -15 52 -3 48 7
-2 13 -9 13 -15 1 -7 2 -17 3 -24 0 -7 8 -3 17 8 14 17 15 17 10 1 -3 -10 -6
-22 -6 -27 0 -5 -11 -7 -25 -6 -14 2 -30 -3 -36 -10 -12 -15 -3 -38 12 -29 19
12 8 -12 -16 -35 -13 -12 -22 -26 -20 -31 3 -4 1 -10 -5 -14 -5 -3 -10 2 -10
13 0 10 -3 22 -7 26 -8 8 -13 31 -15 63 0 14 -5 20 -12 16 -8 -5 -8 -3 0 8 15
19 14 51 -3 70 -8 9 -11 24 -7 34 6 14 4 16 -6 10 -10 -6 -11 -4 -4 6 17 27
15 48 -4 44 -11 -2 -19 3 -19 10 0 8 4 12 9 9 4 -3 9 1 10 8 0 7 2 20 3 28 1
8 -2 23 -7 32 -5 10 -4 19 2 23 6 4 7 11 4 17 -4 6 -2 8 3 5 6 -4 17 0 24 9
12 14 15 14 31 -6 10 -12 18 -26 18 -32z m165 42 c0 -1 8 -3 18 -5 9 -2 17 0
17 4 0 4 7 8 15 8 8 0 12 -4 9 -8 -2 -4 2 -9 8 -12 9 -3 5 -11 -12 -26 l-25
-21 22 -19 c18 -15 20 -21 9 -30 -7 -6 -16 -8 -19 -4 -4 3 -7 1 -7 -5 0 -9 -5
-9 -19 0 -11 7 -17 16 -14 20 2 5 12 3 21 -4 15 -11 15 -11 4 3 -12 16 -13 38
-2 49 3 3 -5 16 -18 30 -15 16 -21 18 -16 7 8 -22 -5 -22 -23 1 -8 9 -12 11
-8 4 4 -7 -7 -26 -24 -43 -18 -18 -28 -23 -24 -13 5 14 3 16 -11 11 -11 -5
-15 -3 -10 5 4 7 3 8 -5 4 -6 -4 -9 -12 -5 -17 3 -5 10 -7 15 -4 5 3 6 -1 3
-10 -6 -14 -10 -13 -33 7 -24 22 -25 22 -7 1 18 -21 18 -22 -3 -20 -12 1 -21
5 -21 9 0 4 -7 8 -15 8 -8 0 -15 4 -15 10 0 5 7 7 15 4 9 -4 18 1 21 11 5 13
9 14 15 4 6 -10 11 -10 22 -1 8 7 21 11 28 10 8 -2 15 4 15 12 1 8 2 17 3 20
1 5 76 5 76 0z m11 -53 c1 -9 -2 -17 -7 -17 -6 0 -8 -4 -4 -9 3 -5 1 -12 -4
-16 -11 -6 -4 -35 7 -33 4 0 10 -1 15 -2 4 -1 12 -3 17 -4 6 0 10 -4 10 -8 0
-5 0 -12 0 -18 0 -16 -38 -32 -46 -18 -4 7 -3 8 4 4 8 -5 10 -1 5 11 -6 16 -5
17 12 3 17 -14 17 -14 4 7 -9 16 -16 19 -21 10 -6 -9 -8 -9 -8 1 0 7 -4 11 -9
7 -5 -3 -12 -1 -16 5 -4 6 -10 8 -15 5 -5 -3 -11 -1 -15 5 -3 5 -1 10 6 10 8
0 9 3 0 13 -6 8 -7 18 -3 22 4 5 2 5 -5 1 -7 -4 -9 -14 -6 -23 4 -11 3 -14 -5
-9 -7 4 -23 -4 -37 -18 -14 -14 -29 -27 -33 -28 -4 -2 -6 -6 -4 -10 1 -5 -3
-8 -9 -8 -5 0 -7 -5 -3 -12 5 -7 3 -8 -6 -3 -9 5 -11 4 -6 -4 4 -6 12 -9 17
-6 5 4 8 -4 6 -17 -1 -15 3 -22 12 -20 11 2 12 0 3 -11 -7 -8 -8 -17 -4 -22 4
-4 1 -6 -7 -3 -8 2 -16 15 -18 28 -2 13 -8 29 -14 37 -8 9 -8 17 0 27 8 10 9
16 1 21 -6 3 -8 10 -5 14 2 5 -3 17 -11 27 -9 10 -13 14 -10 7 8 -14 -10 -27
-18 -14 -4 5 -2 12 4 16 6 4 8 10 6 14 -4 6 28 7 44 1 3 -1 8 -2 13 -1 4 0 7
-4 7 -10 0 -8 6 -7 17 2 11 10 14 10 9 2 -4 -7 -2 -13 3 -13 6 0 11 5 11 11 0
5 5 7 10 4 6 -3 10 -2 10 3 0 5 11 20 25 34 27 28 67 30 71 5z m-61 -105 c-3
-3 -12 3 -21 14 -8 10 -12 13 -8 5 5 -10 3 -12 -7 -6 -7 5 -4 -6 8 -27 21 -36
21 -37 2 -35 -11 1 -17 7 -15 14 3 7 1 15 -5 18 -5 4 -6 11 -3 17 4 6 -2 6
-15 -1 -25 -14 -28 -23 -3 -14 15 6 15 5 4 -10 -10 -12 -11 -21 -3 -34 8 -14
11 -15 11 -3 0 12 3 11 11 -3 5 -9 8 -21 5 -25 -3 -5 1 -9 8 -9 8 0 12 6 9 14
-3 9 0 11 10 7 21 -8 31 14 16 32 -11 13 -10 15 5 12 12 -2 20 4 21 14 3 16 1
16 -21 1 -13 -8 -24 -11 -24 -5 0 5 7 12 15 16 8 3 13 11 11 18 -1 7 -1 10 1
6 3 -5 11 -8 19 -8 8 0 14 -6 13 -12 -3 -27 2 -37 21 -43 19 -6 30 -28 11 -22
-5 1 -16 -7 -24 -17 -10 -13 -16 -15 -21 -8 -4 7 -3 12 3 12 6 0 8 8 5 18 -5
14 -4 15 5 2 7 -9 11 -10 11 -3 0 6 -5 15 -10 18 -10 6 -19 -9 -24 -42 -2 -11
-12 -18 -27 -19 -14 0 -30 -4 -37 -8 -7 -4 -11 -4 -10 1 4 13 -22 54 -31 49
-4 -3 -7 12 -7 34 0 21 3 38 6 38 19 -2 30 4 28 15 -2 6 3 11 10 10 6 -2 12 3
12 10 1 6 10 1 21 -12 11 -13 17 -26 14 -29z m-147 -27 c-3 -3 -9 2 -12 12 -6
14 -5 15 5 6 7 -7 10 -15 7 -18z m95 -10 c-3 -9 -8 -14 -10 -11 -3 3 -2 9 2
15 9 16 15 13 8 -4z m-79 -29 c-1 -9 2 -16 8 -16 5 0 6 -5 2 -11 -4 -8 -13 -4
-25 12 -18 24 -16 43 4 36 7 -2 11 -12 11 -21z m136 4 c0 -5 -5 -10 -11 -10
-5 0 -7 5 -4 10 3 6 8 10 11 10 2 0 4 -4 4 -10z m137 -46 c0 -7 -7 -16 -15
-19 -10 -3 -11 -9 -4 -18 11 -14 12 -47 2 -47 -16 0 -29 27 -23 49 4 16 2 22
-8 19 -8 -2 -14 2 -14 7 0 6 3 9 8 8 4 -2 7 0 7 5 0 4 11 8 23 8 14 1 24 -4
24 -12z m-131 -25 c10 -17 -13 -36 -27 -22 -12 12 -4 33 11 33 5 0 12 -5 16
-11z m-126 -15 c0 -8 -5 -12 -10 -9 -6 4 -8 11 -5 16 9 14 15 11 15 -7z m149
-10 c-7 -9 -8 -14 -1 -14 12 0 9 -47 -3 -58 -5 -4 -6 0 -3 8 3 9 0 24 -8 35
-13 17 -14 17 -14 1 0 -9 -4 -14 -10 -11 -16 10 -12 23 10 30 11 3 20 13 20
21 0 8 5 12 10 9 8 -5 7 -11 -1 -21z m-124 -120 c1 -13 -5 -21 -17 -21 -14 -1
-16 2 -8 16 5 10 6 22 2 26 -4 4 -1 6 7 3 8 -2 15 -13 16 -24z m-1445 -4225
c0 -8 5 -8 15 1 8 7 15 9 15 4 -1 -13 -50 -47 -50 -34 0 6 -4 8 -10 5 -5 -3
-10 -1 -10 5 0 7 8 9 22 4 20 -6 21 -5 9 10 -9 10 -10 16 -2 16 6 0 11 -5 11
-11z m140 -39 c13 -11 26 -18 29 -15 3 4 -1 11 -9 16 -13 9 -13 10 0 6 8 -2
15 -10 15 -18 0 -8 4 -20 9 -28 6 -10 5 -12 -3 -7 -6 4 -14 0 -17 -8 -3 -9
-11 -16 -17 -16 -6 0 -4 7 5 17 16 15 14 18 -19 45 -20 15 -31 28 -26 28 6 0
20 -9 33 -20z m63 7 c3 -8 1 -20 -5 -28 -8 -11 -9 -11 -5 2 3 9 0 22 -6 28 -8
8 -8 11 0 11 6 0 13 -6 16 -13z m-277 -18 c-15 -12 -25 -24 -22 -27 3 -3 15 3
26 13 11 10 20 13 20 8 0 -6 -8 -14 -17 -17 -12 -5 -14 -9 -5 -18 7 -7 12 -16
12 -20 0 -4 -9 1 -20 12 -11 11 -25 20 -32 20 -6 0 2 11 18 25 16 14 33 25 38
25 5 0 -3 -10 -18 -21z m188 -4 c16 -14 26 -28 23 -32 -4 -3 -16 6 -28 21 -11
14 -25 24 -30 21 -5 -4 -9 -1 -9 4 0 17 13 13 44 -14z m-133 1 c5 3 9 1 9 -4
0 -21 -26 -19 -27 2 0 11 1 15 4 8 3 -6 9 -10 14 -6z m39 4 c0 -5 -4 -10 -10
-10 -5 0 -10 5 -10 10 0 6 5 10 10 10 6 0 10 -4 10 -10z m40 0 c0 -5 -10 -15
-22 -21 l-23 -12 20 21 c23 24 25 25 25 12z m31 -23 c-1 -4 10 -18 24 -30 19
-17 23 -25 14 -37 -9 -13 -10 -13 -6 2 4 10 -3 22 -19 33 -14 9 -22 20 -19 25
4 6 2 10 -3 10 -16 0 -22 -13 -11 -27 14 -16 3 -17 -15 -1 -11 11 -11 15 3 25
17 13 33 13 32 0z m-86 -7 c-3 -5 -12 -10 -18 -10 -7 0 -6 4 3 10 19 12 23 12
15 0z m-105 -31 c0 -6 5 -7 12 -3 15 9 2 -14 -25 -43 -19 -22 -19 -22 2 -20
11 1 21 7 21 14 0 7 5 13 11 13 10 0 5 -13 -14 -37 -7 -9 -14 -10 -29 -2 -20
11 -20 11 1 33 33 35 4 80 -33 53 -15 -11 -14 -13 5 -25 19 -12 21 -12 16 2
-4 9 -2 16 3 16 15 0 12 -26 -5 -40 -8 -7 -15 -10 -15 -6 0 15 -4 22 -18 32
-13 9 -12 13 8 27 24 17 60 8 60 -14z m103 10 c6 6 15 11 20 11 5 0 -1 -9 -14
-19 -13 -11 -21 -22 -18 -26 4 -3 14 1 23 10 9 9 16 11 16 5 0 -6 -8 -14 -17
-17 -15 -6 -15 -7 3 -15 18 -8 18 -8 -1 -5 -11 1 -25 12 -31 25 -6 13 -20 30
-30 38 -14 12 -12 12 10 -1 20 -12 31 -14 39 -6z m50 -12 c3 -8 2 -20 -3 -26
-5 -9 -7 -4 -7 13 0 29 2 32 10 13z m-97 -23 c-4 -9 -9 -15 -11 -12 -3 3 -3
13 1 22 4 9 9 15 11 12 3 -3 3 -13 -1 -22z m-121 -34 c-3 -4 2 -10 10 -14 8
-3 15 -10 15 -16 0 -12 -30 14 -31 27 -1 4 -5 16 -10 25 -10 18 -40 14 -36 -4
1 -6 -5 -13 -13 -15 -13 -4 -13 -3 0 6 13 10 13 11 0 11 -9 1 -5 6 10 15 23
13 27 12 42 -6 10 -12 16 -25 13 -29z m261 41 c-18 -7 -18 -8 -3 -14 15 -5 15
-10 5 -26 -7 -11 -14 -18 -17 -16 -2 3 1 11 8 19 9 11 8 15 -4 20 -9 3 -15 0
-15 -9 0 -8 -5 -15 -11 -15 -10 0 -5 13 14 38 5 6 17 12 26 11 12 0 12 -2 -3
-8z m-290 -36 c-3 -8 4 -21 17 -30 12 -8 17 -15 13 -15 -5 0 -18 7 -28 17 -17
15 -18 15 -18 -6 0 -12 4 -20 9 -16 15 9 23 -13 11 -32 -9 -15 -10 -14 -4 6 4
16 3 21 -5 17 -18 -11 -25 23 -11 50 15 26 26 33 16 9z m183 1 c10 -12 8 -17
-9 -26 -12 -6 -24 -9 -28 -6 -3 3 0 6 7 6 7 0 9 4 6 10 -4 6 1 7 12 4 16 -5
16 -4 -1 10 -11 9 -15 16 -9 16 6 0 16 -6 22 -14z m-247 -3 c-6 -2 -9 -10 -6
-15 4 -7 2 -8 -5 -4 -13 9 -5 26 12 25 9 0 8 -2 -1 -6z m200 -16 c-7 -8 -9
-17 -5 -20 3 -4 1 -7 -5 -7 -7 0 -12 2 -12 5 0 10 24 44 29 40 2 -3 -1 -11 -7
-18z m82 -6 c-10 -10 -21 -17 -23 -15 -6 6 20 34 32 34 6 0 2 -8 -9 -19z
m-306 -17 c-4 -3 -14 -7 -25 -9 -10 -2 -19 -4 -20 -4 -2 -1 -6 -1 -10 -2 -30
-3 -89 -59 -64 -59 5 0 11 5 13 12 3 8 6 7 10 -3 7 -19 -20 -22 -41 -5 -11 9
-13 6 -7 -14 6 -19 5 -21 -3 -10 -15 22 -13 43 3 37 8 -3 17 0 19 7 3 8 26 23
51 36 25 12 49 26 52 32 4 6 10 6 17 -1 6 -6 8 -13 5 -17z m38 -10 c-3 -9 -11
-12 -18 -8 -8 5 -9 2 -5 -9 3 -10 2 -17 -4 -17 -6 0 -9 8 -7 18 2 9 10 16 16
15 7 -2 12 7 13 20 0 12 3 16 6 9 3 -7 2 -20 -1 -28z m299 16 c-19 -8 -18 -11
7 -14 6 0 13 -8 15 -16 4 -12 3 -12 -5 -2 -5 8 -11 13 -13 12 -2 -1 -12 2 -22
6 -15 5 -16 9 -5 15 7 5 20 8 28 8 10 0 8 -3 -5 -9z m-137 -33 c2 -10 -1 -17
-7 -17 -6 0 -8 6 -5 13 2 7 -3 13 -14 14 -11 1 -18 -6 -19 -18 -1 -11 2 -17 6
-15 4 3 13 0 21 -5 11 -7 8 -8 -10 -6 -23 4 -34 27 -23 49 7 14 48 1 51 -15z
m75 5 c-2 -7 2 -12 7 -12 6 0 10 6 11 13 0 9 2 9 6 -1 2 -6 10 -9 15 -6 6 4 8
3 5 -3 -9 -14 -53 -10 -50 4 2 7 -6 11 -17 10 -14 -1 -18 -6 -15 -18 7 -20
-10 -35 -21 -18 -5 8 -3 9 6 4 10 -6 12 -4 7 9 -4 10 -5 21 -2 26 7 12 50 5
48 -8z m-146 -14 c-3 -8 -6 -5 -6 6 -1 11 2 17 5 13 3 -3 4 -12 1 -19z m-69
-5 c-2 -10 -10 -17 -17 -15 -9 2 -11 -3 -8 -13 4 -8 2 -15 -4 -15 -6 0 -9 8
-7 18 2 9 10 16 17 14 9 -2 11 3 8 13 -4 8 -2 15 4 15 6 0 9 -8 7 -17z m-123
-3 c-3 -5 -12 -10 -18 -10 -7 0 -6 4 3 10 19 12 23 12 15 0z m398 -5 c-3 -9
-8 -14 -10 -11 -3 3 -2 9 2 15 9 16 15 13 8 -4z m-335 -18 c2 -10 -1 -17 -7
-17 -6 0 -8 6 -5 13 3 8 -4 13 -16 14 -11 1 -18 -2 -16 -6 3 -4 0 -13 -5 -21
-7 -11 -8 -8 -5 10 3 14 5 26 5 27 3 11 47 -8 49 -20z m117 14 c9 -15 -29 -31
-46 -20 -12 8 -12 10 1 8 29 -3 41 1 35 11 -3 6 -4 10 -1 10 3 0 7 -4 11 -9z
m143 -17 c0 -17 -3 -22 -8 -13 -5 6 -6 18 -3 26 8 19 11 16 11 -13z m-38 -15
c0 -6 -4 -7 -10 -4 -5 3 -10 11 -10 16 0 6 5 7 10 4 6 -3 10 -11 10 -16z
m-370 -40 c0 -14 -18 -20 -26 -8 -4 8 -3 9 4 5 7 -4 12 -4 12 1 0 15 -15 28
-34 31 -18 3 -18 2 -6 -15 12 -15 12 -16 0 -5 -8 6 -21 12 -29 12 -13 -1 -12
-4 3 -15 11 -8 15 -15 9 -15 -6 0 -16 7 -23 15 -10 12 -6 17 22 29 30 13 34
12 51 -6 9 -11 17 -24 17 -29z m312 44 c-6 -2 -9 -10 -6 -15 4 -7 2 -8 -5 -4
-13 9 -5 26 12 25 9 0 8 -2 -1 -6z m-208 -42 c-5 -6 -34 20 -34 30 0 5 8 1 18
-8 10 -10 17 -20 16 -22z m36 23 c0 -2 -7 -4 -15 -4 -8 0 -15 4 -15 10 0 5 7
7 15 4 8 -4 15 -8 15 -10z m85 7 c3 -5 0 -13 -6 -17 -7 -4 -9 -3 -5 4 3 5 0
13 -6 15 -9 4 -10 6 -1 6 6 1 14 -3 18 -8z m60 -13 c5 4 5 1 0 -7 -7 -12 -10
-11 -20 2 -7 9 -16 13 -20 9 -5 -4 -5 -1 0 7 7 12 10 11 20 -2 7 -9 16 -13 20
-9z m-108 6 c-3 -3 -12 -4 -19 -1 -8 3 -5 6 6 6 11 1 17 -2 13 -5z m141 -18
c-10 -7 -14 -17 -10 -21 4 -5 1 -5 -6 -1 -11 6 -10 12 5 26 10 9 20 15 23 13
3 -3 -3 -10 -12 -17z m-258 6 c0 -5 -7 -9 -15 -9 -8 0 -12 4 -9 9 3 4 9 8 15
8 5 0 9 -4 9 -8z m330 -2 c0 -5 -4 -10 -10 -10 -5 0 -10 5 -10 10 0 6 5 10 10
10 6 0 10 -4 10 -10z m60 -2 c0 -3 -9 -6 -20 -5 -11 1 -20 5 -20 9 0 3 9 6 20
5 11 -1 20 -5 20 -9z m-550 -13 c9 -10 9 -15 1 -15 -6 0 -11 5 -11 11 0 5 -4
7 -10 4 -5 -3 -10 -1 -10 4 0 16 16 13 30 -4z m275 -3 c-3 -3 -11 0 -18 7 -9
10 -8 11 6 5 10 -3 15 -9 12 -12z m194 -12 c11 -24 11 -24 -3 -6 -9 11 -16 24
-16 30 0 12 5 7 19 -24z m-344 -1 c-4 -5 -12 -9 -18 -8 -9 0 -8 2 1 6 6 2 9
10 6 15 -4 7 -2 8 5 4 6 -4 9 -12 6 -17z m60 11 c3 -5 1 -10 -4 -10 -6 0 -11
5 -11 10 0 6 2 10 4 10 3 0 8 -4 11 -10z m60 0 c4 -6 -1 -7 -11 -3 -12 4 -15
3 -10 -5 5 -8 2 -10 -9 -5 -13 5 -14 7 -3 14 17 11 26 11 33 -1z m110 -10 c3
0 3 5 -1 12 -4 7 -3 8 5 4 11 -7 6 -26 -8 -26 -4 0 -16 7 -27 16 -18 15 -18
15 3 5 12 -6 24 -11 28 -11z m-389 -2 c4 -7 3 -8 -5 -4 -15 10 -43 -13 -34
-28 4 -8 2 -7 -7 1 -15 14 -43 6 -33 -10 3 -6 1 -7 -5 -3 -7 4 -12 3 -12 -2 0
-5 -11 -9 -25 -9 -27 0 -28 7 -2 11 8 1 21 7 29 13 7 6 20 13 28 15 8 2 21 9
28 16 17 15 29 15 38 0z m180 -20 c-9 -12 -16 -19 -16 -15 0 11 24 47 28 42 2
-2 -3 -14 -12 -27z m-96 18 c0 -3 -4 -8 -10 -11 -5 -3 -10 -1 -10 4 0 6 5 11
10 11 6 0 10 -2 10 -4z m11 -23 c-12 -20 -14 -14 -5 12 4 9 9 14 11 11 3 -2 0
-13 -6 -23z m229 23 c0 -3 -4 -8 -10 -11 -5 -3 -10 -1 -10 4 0 6 5 11 10 11 6
0 10 -2 10 -4z m11 -23 c-12 -20 -14 -14 -5 12 4 9 9 14 11 11 3 -2 0 -13 -6
-23z m97 2 c-3 -3 -9 2 -12 12 -6 14 -5 15 5 6 7 -7 10 -15 7 -18z m32 15 c0
-5 -5 -10 -11 -10 -5 0 -7 5 -4 10 3 6 8 10 11 10 2 0 4 -4 4 -10z m-425 -9
c3 -5 0 -13 -6 -17 -8 -5 -9 -3 -4 6 6 10 4 12 -9 7 -10 -4 -15 -3 -11 3 8 13
22 13 30 1z m94 -24 c0 -9 -2 -8 -6 1 -2 6 -10 9 -15 6 -7 -4 -8 -2 -4 5 9 13
26 5 25 -12z m280 -19 c-5 -10 -12 -18 -15 -18 -2 0 -1 8 4 18 5 9 7 24 5 32
-4 13 -3 13 6 1 6 -10 6 -21 0 -33z m131 34 c0 -5 -10 -17 -22 -28 -23 -19
-23 -19 -5 2 9 11 14 24 10 27 -3 4 -1 7 5 7 7 0 12 -4 12 -8z m-338 -20 c-7
-2 -10 -8 -7 -13 4 -5 -2 -6 -11 -2 -13 5 -15 3 -9 -7 6 -9 4 -11 -5 -5 -10 6
-10 11 3 20 9 7 14 15 10 19 -4 4 1 4 12 0 11 -5 14 -9 7 -12z m60 0 c-7 -2
-10 -8 -7 -12 3 -5 0 -12 -6 -16 -8 -5 -9 -3 -4 6 6 10 3 12 -11 7 -18 -7 -18
-6 -2 6 10 8 15 17 11 21 -4 4 1 4 12 0 11 -5 14 -9 7 -12z m52 2 c3 -8 2 -12
-4 -9 -6 3 -10 10 -10 16 0 14 7 11 14 -7z m-324 -4 c-8 -5 -19 -10 -25 -10
-5 0 -3 5 5 10 8 5 20 10 25 10 6 0 3 -5 -5 -10z m477 -12 c-3 -8 -6 -5 -6 6
-1 11 2 17 5 13 3 -3 4 -12 1 -19z m-622 -9 c4 -6 13 -8 19 -6 7 3 13 -1 13
-9 0 -12 -4 -12 -21 -1 -21 14 -50 12 -42 -2 3 -4 0 -13 -6 -21 -8 -12 -9 -12
-4 3 3 9 0 17 -6 17 -7 0 -3 7 8 15 23 17 31 18 39 4z m289 -5 c3 -8 2 -12 -4
-9 -6 3 -10 10 -10 16 0 14 7 11 14 -7z m-180 -5 c-7 -12 -51 -16 -51 -5 0 6
13 11 28 11 15 0 25 -3 23 -6z m426 -8 c0 -13 -29 -8 -34 5 -3 7 2 10 15 7 10
-3 19 -9 19 -12z m-379 -23 c-10 -11 -11 -9 -5 6 6 15 4 17 -6 11 -9 -6 -11
-4 -5 4 5 9 10 10 18 2 8 -8 7 -14 -2 -23z m78 9 c0 -9 -2 -8 -6 1 -2 6 -10 9
-15 6 -7 -4 -8 -2 -4 5 9 13 26 5 25 -12z m143 5 c4 -12 -1 -18 -13 -18 -12 0
-15 4 -9 12 6 6 7 14 3 17 -3 4 -2 7 4 7 6 0 13 -8 15 -18z m-442 -3 c0 -5 -4
-8 -9 -5 -5 4 -24 -6 -42 -21 -18 -16 -30 -22 -25 -15 8 14 5 15 -18 6 -9 -3
-13 -10 -10 -15 3 -5 -3 -6 -13 -2 -15 6 -16 4 -6 -8 10 -13 10 -16 -2 -16 -8
0 -12 4 -9 9 3 4 -5 6 -18 4 -13 -3 -27 -5 -33 -6 -5 -1 -1 -6 10 -11 18 -9
18 -9 -3 -5 -31 6 -146 -35 -129 -46 9 -6 9 -8 0 -8 -6 0 -15 5 -18 10 -5 8
-11 7 -21 -1 -10 -8 -14 -8 -14 0 0 6 5 11 10 11 14 0 17 1 100 32 41 16 82
31 91 33 9 2 35 13 58 24 22 12 41 19 41 16 0 -4 10 1 22 9 26 19 38 20 38 5z
m87 -14 c4 -4 3 -5 -4 -2 -6 4 -13 2 -15 -5 -3 -8 -6 -6 -10 4 -7 17 15 19 29
3z m470 8 c-4 -3 1 -16 10 -27 10 -12 11 -16 4 -9 -10 9 -20 9 -35 2 -18 -9
-19 -8 -5 3 9 7 14 19 12 26 -3 6 1 12 8 12 7 0 9 -3 6 -7z m78 -11 c-3 -3
-11 0 -18 7 -9 10 -8 11 6 5 10 -3 15 -9 12 -12z m-638 -24 c1 -10 -3 -18 -9
-18 -6 0 -8 3 -5 7 4 3 2 11 -3 18 -7 8 -6 12 3 12 7 0 14 -9 14 -19z m123 12
c0 -5 -4 -10 -10 -10 -5 0 -10 5 -10 10 0 6 5 10 10 10 6 0 10 -4 10 -10z m77
4 c-8 -8 -48 -13 -43 -6 2 4 14 8 26 9 12 1 20 0 17 -3z m100 -9 c0 -8 -4 -12
-9 -9 -5 3 -6 10 -3 15 9 13 12 11 12 -6z m74 -2 c13 -16 12 -17 -3 -4 -10 7
-18 15 -18 17 0 8 8 3 21 -13z m34 7 c3 -6 -1 -7 -9 -4 -18 7 -21 14 -7 14 6
0 13 -4 16 -10z m89 -2 c-3 -4 -11 -5 -19 -1 -21 7 -19 12 4 10 11 0 18 -5 15
-9z m146 -3 c0 -1 -8 -5 -18 -7 -11 -3 -19 0 -19 7 0 7 8 10 19 7 10 -2 18 -6
18 -7z m-404 -10 c-1 -8 -8 -21 -16 -28 -10 -10 -11 -9 -4 3 5 8 9 18 10 23 3
14 4 17 8 17 2 0 3 -7 2 -15z m37 2 c3 -8 -1 -14 -8 -14 -7 0 -11 6 -8 14 3 7
6 13 8 13 2 0 5 -6 8 -13z m-188 -6 c-9 -8 -36 -10 -30 -2 2 4 11 8 20 8 8 0
13 -3 10 -6z m119 1 c-6 -4 -10 -19 -9 -34 1 -15 -1 -25 -5 -23 -4 2 -6 17 -4
32 3 35 2 33 17 33 8 0 8 -3 1 -8z m271 -10 c-3 -3 -11 0 -18 7 -9 10 -8 11 6
5 10 -3 15 -9 12 -12z m-499 -14 c3 -4 -1 -5 -10 -4 -8 1 -18 5 -22 8 -3 4 1
5 10 4 8 -1 18 -5 22 -8z m379 3 c-9 -8 -36 -10 -30 -2 2 4 11 8 20 8 8 0 13
-3 10 -6z m92 -13 c-3 -8 -6 -5 -6 6 -1 11 2 17 5 13 3 -3 4 -12 1 -19z m87 6
c3 -8 2 -12 -4 -9 -6 3 -10 10 -10 16 0 14 7 11 14 -7z m80 0 c3 -8 2 -12 -4
-9 -6 3 -10 10 -10 16 0 14 7 11 14 -7z m-666 -29 c-3 -3 -9 2 -12 12 -6 14
-5 15 5 6 7 -7 10 -15 7 -18z m143 3 c2 6 13 -2 23 -16 19 -27 19 -27 0 -11
-10 9 -27 15 -37 14 -11 -2 -16 -1 -13 2 3 4 0 13 -6 22 -9 11 -6 10 9 -2 11
-10 23 -14 24 -9z m272 7 c-3 -9 -8 -14 -10 -11 -3 3 -2 9 2 15 9 16 15 13 8
-4z m-465 -20 c-3 -3 -9 2 -12 12 -6 14 -5 15 5 6 7 -7 10 -15 7 -18z m78 10
c-1 -8 -5 -17 -8 -21 -5 -4 -4 16 1 34 3 9 9 -1 7 -13z m165 -2 c13 -16 12
-17 -3 -4 -10 7 -18 15 -18 17 0 8 8 3 21 -13z m118 4 c8 -10 7 -14 -2 -14 -8
0 -14 6 -14 14 0 7 1 13 2 13 2 0 8 -6 14 -13z m75 -17 c-6 -6 -10 -3 -10 10
0 13 4 16 10 10 7 -7 7 -13 0 -20z m82 15 c-1 -8 -5 -17 -8 -21 -5 -4 -4 16 1
34 3 9 9 -1 7 -13z m-639 -17 c-3 -8 -6 -5 -6 6 -1 11 2 17 5 13 3 -3 4 -12 1
-19z m73 16 c0 -8 -19 -13 -24 -6 -3 5 1 9 9 9 8 0 15 -2 15 -3z m161 -17
c-10 -9 -11 -8 -5 6 3 10 9 15 12 12 3 -3 0 -11 -7 -18z m287 3 c-7 -10 -14
-17 -17 -15 -4 4 18 35 25 35 2 0 -1 -9 -8 -20z m-538 6 c0 -2 -8 -10 -17 -17
-16 -13 -17 -12 -4 4 13 16 21 21 21 13z m120 0 c0 -2 -8 -10 -17 -17 -16 -13
-17 -12 -4 4 13 16 21 21 21 13z m-45 -24 c-3 -3 -11 0 -18 7 -9 10 -8 11 6 5
10 -3 15 -9 12 -12z m202 0 c-17 -19 -57 -27 -57 -12 0 5 9 7 19 5 11 -2 25 3
32 11 6 8 14 14 17 14 3 0 -2 -8 -11 -18z m333 14 c0 -2 -8 -10 -17 -17 -16
-13 -17 -12 -4 4 13 16 21 21 21 13z m115 -5 c-9 -8 -36 -10 -30 -2 2 4 11 8
20 8 8 0 13 -3 10 -6z m45 4 c0 -1 -10 -10 -22 -21 -14 -12 -18 -13 -10 -3 6
9 10 18 7 21 -3 2 2 5 10 5 8 0 15 -1 15 -2z m65 -3 c-3 -3 0 -11 6 -19 17
-20 5 -16 -14 5 -15 16 -15 19 -2 19 8 0 13 -3 10 -5z m-3150 -42 c39 -11 81
-21 95 -24 14 -2 45 -9 70 -15 25 -5 56 -12 70 -14 14 -3 36 -8 50 -11 14 -3
41 -8 60 -11 19 -2 44 -6 55 -9 11 -2 49 -7 85 -11 36 -4 73 -9 82 -10 9 -2
57 -7 105 -11 266 -21 617 -16 803 11 19 3 56 7 81 9 26 2 51 6 57 10 6 3 17
3 25 0 8 -3 18 0 22 5 3 6 10 9 13 7 7 -4 90 9 125 20 9 3 17 1 17 -5 0 -6
-12 -11 -26 -11 -14 0 -23 -4 -19 -9 3 -6 -6 -8 -21 -5 -15 3 -23 1 -20 -5 4
-5 2 -13 -4 -16 -6 -4 -9 -1 -8 6 2 6 -3 14 -9 16 -7 3 -13 -3 -14 -14 0 -10
-3 -13 -6 -5 -2 6 -9 12 -14 12 -6 0 -8 -4 -5 -8 2 -4 -4 -8 -15 -8 -10 0 -19
4 -19 8 0 4 -7 5 -15 2 -8 -4 -12 -11 -8 -18 4 -6 -1 -5 -10 3 -9 7 -17 10
-17 5 0 -5 -19 -9 -43 -8 -23 0 -46 -2 -52 -6 -5 -3 -26 -6 -45 -5 -19 0 -41
-7 -48 -15 -8 -8 -11 -9 -7 -2 4 8 -2 12 -17 12 -13 0 -30 -6 -37 -12 -11 -11
-12 -10 -6 1 6 10 2 11 -15 6 -13 -4 -48 -8 -77 -9 -34 -1 -58 -8 -65 -17 -8
-11 -9 -11 -4 4 3 11 0 17 -10 17 -9 0 -12 -5 -8 -12 5 -7 3 -8 -5 -4 -17 11
-151 13 -151 3 0 -5 -5 -5 -11 -1 -16 10 -180 14 -174 4 3 -5 -5 -6 -17 -2
-14 3 -19 1 -14 -6 3 -6 -3 -13 -14 -17 -11 -4 -18 -11 -15 -16 4 -5 1 -9 -5
-9 -6 0 -8 -5 -4 -12 4 -7 3 -8 -4 -4 -14 8 -53 -24 -45 -37 3 -6 1 -7 -5 -3
-6 3 -20 -6 -31 -20 -12 -15 -21 -23 -21 -19 0 5 -19 -12 -42 -36 -22 -24 -38
-37 -33 -29 4 8 -7 -1 -25 -20 -19 -19 -36 -35 -39 -35 -3 0 -5 -4 -3 -8 1 -5
-1 -6 -6 -3 -5 3 -27 -10 -48 -29 -21 -19 -43 -35 -47 -35 -5 0 -5 -5 -1 -12
4 -6 3 -8 -3 -5 -14 9 -55 -22 -47 -35 4 -7 2 -8 -4 -4 -6 4 -20 -2 -31 -13
-11 -11 -22 -17 -25 -14 -3 3 -8 -2 -12 -11 -3 -9 -10 -16 -14 -16 -5 0 -44
-25 -88 -55 -44 -30 -82 -55 -85 -55 -3 0 -7 10 -10 23 -3 12 -24 76 -47 142
-23 66 -43 125 -45 130 -1 6 -4 17 -7 25 -6 17 -30 100 -34 115 -1 6 -7 30
-14 55 -13 47 -18 68 -26 110 -3 14 -11 49 -19 79 -8 30 -12 58 -9 62 3 5 17
3 32 -2 15 -6 59 -19 97 -29z m2189 25 c3 -8 1 -15 -4 -15 -6 0 -10 6 -10 13
0 7 -3 8 -8 2 -4 -5 -13 -10 -19 -11 -7 -1 -22 -2 -34 -2 -11 -1 -18 -6 -14
-11 3 -6 -3 -8 -14 -6 -10 2 -30 -3 -45 -10 -14 -8 -26 -11 -26 -8 0 3 -6 0
-13 -6 -10 -8 -14 -7 -14 3 0 9 33 23 91 39 112 31 103 30 110 12z m263 2 c0
-7 -9 -14 -20 -14 -19 -2 -19 -2 -1 12 11 8 19 15 20 15 0 0 1 -6 1 -13z m222
-14 c2 -1 -5 -1 -16 0 -11 0 -20 7 -20 14 0 10 4 10 16 1 9 -7 18 -13 20 -15z
m39 2 c-3 -3 -9 2 -12 12 -6 14 -5 15 5 6 7 -7 10 -15 7 -18z m121 -2 c2 -1
-5 -1 -16 0 -11 0 -20 7 -20 14 0 10 4 10 16 1 9 -7 18 -13 20 -15z m161 24
c0 -2 -8 -11 -18 -20 -15 -14 -19 -15 -19 -2 0 8 4 12 8 9 4 -2 10 0 14 6 6
10 15 14 15 7z m-766 -15 c3 -5 -1 -9 -9 -9 -8 0 -12 4 -9 9 3 4 7 8 9 8 2 0
6 -4 9 -8z m123 -10 c0 -10 -6 -19 -13 -19 -9 0 -9 5 -1 19 7 10 13 18 14 18
1 0 1 -8 0 -18z m774 1 c13 -16 12 -17 -3 -4 -15 11 -21 11 -35 0 -16 -13 -17
-12 -4 4 7 9 17 17 21 17 4 0 14 -8 21 -17z m-851 3 c0 -2 -8 -10 -17 -17 -16
-13 -17 -12 -4 4 13 16 21 21 21 13z m631 -23 c13 -16 12 -17 -3 -4 -17 13
-22 21 -14 21 2 0 10 -8 17 -17z m-238 -6 c4 3 7 1 7 -5 0 -17 -16 -15 -31 6
-12 15 -12 16 2 5 9 -7 19 -10 22 -6z m377 -2 c-7 -8 -17 -15 -23 -15 -6 0 -2
7 9 15 25 19 30 19 14 0z m-865 -5 c-3 -5 -12 -10 -18 -10 -7 0 -6 4 3 10 19
12 23 12 15 0z m115 6 c0 -2 -7 -7 -16 -10 -8 -3 -12 -2 -9 4 6 10 25 14 25 6z
m271 -13 c13 -16 12 -17 -3 -4 -10 7 -18 15 -18 17 0 8 8 3 21 -13z m65 5 c4
-7 4 -10 -1 -6 -4 4 -15 2 -24 -5 -14 -11 -14 -10 -2 6 16 20 18 21 27 5z
m-665 -5 c-9 -4 -10 -8 -2 -12 6 -4 -6 -7 -27 -7 -20 0 -55 -4 -77 -8 -60 -12
-37 2 31 18 60 15 102 20 75 9z m109 3 c0 -2 -8 -10 -17 -17 -16 -13 -17 -12
-4 4 13 16 21 21 21 13z m320 -15 c0 -6 -4 -12 -8 -15 -5 -3 -9 1 -9 9 0 8 4
15 9 15 4 0 8 -4 8 -9z m36 -16 c1 -8 -1 -17 -5 -19 -4 -3 -7 6 -7 19 0 25 8
25 12 0z m278 9 c3 -8 2 -12 -4 -9 -6 3 -10 10 -10 16 0 14 7 11 14 -7z m237
-7 c-10 -9 -11 -8 -5 6 3 10 9 15 12 12 3 -3 0 -11 -7 -18z m45 -2 c1 -8 -1
-17 -5 -19 -4 -3 -7 6 -7 19 0 25 8 25 12 0z m-499 2 c0 -8 -6 -14 -14 -14 -9
0 -10 4 -2 14 6 7 12 13 14 13 1 0 2 -6 2 -13z m282 0 c8 -10 7 -14 -2 -14 -8
0 -14 6 -14 14 0 7 1 13 2 13 2 0 8 -6 14 -13z m118 -2 c0 -8 -4 -15 -9 -15
-10 0 -11 14 -1 23 9 10 10 9 10 -8z m-813 -3 c3 -5 -1 -9 -9 -9 -8 0 -12 4
-9 9 3 4 7 8 9 8 2 0 6 -4 9 -8z m76 -4 c0 -6 -3 -8 -7 -5 -3 4 -13 1 -22 -6
-14 -11 -14 -10 -2 6 15 20 31 22 31 5z m40 8 c0 -2 -7 -7 -16 -10 -8 -3 -12
-2 -9 4 6 10 25 14 25 6z m94 -5 c-7 -8 -54 -9 -49 -1 2 3 15 6 29 6 14 0 23
-2 20 -5z m276 3 c0 -8 -19 -13 -24 -6 -3 5 1 9 9 9 8 0 15 -2 15 -3z m267 -9
c0 -8 -4 -12 -9 -9 -5 3 -6 10 -3 15 9 13 12 11 12 -6z m-922 -14 c3 -5 2 -12
-3 -15 -5 -3 -9 1 -9 9 0 17 3 19 12 6z m45 -3 c0 -4 -4 -8 -9 -8 -6 0 -12 4
-15 8 -3 5 1 9 9 9 8 0 15 -4 15 -9z m1005 2 c3 -6 -1 -7 -9 -4 -18 7 -21 14
-7 14 6 0 13 -4 16 -10z m-1127 -25 c-3 -3 -9 2 -12 12 -6 14 -5 15 5 6 7 -7
10 -15 7 -18z m258 5 c0 -12 -4 -16 -9 -11 -5 5 -6 14 -3 20 10 15 12 14 12
-9z m979 11 c3 -5 2 -12 -3 -15 -5 -3 -9 1 -9 9 0 17 3 19 12 6z m-1195 -11
c0 -5 -4 -10 -10 -10 -5 0 -10 5 -10 10 0 6 5 10 10 10 6 0 10 -4 10 -10z
m180 2 c0 -5 -7 -9 -15 -9 -8 0 -12 4 -9 9 3 4 9 8 15 8 5 0 9 -4 9 -8z m71
-15 c-10 -9 -11 -8 -5 6 3 10 9 15 12 12 3 -3 0 -11 -7 -18z m55 11 c3 -4 -1
-5 -10 -4 -8 1 -18 5 -22 8 -3 4 1 5 10 4 8 -1 18 -5 22 -8z m618 1 c-2 -4
-12 -6 -22 -4 -9 1 -24 -3 -32 -9 -13 -9 -13 -8 -3 5 12 14 66 22 57 8z m-844
-13 c0 -2 -7 -7 -16 -10 -8 -3 -12 -2 -9 4 6 10 25 14 25 6z m1084 -4 c3 -5
-1 -9 -9 -9 -8 0 -12 4 -9 9 3 4 7 8 9 8 2 0 6 -4 9 -8z m-1330 -28 c3 -8 2
-12 -4 -9 -6 3 -10 10 -10 16 0 14 7 11 14 -7z m47 3 c-6 -8 -7 -18 -3 -22 4
-5 1 -5 -6 -1 -10 6 -10 11 -1 22 6 8 14 14 16 14 3 0 0 -6 -6 -13z m305 1 c3
-4 -1 -5 -10 -4 -8 1 -18 5 -22 8 -3 4 1 5 10 4 8 -1 18 -5 22 -8z m865 -11
c-10 -9 -11 -8 -5 6 3 10 9 15 12 12 3 -3 0 -11 -7 -18z m-2066 -7 c-3 -5 -12
-10 -18 -10 -7 0 -6 4 3 10 19 12 23 12 15 0z m2132 -12 c2 -17 0 -19 -7 -8
-5 8 -6 18 -4 22 8 12 10 10 11 -14z m-556 -5 c13 -16 12 -17 -3 -4 -10 7 -18
15 -18 17 0 8 8 3 21 -13z m159 13 c0 -2 -8 -10 -17 -17 -16 -13 -17 -12 -4 4
13 16 21 21 21 13z m-1516 -14 c2 -4 -4 -8 -14 -8 -10 0 -16 4 -14 8 3 4 9 8
14 8 5 0 11 -4 14 -8z m216 -22 c0 -5 -2 -10 -4 -10 -3 0 -8 5 -11 10 -3 6 -1
10 4 10 6 0 11 -4 11 -10z m315 0 c3 -5 1 -10 -4 -10 -6 0 -11 5 -11 10 0 6 2
10 4 10 3 0 8 -4 11 -10z m1140 -9 c3 -5 2 -12 -3 -15 -5 -3 -9 1 -9 9 0 17 3
19 12 6z m38 -6 c-3 -9 -8 -14 -10 -11 -3 3 -2 9 2 15 9 16 15 13 8 -4z
m-1922 -12 c13 -16 12 -17 -3 -4 -10 7 -18 15 -18 17 0 8 8 3 21 -13z m1859
13 c0 -2 -8 -10 -17 -17 -16 -13 -17 -12 -4 4 13 16 21 21 21 13z m-1950 -26
c0 -5 -5 -10 -11 -10 -5 0 -7 5 -4 10 3 6 8 10 11 10 2 0 4 -4 4 -10z m355 0
c3 -5 1 -10 -4 -10 -6 0 -11 5 -11 10 0 6 2 10 4 10 3 0 8 -4 11 -10z m165 0
c0 -5 -2 -10 -4 -10 -3 0 -8 5 -11 10 -3 6 -1 10 4 10 6 0 11 -4 11 -10z m35
0 c3 -5 1 -10 -4 -10 -6 0 -11 5 -11 10 0 6 2 10 4 10 3 0 8 -4 11 -10z m45 6
c0 -3 -4 -8 -10 -11 -5 -3 -10 -1 -10 4 0 6 5 11 10 11 6 0 10 -2 10 -4z m80
-6 c0 -5 -2 -10 -4 -10 -3 0 -8 5 -11 10 -3 6 -1 10 4 10 6 0 11 -4 11 -10z
m120 6 c0 -3 -4 -8 -10 -11 -5 -3 -10 -1 -10 4 0 6 5 11 10 11 6 0 10 -2 10
-4z m40 0 c0 -3 -4 -8 -10 -11 -5 -3 -10 -1 -10 4 0 6 5 11 10 11 6 0 10 -2
10 -4z m675 -6 c3 -5 1 -10 -4 -10 -6 0 -11 5 -11 10 0 6 2 10 4 10 3 0 8 -4
11 -10z m40 0 c3 -5 1 -10 -4 -10 -6 0 -11 5 -11 10 0 6 2 10 4 10 3 0 8 -4
11 -10z m120 0 c3 -5 1 -10 -4 -10 -6 0 -11 5 -11 10 0 6 2 10 4 10 3 0 8 -4
11 -10z m342 -15 c0 -8 -4 -12 -9 -9 -5 3 -6 10 -3 15 9 13 12 11 12 -6z
m-1380 -14 c0 -11 -5 -18 -9 -15 -4 3 -5 11 -1 19 7 21 12 19 10 -4z m1338 9
c3 -5 1 -10 -4 -10 -6 0 -11 5 -11 10 0 6 2 10 4 10 3 0 8 -4 11 -10z m-2015
-14 c0 -3 -4 -8 -10 -11 -5 -3 -10 -1 -10 4 0 6 5 11 10 11 6 0 10 -2 10 -4z
m200 0 c0 -3 -4 -8 -10 -11 -5 -3 -10 -1 -10 4 0 6 5 11 10 11 6 0 10 -2 10
-4z m394 -8 c-3 -4 -11 -5 -19 -1 -21 7 -19 12 4 10 11 0 18 -5 15 -9z m50 4
c3 -5 -1 -9 -9 -9 -8 0 -12 4 -9 9 3 4 7 8 9 8 2 0 6 -4 9 -8z m230 0 c2 -4
-5 -9 -17 -9 -17 -2 -19 0 -7 7 18 12 18 12 24 2z m46 -2 c0 -5 -5 -10 -11
-10 -5 0 -7 5 -4 10 3 6 8 10 11 10 2 0 4 -4 4 -10z m140 5 c0 -7 -30 -13 -34
-7 -3 4 4 9 15 9 10 1 19 0 19 -2z m180 -5 c0 -5 -5 -10 -11 -10 -5 0 -7 5 -4
10 3 6 8 10 11 10 2 0 4 -4 4 -10z m77 -12 c2 -17 0 -19 -7 -8 -5 8 -6 18 -4
22 8 12 10 10 11 -14z m243 18 c0 -3 -4 -8 -10 -11 -5 -3 -10 -1 -10 4 0 6 5
11 10 11 6 0 10 -2 10 -4z m40 -6 c0 -5 -5 -10 -11 -10 -5 0 -7 5 -4 10 3 6 8
10 11 10 2 0 4 -4 4 -10z m140 5 c0 -7 -30 -13 -34 -7 -3 4 4 9 15 9 10 1 19
0 19 -2z m100 -5 c0 -5 -5 -10 -11 -10 -5 0 -7 5 -4 10 3 6 8 10 11 10 2 0 4
-4 4 -10z m340 5 c0 -7 -30 -13 -34 -7 -3 4 4 9 15 9 10 1 19 0 19 -2z m-2105
-25 c3 -5 1 -10 -4 -10 -6 0 -11 5 -11 10 0 6 2 10 4 10 3 0 8 -4 11 -10z
m241 -16 c1 -9 0 -13 -4 -10 -3 4 -7 14 -8 22 -1 9 0 13 4 10 3 -4 7 -14 8
-22z m841 7 c0 -11 -5 -18 -9 -15 -4 3 -5 11 -1 19 7 21 12 19 10 -4z m799 4
c-1 -8 -5 -17 -8 -21 -5 -4 -4 16 1 34 3 9 9 -1 7 -13z m40 0 c-1 -8 -5 -17
-8 -21 -5 -4 -4 16 1 34 3 9 9 -1 7 -13z m69 5 c-3 -5 -12 -10 -18 -10 -7 0
-6 4 3 10 19 12 23 12 15 0z m-1788 -25 c0 -8 -4 -12 -9 -9 -5 3 -6 10 -3 15
9 13 12 11 12 -6z m120 -7 c2 -17 0 -19 -7 -8 -5 8 -6 18 -4 22 8 12 10 10 11
-14z m99 10 c3 -4 -1 -5 -10 -4 -8 1 -18 5 -22 8 -3 4 1 5 10 4 8 -1 18 -5 22
-8z m274 6 c0 -8 -19 -13 -24 -6 -3 5 1 9 9 9 8 0 15 -2 15 -3z m90 -9 c0 -2
-9 -3 -19 -2 -11 0 -18 5 -15 9 4 6 34 0 34 -7z m97 0 c0 -8 -4 -12 -9 -9 -5
3 -6 10 -3 15 9 13 12 11 12 -6z m399 -11 c1 -9 0 -13 -4 -10 -3 4 -7 14 -8
22 -1 9 0 13 4 10 3 -4 7 -14 8 -22z m100 14 c3 -4 -1 -5 -10 -4 -8 1 -18 5
-22 8 -3 4 1 5 10 4 8 -1 18 -5 22 -8z m299 3 c3 -5 2 -12 -3 -15 -5 -3 -9 1
-9 9 0 17 3 19 12 6z m361 -3 c3 -4 -1 -5 -10 -4 -8 1 -18 5 -22 8 -3 4 1 5
10 4 8 -1 18 -5 22 -8z m-2096 -14 c0 -8 -19 -13 -24 -6 -3 5 1 9 9 9 8 0 15
-2 15 -3z m1685 -3 c-9 -8 -36 -10 -30 -2 2 4 11 8 20 8 8 0 13 -3 10 -6z
m-628 -16 c0 -8 -4 -12 -9 -9 -5 3 -6 10 -3 15 9 13 12 11 12 -6z m-1142 -5
c3 -5 1 -10 -4 -10 -6 0 -11 5 -11 10 0 6 2 10 4 10 3 0 8 -4 11 -10z m98 -15
c-7 -21 -12 -19 -10 4 0 11 5 18 9 15 4 -3 5 -11 1 -19z m222 15 c3 -5 1 -10
-4 -10 -6 0 -11 5 -11 10 0 6 2 10 4 10 3 0 8 -4 11 -10z m305 4 c0 -8 -19
-13 -24 -6 -3 5 1 9 9 9 8 0 15 -2 15 -3z m124 -2 c3 -5 -1 -9 -9 -9 -8 0 -12
4 -9 9 3 4 7 8 9 8 2 0 6 -4 9 -8z m126 2 c0 -8 -19 -13 -24 -6 -3 5 1 9 9 9
8 0 15 -2 15 -3z m985 -3 c-9 -8 -36 -10 -30 -2 2 4 11 8 20 8 8 0 13 -3 10
-6z m-430 -21 c-3 -5 -12 -10 -18 -10 -7 0 -6 4 3 10 19 12 23 12 15 0z
m-1187 -25 c-3 -3 -9 2 -12 12 -6 14 -5 15 5 6 7 -7 10 -15 7 -18z m1039 10
c0 -8 -4 -12 -9 -9 -5 3 -6 10 -3 15 9 13 12 11 12 -6z m-882 -14 c3 -5 2 -12
-3 -15 -5 -3 -9 1 -9 9 0 17 3 19 12 6z m566 -8 c13 -16 12 -17 -3 -4 -17 13
-22 21 -14 21 2 0 10 -8 17 -17z m796 2 c0 -8 -4 -12 -9 -9 -5 3 -6 10 -3 15
9 13 12 11 12 -6z m-1862 -4 c-9 -8 -36 -10 -30 -2 2 4 11 8 20 8 8 0 13 -3
10 -6z m65 -35 c0 -3 -4 -8 -10 -11 -5 -3 -10 -1 -10 4 0 6 5 11 10 11 6 0 10
-2 10 -4z m595 -5 c3 -5 2 -12 -3 -15 -5 -3 -9 1 -9 9 0 17 3 19 12 6z m-241
-127 c3 -8 2 -12 -4 -9 -6 3 -10 10 -10 16 0 14 7 11 14 -7z m600 0 c3 -8 2
-12 -4 -9 -6 3 -10 10 -10 16 0 14 7 11 14 -7z m360 0 c3 -8 2 -12 -4 -9 -6 3
-10 10 -10 16 0 14 7 11 14 -7z"/>
<path d="M9457 8006 c-7 -19 11 -32 24 -19 6 6 5 14 -4 22 -12 9 -16 8 -20 -3z"/>
<path d="M9245 7970 c-3 -5 -1 -10 4 -10 6 0 11 5 11 10 0 6 -2 10 -4 10 -3 0
-8 -4 -11 -10z"/>
<path d="M9665 7970 c3 -5 8 -10 11 -10 2 0 4 5 4 10 0 6 -5 10 -11 10 -5 0
-7 -4 -4 -10z"/>
<path d="M9000 7877 c0 -12 39 -42 46 -34 2 2 -7 13 -21 25 -15 13 -25 17 -25
9z"/>
<path d="M9040 7795 c-7 -9 -19 -14 -27 -11 -14 6 -17 -3 -5 -19 4 -6 19 0 37
17 16 16 25 28 19 28 -7 0 -17 -7 -24 -15z"/>
<path d="M9043 7773 c-7 -2 -13 -12 -13 -21 1 -15 3 -14 17 3 13 16 15 17 10
3 -8 -21 6 -24 22 -4 9 11 8 15 -5 20 -8 3 -16 6 -17 5 -1 0 -8 -3 -14 -6z"/>
<path d="M8910 7919 c0 -5 5 -7 10 -4 6 3 10 8 10 11 0 2 -4 4 -10 4 -5 0 -10
-5 -10 -11z"/>
<path d="M9294 7406 c-4 -9 -12 -15 -19 -12 -18 6 -27 -5 -16 -18 5 -6 10 -15
10 -21 1 -5 10 -10 21 -10 31 0 46 -21 29 -41 -13 -16 -12 -16 13 0 31 20 30
51 -2 78 -12 9 -20 20 -20 23 3 16 -10 16 -16 1z m16 -28 c0 -5 4 -7 9 -3 11
6 21 -7 26 -37 4 -22 3 -22 -20 4 -13 15 -25 24 -27 19 -2 -4 -10 -1 -20 8
-15 15 -14 16 8 17 13 1 24 -2 24 -8z"/>
<path d="M9320 7361 c0 -6 4 -13 10 -16 6 -3 7 1 4 9 -7 18 -14 21 -14 7z"/>
<path d="M9496 7368 c-8 -12 -14 -24 -12 -27 2 -3 -8 -15 -22 -25 -14 -11 -22
-14 -18 -7 11 17 -35 52 -51 39 -15 -12 -5 -41 13 -34 7 3 17 -1 21 -9 10 -18
37 -23 38 -7 0 6 3 11 7 10 10 -4 37 35 31 45 -2 4 1 14 7 22 7 8 10 15 7 15
-3 0 -13 -10 -21 -22z m-70 -40 c15 -19 16 -20 2 -9 -10 7 -18 10 -18 7 0 -4
-5 -4 -10 -1 -6 4 -8 11 -5 16 8 12 9 12 31 -13z"/>
<path d="M9666 7351 c-3 -5 -21 -7 -40 -6 -20 2 -39 -2 -45 -9 -9 -10 -6 -13
11 -11 13 1 24 4 26 5 17 17 53 -5 45 -28 -3 -9 -3 -14 2 -10 7 7 16 68 9 68
-1 0 -5 -4 -8 -9z"/>
<path d="M9365 7291 c-3 -6 4 -15 15 -21 20 -11 21 -10 10 9 -12 23 -16 25
-25 12z"/>
<path d="M9388 6913 c7 -3 16 -2 19 1 4 3 -2 6 -13 5 -11 0 -14 -3 -6 -6z"/>
<path d="M9504 7269 c-19 -22 -19 -22 4 -8 12 8 22 17 22 21 0 12 -6 9 -26
-13z"/>
<path d="M9590 7279 c0 -5 5 -9 10 -9 6 0 12 0 15 0 14 0 8 13 -7 16 -10 1
-18 -2 -18 -7z"/>
<path d="M9611 7213 c7 -12 15 -20 18 -17 3 2 -3 12 -13 22 -17 16 -18 16 -5
-5z"/>
<path d="M9530 7245 c-9 -11 -9 -15 -1 -15 7 0 10 -3 7 -8 -2 -4 2 -18 10 -32
14 -23 14 -23 9 -2 -4 14 -2 22 7 22 8 0 6 4 -4 11 -10 5 -18 15 -18 22 0 7 4
6 10 -3 5 -8 12 -12 15 -9 3 4 -1 11 -8 18 -11 9 -17 8 -27 -4z"/>
<path d="M9396 7199 c6 -8 10 -22 9 -31 -3 -16 -1 -16 21 -1 13 8 24 18 24 21
0 3 -3 2 -7 -1 -3 -4 -18 0 -32 10 -18 11 -23 12 -15 2z"/>
<path d="M9538 7892 c-29 -29 -48 -52 -41 -52 6 0 19 7 28 16 15 16 16 16 13
-1 -2 -10 2 -20 9 -22 8 -3 10 7 7 29 -3 26 -2 29 5 13 5 -11 10 -16 10 -11 1
6 7 1 15 -9 13 -18 15 -18 40 -2 25 17 32 13 27 -15 -2 -12 17 -10 24 2 3 6
-14 31 -39 56 l-45 47 -53 -51z m40 -7 c-3 -3 -9 2 -12 12 -6 14 -5 15 5 6 7
-7 10 -15 7 -18z m42 5 c13 -9 13 -11 0 -20 -20 -13 -30 -13 -30 1 0 5 5 7 10
4 6 -3 10 -2 10 4 0 5 -6 12 -12 14 -7 3 -8 6 -3 6 6 0 17 -4 25 -9z"/>
<path d="M9681 7931 c-9 -6 -10 -14 -3 -27 18 -36 3 -87 -25 -82 -9 2 -18 -2
-20 -9 -6 -16 49 -6 59 10 4 7 8 8 8 2 0 -20 -15 -32 -38 -30 -12 1 -21 -3
-19 -9 5 -15 46 -16 55 -2 11 18 9 106 -3 106 -6 0 -7 3 0 8 11 8 16 42 6 42
-3 0 -12 -4 -20 -9z"/>
<path d="M9432 7893 c15 -15 31 -24 34 -20 8 8 -34 47 -50 47 -6 0 2 -12 16
-27z"/>
<path d="M9138 7833 c-9 -10 -15 -29 -14 -43 1 -14 -2 -31 -7 -37 -10 -14 8
-43 26 -43 5 0 2 9 -7 19 -17 19 -17 20 4 31 19 10 20 14 7 33 -12 19 -12 23
7 39 12 9 16 17 10 18 -6 0 -18 -8 -26 -17z"/>
<path d="M9564 7842 c10 -16 -13 -25 -29 -12 -15 13 -55 -2 -55 -21 0 -6 5 -7
10 -4 6 4 17 1 25 -5 18 -15 20 1 3 19 -11 11 -9 11 9 0 16 -9 19 -17 12 -26
-8 -9 -5 -11 10 -10 16 1 20 6 15 22 -5 15 -1 14 16 -8 12 -15 25 -26 28 -23
3 3 -2 14 -12 25 -9 10 -16 24 -14 31 2 7 -3 15 -11 18 -8 2 -11 0 -7 -6z"/>
<path d="M9615 7837 c-11 -7 -22 -13 -24 -14 -2 -2 2 -10 10 -19 16 -19 21
-72 8 -80 -5 -3 -6 1 -3 9 3 8 -1 14 -10 14 -8 0 -14 -9 -13 -19 1 -10 4 -18
8 -18 4 0 14 -2 22 -5 13 -6 17 4 18 50 0 16 2 17 9 5 5 -8 5 -21 -1 -31 -5
-10 -5 -20 0 -23 21 -14 19 41 -3 74 l-23 35 21 17 c24 20 11 23 -19 5z"/>
<path d="M9214 7831 c12 -18 -6 -39 -30 -36 -15 1 -23 -2 -21 -9 2 -6 12 -10
23 -9 10 1 24 -7 32 -18 7 -10 18 -19 24 -19 6 0 3 9 -6 19 -13 14 -15 24 -8
38 10 20 6 43 -9 43 -6 0 -8 -4 -5 -9z"/>
<path d="M9245 7830 c3 -5 1 -19 -5 -30 -9 -16 -8 -25 1 -36 6 -8 14 -12 17
-9 3 2 0 10 -6 18 -8 9 -8 17 0 27 8 13 9 12 5 -2 -4 -12 0 -16 14 -15 10 1
19 5 19 9 0 5 9 3 20 -4 14 -9 16 -14 7 -20 -9 -6 -9 -10 1 -17 11 -6 10 -10
-3 -15 -10 -3 -15 -12 -12 -20 3 -8 1 -16 -5 -18 -5 -2 -2 -10 8 -18 16 -14
17 -13 11 3 -4 10 -2 17 6 17 8 0 8 3 -2 9 -9 6 -10 11 -2 15 11 7 13 2 13
-52 1 -35 13 -51 22 -27 3 8 1 17 -4 20 -17 10 -11 24 18 40 19 11 21 14 6 10
-25 -6 -43 26 -39 68 3 24 0 26 -27 23 -20 -3 -33 2 -41 15 -7 11 -15 19 -20
19 -4 0 -5 -4 -2 -10z"/>
<path d="M9420 7785 c-7 -8 -16 -13 -19 -10 -4 2 -8 -2 -8 -10 0 -11 4 -11 23
2 21 13 24 13 41 -6 9 -12 21 -21 26 -21 5 0 4 6 -2 14 -9 11 -8 15 5 20 25
10 43 -12 24 -27 -18 -14 -23 -50 -6 -44 6 2 11 8 11 13 1 5 6 19 13 31 10 19
9 24 -10 37 -15 11 -26 12 -40 5 -13 -7 -23 -7 -32 0 -10 8 -17 7 -26 -4z"/>
<path d="M9270 7760 c0 -9 8 -16 18 -17 11 -1 18 5 18 17 0 12 -7 18 -18 17
-10 -1 -18 -8 -18 -17z"/>
<path d="M9546 7764 c-8 -21 16 -29 30 -10 7 11 14 13 17 6 3 -6 4 -5 3 2 -4
17 -44 19 -50 2z"/>
<path d="M9146 7755 c-15 -11 -15 -13 1 -26 15 -12 16 -12 10 3 -3 10 -3 20 2
22 4 3 8 -1 9 -9 1 -8 3 -22 4 -30 1 -9 7 -14 15 -10 8 3 18 5 22 5 12 0 10
39 -2 47 -19 11 -43 10 -61 -2z m57 -21 c-4 -12 -8 -13 -14 -3 -9 15 -2 32 11
24 5 -3 6 -13 3 -21z"/>
<path d="M9415 7756 c-13 -9 -25 -11 -37 -5 -17 9 -34 -4 -24 -19 8 -13 47 -7
57 9 5 9 9 10 9 2 0 -6 -5 -15 -10 -18 -6 -4 -8 -11 -5 -16 7 -11 26 -12 24
-1 -3 19 2 32 12 32 8 0 8 -5 -1 -15 -9 -10 -9 -15 -1 -15 6 0 11 5 11 12 0 9
3 9 12 0 15 -15 28 -16 28 -2 0 6 -5 10 -11 10 -6 0 -18 9 -27 20 -15 19 -19
19 -37 6z"/>
<path d="M9490 7760 c0 -5 5 -10 10 -10 6 0 10 5 10 10 0 6 -4 10 -10 10 -5 0
-10 -4 -10 -10z"/>
<path d="M9665 7761 c-3 -2 4 -11 16 -19 11 -8 23 -11 27 -7 3 3 0 10 -7 14
-11 7 -11 9 0 14 8 3 4 4 -9 4 -13 -1 -25 -3 -27 -6z"/>
<path d="M9236 7731 c-15 -6 -16 -10 -7 -16 8 -4 17 -2 23 6 8 12 9 11 5 -1
-2 -8 -12 -14 -21 -14 -9 1 -15 -3 -13 -10 3 -6 11 -9 18 -7 8 2 21 4 29 5 8
2 16 12 18 22 3 21 -18 27 -52 15z"/>
<path d="M9529 7734 c-1 -5 -1 -12 -1 -16 3 -17 -27 -29 -47 -18 -20 10 -61
-1 -61 -16 0 -3 5 -2 10 1 6 3 10 1 10 -5 0 -6 5 -8 10 -5 6 4 7 12 3 18 -5 8
-2 8 9 0 8 -7 18 -9 22 -5 4 4 6 1 4 -7 -1 -7 3 -16 11 -19 8 -3 11 0 7 6 -9
15 27 33 43 22 8 -4 11 -12 7 -18 -3 -5 0 -12 7 -15 9 -3 14 4 14 23 0 18 -5
27 -15 26 -8 0 -17 6 -19 14 -4 13 -3 13 6 0 8 -12 13 -12 23 -2 8 8 8 12 1
12 -6 0 -18 3 -27 6 -9 3 -17 2 -17 -2z"/>
<path d="M9665 7730 c-3 -6 -3 -14 0 -20 6 -9 -8 -14 -27 -11 -5 0 -8 -6 -8
-14 0 -18 12 -19 27 -4 7 7 10 4 9 -13 -1 -15 -7 -22 -17 -20 -9 1 -16 -5 -16
-13 0 -9 6 -14 14 -10 33 13 48 17 36 8 -9 -6 -8 -11 5 -19 15 -10 17 -5 18
46 1 45 -3 60 -17 68 -12 8 -20 8 -24 2z m30 -48 c2 -18 -2 -32 -8 -32 -6 0
-7 3 -4 6 3 4 2 15 -4 25 -7 14 -6 19 3 19 9 0 9 3 -2 11 -11 8 -11 10 -1 7 7
-2 15 -18 16 -36z"/>
<path d="M9135 7695 c-16 -13 -24 -24 -17 -25 6 0 12 5 12 12 0 6 3 8 7 4 5
-4 -1 -14 -11 -22 -15 -11 -16 -14 -4 -14 19 0 45 30 45 53 0 9 -1 17 -1 17
-1 0 -14 -11 -31 -25z"/>
<path d="M9373 7697 c-23 -10 -31 -27 -13 -27 6 0 10 5 10 12 0 6 3 9 6 6 3
-4 -2 -20 -11 -37 -14 -29 -14 -33 0 -47 8 -8 15 -14 16 -12 7 32 6 39 -7 34
-12 -4 -12 -2 -4 14 8 16 15 18 29 11 12 -7 22 -6 30 2 10 9 11 8 6 -8 -6 -19
-6 -19 12 1 16 17 21 19 31 7 10 -10 10 -13 0 -13 -7 0 -5 -5 5 -11 27 -16 30
-5 6 25 -16 21 -24 24 -35 15 -10 -8 -18 -5 -36 14 -19 20 -27 22 -45 14z m42
-27 c3 -6 -1 -7 -9 -4 -18 7 -21 14 -7 14 6 0 13 -4 16 -10z"/>
<path d="M9148 7652 c-23 -26 -37 -40 -29 -30 9 11 10 18 3 18 -6 0 -14 -5
-17 -10 -4 -6 -11 -7 -17 -4 -7 5 -7 1 0 -11 16 -29 39 -26 56 8 9 18 16 26
16 18 0 -11 3 -11 15 -1 10 8 12 16 6 19 -6 4 -2 12 9 19 14 8 21 9 26 0 4 -6
3 -8 -4 -4 -6 3 -13 2 -16 -3 -3 -5 1 -11 9 -15 8 -3 15 0 15 6 0 7 5 6 15 -2
12 -10 15 -10 15 1 0 11 2 11 10 -1 7 -12 10 -12 10 -1 0 8 6 11 18 6 41 -17
46 -16 22 1 -29 22 -38 23 -61 12 -11 -5 -21 -2 -29 7 -18 22 -24 19 -72 -33z"/>
<path d="M9585 7690 c-4 -6 -1 -18 6 -26 10 -12 14 -12 21 -2 7 10 9 10 5 -2
-2 -10 -14 -14 -33 -12 -16 2 -37 4 -47 5 -17 1 -17 2 -2 13 10 8 12 14 6 19
-6 3 -11 1 -11 -5 0 -6 -4 -9 -8 -6 -4 2 -9 -6 -10 -18 -1 -14 4 -23 13 -23 8
0 15 4 15 9 0 5 8 4 19 -1 10 -6 21 -8 25 -6 3 3 2 -1 -4 -7 -13 -16 -13 -38
1 -38 5 0 7 4 4 10 -3 5 5 15 18 21 17 8 24 18 23 34 -5 40 -27 58 -41 35z"/>
<path d="M9070 7680 c0 -5 5 -10 11 -10 5 0 7 5 4 10 -3 6 -8 10 -11 10 -2 0
-4 -4 -4 -10z"/>
<path d="M9270 7641 c-14 -27 -13 -34 4 -19 8 7 11 17 8 22 -3 5 0 6 7 2 6 -4
8 -12 5 -18 -4 -6 2 -8 17 -3 19 5 21 4 9 -4 -13 -10 -8 -15 12 -12 4 0 5 -5
2 -13 -3 -8 0 -17 5 -21 6 -3 9 -11 6 -16 -4 -5 1 -9 9 -9 10 0 13 6 10 18 -4
10 -2 13 3 7 7 -10 16 -11 41 -6 4 1 0 6 -8 11 -13 9 -13 10 1 10 8 0 25 9 36
20 18 16 22 17 27 4 4 -9 -5 -21 -25 -33 -17 -10 -26 -22 -21 -25 6 -3 24 7
41 23 17 16 32 23 34 17 3 -8 8 -8 18 1 8 6 16 11 19 10 3 0 14 4 25 11 18 11
18 11 -9 9 -15 -1 -31 -7 -33 -14 -4 -9 -11 -8 -29 3 -13 9 -21 21 -18 28 4 6
-1 3 -11 -6 -16 -15 -21 -15 -49 -2 l-31 15 23 -19 24 -18 -25 -17 c-25 -16
-27 -16 -49 12 -13 16 -33 34 -45 40 -19 9 -24 8 -33 -8z"/>
<path d="M9166 7625 c-17 -13 -26 -28 -21 -34 4 -7 3 -17 -2 -24 -14 -21 -9
-49 13 -63 18 -12 21 -12 21 0 0 8 -7 12 -16 9 -14 -4 -14 -4 -1 6 10 7 11 11
3 11 -7 0 -13 5 -13 11 0 5 4 8 9 4 5 -3 13 0 17 6 5 8 3 9 -6 4 -9 -6 -11 -4
-5 5 6 9 4 11 -5 5 -8 -5 -11 -4 -6 3 4 6 12 9 19 6 8 -3 13 4 14 17 2 17 -1
19 -10 10 -14 -14 -27 -14 -27 0 0 5 4 8 9 4 5 -3 12 -1 16 4 3 6 11 9 18 7 7
-1 9 -1 5 1 -24 14 0 21 42 14 3 -1 -8 -12 -25 -26 -32 -26 -23 -35 11 -10 12
8 23 13 25 10 2 -2 5 7 5 19 1 18 -4 22 -30 23 -19 0 -43 -9 -60 -22z"/>
<path d="M9270 7606 c-7 -9 -16 -13 -21 -10 -5 3 -12 -2 -15 -10 -3 -9 -10
-14 -14 -11 -14 8 -51 -37 -41 -49 5 -6 7 -19 5 -29 -3 -22 -14 -36 -14 -19 0
7 -5 12 -12 12 -6 0 -1 -11 11 -24 13 -14 20 -29 17 -35 -4 -5 -2 -12 4 -16 6
-4 8 -10 5 -15 -3 -4 1 -10 9 -13 8 -3 13 -14 12 -24 -4 -23 3 -35 15 -27 6 4
6 11 -2 20 -6 8 -8 14 -4 14 4 0 3 6 -4 13 -6 8 -9 23 -6 35 2 13 -3 26 -13
32 -12 6 -13 9 -3 10 11 0 11 3 1 15 -10 12 -10 15 1 15 11 0 11 2 -1 10 -13
8 -13 10 0 10 11 0 11 3 2 12 -17 17 -15 31 3 24 26 -9 46 4 40 28 -2 11 -2
15 1 8 5 -10 9 -10 21 0 16 13 50 22 38 10 -4 -4 -11 -8 -16 -8 -22 -3 -23 -5
-9 -14 8 -5 11 -12 7 -17 -5 -4 -12 -1 -17 7 -6 9 -10 10 -10 3 0 -21 23 -27
36 -9 8 11 14 13 19 7 3 -6 1 -11 -6 -11 -7 0 -9 -3 -6 -6 3 -4 2 -15 -4 -25
-7 -15 -4 -22 16 -35 14 -9 23 -19 20 -22 -5 -5 53 -46 68 -47 4 0 11 -5 15
-10 13 -19 45 -8 48 16 1 5 2 14 3 19 0 6 12 8 25 6 17 -3 23 -1 20 8 -6 16
15 33 38 33 26 0 46 -52 23 -61 -7 -2 -12 -13 -10 -23 1 -10 -2 -24 -8 -31
-15 -19 0 -27 19 -11 10 8 28 14 42 14 16 0 26 6 28 18 1 9 -2 17 -8 17 -6 0
-8 -6 -5 -13 3 -8 -1 -14 -8 -14 -10 0 -11 5 -4 18 6 11 5 20 -1 24 -5 3 -10
1 -10 -5 0 -6 -5 -8 -11 -4 -8 4 -7 9 2 15 12 7 12 9 0 9 -8 0 -11 3 -8 6 4 4
13 2 20 -4 10 -9 19 -7 36 4 20 15 21 17 6 34 -9 9 -13 24 -9 34 6 15 7 15 21
-1 13 -16 13 -16 3 5 -9 19 -8 27 5 42 15 16 15 18 -1 24 -12 4 -15 2 -10 -9
3 -8 0 -14 -7 -12 -7 1 -11 -6 -9 -15 3 -21 -9 -23 -25 -7 -9 9 -12 7 -10 -10
1 -12 6 -20 14 -17 7 3 10 -1 7 -9 -5 -12 -10 -12 -32 1 -22 13 -24 13 -9 1
12 -10 14 -17 8 -22 -6 -3 -11 -2 -11 3 0 5 -6 9 -12 10 -7 0 -22 3 -33 5 -11
2 -29 -2 -41 -10 -11 -7 -24 -10 -27 -6 -4 3 -7 3 -7 -2 0 -4 8 -14 18 -22 15
-13 15 -13 -4 -4 -12 6 -25 7 -29 3 -5 -4 -5 -1 -1 5 5 9 2 11 -9 7 -14 -6
-14 -8 2 -20 17 -13 17 -14 1 -8 -11 4 -18 1 -18 -6 0 -6 4 -9 9 -6 5 3 12 -1
15 -9 5 -13 2 -14 -15 -4 -12 6 -18 17 -15 25 3 8 2 13 -2 10 -4 -2 -14 -1
-22 4 -9 5 -19 5 -27 -2 -8 -6 -16 -8 -20 -4 -3 3 -1 6 6 6 7 0 9 5 6 10 -4 6
-12 7 -18 3 -7 -4 -6 1 2 10 8 10 11 20 7 24 -3 3 -6 2 -6 -3 0 -5 -9 -10 -20
-11 -23 -2 -25 5 -7 32 16 25 15 51 -1 47 -7 -1 -12 3 -10 10 2 7 -1 14 -6 15
-5 1 -12 6 -16 13 -5 8 -11 6 -20 -4z m-36 -48 c-3 -4 -9 -8 -15 -8 -5 0 -9 4
-9 8 0 5 7 9 15 9 8 0 12 -4 9 -9z m296 -62 c0 -2 -8 -10 -17 -17 -16 -13 -17
-12 -4 4 13 16 21 21 21 13z m113 -36 c7 0 6 4 -3 10 -8 5 -12 12 -9 15 4 3
12 -1 18 -9 10 -12 9 -17 -6 -24 -14 -8 -25 -6 -43 9 -15 12 -18 17 -7 13 11
-4 17 -1 17 7 1 9 4 8 11 -3 5 -10 15 -18 22 -18z m-224 -33 c13 -20 13 -21
-2 -8 -10 7 -17 10 -17 6 0 -4 -7 -2 -15 5 -17 14 -11 32 8 24 7 -2 19 -14 26
-27z m-212 -2 c0 -8 -4 -12 -9 -9 -5 3 -6 10 -3 15 9 13 12 11 12 -6z m400
-30 c-1 0 -13 -9 -27 -20 -13 -11 -20 -13 -14 -5 6 8 10 23 9 32 -3 14 0 15
16 5 10 -6 17 -11 16 -12z"/>
<path d="M9599 7608 c-11 -7 -9 -8 6 -4 11 3 27 1 35 -5 12 -8 11 -9 -6 -5
-14 5 -21 2 -21 -9 0 -8 4 -15 9 -15 5 0 7 -4 3 -9 -3 -5 -1 -13 5 -16 6 -4 9
-3 8 2 -5 17 23 52 37 47 8 -4 15 -1 15 5 0 6 -6 11 -12 12 -7 0 -25 2 -39 4
-14 2 -32 -1 -40 -7z"/>
<path d="M9434 7594 c-18 -14 -18 -15 4 -4 12 6 22 13 22 15 0 8 -5 6 -26 -11z"/>
<path d="M9546 7603 c-4 -4 -12 -8 -16 -8 -5 0 -16 -9 -25 -20 -8 -11 -15 -15
-14 -10 3 22 -2 27 -16 15 -8 -7 -12 -17 -9 -22 3 -5 -2 -8 -11 -6 -10 2 -20
-3 -23 -11 -3 -9 0 -12 10 -9 7 3 22 0 31 -7 15 -11 15 -13 3 -18 -9 -4 -18
-2 -21 3 -4 6 -11 10 -17 10 -7 0 -7 -5 1 -14 9 -10 8 -15 -3 -19 -9 -4 -13
-1 -10 6 2 7 -4 13 -14 14 -17 1 -18 -2 -9 -21 11 -23 12 -23 41 -5 16 10 33
16 38 13 4 -3 8 0 8 6 0 6 4 9 9 5 6 -3 15 3 20 14 10 17 8 19 -13 15 -14 -2
-28 1 -32 7 -5 8 -3 9 6 4 8 -5 11 -4 7 2 -4 6 4 9 19 7 21 -2 24 1 20 19 -3
12 -3 16 0 9 5 -10 9 -10 22 0 15 11 15 11 5 -3 -10 -13 -10 -16 2 -16 8 0 11
5 8 10 -3 6 -1 7 6 3 6 -4 8 -12 5 -18 -5 -8 -1 -9 12 -5 18 7 18 7 0 -8 -13
-10 -23 -12 -30 -5 -17 17 -27 11 -14 -10 16 -25 39 -35 31 -13 -5 12 -1 14
18 9 13 -3 18 -3 11 0 -10 5 -10 9 -1 21 10 11 10 16 0 23 -11 6 -11 9 0 14 8
3 4 3 -8 0 -14 -3 -25 1 -30 11 -5 8 -13 12 -17 8z"/>
<path d="M9371 7542 c-5 -10 -12 -16 -15 -14 -14 5 -24 1 -29 -12 -4 -10 -1
-13 9 -9 7 3 14 10 14 17 0 6 5 3 11 -7 5 -9 8 -21 4 -26 -3 -5 -1 -12 5 -16
5 -3 10 0 10 7 0 9 3 9 10 -2 5 -8 10 -10 10 -4 0 5 -4 14 -10 20 -6 6 -6 15
0 24 8 12 11 13 19 1 6 -9 11 -10 15 -2 4 6 2 11 -3 11 -6 0 -10 5 -8 11 4 18
-32 19 -42 1z"/>
<path d="M9250 7542 c0 -6 -11 -9 -25 -7 -17 1 -23 -1 -17 -9 5 -6 8 -25 7
-41 -1 -17 4 -36 12 -43 11 -11 12 -9 9 10 -3 13 -5 23 -6 23 -1 0 -3 8 -5 17
-2 11 2 15 12 11 11 -4 11 -8 3 -13 -9 -6 -9 -9 -1 -14 6 -4 9 -11 7 -15 -3
-4 0 -13 5 -21 6 -11 8 -5 4 17 -4 23 0 35 13 45 21 15 42 45 23 34 -6 -4 -18
-2 -26 4 -9 8 -15 8 -15 2z m15 -24 c4 -3 2 -9 -3 -12 -5 -3 -15 1 -21 8 -10
11 -9 14 3 12 9 -1 18 -5 21 -8z"/>
<path d="M9270 7440 c0 -5 5 -10 10 -10 6 0 10 5 10 10 0 6 -4 10 -10 10 -5 0
-10 -4 -10 -10z"/>
<path d="M9255 7271 c-3 -5 -2 -12 3 -15 5 -3 9 1 9 9 0 17 -3 19 -12 6z"/>
<path d="M9595 6930 c-3 -5 -1 -10 4 -10 6 0 11 5 11 10 0 6 -2 10 -4 10 -3 0
-8 -4 -11 -10z"/>
<path d="M9666 6923 c-6 -14 -5 -15 5 -6 7 7 10 15 7 18 -3 3 -9 -2 -12 -12z"/>
<path d="M9505 6900 c-3 -5 -1 -18 5 -27 9 -16 10 -15 5 5 -4 13 -2 22 4 22
10 0 15 -14 12 -32 0 -5 4 -8 9 -8 13 0 13 6 0 31 -12 21 -25 25 -35 9z"/>
<path d="M9650 6891 c0 -6 4 -12 8 -15 5 -3 9 1 9 9 0 8 -4 15 -9 15 -4 0 -8
-4 -8 -9z"/>
<path d="M9562 6850 c-18 -16 -40 -26 -48 -23 -8 3 -14 1 -14 -5 0 -25 72 10
94 46 11 18 4 15 -32 -18z"/>
<path d="M9485 6860 c-3 -5 -1 -10 4 -10 6 0 11 5 11 10 0 6 -2 10 -4 10 -3 0
-8 -4 -11 -10z"/>
<path d="M9604 6851 c4 -6 3 -11 -2 -11 -5 0 -19 -9 -32 -20 -16 -14 -19 -20
-9 -22 8 0 19 -2 24 -3 6 -2 14 -3 19 -4 6 0 1 -7 -9 -15 -17 -12 -21 -12 -32
3 -11 15 -13 15 -28 -1 -8 -10 -12 -16 -9 -13 4 3 13 0 21 -6 7 -6 13 -8 13
-4 0 4 9 -4 20 -18 14 -18 26 -24 38 -20 15 6 15 5 3 -10 -16 -21 -5 -23 15
-3 20 20 18 25 -11 21 -14 -1 -28 2 -31 6 -3 5 0 9 5 9 6 0 11 5 11 11 0 8 -5
8 -15 -1 -10 -8 -15 -9 -15 -2 0 6 8 15 18 21 13 7 20 5 29 -12 7 -12 12 -17
13 -11 0 23 -40 63 -58 57 -15 -5 -15 -4 2 13 13 14 20 15 23 7 3 -7 9 -13 15
-13 6 0 4 7 -3 17 -12 15 -12 16 3 11 9 -4 24 0 35 8 17 15 17 15 -2 5 -13 -6
-26 -6 -38 1 -14 7 -17 7 -13 -1z m-44 -81 c0 -5 -2 -10 -4 -10 -3 0 -8 5 -11
10 -3 6 -1 10 4 10 6 0 11 -4 11 -10z"/>
<path d="M9518 6843 c7 -3 16 -2 19 1 4 3 -2 6 -13 5 -11 0 -14 -3 -6 -6z"/>
<path d="M9642 6810 c-7 -11 -9 -20 -4 -20 4 0 13 9 20 20 7 11 9 20 4 20 -4
0 -13 -9 -20 -20z"/>
<path d="M9480 6811 c0 -6 4 -13 10 -16 6 -3 7 1 4 9 -7 18 -14 21 -14 7z"/>
<path d="M9510 6789 c0 -5 5 -7 10 -4 6 3 10 8 10 11 0 2 -4 4 -10 4 -5 0 -10
-5 -10 -11z"/>
<path d="M9474 6782 c3 -6 3 -12 -1 -15 -5 -2 -2 -2 5 -1 6 2 12 -1 12 -6 0
-6 5 -10 10 -10 17 0 11 14 -11 28 -12 8 -18 9 -15 4z"/>
<path d="M9440 6756 c0 -2 7 -9 15 -16 9 -7 15 -8 15 -2 0 5 -7 12 -15 16 -8
3 -15 4 -15 2z"/>
<path d="M9512 6735 c-16 -12 -21 -12 -25 -2 -3 7 -6 5 -6 -5 -1 -22 3 -22 34
-2 24 16 25 16 23 -6 -2 -16 3 -23 19 -26 29 -5 37 10 15 27 -15 13 -16 12 -4
-3 12 -15 11 -17 -7 -15 -15 1 -19 6 -16 18 8 24 -8 31 -33 14z"/>
<path d="M9460 6701 c0 -6 5 -11 11 -11 5 0 7 -4 4 -10 -3 -6 1 -7 10 -4 9 4
15 7 13 8 -2 1 -11 8 -20 15 -12 9 -18 10 -18 2z"/>
<path d="M9514 6686 c3 -16 8 -31 11 -35 3 -3 4 7 1 23 -3 16 -8 31 -11 35 -3
3 -4 -7 -1 -23z"/>
<path d="M9595 6681 c3 -5 0 -11 -7 -13 -6 -2 -12 -15 -14 -29 -1 -13 0 -18 2
-12 3 7 5 16 5 20 0 5 10 13 21 19 18 10 18 12 4 17 -10 4 -15 3 -11 -2z"/>
<path d="M9548 6673 c7 -3 16 -2 19 1 4 3 -2 6 -13 5 -11 0 -14 -3 -6 -6z"/>
<path d="M9484 6659 c-4 -8 -3 -9 4 -5 8 5 11 0 9 -15 -1 -14 4 -23 16 -24 9
-2 17 1 17 7 0 6 -7 7 -16 4 -12 -4 -14 -1 -9 13 7 22 -10 37 -21 20z"/>
<path d="M9630 6659 c0 -5 5 -7 10 -4 6 3 10 8 10 11 0 2 -4 4 -10 4 -5 0 -10
-5 -10 -11z"/>
<path d="M9545 6640 c3 -5 8 -10 11 -10 2 0 4 5 4 10 0 6 -5 10 -11 10 -5 0
-7 -4 -4 -10z"/>
<path d="M9600 6635 c-7 -9 -10 -18 -7 -21 3 -3 10 4 17 15 13 25 8 27 -10 6z"/>
<path d="M9536 6605 c-3 -8 -1 -15 4 -15 6 0 10 7 10 15 0 8 -2 15 -4 15 -2 0
-6 -7 -10 -15z"/>
<path d="M9570 6600 c0 -5 5 -10 11 -10 5 0 7 5 4 10 -3 6 -8 10 -11 10 -2 0
-4 -4 -4 -10z"/>
<path d="M9610 6606 c0 -2 7 -7 16 -10 8 -3 12 -2 9 4 -6 10 -25 14 -25 6z"/>
<path d="M9510 6589 c0 -5 -6 -7 -12 -3 -7 4 -9 3 -5 -1 13 -15 36 -14 30 1
-6 17 -13 18 -13 3z"/>
<path d="M9590 6580 c-8 -5 -10 -10 -5 -10 6 0 17 5 25 10 8 5 11 10 5 10 -5
0 -17 -5 -25 -10z"/>
<path d="M9548 6573 c7 -3 16 -2 19 1 4 3 -2 6 -13 5 -11 0 -14 -3 -6 -6z"/>
<path d="M9510 6550 c-9 -6 -10 -10 -3 -10 6 0 15 5 18 10 8 12 4 12 -15 0z"/>
<path d="M9535 6539 c-6 -8 -4 -10 5 -4 9 5 10 1 6 -16 -6 -21 -6 -22 5 -6 7
13 8 22 1 29 -6 6 -12 6 -17 -3z"/>
<path d="M9600 6540 c-8 -5 -10 -10 -5 -10 6 0 17 5 25 10 8 5 11 10 5 10 -5
0 -17 -5 -25 -10z"/>
<path d="M9560 6476 c0 -8 4 -17 9 -20 5 -4 7 3 4 14 -6 23 -13 26 -13 6z"/>
<path d="M9510 6446 c0 -2 7 -7 16 -10 8 -3 12 -2 9 4 -6 10 -25 14 -25 6z"/>
<path d="M9558 6411 c5 -13 3 -14 -9 -4 -13 10 -16 10 -16 -2 0 -8 3 -13 5
-10 3 3 15 -3 26 -12 12 -10 16 -11 9 -4 -8 9 -9 20 -3 31 6 12 5 17 -5 17 -8
0 -11 -7 -7 -16z"/>
<path d="M9533 6363 c1 -17 4 -19 14 -11 15 12 18 22 4 14 -5 -4 -11 0 -14 6
-3 7 -4 3 -4 -9z"/>
<path d="M9559 6333 c-13 -16 -12 -17 4 -4 9 7 17 15 17 17 0 8 -8 3 -21 -13z"/>
<path d="M9530 6321 c0 -6 4 -13 10 -16 6 -3 7 1 4 9 -7 18 -14 21 -14 7z"/>
<path d="M9579 6313 c-13 -16 -12 -17 4 -4 16 13 21 21 13 21 -2 0 -10 -8 -17
-17z"/>
<path d="M9559 6213 c-13 -16 -12 -17 4 -4 9 7 17 15 17 17 0 8 -8 3 -21 -13z"/>
<path d="M8428 3008 c-36 -39 -42 -53 -39 -88 1 -8 -5 -5 -12 8 l-13 23 -19
-21 c-17 -19 -14 -24 10 -21 6 1 1 -6 -10 -14 -11 -9 -25 -13 -33 -10 -7 3
-10 0 -7 -6 4 -6 14 -8 22 -5 8 3 12 2 9 -3 -3 -5 5 -8 18 -7 13 0 22 4 20 8
-2 3 -1 8 3 11 5 2 3 2 -4 1 -7 -2 -10 3 -6 11 3 8 9 13 13 10 8 -5 50 45 50
59 0 4 11 24 25 46 33 52 22 51 -27 -2z m12 -7 c-5 -11 -15 -23 -20 -26 -6 -4
-8 -10 -5 -15 3 -4 -3 -14 -13 -21 -15 -12 -15 -12 -5 1 6 8 12 20 14 25 2 13
30 55 36 55 2 0 -1 -9 -7 -19z m-70 -75 c0 -2 -7 -7 -16 -10 -8 -3 -12 -2 -9
4 6 10 25 14 25 6z"/>
<path d="M8268 2835 c-18 -33 -40 -45 -57 -32 -12 10 -12 9 0 -10 l13 -22 26
24 c15 14 30 22 34 18 5 -5 6 3 2 17 -3 14 -3 19 0 12 5 -10 9 -10 20 -1 12 9
18 9 27 0 9 -10 8 -11 -8 -5 -18 7 -18 6 -6 -9 15 -19 31 -14 31 9 0 9 5 12
13 8 6 -4 8 -3 4 1 -4 5 -26 10 -48 10 -31 1 -43 -4 -51 -20z"/>
<path d="M8296 2814 c-4 -9 -9 -14 -12 -11 -7 7 -54 -33 -54 -47 0 -5 10 0 23
12 13 12 29 22 35 22 7 0 12 5 12 12 0 6 3 9 6 6 7 -7 -14 -50 -30 -60 -6 -4
-21 -6 -34 -3 -15 2 -22 0 -19 -8 5 -15 37 -16 57 -2 13 9 13 8 2 -7 -8 -10
-20 -14 -30 -11 -15 6 -15 4 -4 -10 14 -17 7 -42 -9 -32 -5 4 -9 1 -9 -4 0
-24 29 -9 39 19 5 17 15 30 22 30 6 0 9 6 6 14 -3 8 1 17 10 20 9 4 13 9 10
13 -4 3 0 11 9 17 14 10 13 14 -4 29 -18 17 -20 17 -26 1z"/>
<path d="M8260 2765 c-7 -8 -8 -15 -2 -15 5 0 15 7 22 15 7 8 8 15 2 15 -5 0
-15 -7 -22 -15z"/>
<path d="M8190 2760 c0 -5 7 -10 15 -10 8 0 15 5 15 10 0 6 -7 10 -15 10 -8 0
-15 -4 -15 -10z"/>
<path d="M8180 2730 c-8 -5 -16 -17 -17 -27 -1 -10 -3 -27 -5 -38 -2 -14 2
-19 13 -17 9 1 22 -5 29 -13 7 -8 17 -15 23 -15 6 0 0 11 -13 25 -13 14 -30
23 -37 21 -7 -3 -10 1 -6 10 3 7 8 14 12 15 3 0 15 2 26 4 10 2 25 -1 32 -7
23 -19 14 8 -10 30 -26 25 -27 25 -47 12z m40 -15 c0 -1 -12 -2 -26 -2 -17 0
-22 2 -13 7 10 7 39 3 39 -5z"/>
<path d="M8190 2679 c0 -11 36 -39 51 -39 8 1 4 6 -9 13 -17 10 -19 16 -11 24
9 9 7 12 -10 10 -11 -1 -21 -4 -21 -8z"/>
<path d="M8146 2493 c-6 -14 -5 -15 5 -6 7 7 10 15 7 18 -3 3 -9 -2 -12 -12z"/>
<path d="M8100 2450 c0 -5 5 -10 11 -10 5 0 7 5 4 10 -3 6 -8 10 -11 10 -2 0
-4 -4 -4 -10z"/>
</g>
</svg>
