<svg width="558" height="355" viewBox="0 0 558 355" fill="none" xmlns="http://www.w3.org/2000/svg">
<path d="M53.6235 168.05C51.3937 168.984 49.611 170.783 48.6884 173.031L50.0761 173.6C49.7054 174.503 49.5 175.495 49.5 176.538V179.464H48V185.316H49.5V191.167H48V197.019H49.5V202.871H48V208.723H49.5V214.574H48V220.426H49.5V226.278H48V232.129H49.5V237.981H48V243.833H49.5V249.685H48V255.536H49.5V258.462C49.5 259.506 49.7054 260.497 50.0761 261.4L48.6884 261.97C49.6111 264.217 51.3938 266.015 53.6237 266.949L54.2031 265.566C55.1019 265.942 56.0887 266.15 57.1275 266.15H60.2211V267.65H66.4084V266.15H72.5957V267.65H78.7829V266.15H84.9702V267.65H91.1575V266.15H97.3447V267.65H103.532V266.15H109.719V267.65H115.907V266.15H122.094V267.65H128.281V266.15H134.468V267.65H140.656V266.15H146.843V267.65H153.03V266.15H159.217V267.65H165.405V266.15H171.592V267.65H177.779V266.15H180.873C181.912 266.15 182.899 265.942 183.797 265.566L184.377 266.949C186.607 266.016 188.389 264.217 189.312 261.97L187.924 261.4C188.295 260.497 188.5 259.506 188.5 258.462V255.536H190V249.685H188.5V243.833H190V237.981H188.5V232.13H190V226.278H188.5V220.426H190V214.574H188.5V208.723H190V202.871H188.5V197.019H190V191.167H188.5V185.316H190V179.464H188.5V176.538C188.5 175.494 188.295 174.503 187.924 173.6L189.312 173.031C188.39 170.783 186.607 168.984 184.377 168.05L183.797 169.434C182.899 169.057 181.912 168.849 180.873 168.849H177.779V167.349H171.592V168.849H165.405V167.349H159.217V168.849H153.03V167.349H146.843V168.849H140.656V167.349H134.468V168.849H128.281V167.349H122.094V168.849H115.907V167.349H109.719V168.849H103.532V167.349H97.3447V168.849H91.1575V167.349H84.9702V168.849H78.7829V167.349H72.5957V168.849H66.4084V167.349H60.2211V168.849H57.1275C56.0887 168.849 55.1019 169.057 54.2031 169.434L53.6235 168.05Z" stroke="#626FF0" stroke-width="3" stroke-dasharray="6 6"/>
<circle cx="108.857" cy="227.08" r="20.2858" fill="#626FF0"/>
<circle cx="137.032" cy="198.905" r="10.1429" fill="#FF8C05"/>
<rect x="328" y="191.142" width="132" height="19.2167" rx="8" stroke="#626FF0" stroke-width="2"/>
<rect x="328" y="158.758" width="132" height="20.3333" rx="8" stroke="#626FF0" stroke-width="2"/>
<rect x="328" y="222.408" width="132" height="20.3333" rx="8" stroke="#626FF0" stroke-width="2"/>
<rect x="328" y="254.791" width="132" height="38.2" rx="8" stroke="#626FF0" stroke-width="2"/>
<rect x="412" y="304" width="49" height="14" rx="7" fill="#FF8C05"/>
<path d="M396.253 139.798C399.368 141.349 402.502 142.125 405.655 142.125C406.146 142.125 406.56 141.957 406.896 141.621C407.232 141.285 407.4 140.871 407.4 140.38V135.146C407.4 134.732 407.271 134.37 407.012 134.06C406.754 133.75 406.431 133.556 406.043 133.478L401.429 132.47C401.093 132.393 400.757 132.412 400.421 132.528C400.085 132.645 399.788 132.845 399.529 133.129L395.846 136.929C393.571 135.688 391.535 134.176 389.739 132.393C387.942 130.609 386.32 128.515 384.873 126.111L388.75 122.195C388.957 121.988 389.093 121.736 389.157 121.439C389.222 121.142 389.228 120.812 389.177 120.45L388.13 115.565C388.052 115.151 387.878 114.822 387.606 114.576C387.335 114.331 387.018 114.208 386.656 114.208H381.228C380.737 114.208 380.323 114.376 379.987 114.712C379.651 115.048 379.483 115.462 379.483 115.953C379.483 119.106 380.259 122.241 381.81 125.355C383.361 128.47 385.377 131.268 387.858 133.75C390.34 136.231 393.138 138.247 396.253 139.798Z" fill="#FF8C05"/>
<path d="M233 89H1.5V64L7 54C9.40047 50.2678 16.9502 48.4482 19 48L217.512 50L224.5 53L233 62V89Z" fill="#FF8C05"/>
<rect x="1.5" y="49.5" width="232" height="304" rx="18.5" stroke="#FF8C05" stroke-width="3"/>
<path d="M209.43 72.4102H137.5C136.12 72.4102 135 71.2902 135 69.9102C135 68.5302 136.12 67.4102 137.5 67.4102H209.43C210.81 67.4102 211.93 68.5302 211.93 69.9102C211.93 71.2902 210.82 72.4102 209.43 72.4102Z" fill="#1C0A4D"/>
<path d="M34.87 73.74C37.0073 73.74 38.74 72.0073 38.74 69.87C38.74 67.7327 37.0073 66 34.87 66C32.7327 66 31 67.7327 31 69.87C31 72.0073 32.7327 73.74 34.87 73.74Z" fill="#1C0A4D"/>
<path d="M47.85 73.74C49.9873 73.74 51.72 72.0073 51.72 69.87C51.72 67.7327 49.9873 66 47.85 66C45.7126 66 43.98 67.7327 43.98 69.87C43.98 72.0073 45.7126 73.74 47.85 73.74Z" fill="#1C0A4D"/>
<path d="M60.83 73.74C62.9673 73.74 64.7 72.0073 64.7 69.87C64.7 67.7327 62.9673 66 60.83 66C58.6926 66 56.96 67.7327 56.96 69.87C56.96 72.0073 58.6926 73.74 60.83 73.74Z" fill="#1C0A4D"/>
<path d="M509 89H277.5V64L283 54C285.4 50.2678 292.95 48.4482 295 48L493.512 50L500.5 53L509 62V89Z" fill="#FF8C05"/>
<rect x="277.5" y="49.5" width="232" height="304" rx="18.5" stroke="#FF8C05" stroke-width="3"/>
<path d="M485.43 72.4102H413.5C412.12 72.4102 411 71.2902 411 69.9102C411 68.5302 412.12 67.4102 413.5 67.4102H485.43C486.81 67.4102 487.93 68.5302 487.93 69.9102C487.93 71.2902 486.82 72.4102 485.43 72.4102Z" fill="#1C0A4D"/>
<path d="M310.87 73.74C313.007 73.74 314.74 72.0073 314.74 69.87C314.74 67.7327 313.007 66 310.87 66C308.733 66 307 67.7327 307 69.87C307 72.0073 308.733 73.74 310.87 73.74Z" fill="#1C0A4D"/>
<path d="M323.85 73.74C325.987 73.74 327.72 72.0073 327.72 69.87C327.72 67.7327 325.987 66 323.85 66C321.713 66 319.98 67.7327 319.98 69.87C319.98 72.0073 321.713 73.74 323.85 73.74Z" fill="#1C0A4D"/>
<path d="M336.83 73.74C338.967 73.74 340.7 72.0073 340.7 69.87C340.7 67.7327 338.967 66 336.83 66C334.693 66 332.96 67.7327 332.96 69.87C332.96 72.0073 334.693 73.74 336.83 73.74Z" fill="#1C0A4D"/>
<circle cx="255" cy="207" r="47" fill="#626FF0"/>
<path fill-rule="evenodd" clip-rule="evenodd" d="M230.08 200.853C226.347 200.853 223.286 203.848 223.286 207.5C223.286 211.152 226.349 214.147 230.08 214.147H248.789C249.876 214.147 250.758 215.009 250.758 216.073C250.758 217.137 249.876 218 248.789 218H230.08C224.174 218 219.348 213.281 219.348 207.5C219.348 201.72 224.172 197 230.08 197H248.789C254.695 197 259.522 201.719 259.522 207.5C259.522 208.564 258.64 209.427 257.552 209.427C256.465 209.427 255.583 208.564 255.583 207.5C255.583 203.848 252.52 200.853 248.789 200.853H230.08Z" fill="white"/>
<path fill-rule="evenodd" clip-rule="evenodd" d="M258.241 198.927C258.241 197.863 259.123 197 260.211 197H278.919C284.825 197 289.652 201.719 289.652 207.5C289.652 213.28 284.828 218 278.919 218H260.211C254.305 218 249.478 213.281 249.478 207.5C249.478 206.436 250.36 205.573 251.447 205.573C252.535 205.573 253.417 206.436 253.417 207.5C253.417 211.152 256.479 214.147 260.211 214.147H278.919C282.652 214.147 285.713 211.152 285.713 207.5C285.713 203.848 282.651 200.853 278.919 200.853H260.211C259.123 200.853 258.241 199.991 258.241 198.927Z" fill="white"/>
<defs>
<linearGradient id="paint0_linear_508_571" x1="470.57" y1="22.3657" x2="521.381" y2="73.6223" gradientUnits="userSpaceOnUse">
<stop offset="0.00520833" stop-color="#FF8C05"/>
<stop offset="0.739583" stop-color="#CE2726"/>
</linearGradient>
</defs>
</svg>
