<svg id="eqcGlReC8YN1" xmlns="http://www.w3.org/2000/svg" xmlns:xlink="http://www.w3.org/1999/xlink" viewBox="0 0 664 386" shape-rendering="geometricPrecision" text-rendering="geometricPrecision"><defs><linearGradient id="eqcGlReC8YN27-fill" x1="-50.43" y1="-14.6343" x2="0.381" y2="36.6223" spreadMethod="pad" gradientUnits="userSpaceOnUse" gradientTransform="translate(0 0)"><stop id="eqcGlReC8YN27-fill-0" offset="0.520833%" stop-color="#ff8c05"/><stop id="eqcGlReC8YN27-fill-1" offset="73.9583%" stop-color="#ce2726"/></linearGradient></defs><path id="eqcGlReC8YN2" d="M237.377,183.05c-1.079-.452-2.263-.701-3.504-.701h-3.094v3h3.094c.836,0,1.626.167,2.345.468l1.159-2.767Zm-124.156-.701v3h-3.093c-.837,0-1.627.167-2.345.468l-1.16-2.767c1.079-.452,2.263-.701,3.505-.701h3.093ZM101,270.536h3v2.926c0,.845.166,1.643.464,2.368l-2.776,1.139c-.443-1.08-.688-2.265-.688-3.507v-2.926ZM230.779,282.65v-3h3.094c.836,0,1.626-.167,2.345-.468l1.159,2.767c-1.079.452-2.263.701-3.504.701h-3.094ZM243,194.464h-3v-2.926c0-.845-.166-1.643-.463-2.368l2.775-1.139c.444,1.08.688,2.265.688,3.507v2.926Zm0,5.852h-3v5.851h3v-5.851Zm0,11.703h-3v5.852h3v-5.852Zm0,11.704h-3v5.851h3v-5.851Zm0,11.703h-3v5.852h3v-5.852Zm0,11.704h-3v5.851h3v-5.851Zm0,11.703h-3v5.852h3v-5.852Zm0,11.703h-3v2.926c0,.845-.166,1.643-.463,2.368l2.775,1.14c.444-1.081.688-2.266.688-3.508v-2.926ZM224.592,282.65v-3h-6.187v3h6.187Zm-12.375,0v-3h-6.187v3h6.187Zm-12.374,0v-3h-6.187v3h6.187Zm-12.375,0v-3h-6.187v3h6.187Zm-12.374,0v-3h-6.187v3h6.187Zm-12.375,0v-3h-6.187v3h6.187Zm-12.374,0v-3h-6.188v3h6.188Zm-12.375,0v-3h-6.187v3h6.187Zm-12.374,0v-3h-6.188v3h6.188Zm-12.375,0v-3h-3.093c-.837,0-1.627-.167-2.345-.468l-1.159,2.767c1.079.452,2.262.701,3.504.701h3.093ZM101,264.685h3v-5.852h-3v5.852Zm0-11.704h3v-5.852h-3v5.852Zm0-11.703h3v-5.852h-3v5.852Zm0-11.704h3v-5.851h-3v5.851Zm0-11.703h3v-5.852h-3v5.852Zm0-11.704h3v-5.851h-3v5.851Zm0-11.703h3v-2.926c0-.845.166-1.643.464-2.368l-2.776-1.139c-.443,1.08-.688,2.265-.688,3.507v2.926Zm18.408-12.115v3h6.188v-3h-6.188Zm12.375,0v3h6.187v-3h-6.187Zm12.374,0v3h6.188v-3h-6.188Zm12.375,0v3h6.187v-3h-6.187Zm12.375,0v3h6.187v-3h-6.187Zm12.374,0v3h6.187v-3h-6.187Zm12.375,0v3h6.187v-3h-6.187Zm12.374,0v3h6.187v-3h-6.187Zm12.375,0v3h6.187v-3h-6.187Z" transform="matrix(0 0 0 0 172 232.499496)" clip-rule="evenodd" fill="#626ff0" fill-rule="evenodd"/><path id="eqcGlReC8YN3" d="M182.143,242.08c0,11.203-9.082,20.285-20.286,20.285-11.203,0-20.286-9.082-20.286-20.285c0-11.204,9.083-20.286,20.286-20.286c11.204,0,20.286,9.082,20.286,20.286Z" transform="matrix(0 0 0 0 161.857002 242.079498)" fill="#626ff0"/><path id="eqcGlReC8YN4" d="M200.175,213.905c0,5.601-4.541,10.142-10.143,10.142s-10.143-4.541-10.143-10.142c0-5.602,4.541-10.143,10.143-10.143s10.143,4.541,10.143,10.143Z" transform="matrix(0 0 0 0 190.032005 213.904495)" fill="#ff8c05"/><rect id="eqcGlReC8YN5" width="132" height="19.2167" rx="8" ry="8" transform="translate(381 206.142)" opacity="0" fill="none" stroke="#626ff0" stroke-width="2"/><rect id="eqcGlReC8YN6" width="132" height="20.3333" rx="8" ry="8" transform="translate(381 173.758)" opacity="0" fill="none" stroke="#626ff0" stroke-width="2"/><rect id="eqcGlReC8YN7" width="132" height="20.3333" rx="8" ry="8" transform="translate(381 237.408)" opacity="0" fill="none" stroke="#626ff0" stroke-width="2"/><rect id="eqcGlReC8YN8" width="132" height="38.2" rx="8" ry="8" transform="translate(381 269.791)" opacity="0" fill="none" stroke="#626ff0" stroke-width="2"/><rect id="eqcGlReC8YN9" width="49" height="14" rx="7" ry="7" transform="matrix(0 0 0 0 489.5 326)" fill="#ff8c05"/><path id="eqcGlReC8YN10" d="M449.253,154.798c3.115,1.551,6.249,2.327,9.402,2.327.491,0,.905-.168,1.241-.504s.504-.75.504-1.241v-5.234c0-.414-.129-.776-.388-1.086-.258-.31-.581-.504-.969-.582l-4.614-1.008c-.336-.077-.672-.058-1.008.058-.336.117-.633.317-.892.601l-3.683,3.8c-2.275-1.241-4.311-2.753-6.107-4.536-1.797-1.784-3.419-3.878-4.866-6.282l3.877-3.916c.207-.207.343-.459.407-.756.065-.297.071-.627.02-.989l-1.047-4.885c-.078-.414-.252-.743-.524-.989-.271-.245-.588-.368-.95-.368h-5.428c-.491,0-.905.168-1.241.504s-.504.75-.504,1.241c0,3.153.776,6.288,2.327,9.402c1.551,3.115,3.567,5.913,6.048,8.395c2.482,2.481,5.28,4.497,8.395,6.048Z" transform="matrix(0 0 0 0 446.441498 143.166496)" fill="#ff8c05"/><path d="M286,104h-231.5v-25L60,69c2.4005-3.7322,9.9502-5.5518,12-6l198.512,2l6.988,3l8.5,9v27Z" fill="#ff8c05"/><rect width="232" height="304" rx="18.5" ry="18.5" transform="translate(54.5 64.5)" fill="none" stroke="#ff8c05" stroke-width="3"/><path d="M262.43,87.4102h-71.93c-1.38,0-2.5-1.12-2.5-2.5s1.12-2.5,2.5-2.5h71.93c1.38,0,2.5,1.12,2.5,2.5s-1.11,2.5-2.5,2.5Z" fill="#1c0a4d"/><path d="M87.87,88.74c2.1373,0,3.87-1.7327,3.87-3.87s-1.7327-3.87-3.87-3.87-3.87,1.7327-3.87,3.87s1.7327,3.87,3.87,3.87Z" fill="#1c0a4d"/><path d="M100.85,88.74c2.137,0,3.87-1.7327,3.87-3.87s-1.733-3.87-3.87-3.87c-2.1374,0-3.87,1.7327-3.87,3.87s1.7326,3.87,3.87,3.87Z" fill="#1c0a4d"/><path d="M113.83,88.74c2.137,0,3.87-1.7327,3.87-3.87s-1.733-3.87-3.87-3.87-3.87,1.7327-3.87,3.87s1.733,3.87,3.87,3.87Z" fill="#1c0a4d"/><path d="M562,104h-231.5v-25L336,69c2.4-3.7322,9.95-5.5518,12-6l198.512,2l6.988,3l8.5,9v27Z" fill="#ff8c05"/><rect width="232" height="304" rx="18.5" ry="18.5" transform="translate(330.5 64.5)" fill="none" stroke="#ff8c05" stroke-width="3"/><path d="M538.43,87.4102h-71.93c-1.38,0-2.5-1.12-2.5-2.5s1.12-2.5,2.5-2.5h71.93c1.38,0,2.5,1.12,2.5,2.5s-1.11,2.5-2.5,2.5Z" fill="#1c0a4d"/><path d="M363.87,88.74c2.137,0,3.87-1.7327,3.87-3.87s-1.733-3.87-3.87-3.87-3.87,1.7327-3.87,3.87s1.733,3.87,3.87,3.87Z" fill="#1c0a4d"/><path d="M376.85,88.74c2.137,0,3.87-1.7327,3.87-3.87s-1.733-3.87-3.87-3.87-3.87,1.7327-3.87,3.87s1.733,3.87,3.87,3.87Z" fill="#1c0a4d"/><path d="M389.83,88.74c2.137,0,3.87-1.7327,3.87-3.87s-1.733-3.87-3.87-3.87-3.87,1.7327-3.87,3.87s1.733,3.87,3.87,3.87Z" fill="#1c0a4d"/><circle id="eqcGlReC8YN23" r="47" transform="matrix(0 0 0 0 308 222)" fill="#626ff0"/><path id="eqcGlReC8YN24" d="M283.08,215.853c-3.733,0-6.794,2.995-6.794,6.647s3.063,6.647,6.794,6.647h18.709c1.087,0,1.969.862,1.969,1.926s-.882,1.927-1.969,1.927h-18.709c-5.906,0-10.732-4.719-10.732-10.5c0-5.78,4.824-10.5,10.732-10.5h18.709c5.906,0,10.733,4.719,10.733,10.5c0,1.064-.882,1.927-1.97,1.927-1.087,0-1.969-.863-1.969-1.927c0-3.652-3.063-6.647-6.794-6.647h-18.709Z" transform="matrix(0-1 1 0 28 514.934998)" opacity="0" clip-rule="evenodd" fill="#fff" fill-rule="evenodd"/><path id="eqcGlReC8YN25" d="M311.242,213.927c0-1.064.881-1.927,1.969-1.927h18.708c5.906,0,10.733,4.719,10.733,10.5c0,5.78-4.824,10.5-10.733,10.5h-18.708c-5.906,0-10.733-4.719-10.733-10.5c0-1.064.882-1.927,1.969-1.927c1.088,0,1.97.863,1.97,1.927c0,3.652,3.062,6.647,6.794,6.647h18.708c3.734,0,6.794-2.995,6.794-6.647s-3.062-6.647-6.794-6.647h-18.708c-1.088,0-1.969-.862-1.969-1.926Z" transform="matrix(0-1 1 0 165.602547 545.065002)" opacity="0" clip-rule="evenodd" fill="#fff" fill-rule="evenodd"/><g id="eqcGlReC8YN26" transform="matrix(0 0 0 0 574 52)"><circle r="37" transform="translate(574 52)" fill="url(#eqcGlReC8YN27-fill)"/><path d="M574.5,65.385c-1.097,0-2.182-.1167-3.255-.35s-2.077-.5483-3.01-.945c-.933-.42-1.715-.91-2.345-1.47l1.715-4.06c1.05.7467,2.147,1.3183,3.29,1.715s2.31.595,3.5.595c1.353,0,2.403-.315,3.15-.945.77-.6533,1.155-1.54,1.155-2.66s-.362-2.0183-1.085-2.695-1.715-1.015-2.975-1.015c-.887,0-1.715.1633-2.485.49-.747.3267-1.423.8283-2.03,1.505h-3.5v-15.225h15.75v4.445h-10.605v6.685h-1.26c.583-.7233,1.353-1.2833,2.31-1.68s2.03-.595,3.22-.595c1.587,0,2.963.3383,4.13,1.015c1.19.6533,2.112,1.575,2.765,2.765.653,1.1667.98,2.5433.98,4.13c0,1.6333-.385,3.08-1.155,4.34-.747,1.2367-1.832,2.205-3.255,2.905-1.4.7-3.068,1.05-5.005,1.05Z" fill="#fff"/></g>

</svg>
