<svg id="e7SqBKUdjEl1" xmlns="http://www.w3.org/2000/svg" xmlns:xlink="http://www.w3.org/1999/xlink" viewBox="0 0 200 130" shape-rendering="geometricPrecision" text-rendering="geometricPrecision"><defs><radialGradient id="e7SqBKUdjEl15-fill" cx="0" cy="0" r="35.6" spreadMethod="pad" gradientUnits="userSpaceOnUse" gradientTransform="translate(-29.165202 98.615406)"><stop id="e7SqBKUdjEl15-fill-0" offset="0%" stop-color="rgba(83,95,120,0.3)"/><stop id="e7SqBKUdjEl15-fill-1" offset="100%" stop-color="rgba(255,255,255,0)"/></radialGradient><radialGradient id="e7SqBKUdjEl16-fill" cx="0" cy="0" r="35.6" spreadMethod="pad" gradientUnits="userSpaceOnUse" gradientTransform="translate(-29.165202 98.615406)"><stop id="e7SqBKUdjEl16-fill-0" offset="0%" stop-color="rgba(83,95,120,0.3)"/><stop id="e7SqBKUdjEl16-fill-1" offset="100%" stop-color="rgba(255,255,255,0)"/></radialGradient><radialGradient id="e7SqBKUdjEl18-fill" cx="0" cy="0" r="35.6" spreadMethod="pad" gradientUnits="userSpaceOnUse" gradientTransform="translate(51.119487 82.350999)"><stop id="e7SqBKUdjEl18-fill-0" offset="0%" stop-color="rgba(83,95,120,0.6)"/><stop id="e7SqBKUdjEl18-fill-1" offset="100%" stop-color="rgba(255,255,255,0)"/></radialGradient><radialGradient id="e7SqBKUdjEl19-fill" cx="0" cy="0" r="35.6" spreadMethod="pad" gradientUnits="userSpaceOnUse" gradientTransform="translate(79.436175 84.195395)"><stop id="e7SqBKUdjEl19-fill-0" offset="0%" stop-color="rgba(83,95,120,0.6)"/><stop id="e7SqBKUdjEl19-fill-1" offset="100%" stop-color="rgba(255,255,255,0)"/></radialGradient><radialGradient id="e7SqBKUdjEl22-fill" cx="0" cy="0" r="18.99" spreadMethod="pad" gradientUnits="userSpaceOnUse" gradientTransform="translate(0 0)"><stop id="e7SqBKUdjEl22-fill-0" offset="0%" stop-color="#3e4c68"/><stop id="e7SqBKUdjEl22-fill-1" offset="100%" stop-color="rgba(230,250,255,0)"/></radialGradient><radialGradient id="e7SqBKUdjEl24-fill" cx="0" cy="0" r="18.99" spreadMethod="pad" gradientUnits="userSpaceOnUse" gradientTransform="translate(0 0)"><stop id="e7SqBKUdjEl24-fill-0" offset="0%" stop-color="#3e4c68"/><stop id="e7SqBKUdjEl24-fill-1" offset="100%" stop-color="rgba(230,250,255,0)"/></radialGradient><radialGradient id="e7SqBKUdjEl26-fill" cx="0" cy="0" r="18.99" spreadMethod="pad" gradientUnits="userSpaceOnUse" gradientTransform="translate(0 0)"><stop id="e7SqBKUdjEl26-fill-0" offset="0%" stop-color="#3e4c68"/><stop id="e7SqBKUdjEl26-fill-1" offset="100%" stop-color="rgba(230,250,255,0)"/></radialGradient><linearGradient id="e7SqBKUdjEl30-fill" x1="128.019976" y1="90.1" x2="111.029976" y2="97.14" spreadMethod="pad" gradientUnits="userSpaceOnUse" gradientTransform="translate(0 0)"><stop id="e7SqBKUdjEl30-fill-0" offset="0%" stop-color="#fff"/><stop id="e7SqBKUdjEl30-fill-1" offset="67%" stop-color="#d0ddeb"/><stop id="e7SqBKUdjEl30-fill-2" offset="100%" stop-color="#6390b8"/></linearGradient><linearGradient id="e7SqBKUdjEl30-stroke" x1="116.99" y1="112.06" x2="116.99" y2="75.02" spreadMethod="pad" gradientUnits="userSpaceOnUse" gradientTransform="translate(0 0)"><stop id="e7SqBKUdjEl30-stroke-0" offset="18%" stop-color="#628fb7"/><stop id="e7SqBKUdjEl30-stroke-1" offset="100%" stop-color="#cfdeef"/></linearGradient><radialGradient id="e7SqBKUdjEl31-fill" cx="0" cy="0" r="13.1" spreadMethod="pad" gradientUnits="userSpaceOnUse" gradientTransform="translate(117.869976 93.54)"><stop id="e7SqBKUdjEl31-fill-0" offset="0%" stop-color="#fff"/><stop id="e7SqBKUdjEl31-fill-1" offset="100%" stop-color="rgba(255,255,255,0.3)"/></radialGradient><linearGradient id="e7SqBKUdjEl32-fill" x1="120.419976" y1="111.7" x2="120.419976" y2="75.37" spreadMethod="pad" gradientUnits="userSpaceOnUse" gradientTransform="translate(0 0)"><stop id="e7SqBKUdjEl32-fill-0" offset="0%" stop-color="#9ab7d1"/><stop id="e7SqBKUdjEl32-fill-1" offset="29%" stop-color="#d0ddeb"/><stop id="e7SqBKUdjEl32-fill-2" offset="87%" stop-color="#fff"/><stop id="e7SqBKUdjEl32-fill-3" offset="100%" stop-color="#dfe8f1"/></linearGradient><linearGradient id="e7SqBKUdjEl32-stroke" x1="120.42" y1="112.06" x2="120.42" y2="75.02" spreadMethod="pad" gradientUnits="userSpaceOnUse" gradientTransform="translate(0 0)"><stop id="e7SqBKUdjEl32-stroke-0" offset="0%" stop-color="#628fb7"/><stop id="e7SqBKUdjEl32-stroke-1" offset="67%" stop-color="#cbdae9"/><stop id="e7SqBKUdjEl32-stroke-2" offset="100%" stop-color="#d1def0"/></linearGradient><linearGradient id="e7SqBKUdjEl44-fill" x1="128.019976" y1="90.1" x2="111.029976" y2="97.14" spreadMethod="pad" gradientUnits="userSpaceOnUse" gradientTransform="translate(0 0)"><stop id="e7SqBKUdjEl44-fill-0" offset="0%" stop-color="#fff"/><stop id="e7SqBKUdjEl44-fill-1" offset="67%" stop-color="#d0ddeb"/><stop id="e7SqBKUdjEl44-fill-2" offset="100%" stop-color="#6390b8"/></linearGradient><linearGradient id="e7SqBKUdjEl44-stroke" x1="116.99" y1="112.06" x2="116.99" y2="75.02" spreadMethod="pad" gradientUnits="userSpaceOnUse" gradientTransform="translate(0 0)"><stop id="e7SqBKUdjEl44-stroke-0" offset="18%" stop-color="#628fb7"/><stop id="e7SqBKUdjEl44-stroke-1" offset="100%" stop-color="#cfdeef"/></linearGradient><radialGradient id="e7SqBKUdjEl45-fill" cx="0" cy="0" r="13.1" spreadMethod="pad" gradientUnits="userSpaceOnUse" gradientTransform="translate(117.869976 93.54)"><stop id="e7SqBKUdjEl45-fill-0" offset="0%" stop-color="#fff"/><stop id="e7SqBKUdjEl45-fill-1" offset="100%" stop-color="rgba(255,255,255,0.3)"/></radialGradient><linearGradient id="e7SqBKUdjEl46-fill" x1="120.419976" y1="111.7" x2="120.419976" y2="75.37" spreadMethod="pad" gradientUnits="userSpaceOnUse" gradientTransform="translate(0 0)"><stop id="e7SqBKUdjEl46-fill-0" offset="0%" stop-color="#9ab7d1"/><stop id="e7SqBKUdjEl46-fill-1" offset="29%" stop-color="#d0ddeb"/><stop id="e7SqBKUdjEl46-fill-2" offset="87%" stop-color="#fff"/><stop id="e7SqBKUdjEl46-fill-3" offset="100%" stop-color="#dfe8f1"/></linearGradient><linearGradient id="e7SqBKUdjEl46-stroke" x1="120.42" y1="112.06" x2="120.42" y2="75.02" spreadMethod="pad" gradientUnits="userSpaceOnUse" gradientTransform="translate(0 0)"><stop id="e7SqBKUdjEl46-stroke-0" offset="0%" stop-color="#628fb7"/><stop id="e7SqBKUdjEl46-stroke-1" offset="67%" stop-color="#cbdae9"/><stop id="e7SqBKUdjEl46-stroke-2" offset="100%" stop-color="#d1def0"/></linearGradient><radialGradient id="e7SqBKUdjEl56-fill" cx="0" cy="0" r="32.46" spreadMethod="pad" gradientUnits="userSpaceOnUse" gradientTransform="translate(140.11 91.45)"><stop id="e7SqBKUdjEl56-fill-0" offset="0%" stop-color="#fff"/><stop id="e7SqBKUdjEl56-fill-1" offset="36%" stop-color="#f5f8fb"/><stop id="e7SqBKUdjEl56-fill-2" offset="67%" stop-color="#d0ddeb"/><stop id="e7SqBKUdjEl56-fill-3" offset="100%" stop-color="#6390b8"/></radialGradient><linearGradient id="e7SqBKUdjEl56-stroke" x1="140" y1="122" x2="140" y2="65.08" spreadMethod="pad" gradientUnits="userSpaceOnUse" gradientTransform="translate(0 0)"><stop id="e7SqBKUdjEl56-stroke-0" offset="0%" stop-color="#6390b8"/><stop id="e7SqBKUdjEl56-stroke-1" offset="100%" stop-color="#cfdeef"/></linearGradient><linearGradient id="e7SqBKUdjEl60-fill" x1="140" y1="109.12" x2="140" y2="96.32" spreadMethod="pad" gradientUnits="userSpaceOnUse" gradientTransform="translate(0 0)"><stop id="e7SqBKUdjEl60-fill-0" offset="0%" stop-color="#fff"/><stop id="e7SqBKUdjEl60-fill-1" offset="36%" stop-color="#f5f8fb"/><stop id="e7SqBKUdjEl60-fill-2" offset="67%" stop-color="#d0ddeb"/><stop id="e7SqBKUdjEl60-fill-3" offset="100%" stop-color="#9ab7d1"/></linearGradient><radialGradient id="e7SqBKUdjEl65-fill" cx="0" cy="0" r="18.5" spreadMethod="pad" gradientUnits="userSpaceOnUse" gradientTransform="translate(140.24 96.08)"><stop id="e7SqBKUdjEl65-fill-0" offset="0%" stop-color="#1d5896"/><stop id="e7SqBKUdjEl65-fill-1" offset="16%" stop-color="#184e89"/><stop id="e7SqBKUdjEl65-fill-2" offset="47%" stop-color="#0c3565"/><stop id="e7SqBKUdjEl65-fill-3" offset="88%" stop-color="#000d2d"/><stop id="e7SqBKUdjEl65-fill-4" offset="100%" stop-color="#00001b"/></radialGradient><radialGradient id="e7SqBKUdjEl71-fill" cx="0" cy="0" r="18.99" spreadMethod="pad" gradientUnits="userSpaceOnUse" gradientTransform="translate(0 0)"><stop id="e7SqBKUdjEl71-fill-0" offset="28%" stop-color="#3e4c68"/><stop id="e7SqBKUdjEl71-fill-1" offset="43%" stop-color="rgba(37,71,112,0.5)"/><stop id="e7SqBKUdjEl71-fill-2" offset="69%" stop-color="rgba(76,107,151,0.2)"/><stop id="e7SqBKUdjEl71-fill-3" offset="100%" stop-color="rgba(230,250,255,0)"/></radialGradient><radialGradient id="e7SqBKUdjEl72-fill" cx="0" cy="0" r="55.74" spreadMethod="pad" gradientUnits="userSpaceOnUse" gradientTransform="translate(142.389976 61.64)"><stop id="e7SqBKUdjEl72-fill-0" offset="0%" stop-color="#194272"/><stop id="e7SqBKUdjEl72-fill-1" offset="100%" stop-color="#000d28"/></radialGradient><radialGradient id="e7SqBKUdjEl73-fill" cx="0" cy="0" r="33.35" spreadMethod="pad" gradientUnits="userSpaceOnUse" gradientTransform="translate(140.099976 54.39)"><stop id="e7SqBKUdjEl73-fill-0" offset="0%" stop-color="#fff"/><stop id="e7SqBKUdjEl73-fill-1" offset="26%" stop-color="#f7f9fc"/><stop id="e7SqBKUdjEl73-fill-2" offset="67%" stop-color="#d0ddeb"/><stop id="e7SqBKUdjEl73-fill-3" offset="100%" stop-color="#8fafcc"/></radialGradient><linearGradient id="e7SqBKUdjEl74-stroke" x1="110.52" y1="47.4" x2="169.48" y2="47.4" spreadMethod="pad" gradientUnits="userSpaceOnUse" gradientTransform="translate(0 0)"><stop id="e7SqBKUdjEl74-stroke-0" offset="0%" stop-color="#e8eef5"/><stop id="e7SqBKUdjEl74-stroke-1" offset="40%" stop-color="#fff"/><stop id="e7SqBKUdjEl74-stroke-2" offset="60%" stop-color="#fff"/><stop id="e7SqBKUdjEl74-stroke-3" offset="100%" stop-color="#e8eef5"/></linearGradient><linearGradient id="e7SqBKUdjEl75-stroke" x1="170.660215" y1="48.57" x2="109.350215" y2="48.57" spreadMethod="pad" gradientUnits="userSpaceOnUse" gradientTransform="translate(0 0)"><stop id="e7SqBKUdjEl75-stroke-0" offset="1%" stop-color="#b4c7dc"/><stop id="e7SqBKUdjEl75-stroke-1" offset="10%" stop-color="#255b96"/><stop id="e7SqBKUdjEl75-stroke-2" offset="50%" stop-color="#d7e1ec"/><stop id="e7SqBKUdjEl75-stroke-3" offset="90%" stop-color="#255b96"/><stop id="e7SqBKUdjEl75-stroke-4" offset="99%" stop-color="#b4c7dc"/></linearGradient><linearGradient id="e7SqBKUdjEl77-fill" x1="140.010013" y1="75.307799" x2="140.010013" y2="55.142399" spreadMethod="pad" gradientUnits="userSpaceOnUse" gradientTransform="translate(0 0)"><stop id="e7SqBKUdjEl77-fill-0" offset="18%" stop-color="#fff"/><stop id="e7SqBKUdjEl77-fill-1" offset="57%" stop-color="#d6e1ee"/></linearGradient><radialGradient id="e7SqBKUdjEl78-fill" cx="0" cy="0" r="40.76" spreadMethod="pad" gradientUnits="userSpaceOnUse" gradientTransform="translate(140 58.7)"><stop id="e7SqBKUdjEl78-fill-0" offset="0%" stop-color="#1d5896"/><stop id="e7SqBKUdjEl78-fill-1" offset="16%" stop-color="#184e89"/><stop id="e7SqBKUdjEl78-fill-2" offset="47%" stop-color="#0c3565"/><stop id="e7SqBKUdjEl78-fill-3" offset="88%" stop-color="#000d2d"/><stop id="e7SqBKUdjEl78-fill-4" offset="100%" stop-color="#00001b"/></radialGradient><radialGradient id="e7SqBKUdjEl79-fill" cx="0" cy="0" r="40.88" spreadMethod="pad" gradientUnits="userSpaceOnUse" gradientTransform="translate(139.27921 60.207006)"><stop id="e7SqBKUdjEl79-fill-0" offset="0%" stop-color="#2a65a3"/><stop id="e7SqBKUdjEl79-fill-1" offset="51%" stop-color="#194272"/><stop id="e7SqBKUdjEl79-fill-2" offset="100%" stop-color="#000d28"/></radialGradient></defs><g id="e7SqBKUdjEl4" transform="translate(-39.812767 0)" opacity="0"><polygon id="e7SqBKUdjEl5" points="60.96,70.61 69.44,75.51 60.96,80.4 60.96,70.61" transform="translate(.02 37.769326)" fill="none" stroke="#9ab1eb" stroke-width="1.24888" stroke-miterlimit="10"/><circle id="e7SqBKUdjEl6" r="3.75" transform="translate(82.09 113.274326)" fill="none" stroke="#0055c6" stroke-width="1.24888" stroke-miterlimit="10"/><rect id="e7SqBKUdjEl7" width="8.79" height="8.79" rx="0" ry="0" transform="translate(78.592966 108.879326)" fill="none" stroke="#0055c6" stroke-width="1.24888" stroke-miterlimit="10"/><path id="e7SqBKUdjEl8" d="M45.79,88.41L55,97.57m-9.16,0L55,88.41" transform="translate(.02 20.284326)" fill="none" stroke="#5b78af" stroke-width="1.24888" stroke-miterlimit="10"/><polygon id="e7SqBKUdjEl9" points="198.8,87.42 195.38,96.6 205.04,94.96 198.8,87.42" transform="translate(.02 21.264326)" fill="none" stroke="#0055c6" stroke-width="1.24888" stroke-miterlimit="10"/><circle id="e7SqBKUdjEl10" r="4.88" transform="translate(229.35 113.274326)" fill="none" stroke="#5b78af" stroke-width="1.24888" stroke-miterlimit="10"/><path id="e7SqBKUdjEl11" d="M198.41,53.56l1.79,7.68m3-4.73l-7.69,1.79" transform="translate(5.645 55.874326)" fill="none" stroke="#0055c6" stroke-width="1.24888" stroke-miterlimit="10"/><polygon id="e7SqBKUdjEl12" points="215.53,79 209.37,77.24 209.13,70.83 215.15,68.63 219.11,73.68 215.53,79" transform="translate(.02 39.459326)" fill="none" stroke="#9ab1eb" stroke-width="1.24888" stroke-miterlimit="10"/></g><rect width="47.637919" height="46" rx="0" ry="0" transform="matrix(4.198336 0 0 0.584503 0.000005 103.373952)" fill="#fff"/><g transform="translate(-40-1.880005)"><ellipse rx="49.05" ry="9.02" transform="translate(140 121.81)" fill="url(#e7SqBKUdjEl15-fill)"/><ellipse rx="49.05" ry="9.02" transform="translate(140 121.81)" fill="url(#e7SqBKUdjEl16-fill)"/><g><ellipse rx="21.68" ry="12.13" transform="translate(109.79 119.75)" opacity="0.8" fill="url(#e7SqBKUdjEl18-fill)"/><ellipse rx="21.68" ry="12.13" transform="translate(170.21 119.75)" opacity="0.8" fill="url(#e7SqBKUdjEl19-fill)"/></g></g><g id="e7SqBKUdjEl20" transform="translate(-39.99882-6.880005)"><g transform="translate(.020046 5.261621)"><circle id="e7SqBKUdjEl22" r="18.99" transform="matrix(1.569486 0 0 0.580533 140 114.274326)" fill="url(#e7SqBKUdjEl22-fill)"/><g><circle id="e7SqBKUdjEl24" r="18.99" transform="matrix(.924397 0 0 0.341923 140 113.274326)" opacity="0.2" fill="url(#e7SqBKUdjEl24-fill)"/></g><g transform="matrix(-1 0 0 1 279.95991 0)"><circle id="e7SqBKUdjEl26" r="18.99" transform="matrix(.924397 0 0 0.341923 140 113.274326)" opacity="0.2" fill="url(#e7SqBKUdjEl26-fill)"/></g></g><g transform="matrix(-1 0 0 1 279.95991 0)"><g id="e7SqBKUdjEl28"><rect width="18.33" height="8.53" rx="0" ry="0" transform="matrix(-1 0 0-1 132.47 97.81)" fill="#3e4c68"/><path d="M118.53,111.73c-8.905077-10.491832-8.905077-25.888168,0-36.38l3.59.5v35.38Z" fill="url(#e7SqBKUdjEl30-fill)" stroke="url(#e7SqBKUdjEl30-stroke)" stroke-width="0.623" stroke-miterlimit="10"/><path d="M117.35,110.75v-34.42c.34-.45.68-.89,1.05-1.31v37c-.4-.38-.71-.83-1.05-1.27Z" opacity="0.5" fill="url(#e7SqBKUdjEl31-fill)"/><polygon points="118.71,75.37 122.12,75.85 122.12,111.23 118.71,111.7 118.71,75.37" fill="url(#e7SqBKUdjEl32-fill)" stroke="url(#e7SqBKUdjEl32-stroke)" stroke-width="0.623" stroke-miterlimit="10"/><g transform="matrix(.75 0 0 1 28.581645 0)"><line id="e7SqBKUdjEl34" x1="113.82" y1="93.54" x2="116.45" y2="93.54" transform="matrix(.534926 0.734355-.808291 0.588783 128.923471-38.606776)" opacity="0.902564" fill="none" stroke="#6a8aae" stroke-linecap="round" stroke-linejoin="round"/><line id="e7SqBKUdjEl35" x1="113.82" y1="93.54" x2="116.45" y2="93.54" transform="matrix(.59985-.013433 0.022389 0.999749 43.848477 1.572464)" opacity="0.8" fill="none" stroke="#6a8aae" stroke-linecap="round" stroke-linejoin="round"/><line id="e7SqBKUdjEl36" x1="113.82" y1="93.54" x2="116.45" y2="93.54" transform="matrix(.495484-.748457 0.833839 0.552008-20.220472 120.634309)" opacity="0.697436" fill="none" stroke="#6a8aae" stroke-linecap="round" stroke-linejoin="round"/><line id="e7SqBKUdjEl37" x1="113.82" y1="93.54" x2="116.45" y2="93.54" transform="matrix(.34202-.939693 0.939693 0.34202-13.716018 160.304277)" opacity="0" fill="none" stroke="#6a8aae" stroke-linecap="round" stroke-linejoin="round"/><line id="e7SqBKUdjEl38" x1="113.82" y1="93.54" x2="116.45" y2="93.54" transform="matrix(.34202-.939693 0.939693 0.34202-13.716018 160.304277)" opacity="0" fill="none" stroke="#6a8aae" stroke-linecap="round" stroke-linejoin="round"/><line id="e7SqBKUdjEl39" x1="113.82" y1="93.54" x2="116.45" y2="93.54" transform="matrix(.34202-.939693 0.939693 0.34202-13.716018 160.304277)" opacity="0" fill="none" stroke="#6a8aae" stroke-linecap="round" stroke-linejoin="round"/><line id="e7SqBKUdjEl40" x1="113.82" y1="93.54" x2="116.45" y2="93.54" transform="matrix(.34202-.939693 0.939693 0.34202-13.716018 160.304277)" opacity="0" fill="none" stroke="#6a8aae" stroke-linecap="round" stroke-linejoin="round"/></g></g></g><g><g id="e7SqBKUdjEl42"><rect width="18.33" height="8.53" rx="0" ry="0" transform="matrix(-1 0 0-1 132.47 97.81)" fill="#3e4c68"/><path d="M118.53,111.73c-8.905077-10.491832-8.905077-25.888168,0-36.38l3.59.5v35.38Z" fill="url(#e7SqBKUdjEl44-fill)" stroke="url(#e7SqBKUdjEl44-stroke)" stroke-width="0.623" stroke-miterlimit="10"/><path d="M117.35,110.75v-34.42c.34-.45.68-.89,1.05-1.31v37c-.4-.38-.71-.83-1.05-1.27Z" opacity="0.5" fill="url(#e7SqBKUdjEl45-fill)"/><polygon points="118.71,75.37 122.12,75.85 122.12,111.23 118.71,111.7 118.71,75.37" fill="url(#e7SqBKUdjEl46-fill)" stroke="url(#e7SqBKUdjEl46-stroke)" stroke-width="0.623" stroke-miterlimit="10"/><g transform="matrix(.75 0 0 1 28.581645 0)"><line id="e7SqBKUdjEl48" x1="113.82" y1="93.54" x2="116.45" y2="93.54" transform="matrix(.534926 0.734355-.808291 0.588783 128.923471-38.606776)" opacity="0.902564" fill="none" stroke="#6a8aae" stroke-linecap="round" stroke-linejoin="round"/><line id="e7SqBKUdjEl49" x1="113.82" y1="93.54" x2="116.45" y2="93.54" transform="matrix(.59985-.013433 0.022389 0.999749 43.848477 1.572464)" opacity="0.8" fill="none" stroke="#6a8aae" stroke-linecap="round" stroke-linejoin="round"/><line id="e7SqBKUdjEl50" x1="113.82" y1="93.54" x2="116.45" y2="93.54" transform="matrix(.495484-.748457 0.833839 0.552008-20.220472 120.634309)" opacity="0.697436" fill="none" stroke="#6a8aae" stroke-linecap="round" stroke-linejoin="round"/><line id="e7SqBKUdjEl51" x1="113.82" y1="93.54" x2="116.45" y2="93.54" transform="matrix(.34202-.939693 0.939693 0.34202-13.716018 160.304277)" opacity="0" fill="none" stroke="#6a8aae" stroke-linecap="round" stroke-linejoin="round"/><line id="e7SqBKUdjEl52" x1="113.82" y1="93.54" x2="116.45" y2="93.54" transform="matrix(.34202-.939693 0.939693 0.34202-13.716018 160.304277)" opacity="0" fill="none" stroke="#6a8aae" stroke-linecap="round" stroke-linejoin="round"/><line id="e7SqBKUdjEl53" x1="113.82" y1="93.54" x2="116.45" y2="93.54" transform="matrix(.34202-.939693 0.939693 0.34202-13.716018 160.304277)" opacity="0" fill="none" stroke="#6a8aae" stroke-linecap="round" stroke-linejoin="round"/><line id="e7SqBKUdjEl54" x1="113.82" y1="93.54" x2="116.45" y2="93.54" transform="matrix(.34202-.939693 0.939693 0.34202-13.716018 160.304277)" opacity="0" fill="none" stroke="#6a8aae" stroke-linecap="round" stroke-linejoin="round"/></g></g></g><g id="e7SqBKUdjEl55"><path d="M140,121.69c-8.166534.01232-15.935613-3.523724-21.29-9.69v-36.87c5.345276-6.184509,13.115642-9.739035,21.29-9.739035s15.944724,3.554526,21.29,9.739035v36.87c-5.354387,6.166276-13.123466,9.70232-21.29,9.69Z" fill="url(#e7SqBKUdjEl56-fill)" stroke="url(#e7SqBKUdjEl56-stroke)" stroke-width="0.623" stroke-miterlimit="10"/><g><g><g><path d="M147.67,96.33c-5.058444,1.026552-10.271556,1.026552-15.33,0-1.63-.19-5.38,2.82-6.27,4.5v2.09c.941709,1.795066,2.233853,3.383043,3.8,4.67c1.21,1,5.35,1.53,10.13,1.53s8.93-.56,10.14-1.53c1.566147-1.286957,2.858291-2.874934,3.8-4.67v-2.09c-.89-1.68-4.64-4.69-6.27-4.5Z" fill="url(#e7SqBKUdjEl60-fill)" fill-rule="evenodd"/></g><path style="mix-blend-mode:multiply" d="M161.6,100.1c-.88.69-5,1.65-7.66,1.8l-.67-.65v-1.08l.67.66c2.69-.15,6.78-1.11,7.66-1.8Z" opacity="0.5" fill="#255b96" fill-rule="evenodd"/><path d="M161.6,101.12c-.88.69-5,1.65-7.66,1.8l-.67-.65v-1l.67.65c2.68-.15,6.78-1.11,7.66-1.8Z" opacity="0.5" fill="#fff" fill-rule="evenodd"/><path style="mix-blend-mode:multiply" d="M118.41,100.1c.88.69,5,1.65,7.66,1.8l.67-.65v-1.08l-.67.66c-2.69-.15-6.78-1.11-7.66-1.8Z" opacity="0.5" fill="#255b96" fill-rule="evenodd"/><path d="M118.41,101.12c.88.69,5,1.65,7.66,1.8l.67-.65v-1l-.67.65c-2.68-.15-6.78-1.11-7.66-1.8Z" opacity="0.5" fill="#fff" fill-rule="evenodd"/></g><path d="M147.61,96.33c-5.029472.906591-10.180528.906591-15.21,0-1.55-.16-5,2.65-5.66,3.85v2.09c.913165,1.569073,2.142498,2.931215,3.61,4c1.16.86,5.1,1.36,9.65,1.36s8.5-.5,9.66-1.36c1.467502-1.068785,2.696835-2.430927,3.61-4v-2.09c-.66-1.18-4.11-4.01-5.66-3.85Z" fill="url(#e7SqBKUdjEl65-fill)" fill-rule="evenodd"/><g><circle id="e7SqBKUdjEl67" r="1.38" transform="matrix(.5 0 0 0.5 146.64 101.97)" opacity="0.2" fill="#5af3ff"/><circle id="e7SqBKUdjEl68" r="1.38" transform="matrix(.5 0 0 0.5 133.37 101.97)" opacity="0.2" fill="#5af3ff"/><circle id="e7SqBKUdjEl69" r="1.38" transform="matrix(.5 0 0 0.5 140 102.23)" opacity="0.2" fill="#5af3ff"/></g></g><g id="e7SqBKUdjEl70" transform="translate(0 3.000001)"><circle id="e7SqBKUdjEl71" r="18.99" transform="matrix(1.569486 0 0 0.580533 140 80.088528)" fill="url(#e7SqBKUdjEl71-fill)"/><path d="M168.89,60.1c0,0,5.08,1.15,4.42,4.67s-5.87,2.29-5.87,2.29h-54.88c0,0-5.21,1.23-5.87-2.29s4.42-4.67,4.42-4.67Z" fill="url(#e7SqBKUdjEl72-fill)"/><path d="M140,84.85c-13.89,0-24.55-7.64-27.89-15.18-3.43-7.75-3-13.59-2.92-14.23c2.15-12.53,14.24-20.63,30.81-20.63s28.66,8.1,30.81,20.64c.06.63.51,6.47-2.92,14.22-3.34,7.54-14,15.18-27.89,15.18Z" fill="url(#e7SqBKUdjEl73-fill)" stroke="#b4c7dc" stroke-width="0.622674" stroke-miterlimit="10"/><path id="e7SqBKUdjEl74" d="M169.17,51.52c0,0-4.1-8.24-29.17-8.24s-29.17,8.24-29.17,8.24" transform="matrix(1 0 0 0.84048 0 8.535502)" fill="none" stroke="url(#e7SqBKUdjEl74-stroke)" stroke-width="0.622674" stroke-linecap="round" stroke-linejoin="round"/><path id="e7SqBKUdjEl75" d="M170.37,53.46c0,0-4-9.58-30.37-9.58s-30.37,9.58-30.37,9.58" transform="matrix(1 0 0 0.84048 0 8.531344)" fill="none" stroke="url(#e7SqBKUdjEl75-stroke)" stroke-width="0.622674" stroke-miterlimit="10"/><g id="e7SqBKUdjEl76" transform="translate(0 2)"><path d="M140,70.77c-3.62,0-5,3.6-11.2,4.29-7.85.86-14.37-4.69-14.37-11.2-.138579-4.605601,3.401403-8.490732,8-8.78c5.35-.35,11.56,1,17.52,1s12.18-1.36,17.53-1c4.618426.263378,8.187507,4.156114,8.05,8.78c0,6.51-6.52,12.06-14.37,11.2-6.16-.69-7.53-4.29-11.16-4.29Z" fill="url(#e7SqBKUdjEl77-fill)"/><path d="M140,56.75c-6.85,0-8.38-.8-16.76-.8-2.229138.066528-4.336656,1.031601-5.843355,2.675786s-2.284534,3.827753-2.156645,6.054214c.49,4.71,5.62,9.34,11.66,9.52s8.1-4.72,13.1-4.72s7.1,4.9,13.14,4.72s11.17-4.81,11.66-9.52c.127889-2.226461-.649947-4.410029-2.156645-6.054214s-3.614217-2.609258-5.843355-2.675786c-8.41.05-9.94.8-16.8.8Z" fill="url(#e7SqBKUdjEl78-fill)"/><path d="M140,58.28c-6.67,0-8.15-.9-16.31-.9-4.31,0-8.36,3.92-7.92,8s5,8.2,10.86,8.36s7.81-4.65,13.37-4.65s7.5,4.81,13.38,4.65s10.4-4.14,10.86-8.36-3.61-8-7.92-8c-8.16,0-9.64.9-16.32.9Z" fill="url(#e7SqBKUdjEl79-fill)"/><g id="e7SqBKUdjEl80"><path id="e7SqBKUdjEl81" d="M-2.3,0c0-1.270255,1.029745-2.3,2.3-2.3s2.3,1.029745,2.3,2.3-1.029745,2.3-2.3,2.3-2.3-1.029745-2.3-2.3Z" transform="translate(153.79 65.210567)" fill="#5af3ff"/><path id="e7SqBKUdjEl82" d="M-2.3,0c0-1.270255,1.029745-2.3,2.3-2.3s2.3,1.029745,2.3,2.3-1.029745,2.3-2.3,2.3-2.3-1.029745-2.3-2.3Z" transform="translate(127.12 65.210567)" fill="#5af3ff"/></g></g></g></g></g>
</svg>
