<svg id="eXHb9NmE6Tq1" xmlns="http://www.w3.org/2000/svg" xmlns:xlink="http://www.w3.org/1999/xlink" viewBox="0 0 664 386" shape-rendering="geometricPrecision" text-rendering="geometricPrecision"><defs><linearGradient id="eXHb9NmE6Tq29-fill" x1="-50.43" y1="-14.6343" x2="0.381" y2="36.6223" spreadMethod="pad" gradientUnits="userSpaceOnUse" gradientTransform="translate(0 0)"><stop id="eXHb9NmE6Tq29-fill-0" offset="0.520833%" stop-color="#ff8c05"/><stop id="eXHb9NmE6Tq29-fill-1" offset="73.9583%" stop-color="#ce2726"/></linearGradient></defs><path d="M570,108h-511.5v-29.5l2.5-9c5.2697-4.2586,8-5.4886,12.5-6h462.5h22.5L570,72v36Z" fill="#ff8c05"/><path d="M522.43,90.4102h-71.93c-1.38,0-2.5-1.12-2.5-2.5s1.12-2.5,2.5-2.5h71.93c1.38,0,2.5,1.12,2.5,2.5s-1.11,2.5-2.5,2.5Z" fill="#1c0a4d"/><path d="M90.87,91.74c2.1373,0,3.87-1.7327,3.87-3.87s-1.7327-3.87-3.87-3.87-3.87,1.7327-3.87,3.87s1.7327,3.87,3.87,3.87Z" fill="#1c0a4d"/><path d="M103.85,91.74c2.137,0,3.87-1.7327,3.87-3.87s-1.733-3.87-3.87-3.87-3.87,1.7327-3.87,3.87s1.733,3.87,3.87,3.87Z" fill="#1c0a4d"/><path d="M116.83,91.74c2.137,0,3.87-1.7327,3.87-3.87s-1.733-3.87-3.87-3.87-3.87,1.7327-3.87,3.87s1.733,3.87,3.87,3.87Z" fill="#1c0a4d"/><path d="M573,107h-517v3h517v-3Z" fill="#ff8c05"/><g transform="translate(.000001 0.000001)"><g id="eXHb9NmE6Tq9" transform="matrix(0 0 0 0 411.737 183.0915)"><g transform="translate(.000001 0.000001)"><path d="M416.331,162.947c-5.934-7.824-17.055-9.34-24.879-3.428s-9.341,17.055-3.429,24.879c5.934,7.824,17.055,9.34,24.879,3.428c7.802-5.912,9.341-17.054,3.429-24.879Zm-6.835,20.396c-5.341,4.044-12.945,3.011-17.011-2.33-4.044-5.34-3.011-12.945,2.33-17.011c5.34-4.044,12.944-3.011,17.01,2.33c4.066,5.363,3.011,12.967-2.329,17.011Z" fill="#ff8c05"/><path d="M413.161,185.408l-2.732,2.071l2.828,3.731l2.732-2.072-2.828-3.73Z" fill="#ff8c05"/><path d="M434.198,213.365l-2.506,1.89c-1.011.77-2.439.572-3.208-.439l-15.539-20.505c-.769-1.011-.571-2.44.44-3.209l2.505-1.89c1.011-.769,2.44-.572,3.209.439l15.538,20.506c.748,1.011.55,2.439-.439,3.208Z" transform="translate(0 0.000039)" fill="#ff8c05"/><path d="M434.726,210.288l-.857-1.121-5.934,4.945.637.836c.726.967,2.11,1.142,3.077.417l2.66-2.022c.967-.725,1.142-2.088.417-3.055Z" fill="#ff8c05"/><path d="M412.88,194.244l1.187,1.583l5.934-4.945-.967-1.297c-.725-.967-2.11-1.143-3.077-.418l-2.659,2.022c-.967.704-1.143,2.088-.418,3.055Z" fill="#ff8c05"/></g><path d="M487.846,240.047h-8.725v-4.396h8.659l.066,4.396Zm-17.384,0h-8.659v-4.396h8.659v4.396Zm-17.319,0h-8.659v-4.396h8.659v4.396Zm-17.318,0h-8.66v-4.396h8.66v4.396Zm-17.319,0h-8.659v-4.396h8.659v4.396Zm-17.318,0h-8.66v-4.396h8.66v4.396Zm-17.319,0h-8.659v-4.396h8.659v4.396Zm-17.318,0h-8.66v-4.396h8.66v4.396Zm-17.319,0h-8.659v-4.396h8.659v4.396Zm-18.373-1.582c-2.11-1.539-3.363-4.022-3.363-6.616v-3.011h4.395v3.011c0,1.231.572,2.352,1.561,3.077l-2.593,3.539Zm165.053-5.649l-4.373-.505c.022-.154.022-.308.022-.462v-7.934h4.395v7.934c.022.33,0,.66-.044.967ZM331.913,220.179h-4.395v-8.659h4.395v8.659Zm164.065-4.923h-4.395v-8.659h4.395v8.659ZM331.913,202.86h-4.395v-8.659h4.395v8.659Zm164.065-4.923h-4.395v-8.659h4.395v8.659ZM331.913,185.542h-4.395v-8.659h4.395v8.659Zm164.065-4.923h-4.395v-8.659h4.395v8.659ZM331.913,168.223h-4.395v-8.659h4.395v8.659ZM495.978,163.3h-4.395v-8.659h4.395v8.659ZM331.913,150.905h-4.395v-8.659h4.395v8.659Zm164.065-4.923h-4.395v-8.66h4.395v8.66Zm-164.043-12.11l-4.351-.549c.505-4.066,4-7.165,8.088-7.187l.022,4.395c-1.912.022-3.517,1.451-3.759,3.341ZM490,131.257c-.659-.462-1.428-.726-2.242-.726h-4.901v-4.395h4.901c1.737,0,3.407.549,4.814,1.56L490,131.257Zm-15.78-.726h-8.659v-4.395h8.659v4.395Zm-17.318,0h-8.66v-4.395h8.66v4.395Zm-17.319,0h-8.659v-4.395h8.659v4.395Zm-17.319,0h-8.659v-4.395h8.659v4.395Zm-17.318,0h-8.659v-4.395h8.659v4.395Zm-17.319,0h-8.659v-4.395h8.659v4.395Zm-17.318,0h-8.66v-4.395h8.66v4.395Zm-17.319,0h-8.659v-4.395h8.659v4.395Z" fill="#626ff0"/></g></g><path id="eXHb9NmE6Tq17" d="M285.057,274.2h-109.999v10.989h109.999v-10.989Z" transform="matrix(0 0 0 1 175.058 0)" fill="#626ff0"/><path id="eXHb9NmE6Tq18" d="M301.409,301.585h-126.351v10.989h126.351v-10.989Z" transform="matrix(0 0 0 1 175.058 0)" fill="#626ff0"/><path id="eXHb9NmE6Tq19" d="M267.475,329.805h-92.417v10.989h92.417v-10.989Z" transform="matrix(0 0 0 1 175.058 0)" fill="#626ff0"/><path id="eXHb9NmE6Tq20" d="M150.244,285.585c3.545,0,6.418-2.873,6.418-6.417c0-3.545-2.873-6.418-6.418-6.418-3.544,0-6.417,2.873-6.417,6.418c0,3.544,2.873,6.417,6.417,6.417Z" transform="matrix(0 0 0 0 150.244499 279.167496)" fill="#626ff0"/><path id="eXHb9NmE6Tq21" d="M150.244,313.629c3.545,0,6.418-2.873,6.418-6.418c0-3.544-2.873-6.417-6.418-6.417-3.544,0-6.417,2.873-6.417,6.417c0,3.545,2.873,6.418,6.417,6.418Z" transform="matrix(0 0 0 0 150.244499 307.211502)" fill="#626ff0"/><path id="eXHb9NmE6Tq22" d="M150.244,340.574c3.545,0,6.418-2.873,6.418-6.418c0-3.544-2.873-6.417-6.418-6.417-3.544,0-6.417,2.873-6.417,6.417c0,3.545,2.873,6.418,6.417,6.418Z" transform="matrix(0 0 0 0 150.244499 334.156509)" fill="#626ff0"/><path id="eXHb9NmE6Tq23" d="M295.189,237.849h-152.043c-3.318,0-6.021-2.682-6.021-6.022v-97.494c0-3.319,2.681-6.022,6.021-6.022h152.043c3.319,0,6.022,2.681,6.022,6.022v97.494c-.022,3.34-2.703,6.022-6.022,6.022Z" transform="matrix(0 0 0 0 219.167999 183.080002)" fill="#626ff0"/><g id="eXHb9NmE6Tq24" transform="matrix(0 0 0 0 411.748001 308.573502)"><path d="M487.846,350.793h-8.923v-4.395h8.857l.066,4.395Zm-17.78,0h-8.857v-4.395h8.857v4.395Zm-17.692,0h-8.857v-4.395h8.857v4.395Zm-17.692,0h-8.857v-4.395h8.857v4.395Zm-17.714,0h-8.857v-4.395h8.857v4.395Zm-17.692,0h-8.858v-4.395h8.858v4.395Zm-17.693,0h-8.857v-4.395h8.857v4.395Zm-17.692,0h-8.857v-4.395h8.857v4.395Zm-17.714,0h-8.857v-4.395h8.857v4.395Zm-18.132-5.252c-.373-.945-.549-1.934-.549-2.967v-6.638h4.395v6.638c0,.483.088.945.242,1.362l-4.088,1.605Zm167.911-2.242l-4.373-.374c0-.11.022-.219.022-.329v-8.33h4.395v8.33c-.022.219-.044.461-.044.703ZM331.913,327.101h-4.395v-8.857h4.395v8.857Zm164.065-1.692h-4.395v-8.857h4.395v8.857Zm-164.065-16h-4.395v-8.857h4.395v8.857Zm164.065-1.692h-4.395v-8.857h4.395v8.857ZM331.913,291.695h-4.395v-8.857h4.395v8.857Zm164.065-1.692h-4.395v-8.857h4.395v8.857ZM331.913,274.201l-4.373-.396c.395-4.22,3.89-7.429,8.132-7.451l.022,4.396c-1.978.022-3.583,1.495-3.781,3.451Zm159.406-1.033c-.572-1.473-1.978-2.418-3.561-2.418h-1.648v-4.396h1.648c3.407,0,6.396,2.044,7.649,5.209l-4.088,1.605Zm-14.044-2.418h-8.857v-4.396h8.857v4.396Zm-17.714,0h-8.857v-4.396h8.857v4.396Zm-17.692,0h-8.857v-4.396h8.857v4.396Zm-17.692,0h-8.858v-4.396h8.858v4.396Zm-17.693,0h-8.857v-4.396h8.857v4.396Zm-17.714,0h-8.857v-4.396h8.857v4.396Zm-17.692,0h-8.857v-4.396h8.857v4.396Zm-17.692,0h-8.857v-4.396h8.857v4.396Z" fill="#626ff0"/><path d="M420.066,326.245c0,1.34,0,2.527,0,3.824-5.385,0-10.681,0-16.088,0c0-1.253,0-2.484,0-3.824.484-.022.945-.066,1.385-.088c3.033-.066,4.637-1.671,4.637-4.704.022-7.802,0-15.626,0-23.428c0-1.473,0-2.967,0-4.462-2.242,0-4.374-.175-6.461.066-1.473.154-2.308,1.385-2.792,2.814-1.164,3.318-1.186,3.296-4.615,3.011-.088,0-.176-.066-.352-.132c0-3.253,0-6.528,0-9.868c10.835,0,21.583,0,32.462,0c0,3.296,0,6.571,0,10.043-1.143,0-2.242.044-3.319-.021-.286-.022-.571-.352-.835-.55-.066-.044-.066-.176-.088-.264-1.275-5.824-3.626-5.538-10-5.099c0,.528,0,1.055,0,1.605c0,8.593,0,17.209,0,25.802c0,3.692,1.407,5.099,5.121,5.209.264,0,.527.044.945.066Z" fill="#ff8c05"/></g><rect width="514" height="304" rx="18.5" ry="18.5" transform="translate(57.5 62.5)" fill="none" stroke="#ff8c05" stroke-width="3"/><g id="eXHb9NmE6Tq28" transform="matrix(0 0 0 0 572 54.999996)"><circle r="37" transform="translate(572 55)" fill="url(#eXHb9NmE6Tq29-fill)"/><path d="M565.535,68v-4.48h5.6v-15.645h2.555l-7.56,4.41v-5.11l6.58-3.85h3.885v20.195h5.25v4.48h-16.31Z" fill="#fff"/></g>
</svg>
