<svg width="517" height="307" viewBox="0 0 517 307" fill="none" xmlns="http://www.w3.org/2000/svg">
<path d="M514 47H2.5V17.5L5 8.5C10.2697 4.24141 13 3.01143 17.5 2.5H480H502.5L514 11V47Z" fill="#FF8C05"/>
<path d="M466.43 29.4102H394.5C393.12 29.4102 392 28.2902 392 26.9102C392 25.5302 393.12 24.4102 394.5 24.4102H466.43C467.81 24.4102 468.93 25.5302 468.93 26.9102C468.93 28.2902 467.82 29.4102 466.43 29.4102Z" fill="#1C0A4D"/>
<path d="M34.87 30.74C37.0073 30.74 38.74 29.0073 38.74 26.87C38.74 24.7327 37.0073 23 34.87 23C32.7327 23 31 24.7327 31 26.87C31 29.0073 32.7327 30.74 34.87 30.74Z" fill="#1C0A4D"/>
<path d="M47.85 30.74C49.9873 30.74 51.72 29.0073 51.72 26.87C51.72 24.7327 49.9873 23 47.85 23C45.7126 23 43.98 24.7327 43.98 26.87C43.98 29.0073 45.7126 30.74 47.85 30.74Z" fill="#1C0A4D"/>
<path d="M60.83 30.74C62.9673 30.74 64.7 29.0073 64.7 26.87C64.7 24.7327 62.9673 23 60.83 23C58.6926 23 56.96 24.7327 56.96 26.87C56.96 29.0073 58.6926 30.74 60.83 30.74Z" fill="#1C0A4D"/>
<path d="M517 46H0V49H517V46Z" fill="#FF8C05"/>
<rect x="1.5" y="1.5" width="514" height="304" rx="18.5" stroke="#FF8C05" stroke-width="3"/>
<rect x="70.5" y="163.903" width="200.733" height="116.693" rx="7.5" stroke="#626FF0" stroke-width="3" stroke-dasharray="6 6"/>
<path d="M113.745 234.983H99.3822C98.074 234.983 97.0134 236.012 97.0134 237.28V251.787C97.0134 253.055 98.074 254.083 99.3822 254.083H113.745C115.053 254.083 116.113 253.055 116.113 251.787V237.28C116.113 236.012 115.053 234.983 113.745 234.983Z" fill="#626FF0"/>
<path d="M139.211 223.523H124.849C123.541 223.523 122.48 224.565 122.48 225.849V251.758C122.48 253.042 123.541 254.083 124.849 254.083H139.211C140.519 254.083 141.58 253.042 141.58 251.758V225.849C141.58 224.565 140.519 223.523 139.211 223.523Z" fill="#FF8C05"/>
<path d="M164.678 224.797H150.316C149.007 224.797 147.947 225.859 147.947 227.169V251.711C147.947 253.021 149.007 254.084 150.316 254.084H164.678C165.986 254.084 167.047 253.021 167.047 251.711V227.169C167.047 225.859 165.986 224.797 164.678 224.797Z" fill="#626FF0"/>
<path d="M190.145 224.797H175.782C174.474 224.797 173.413 225.858 173.413 227.166V251.714C173.413 253.023 174.474 254.084 175.782 254.084H190.145C191.453 254.084 192.513 253.023 192.513 251.714V227.166C192.513 225.858 191.453 224.797 190.145 224.797Z" fill="#626FF0"/>
<path d="M215.611 219.703H201.249C199.94 219.703 198.88 220.763 198.88 222.071V251.715C198.88 253.023 199.94 254.083 201.249 254.083H215.611C216.919 254.083 217.98 253.023 217.98 251.715V222.071C217.98 220.763 216.919 219.703 215.611 219.703Z" fill="#626FF0"/>
<path d="M241.078 212.063H226.715C225.407 212.063 224.347 213.117 224.347 214.417V251.73C224.347 253.03 225.407 254.083 226.715 254.083H241.078C242.386 254.083 243.447 253.03 243.447 251.73V214.417C243.447 213.117 242.386 212.063 241.078 212.063Z" fill="#FF8C05"/>
<rect x="248.767" y="68.4033" width="200.733" height="116.693" rx="7.5" stroke="#626FF0" stroke-width="3" stroke-dasharray="6 6"/>
<path d="M302.361 146.533C301.8 146.533 301.231 146.317 300.808 145.877C299.981 145.023 300.006 143.661 300.86 142.833L321.557 122.8C322.411 121.972 323.782 121.998 324.61 122.852C325.438 123.705 325.412 125.068 324.558 125.896L303.861 145.929C303.439 146.334 302.904 146.533 302.361 146.533Z" fill="#626FF0"/>
<path d="M358.916 143.886C358.424 143.886 357.924 143.722 357.519 143.377L337.304 126.233C336.399 125.465 336.287 124.103 337.054 123.197C337.822 122.292 339.184 122.18 340.09 122.947L360.304 140.091C361.21 140.859 361.322 142.221 360.554 143.127C360.132 143.627 359.519 143.886 358.907 143.886H358.916Z" fill="#626FF0"/>
<path d="M375.405 141.833C374.956 141.833 374.508 141.695 374.12 141.41C373.162 140.703 372.964 139.349 373.671 138.392L395.395 109.088C396.102 108.131 397.456 107.933 398.413 108.64C399.37 109.347 399.568 110.701 398.861 111.658L377.138 140.962C376.715 141.531 376.06 141.833 375.405 141.833Z" fill="#626FF0"/>
<path d="M296.091 160.606C290.236 160.606 285.467 155.838 285.467 149.982C285.467 144.126 290.236 139.357 296.091 139.357C301.947 139.357 306.716 144.126 306.716 149.982C306.716 155.838 301.947 160.606 296.091 160.606ZM296.091 143.669C292.607 143.669 289.779 146.498 289.779 149.982C289.779 153.466 292.607 156.295 296.091 156.295C299.575 156.295 302.404 153.466 302.404 149.982C302.404 146.498 299.567 143.669 296.091 143.669Z" fill="#FF8C05"/>
<path d="M331.027 130.122C324.981 130.122 320.066 125.206 320.066 119.161C320.066 113.116 324.981 108.2 331.027 108.2C337.072 108.2 341.987 113.116 341.987 119.161C341.987 125.206 337.072 130.122 331.027 130.122ZM331.027 112.512C327.361 112.512 324.378 115.496 324.378 119.161C324.378 122.826 327.361 125.81 331.027 125.81C334.692 125.81 337.675 122.826 337.675 119.161C337.675 115.496 334.692 112.512 331.027 112.512Z" fill="#FF8C05"/>
<path d="M367.867 157.459C361.882 157.459 357.019 152.586 357.019 146.61C357.019 140.634 361.891 135.761 367.867 135.761C373.844 135.761 378.716 140.634 378.716 146.61C378.716 152.586 373.844 157.459 367.867 157.459ZM367.867 140.065C364.263 140.065 361.33 142.997 361.33 146.601C361.33 150.206 364.263 153.138 367.867 153.138C371.472 153.138 374.404 150.206 374.404 146.601C374.404 142.997 371.472 140.065 367.867 140.065Z" fill="#FF8C05"/>
<path d="M402.501 114.409C408.287 114.409 412.979 109.761 412.979 104.026C412.979 98.2913 408.287 93.6431 402.501 93.6431C396.714 93.6431 392.023 98.2913 392.023 104.026C392.023 109.761 396.714 114.409 402.501 114.409Z" fill="#FF8C05"/>
</svg>
