<svg width="558" height="354" viewBox="0 0 558 354" fill="none" xmlns="http://www.w3.org/2000/svg">
<path d="M514 94H2.5V64.5L5 55.5C10.2697 51.2414 13 50.0114 17.5 49.5H480H502.5L514 58V94Z" fill="#FF8C05"/>
<path d="M466.43 76.4102H394.5C393.12 76.4102 392 75.2902 392 73.9102C392 72.5302 393.12 71.4102 394.5 71.4102H466.43C467.81 71.4102 468.93 72.5302 468.93 73.9102C468.93 75.2902 467.82 76.4102 466.43 76.4102Z" fill="#1C0A4D"/>
<path d="M34.87 77.74C37.0073 77.74 38.74 76.0073 38.74 73.87C38.74 71.7327 37.0073 70 34.87 70C32.7327 70 31 71.7327 31 73.87C31 76.0073 32.7327 77.74 34.87 77.74Z" fill="#1C0A4D"/>
<path d="M47.85 77.74C49.9873 77.74 51.72 76.0073 51.72 73.87C51.72 71.7327 49.9873 70 47.85 70C45.7126 70 43.98 71.7327 43.98 73.87C43.98 76.0073 45.7126 77.74 47.85 77.74Z" fill="#1C0A4D"/>
<path d="M60.83 77.74C62.9673 77.74 64.7 76.0073 64.7 73.87C64.7 71.7327 62.9673 70 60.83 70C58.6926 70 56.96 71.7327 56.96 73.87C56.96 76.0073 58.6926 77.74 60.83 77.74Z" fill="#1C0A4D"/>
<path d="M517 93H0V96H517V93Z" fill="#FF8C05"/>
<rect x="1.5" y="48.5" width="514" height="304" rx="18.5" stroke="#FF8C05" stroke-width="3"/>
<rect x="70.5" y="210.903" width="200.733" height="116.693" rx="7.5" stroke="#626FF0" stroke-width="3" stroke-dasharray="6 6"/>
<path d="M113.745 281.983H99.3822C98.074 281.983 97.0134 283.012 97.0134 284.28V298.787C97.0134 300.055 98.074 301.083 99.3822 301.083H113.745C115.053 301.083 116.113 300.055 116.113 298.787V284.28C116.113 283.012 115.053 281.983 113.745 281.983Z" fill="#626FF0"/>
<path d="M139.211 270.523H124.849C123.541 270.523 122.48 271.565 122.48 272.849V298.758C122.48 300.042 123.541 301.083 124.849 301.083H139.211C140.519 301.083 141.58 300.042 141.58 298.758V272.849C141.58 271.565 140.519 270.523 139.211 270.523Z" fill="#FF8C05"/>
<path d="M164.678 271.797H150.316C149.007 271.797 147.947 272.859 147.947 274.169V298.711C147.947 300.021 149.007 301.084 150.316 301.084H164.678C165.986 301.084 167.047 300.021 167.047 298.711V274.169C167.047 272.859 165.986 271.797 164.678 271.797Z" fill="#626FF0"/>
<path d="M190.145 271.797H175.782C174.474 271.797 173.413 272.858 173.413 274.166V298.714C173.413 300.023 174.474 301.084 175.782 301.084H190.145C191.453 301.084 192.513 300.023 192.513 298.714V274.166C192.513 272.858 191.453 271.797 190.145 271.797Z" fill="#626FF0"/>
<path d="M215.611 266.703H201.249C199.94 266.703 198.88 267.763 198.88 269.071V298.715C198.88 300.023 199.94 301.083 201.249 301.083H215.611C216.919 301.083 217.98 300.023 217.98 298.715V269.071C217.98 267.763 216.919 266.703 215.611 266.703Z" fill="#626FF0"/>
<path d="M241.078 259.063H226.715C225.407 259.063 224.347 260.117 224.347 261.417V298.73C224.347 300.03 225.407 301.083 226.715 301.083H241.078C242.386 301.083 243.447 300.03 243.447 298.73V261.417C243.447 260.117 242.386 259.063 241.078 259.063Z" fill="#FF8C05"/>
<rect x="248.767" y="115.403" width="200.733" height="116.693" rx="7.5" stroke="#626FF0" stroke-width="3" stroke-dasharray="6 6"/>
<path d="M302.361 193.533C301.8 193.533 301.231 193.317 300.808 192.877C299.981 192.023 300.006 190.661 300.86 189.833L321.557 169.8C322.411 168.972 323.782 168.998 324.61 169.852C325.438 170.705 325.412 172.068 324.558 172.896L303.861 192.929C303.439 193.334 302.904 193.533 302.361 193.533Z" fill="#626FF0"/>
<path d="M358.916 190.886C358.424 190.886 357.924 190.722 357.519 190.377L337.304 173.233C336.399 172.465 336.287 171.103 337.054 170.197C337.822 169.292 339.184 169.18 340.09 169.947L360.304 187.091C361.21 187.859 361.322 189.221 360.554 190.127C360.132 190.627 359.519 190.886 358.907 190.886H358.916Z" fill="#626FF0"/>
<path d="M375.405 188.833C374.956 188.833 374.508 188.695 374.12 188.41C373.162 187.703 372.964 186.349 373.671 185.392L395.395 156.088C396.102 155.131 397.456 154.933 398.413 155.64C399.37 156.347 399.568 157.701 398.861 158.658L377.138 187.962C376.715 188.531 376.06 188.833 375.405 188.833Z" fill="#626FF0"/>
<path d="M296.091 207.606C290.236 207.606 285.467 202.838 285.467 196.982C285.467 191.126 290.236 186.357 296.091 186.357C301.947 186.357 306.716 191.126 306.716 196.982C306.716 202.838 301.947 207.606 296.091 207.606ZM296.091 190.669C292.607 190.669 289.779 193.498 289.779 196.982C289.779 200.466 292.607 203.295 296.091 203.295C299.575 203.295 302.404 200.466 302.404 196.982C302.404 193.498 299.567 190.669 296.091 190.669Z" fill="#FF8C05"/>
<path d="M331.027 177.122C324.981 177.122 320.066 172.206 320.066 166.161C320.066 160.116 324.981 155.2 331.027 155.2C337.072 155.2 341.987 160.116 341.987 166.161C341.987 172.206 337.072 177.122 331.027 177.122ZM331.027 159.512C327.361 159.512 324.378 162.496 324.378 166.161C324.378 169.826 327.361 172.81 331.027 172.81C334.692 172.81 337.675 169.826 337.675 166.161C337.675 162.496 334.692 159.512 331.027 159.512Z" fill="#FF8C05"/>
<path d="M367.867 204.459C361.882 204.459 357.019 199.586 357.019 193.61C357.019 187.634 361.891 182.761 367.867 182.761C373.844 182.761 378.716 187.634 378.716 193.61C378.716 199.586 373.844 204.459 367.867 204.459ZM367.867 187.065C364.263 187.065 361.33 189.997 361.33 193.601C361.33 197.206 364.263 200.138 367.867 200.138C371.472 200.138 374.404 197.206 374.404 193.601C374.404 189.997 371.472 187.065 367.867 187.065Z" fill="#FF8C05"/>
<path d="M402.501 161.409C408.287 161.409 412.979 156.761 412.979 151.026C412.979 145.291 408.287 140.643 402.501 140.643C396.714 140.643 392.023 145.291 392.023 151.026C392.023 156.761 396.714 161.409 402.501 161.409Z" fill="#FF8C05"/>
<defs>
<linearGradient id="paint0_linear_508_507" x1="470.57" y1="22.3657" x2="521.381" y2="73.6223" gradientUnits="userSpaceOnUse">
<stop offset="0.00520833" stop-color="#FF8C05"/>
<stop offset="0.739583" stop-color="#CE2726"/>
</linearGradient>
</defs>
</svg>
