<svg id="ehao34Yfim51" xmlns="http://www.w3.org/2000/svg" xmlns:xlink="http://www.w3.org/1999/xlink" viewBox="0 0 664 386" shape-rendering="geometricPrecision" text-rendering="geometricPrecision"><defs><linearGradient id="ehao34Yfim510-fill" x1="-50.43" y1="-14.6343" x2="0.381" y2="36.6223" spreadMethod="pad" gradientUnits="userSpaceOnUse" gradientTransform="translate(0 0)"><stop id="ehao34Yfim510-fill-0" offset="0.520833%" stop-color="#ff8c05"/><stop id="ehao34Yfim510-fill-1" offset="73.9583%" stop-color="#ce2726"/></linearGradient></defs><path d="M567,110h-511.5v-29.5l2.5-9c5.2697-4.2586,8-5.4886,12.5-6h462.5h22.5L567,74v36Z" fill="#ff8c05"/><path d="M519.43,92.4102h-71.93c-1.38,0-2.5-1.12-2.5-2.5s1.12-2.5,2.5-2.5h71.93c1.38,0,2.5,1.12,2.5,2.5s-1.11,2.5-2.5,2.5Z" fill="#1c0a4d"/><path d="M87.87,93.74c2.1373,0,3.87-1.7327,3.87-3.87s-1.7327-3.87-3.87-3.87-3.87,1.7327-3.87,3.87s1.7327,3.87,3.87,3.87Z" fill="#1c0a4d"/><path d="M100.85,93.74c2.137,0,3.87-1.7327,3.87-3.87s-1.733-3.87-3.87-3.87c-2.1374,0-3.87,1.7327-3.87,3.87s1.7326,3.87,3.87,3.87Z" fill="#1c0a4d"/><path d="M113.83,93.74c2.137,0,3.87-1.7327,3.87-3.87s-1.733-3.87-3.87-3.87-3.87,1.7327-3.87,3.87s1.733,3.87,3.87,3.87Z" fill="#1c0a4d"/><path d="M570,109h-517v3h517v-3Z" fill="#ff8c05"/><rect width="514" height="304" rx="18.5" ry="18.5" transform="translate(54.5 64.5)" fill="none" stroke="#ff8c05" stroke-width="3"/><g id="ehao34Yfim59" transform="matrix(0 0 0 0 574 53)"><circle r="37" transform="translate(574 53)" fill="url(#ehao34Yfim510-fill)"/><path d="M566.555,66v-4.025l7.84-8.155c.98-1.0267,1.692-1.9367,2.135-2.73s.665-1.61.665-2.45c0-1.05-.338-1.8433-1.015-2.38s-1.645-.805-2.905-.805c-1.05,0-2.088.1983-3.115.595-1.003.3733-1.995.9567-2.975,1.75l-1.715-3.99c1.027-.8867,2.298-1.5867,3.815-2.1s3.092-.77,4.725-.77c2.753,0,4.865.6183,6.335,1.855c1.47,1.2133,2.205,2.9517,2.205,5.215c0,1.5167-.35,2.9633-1.05,4.34s-1.832,2.835-3.395,4.375l-6.3,6.195v-1.4h11.69v4.48h-16.94Z" fill="#fff"/></g><rect id="ehao34Yfim512" width="200.733" height="116.693" rx="7.5" ry="7.5" transform="matrix(0 0 0 0 223.866501 285.249504)" fill="none" stroke="#626ff0" stroke-width="3" stroke-dasharray="6,6"/><path id="ehao34Yfim513" d="M166.745,297.983h-14.363c-1.308,0-2.369,1.029-2.369,2.297v14.507c0,1.268,1.061,2.296,2.369,2.296h14.363c1.308,0,2.368-1.028,2.368-2.296v-14.507c0-1.268-1.06-2.297-2.368-2.297Z" transform="matrix(1 0 0 0 0 317.084)" fill="#626ff0"/><path id="ehao34Yfim514" d="M192.211,286.523h-14.362c-1.308,0-2.369,1.042-2.369,2.326v25.909c0,1.284,1.061,2.325,2.369,2.325h14.362c1.308,0,2.369-1.041,2.369-2.325v-25.909c0-1.284-1.061-2.326-2.369-2.326Z" transform="matrix(1 0 0 0 0 317.083)" fill="#ff8c05"/><path id="ehao34Yfim515" d="M217.678,287.797h-14.363c-1.308,0-2.368,1.062-2.368,2.372v24.542c0,1.31,1.06,2.373,2.368,2.373h14.363c1.308,0,2.369-1.063,2.369-2.373v-24.542c0-1.31-1.061-2.372-2.369-2.372Z" transform="matrix(1 0 0 0 0 317.083)" fill="#626ff0"/><path id="ehao34Yfim516" d="M243.145,287.797h-14.363c-1.308,0-2.369,1.061-2.369,2.369v24.548c0,1.309,1.061,2.37,2.369,2.37h14.363c1.308,0,2.368-1.061,2.368-2.37v-24.548c0-1.308-1.06-2.369-2.368-2.369Z" transform="matrix(1 0 0 0 0 317.083)" fill="#626ff0"/><path id="ehao34Yfim517" d="M268.611,282.703h-14.362c-1.308,0-2.369,1.06-2.369,2.368v29.644c0,1.308,1.061,2.368,2.369,2.368h14.362c1.308,0,2.369-1.06,2.369-2.368v-29.644c0-1.308-1.061-2.368-2.369-2.368Z" transform="matrix(1 0 0 0 0 317.083)" fill="#626ff0"/><path id="ehao34Yfim518" d="M294.078,275.063h-14.363c-1.308,0-2.368,1.054-2.368,2.354v37.313c0,1.3,1.06,2.353,2.368,2.353h14.363c1.308,0,2.369-1.053,2.369-2.353v-37.313c0-1.3-1.061-2.354-2.369-2.354Z" transform="matrix(1 0 0 0 0 317.083)" fill="#ff8c05"/><rect id="ehao34Yfim519" width="200.733" height="116.693" rx="7.5" ry="7.5" transform="matrix(0 0 0 0 402.133499 189.749504)" fill="none" stroke="#626ff0" stroke-width="3" stroke-dasharray="6,6"/><path id="ehao34Yfim520" d="M355.361,209.533c-.561,0-1.13-.216-1.552-.656-.828-.854-.802-2.216.051-3.044L374.557,185.8c.854-.828,2.225-.802,3.053.052.828.853.802,2.216-.052,3.044l-20.697,20.033c-.422.405-.957.604-1.5.604Z" opacity="0" fill="#626ff0"/><path id="ehao34Yfim521" d="M411.916,206.886c-.492,0-.992-.164-1.397-.509l-20.214-17.144c-.906-.768-1.018-2.13-.251-3.036.768-.905,2.13-1.017,3.036-.25l20.214,17.144c.906.768,1.018,2.13.25,3.036-.422.5-1.035.759-1.647.759h.009Z" opacity="0" fill="#626ff0"/><path id="ehao34Yfim522" d="M428.405,204.833c-.449,0-.897-.138-1.285-.423-.958-.707-1.156-2.061-.449-3.018l21.724-29.304c.707-.957,2.061-1.155,3.018-.448s1.156,2.061.448,3.018l-21.723,29.304c-.423.569-1.078.871-1.733.871Z" opacity="0" fill="#626ff0"/><path id="ehao34Yfim523" d="M349.091,223.606c-5.855,0-10.624-4.768-10.624-10.624s4.769-10.625,10.624-10.625c5.856,0,10.625,4.769,10.625,10.625s-4.769,10.624-10.625,10.624Zm0-16.937c-3.484,0-6.312,2.829-6.312,6.313s2.828,6.313,6.312,6.313s6.313-2.829,6.313-6.313-2.837-6.313-6.313-6.313Z" transform="matrix(0 0 0 0 349.091507 212.981499)" fill="#ff8c05"/><path id="ehao34Yfim524" d="M384.027,193.122c-6.046,0-10.961-4.916-10.961-10.961s4.915-10.961,10.961-10.961c6.045,0,10.96,4.916,10.96,10.961s-4.915,10.961-10.96,10.961Zm0-17.61c-3.666,0-6.649,2.984-6.649,6.649s2.983,6.649,6.649,6.649c3.665,0,6.649-2.984,6.649-6.649s-2.984-6.649-6.649-6.649Z" transform="matrix(0 0 0 0 384.026505 182.160995)" fill="#ff8c05"/><path id="ehao34Yfim525" d="M420.867,220.459c-5.985,0-10.849-4.873-10.849-10.849s4.873-10.849,10.849-10.849c5.977,0,10.849,4.873,10.849,10.849s-4.872,10.849-10.849,10.849Zm0-17.394c-3.605,0-6.537,2.932-6.537,6.536c0,3.605,2.932,6.537,6.537,6.537s6.537-2.932,6.537-6.537c0-3.604-2.932-6.536-6.537-6.536Z" transform="matrix(0 0 0 0 420.867004 209.610001)" fill="#ff8c05"/><path id="ehao34Yfim526" d="M455.501,177.409c5.786,0,10.478-4.648,10.478-10.383s-4.692-10.383-10.478-10.383c-5.787,0-10.478,4.648-10.478,10.383s4.691,10.383,10.478,10.383Z" transform="matrix(0 0 0 0 455.501007 167.026001)" fill="#ff8c05"/>

</svg>
