<svg width="517" height="307" viewBox="0 0 517 307" fill="none" xmlns="http://www.w3.org/2000/svg">
<path d="M514 47H2.5V17.5L5 8.5C10.2697 4.24141 13 3.01143 17.5 2.5H480H502.5L514 11V47Z" fill="#FF8C05"/>
<path d="M466.43 29.4102H394.5C393.12 29.4102 392 28.2902 392 26.9102C392 25.5302 393.12 24.4102 394.5 24.4102H466.43C467.81 24.4102 468.93 25.5302 468.93 26.9102C468.93 28.2902 467.82 29.4102 466.43 29.4102Z" fill="#1C0A4D"/>
<path d="M34.87 30.74C37.0073 30.74 38.74 29.0073 38.74 26.87C38.74 24.7327 37.0073 23 34.87 23C32.7327 23 31 24.7327 31 26.87C31 29.0073 32.7327 30.74 34.87 30.74Z" fill="#1C0A4D"/>
<path d="M47.85 30.74C49.9873 30.74 51.72 29.0073 51.72 26.87C51.72 24.7327 49.9873 23 47.85 23C45.7126 23 43.98 24.7327 43.98 26.87C43.98 29.0073 45.7126 30.74 47.85 30.74Z" fill="#1C0A4D"/>
<path d="M60.83 30.74C62.9673 30.74 64.7 29.0073 64.7 26.87C64.7 24.7327 62.9673 23 60.83 23C58.6926 23 56.96 24.7327 56.96 26.87C56.96 29.0073 58.6926 30.74 60.83 30.74Z" fill="#1C0A4D"/>
<path d="M517 46H0V49H517V46Z" fill="#FF8C05"/>
<path d="M360.331 101.947C354.397 94.1233 343.276 92.6068 335.452 98.5189C327.628 104.431 326.111 115.574 332.023 123.398C337.957 131.222 349.078 132.738 356.902 126.826C364.704 120.914 366.243 109.772 360.331 101.947ZM353.496 122.343C348.155 126.387 340.551 125.354 336.485 120.013C332.441 114.673 333.474 107.068 338.814 103.002C344.155 98.9585 351.759 99.9914 355.825 105.332C359.891 110.695 358.836 118.299 353.496 122.343Z" fill="#FF8C05"/>
<path d="M357.161 124.408L354.429 126.479L357.257 130.21L359.989 128.138L357.161 124.408Z" fill="#FF8C05"/>
<path d="M378.198 152.365L375.692 154.256C374.681 155.025 373.253 154.827 372.484 153.816L356.945 133.311C356.176 132.3 356.374 130.871 357.385 130.102L359.89 128.212C360.901 127.443 362.33 127.64 363.099 128.651L378.637 149.157C379.385 150.168 379.187 151.596 378.198 152.365Z" fill="#FF8C05"/>
<path d="M378.726 149.288L377.869 148.167L371.935 153.112L372.572 153.948C373.298 154.915 374.682 155.09 375.649 154.365L378.309 152.343C379.276 151.618 379.451 150.255 378.726 149.288Z" fill="#FF8C05"/>
<path d="M356.88 133.244L358.067 134.827L364.001 129.882L363.034 128.585C362.309 127.618 360.924 127.442 359.957 128.167L357.298 130.189C356.331 130.893 356.155 132.277 356.88 133.244Z" fill="#FF8C05"/>
<path d="M229.057 213.2H119.058V224.189H229.057V213.2Z" fill="#626FF0"/>
<path d="M245.409 240.585H119.058V251.574H245.409V240.585Z" fill="#626FF0"/>
<path d="M211.475 268.805H119.058V279.794H211.475V268.805Z" fill="#626FF0"/>
<path d="M94.2447 224.585C97.789 224.585 100.662 221.712 100.662 218.168C100.662 214.623 97.789 211.75 94.2447 211.75C90.7004 211.75 87.8271 214.623 87.8271 218.168C87.8271 221.712 90.7004 224.585 94.2447 224.585Z" fill="#626FF0"/>
<path d="M94.2447 252.629C97.789 252.629 100.662 249.756 100.662 246.211C100.662 242.667 97.789 239.794 94.2447 239.794C90.7004 239.794 87.8271 242.667 87.8271 246.211C87.8271 249.756 90.7004 252.629 94.2447 252.629Z" fill="#626FF0"/>
<path d="M94.2447 279.574C97.789 279.574 100.662 276.701 100.662 273.156C100.662 269.612 97.789 266.739 94.2447 266.739C90.7004 266.739 87.8271 269.612 87.8271 273.156C87.8271 276.701 90.7004 279.574 94.2447 279.574Z" fill="#626FF0"/>
<path d="M239.189 176.849H87.1465C83.8278 176.849 81.1245 174.167 81.1245 170.827V73.333C81.1245 70.0143 83.8058 67.311 87.1465 67.311H239.189C242.508 67.311 245.211 69.9923 245.211 73.333V170.827C245.189 174.167 242.508 176.849 239.189 176.849Z" fill="#626FF0"/>
<path d="M431.847 179.047H423.121V174.651H431.781L431.847 179.047ZM414.462 179.047H405.803V174.651H414.462V179.047ZM397.143 179.047H388.484V174.651H397.143V179.047ZM379.825 179.047H371.166V174.651H379.825V179.047ZM362.506 179.047H353.847V174.651H362.506V179.047ZM345.188 179.047H336.529V174.651H345.188V179.047ZM327.869 179.047H319.21V174.651H327.869V179.047ZM310.551 179.047H301.891V174.651H310.551V179.047ZM293.232 179.047H284.573V174.651H293.232V179.047ZM274.859 177.465C272.749 175.926 271.496 173.443 271.496 170.849V167.838H275.892V170.849C275.892 172.08 276.463 173.201 277.452 173.926L274.859 177.465ZM439.912 171.816L435.539 171.311C435.561 171.157 435.561 171.003 435.561 170.849V162.915H439.956V170.849C439.978 171.179 439.956 171.509 439.912 171.816ZM275.914 159.179H271.518V150.52H275.914V159.179ZM439.978 154.256H435.583V145.597H439.978V154.256ZM275.914 141.86H271.518V133.201H275.914V141.86ZM439.978 136.937H435.583V128.278H439.978V136.937ZM275.914 124.542H271.518V115.883H275.914V124.542ZM439.978 119.619H435.583V110.96H439.978V119.619ZM275.914 107.223H271.518V98.5641H275.914V107.223ZM439.978 102.3H435.583V93.641H439.978V102.3ZM275.914 89.9048H271.518V81.2455H275.914V89.9048ZM439.978 84.9818H435.583V76.3225H439.978V84.9818ZM275.936 72.872L271.584 72.3225C272.089 68.2566 275.584 65.1577 279.672 65.1357L279.694 69.5313C277.782 69.5533 276.177 70.9819 275.936 72.872ZM434 70.2566C433.341 69.7951 432.572 69.5313 431.759 69.5313H426.858V65.1357H431.759C433.495 65.1357 435.165 65.6852 436.572 66.6962L434 70.2566ZM418.22 69.5313H409.561V65.1357H418.22V69.5313ZM400.902 69.5313H392.242V65.1357H400.902V69.5313ZM383.583 69.5313H374.924V65.1357H383.583V69.5313ZM366.265 69.5313H357.605V65.1357H366.265V69.5313ZM348.946 69.5313H340.287V65.1357H348.946V69.5313ZM331.628 69.5313H322.968V65.1357H331.628V69.5313ZM314.309 69.5313H305.65V65.1357H314.309V69.5313ZM296.99 69.5313H288.331V65.1357H296.99V69.5313Z" fill="#626FF0"/>
<path d="M431.847 289.793H422.923V285.398H431.781L431.847 289.793ZM414.066 289.793H405.209V285.398H414.066V289.793ZM396.374 289.793H387.517V285.398H396.374V289.793ZM378.682 289.793H369.825V285.398H378.682V289.793ZM360.968 289.793H352.111V285.398H360.968V289.793ZM343.276 289.793H334.419V285.398H343.276V289.793ZM325.584 289.793H316.727V285.398H325.584V289.793ZM307.891 289.793H299.034V285.398H307.891V289.793ZM290.177 289.793H281.32V285.398H290.177V289.793ZM272.046 284.541C271.672 283.596 271.496 282.607 271.496 281.574V274.936H275.892V281.574C275.892 282.057 275.98 282.519 276.133 282.936L272.046 284.541ZM439.956 282.299L435.583 281.925C435.583 281.815 435.605 281.706 435.605 281.596V273.266H440V281.596C439.978 281.815 439.956 282.057 439.956 282.299ZM275.914 266.101H271.518V257.244H275.914V266.101ZM439.978 264.409H435.583V255.552H439.978V264.409ZM275.914 248.409H271.518V239.552H275.914V248.409ZM439.978 246.717H435.583V237.86H439.978V246.717ZM275.914 230.695H271.518V221.838H275.914V230.695ZM439.978 229.003H435.583V220.146H439.978V229.003ZM275.914 213.201L271.54 212.805C271.936 208.585 275.43 205.376 279.672 205.354L279.694 209.75C277.716 209.772 276.111 211.245 275.914 213.201ZM435.319 212.168C434.748 210.695 433.341 209.75 431.759 209.75H430.11V205.354H431.759C435.165 205.354 438.154 207.398 439.407 210.563L435.319 212.168ZM421.275 209.75H412.418V205.354H421.275V209.75ZM403.561 209.75H394.704V205.354H403.561V209.75ZM385.869 209.75H377.012V205.354H385.869V209.75ZM368.177 209.75H359.32V205.354H368.177V209.75ZM350.484 209.75H341.627V205.354H350.484V209.75ZM332.77 209.75H323.913V205.354H332.77V209.75ZM315.078 209.75H306.221V205.354H315.078V209.75ZM297.386 209.75H288.529V205.354H297.386V209.75Z" fill="#626FF0"/>
<path d="M364.066 265.245C364.066 266.585 364.066 267.772 364.066 269.069C358.681 269.069 353.385 269.069 347.978 269.069C347.978 267.816 347.978 266.585 347.978 265.245C348.462 265.223 348.923 265.179 349.363 265.157C352.396 265.091 354 263.486 354 260.453C354.022 252.651 354 244.827 354 237.025C354 235.552 354 234.058 354 232.563C351.758 232.563 349.626 232.388 347.538 232.629C346.066 232.783 345.231 234.014 344.747 235.443C343.582 238.761 343.56 238.739 340.132 238.454C340.044 238.454 339.956 238.388 339.78 238.322C339.78 235.069 339.78 231.794 339.78 228.454C350.615 228.454 361.363 228.454 372.242 228.454C372.242 231.75 372.242 235.025 372.242 238.497C371.099 238.497 370 238.541 368.923 238.476C368.637 238.454 368.351 238.124 368.088 237.926C368.022 237.882 368.022 237.75 368 237.662C366.725 231.838 364.374 232.124 358 232.563C358 233.091 358 233.618 358 234.168C358 242.761 358 251.377 358 259.97C358 263.662 359.406 265.069 363.121 265.179C363.384 265.179 363.648 265.223 364.066 265.245Z" fill="#FF8C05"/>
<rect x="1.5" y="1.5" width="514" height="304" rx="18.5" stroke="#FF8C05" stroke-width="3"/>
</svg>
