<svg width="517" height="307" viewBox="0 0 517 307" fill="none" xmlns="http://www.w3.org/2000/svg">
<path d="M514 47H2.5V17.5L5 8.5C10.2697 4.24141 13 3.01143 17.5 2.5H480H502.5L514 11V47Z" fill="#FF8C05"/>
<path d="M466.43 29.4102H394.5C393.12 29.4102 392 28.2902 392 26.9102C392 25.5302 393.12 24.4102 394.5 24.4102H466.43C467.81 24.4102 468.93 25.5302 468.93 26.9102C468.93 28.2902 467.82 29.4102 466.43 29.4102Z" fill="#1C0A4D"/>
<path d="M34.87 30.74C37.0073 30.74 38.74 29.0073 38.74 26.87C38.74 24.7327 37.0073 23 34.87 23C32.7327 23 31 24.7327 31 26.87C31 29.0073 32.7327 30.74 34.87 30.74Z" fill="#1C0A4D"/>
<path d="M47.85 30.74C49.9873 30.74 51.72 29.0073 51.72 26.87C51.72 24.7327 49.9873 23 47.85 23C45.7126 23 43.98 24.7327 43.98 26.87C43.98 29.0073 45.7126 30.74 47.85 30.74Z" fill="#1C0A4D"/>
<path d="M60.83 30.74C62.9673 30.74 64.7 29.0073 64.7 26.87C64.7 24.7327 62.9673 23 60.83 23C58.6926 23 56.96 24.7327 56.96 26.87C56.96 29.0073 58.6926 30.74 60.83 30.74Z" fill="#1C0A4D"/>
<path d="M517 46H0V49H517V46Z" fill="#FF8C05"/>
<rect x="1.5" y="1.5" width="514" height="304" rx="18.5" stroke="#FF8C05" stroke-width="3"/>
</svg>
