<svg width="558" height="354" viewBox="0 0 558 354" fill="none" xmlns="http://www.w3.org/2000/svg">
<path d="M514 94H2.5V64.5L5 55.5C10.2697 51.2414 13 50.0114 17.5 49.5H480H502.5L514 58V94Z" fill="#FF8C05"/>
<path d="M466.43 76.4102H394.5C393.12 76.4102 392 75.2902 392 73.9102C392 72.5302 393.12 71.4102 394.5 71.4102H466.43C467.81 71.4102 468.93 72.5302 468.93 73.9102C468.93 75.2902 467.82 76.4102 466.43 76.4102Z" fill="#1C0A4D"/>
<path d="M34.87 77.74C37.0073 77.74 38.74 76.0073 38.74 73.87C38.74 71.7327 37.0073 70 34.87 70C32.7327 70 31 71.7327 31 73.87C31 76.0073 32.7327 77.74 34.87 77.74Z" fill="#1C0A4D"/>
<path d="M47.85 77.74C49.9873 77.74 51.72 76.0073 51.72 73.87C51.72 71.7327 49.9873 70 47.85 70C45.7126 70 43.98 71.7327 43.98 73.87C43.98 76.0073 45.7126 77.74 47.85 77.74Z" fill="#1C0A4D"/>
<path d="M60.83 77.74C62.9673 77.74 64.7 76.0073 64.7 73.87C64.7 71.7327 62.9673 70 60.83 70C58.6926 70 56.96 71.7327 56.96 73.87C56.96 76.0073 58.6926 77.74 60.83 77.74Z" fill="#1C0A4D"/>
<path d="M517 93H0V96H517V93Z" fill="#FF8C05"/>
<rect x="1.5" y="48.5" width="514" height="304" rx="18.5" stroke="#FF8C05" stroke-width="3"/>
<defs>
<linearGradient id="paint0_linear_508_525" x1="470.57" y1="22.3657" x2="521.381" y2="73.6223" gradientUnits="userSpaceOnUse">
<stop offset="0.00520833" stop-color="#FF8C05"/>
<stop offset="0.739583" stop-color="#CE2726"/>
</linearGradient>
</defs>
</svg>
